<?xml version="1.0" encoding="utf-8"?>
<!-- Generator: Adobe Illustrator 26.0.1, SVG Export Plug-In . SVG Version: 6.00 Build 0)  -->
<svg version="1.1" id="Layer_1" xmlns="http://www.w3.org/2000/svg" xmlns:xlink="http://www.w3.org/1999/xlink" x="0px" y="0px"
	 viewBox="0 0 100 100" style="enable-background:new 0 0 100 100;" xml:space="preserve">
<style type="text/css">
	.st0{fill:#231F20;}
</style>
<path class="st0" d="M94,0H6C2.7,0,0,2.7,0,6v88c0,3.3,2.7,6,6,6h88c3.3,0,6-2.7,6-6V6C100,2.7,97.3,0,94,0z M86.3,26L50,49.6
	L13.7,26H86.3z M90,76c0,1.1-0.9,2-2,2H12c-1.1,0-2-0.9-2-2V28.4l40,26l40-26V76z"/>
</svg>
