<?xml version="1.0" encoding="utf-8"?>
<!-- Generator: Adobe Illustrator 26.0.1, SVG Export Plug-In . SVG Version: 6.00 Build 0)  -->
<svg version="1.1" id="Layer_1" xmlns="http://www.w3.org/2000/svg" xmlns:xlink="http://www.w3.org/1999/xlink" x="0px" y="0px"
	 viewBox="0 0 370.8 118" style="enable-background:new 0 0 370.8 118;" xml:space="preserve">
<style type="text/css">
	.st0{fill:#F7931E;}
</style>
<g>
	<path class="st0" d="M53.9,55.3H109V0.9c0-0.4-0.3-0.7-0.7-0.7H53.9V55.3z M107.5,53.8H55.3V1.7h52.1v52.1H107.5z"/>
	<path class="st0" d="M107.5,55.3h55.4c0.7,0,1-0.8,0.5-1.3L108.8,0.5c-0.5-0.5-1.3-0.1-1.3,0.5V55.3z M161.2,53.8H109V2.7
		L161.2,53.8z"/>
	<path class="st0" d="M135.6,83.2l27.9-28.1c0.5-0.5,0.1-1.3-0.5-1.3h-55v1.5L135.6,83.2z M161.2,55.3l-25.6,25.8L110,55.3H161.2z"
		/>
	<path class="st0" d="M109.3,109.7l27.3-27.5l-28.7-28.9v55.9C107.9,109.8,108.8,110.2,109.3,109.7z M134.5,82.1l-25.2,25.4V56.8
		L134.5,82.1z"/>
	<path class="st0" d="M1.2,110H109l0.2-0.3c0.5-0.5,0.5-0.5-8.5-9.6c-5.1-5.1-11.8-12-18.6-18.8C68.6,67.7,55.1,54,55.1,54l-0.5-0.5
		l-54,55.1C0.1,109.1,0.4,110,1.2,110z M106.9,108.5H2.7l51.9-53C71.2,72.4,100.7,102.2,106.9,108.5z"/>
	<path class="st0" d="M55.3,56.3V0.2h-54c-1,0-1.5,1.2-0.8,1.9L55.3,56.3z M53.9,1.7v51.1L2.2,1.7H53.9z"/>
</g>
<g>
	<path class="st0" d="M207.4,38.3c-4.5,1.2-8.4,1.8-11.7,1.8c-6.2,0-11-1.6-14.4-4.9c-3.3-3.3-5-8-5-14.1c0-6.1,1.7-10.7,5-14
		c3.3-3.3,8.1-4.9,14.3-4.9c4,0,7.9,0.5,11.8,1.4v5.9c-4.5-1.5-8.2-2.3-11.1-2.3c-3.8,0-6.8,1.2-8.9,3.7c-2.1,2.4-3.1,5.9-3.1,10.4
		c0,4.3,1.1,7.7,3.3,10.2c2.2,2.5,5.3,3.7,9.2,3.7c0.9,0,1.9-0.1,3-0.4V22.8h7.5V38.3z"/>
	<path class="st0" d="M215.8,39.2V12.4h7.2v5.1c1.9-3.8,4.7-5.7,8.5-5.7c0.5,0,0.9,0,1.3,0.1v6.4c-1-0.4-2-0.6-2.9-0.6
		c-2.9,0-5.2,1.5-7,4.4v17H215.8z"/>
	<path class="st0" d="M251.7,36.3c-2.4,2.3-5,3.5-7.7,3.5c-2.3,0-4.2-0.7-5.7-2.1c-1.5-1.4-2.2-3.3-2.2-5.6c0-3,1.2-5.2,3.6-6.8
		c2.4-1.6,5.8-2.4,10.2-2.4h1.9v-2.4c0-2.8-1.6-4.2-4.8-4.2c-2.8,0-5.7,0.8-8.5,2.4v-5c3.3-1.2,6.5-1.9,9.7-1.9
		c7,0,10.5,2.8,10.5,8.4V32c0,2.1,0.7,3.1,2,3.1c0.2,0,0.6,0,1-0.1l0.2,4.1c-1.5,0.5-2.9,0.7-4.1,0.7c-3,0-4.9-1.2-5.7-3.5H251.7z
		 M251.7,32.4V27h-1.7c-4.7,0-7,1.5-7,4.4c0,1,0.3,1.8,1,2.5c0.7,0.7,1.5,1,2.5,1C248.1,34.9,249.9,34.1,251.7,32.4z"/>
	<path class="st0" d="M267.9,48.8V12.4h7.2v5.1c1.9-3.8,4.8-5.7,8.8-5.7c3.2,0,5.8,1.2,7.6,3.5c1.8,2.4,2.8,5.6,2.8,9.7
		c0,4.5-1,8.1-3.1,10.7c-2.1,2.7-4.9,4-8.4,4c-2.8,0-5.4-1.1-7.6-3.3v12.4H267.9z M275.1,32.2c1.8,2,3.6,2.9,5.6,2.9
		c1.8,0,3.2-0.9,4.2-2.6c1.1-1.7,1.6-4,1.6-6.9c0-5.5-1.8-8.2-5.3-8.2c-2.1,0-4.2,1.4-6.2,4.1V32.2z"/>
	<path class="st0" d="M301,39.2V0.6h7.2v16.8c2.4-3.8,5.4-5.7,9.1-5.7c2.4,0,4.3,0.8,5.7,2.3c1.4,1.5,2.1,3.6,2.1,6.2v18.9h-7.2V22
		c0-3-1-4.6-3-4.6c-2.3,0-4.5,1.6-6.6,4.9v16.9H301z"/>
	<path class="st0" d="M333.9,7.9v-6h7.2v6H333.9z M333.9,39.2V12.4h7.2v26.8H333.9z"/>
	<path class="st0" d="M369.9,38.6c-3,0.8-5.8,1.2-8.3,1.2c-4.3,0-7.7-1.3-10.1-3.8c-2.5-2.5-3.7-5.9-3.7-10.3
		c0-4.4,1.3-7.8,3.8-10.3c2.6-2.5,6.1-3.7,10.6-3.7c2.2,0,4.7,0.4,7.5,1V18c-3-1-5.3-1.4-7.1-1.4c-2.2,0-3.9,0.8-5.2,2.5
		s-2,3.9-2,6.6c0,2.8,0.7,5.1,2.1,6.8c1.4,1.7,3.3,2.5,5.7,2.5c2.2,0,4.4-0.5,6.7-1.4V38.6z"/>
	<path class="st0" d="M178.5,99.2V63h15.6c5.6,0,9.9,1.5,12.9,4.5c3,3,4.5,7.3,4.5,12.9c0,6-1.6,10.6-4.7,13.9
		c-3.2,3.3-7.6,4.9-13.3,4.9H178.5z M186,94.1h5.6c4,0,6.9-1.1,8.9-3.3c1.9-2.2,2.9-5.5,2.9-10c0-3.5-0.8-6.3-2.3-8.6
		c-1.1-1.6-2.4-2.7-3.9-3.3c-1.5-0.6-3.7-0.9-6.6-0.9H186V94.1z"/>
	<path class="st0" d="M240,98.3c-3.4,1-6.7,1.5-9.8,1.5c-4.5,0-8-1.3-10.6-3.8s-3.9-6-3.9-10.4c0-4.2,1.2-7.5,3.6-10
		c2.4-2.5,5.5-3.8,9.4-3.8c3.9,0,6.8,1.2,8.6,3.7c1.8,2.5,2.7,6.4,2.7,11.7h-16.6c0.5,5.1,3.3,7.7,8.4,7.7c2.4,0,5.2-0.6,8.2-1.7
		V98.3z M223.3,83.1h9.6c0-4.6-1.5-6.9-4.4-6.9C225.5,76.3,223.7,78.6,223.3,83.1z"/>
	<path class="st0" d="M246.7,98.3V93c3.6,1.5,6.6,2.2,9.2,2.2c3,0,4.4-1,4.4-3c0-1.3-1.2-2.4-3.7-3.4l-2.4-1
		c-2.7-1.1-4.5-2.2-5.7-3.5c-1.1-1.2-1.7-2.8-1.7-4.6c0-2.5,1-4.5,2.9-5.9c1.9-1.4,4.6-2.1,8.1-2.1c2.2,0,4.8,0.3,7.8,1v5.1
		c-2.9-1-5.3-1.5-7.2-1.5c-3,0-4.5,0.9-4.5,2.8c0,1.2,1.1,2.3,3.3,3.1l2.1,0.8c3.1,1.2,5.3,2.4,6.6,3.6c1.2,1.2,1.8,2.8,1.8,4.7
		c0,2.5-1,4.6-3.1,6.1c-2.1,1.6-4.8,2.4-8.2,2.4C253.3,99.8,250,99.3,246.7,98.3z"/>
	<path class="st0" d="M275.7,67.9v-6h7.2v6H275.7z M275.7,99.2V72.4h7.2v26.8H275.7z"/>
	<path class="st0" d="M292.2,107.5l0.6-5.2c3,1.4,5.8,2.1,8.5,2.1c2.7,0,4.6-0.6,5.8-1.7c1.2-1.1,1.8-3,1.8-5.5v-3.7
		c-1.8,3.9-4.7,5.8-8.7,5.8c-3.2,0-5.7-1.2-7.6-3.6c-1.9-2.4-2.8-5.6-2.8-9.7c0-4.3,1-7.7,3.1-10.3c2.1-2.6,4.9-3.9,8.4-3.9
		c2.7,0,5.3,1.1,7.6,3.3l0.8-2.7h6.5v20.5c0,4.1-0.2,7-0.7,8.8c-0.5,1.8-1.5,3.3-2.9,4.6c-2.4,2.1-5.8,3.1-10.2,3.1
		C299.2,109.4,295.8,108.8,292.2,107.5z M308.9,89.2v-9.9c-1.7-2-3.6-3-5.5-3c-1.8,0-3.3,0.8-4.3,2.5s-1.6,3.9-1.6,6.7
		c0,5.2,1.7,7.9,5.1,7.9C304.8,93.4,306.9,92,308.9,89.2z"/>
	<path class="st0" d="M325,99.2V72.4h7.2v5.1c2.4-3.8,5.4-5.7,9.1-5.7c2.4,0,4.3,0.8,5.7,2.3c1.4,1.5,2.1,3.6,2.1,6.2v18.9h-7.2V82
		c0-3-1-4.6-3-4.6c-2.3,0-4.5,1.6-6.6,4.9v16.9H325z"/>
</g>
</svg>
