<?xml version="1.0" encoding="utf-8"?>
<!-- Generator: Adobe Illustrator 26.0.1, SVG Export Plug-In . SVG Version: 6.00 Build 0)  -->
<svg version="1.1" id="Layer_1" xmlns="http://www.w3.org/2000/svg" xmlns:xlink="http://www.w3.org/1999/xlink" x="0px" y="0px"
	 viewBox="0 0 100 100" style="enable-background:new 0 0 100 100;" xml:space="preserve">
<style type="text/css">
	.st0{fill:#231F20;}
</style>
<path class="st0" d="M94,0H6C2.7,0,0,2.7,0,6v88c0,3.3,2.7,6,6,6h88c3.3,0,6-2.7,6-6V6C100,2.7,97.3,0,94,0z M81.8,93.5
	c0,1-0.8,1.8-1.8,1.8H20c-1,0-1.8-0.8-1.8-1.8V64.3L50,31.5l31.8,32.8V93.5z M94.7,51.2l-8.4,9.3c-0.6,0.7-1.8,0.7-2.5,0l-2-2v0
	L50,25.8L17.6,59.1l-1.4,1.4c-0.6,0.7-1.8,0.7-2.5,0l-8.4-9.3c-0.7-0.6-0.7-1.8,0-2.5l33-33c0.1-0.1,0.2-0.2,0.3-0.3L48.7,5.2
	c0.4-0.4,0.8-0.5,1.3-0.5s0.9,0.2,1.3,0.5l10.1,10.2c0.1,0.1,0.2,0.2,0.3,0.3l5.2,5.2l4.5-4.5c0.6-0.7,1.8-0.7,2.5,0l6.7,6.7
	c0.7,0.6,0.7,1.8,0,2.5l-4.5,4.5l18.5,18.5C95.4,49.4,95.4,50.6,94.7,51.2z"/>
</svg>
