<?xml version="1.0" encoding="utf-8"?>
<!-- Generator: Adobe Illustrator 26.0.1, SVG Export Plug-In . SVG Version: 6.00 Build 0)  -->
<svg version="1.1" id="Layer_1" xmlns="http://www.w3.org/2000/svg" xmlns:xlink="http://www.w3.org/1999/xlink" x="0px" y="0px"
	 viewBox="0 0 220 117.3" style="enable-background:new 0 0 220 117.3;" xml:space="preserve">
<style type="text/css">
	.st0{fill:#FF5F00;}
	.st1{fill:#FEAE76;}
</style>
<path id="Path_136" class="st0" d="M63.5,5.3L40.4,28.4v53.8l23.1-27.9V5.3z"/>
<path id="Path_137" class="st0" d="M103.9,59.6H64L46.6,82.7h37.1L103.9,59.6z"/>
<path id="Path_138" class="st0" d="M86.2,84.5l23.1,23.1V61.3L86.2,84.5z"/>
<path id="Path_139" class="st0" d="M14.2,4l23.1,23.1L60.4,4H14.2z"/>
<path id="Path_140" class="st0" d="M118.5,111.2c0,0,44.1-32.3,44.1-32.1c0,0.2,44.1,32.1,44.1,32.1S118.5,111.2,118.5,111.2z"/>
<path id="Path_141" class="st0" d="M120.7,7.6c0,0,42,30.3,42,30.2c0-0.2,42-30.2,42-30.2H120.7z"/>
<path id="Path_142" class="st1" d="M11.4,108.5V8.4l25.9,20.8L37,84.5L11.4,108.5z"/>
<path id="Path_143" class="st1" d="M82.2,85.4l24.1,24.9l-92.5-0.9l23.9-24.2L82.2,85.4z"/>
<path id="Path_144" class="st1" d="M208.5,7.6l-1.2,101.7L165.4,76V41.7L208.5,7.6z"/>
<path id="Path_145" class="st1" d="M115.9,7.6v102.7l43-34.2V41.8L115.9,7.6z"/>
</svg>
