<?xml version="1.0" encoding="utf-8"?>
<!-- Generator: Adobe Illustrator 26.0.1, SVG Export Plug-In . SVG Version: 6.00 Build 0)  -->
<svg version="1.1" id="Layer_1" xmlns="http://www.w3.org/2000/svg" xmlns:xlink="http://www.w3.org/1999/xlink" x="0px" y="0px"
	 viewBox="0 0 220 117.3" style="enable-background:new 0 0 220 117.3;" xml:space="preserve">
<style type="text/css">
	.st0{fill:#FF5F00;}
	.st1{fill:#FEAE76;}
	.st2{fill:#FFFFFF;}
</style>
<path id="Path_136" class="st0" d="M58.3,12L37.8,32.1v49.7l20.5-20.1V12z"/>
<path id="Path_137" class="st0" d="M102.7,64.4H61.1L40.6,84.5h41.6L102.7,64.4z"/>
<path id="Path_138" class="st0" d="M85.8,86.5l19.7,19.3V67.1L85.8,86.5z"/>
<path id="Path_139" class="st0" d="M16.3,9.3L36,28.6L55.6,9.3H16.3z"/>
<path id="Path_140" class="st0" d="M121.3,108.7c0,0,40.9-30.5,40.9-30.3s41,30.3,41,30.3S121.3,108.7,121.3,108.7z"/>
<path id="Path_141" class="st0" d="M121.3,9.2c0,0,41,30.5,41,30.3c0-0.2,40.9-30.3,40.9-30.3H121.3z"/>
<path id="Path_142" class="st1" d="M13.4,105.8V11.9l20.5,20.2v53.6L13.4,105.8z"/>
<path id="Path_143" class="st1" d="M82.2,88.5l20.5,20.1H16.2l20.5-20.1H82.2z"/>
<path id="Path_144" class="st1" d="M206.9,11.1v95.6l-42.8-31.6V42.7L206.9,11.1z"/>
<path id="Path_145" class="st1" d="M117.5,11.1v95.6l42.8-31.6V42.7L117.5,11.1z"/>
<path id="Path_146" class="st2" d="M62.5,5.4H9.3v106.5h100.2V60.4H62.4L62.5,5.4z M58.3,61.7L37.8,81.8V32.1L58.3,12V61.7z
	 M85.8,86.5l19.7-19.4v38.7L85.8,86.5z M102.7,108.6H16.2l20.5-20.1h45.5L102.7,108.6z M33.9,32.1v53.6l-20.5,20.1V11.9L33.9,32.1z
	 M16.3,9.3h39.3L36,28.6L16.3,9.3z M102.7,64.4L82.2,84.5H40.6l20.5-20.1H102.7z"/>
<path id="Path_147" class="st2" d="M113.3,5.4v106.5h97.8V5.4H113.3z M160.3,42.7v32.4l-42.8,31.6V11.1L160.3,42.7z M121.3,9.2h81.9
	l-40.9,30.3L121.3,9.2z M162.2,78.4l41,30.3h-81.9L162.2,78.4z M164.1,75.1V42.7l42.8-31.6v95.6L164.1,75.1z"/>
</svg>
