<?xml version="1.0" encoding="utf-8"?>
<!-- Generator: Adobe Illustrator 26.0.1, SVG Export Plug-In . SVG Version: 6.00 Build 0)  -->
<svg version="1.1" id="Layer_1" xmlns="http://www.w3.org/2000/svg" xmlns:xlink="http://www.w3.org/1999/xlink" x="0px" y="0px"
	 viewBox="0 0 100 100" style="enable-background:new 0 0 100 100;" xml:space="preserve">
<style type="text/css">
	.st0{fill:#231F20;}
</style>
<path class="st0" d="M94,0H6C2.7,0,0,2.7,0,6v88c0,3.3,2.7,6,6,6h88c3.3,0,6-2.7,6-6V6C100,2.7,97.3,0,94,0z M88.7,31.9l-52,55.7
	c-0.7,0.8-2,0.8-2.8,0.1L26.8,81l0,0l-3.4-3.2l-3.8-3.5L11.8,67c-0.8-0.7-0.8-2-0.1-2.8L25,50c0.7-0.8,2-0.8,2.8-0.1l12.9,12
	l22.7-24.3l-12.9-12c-0.8-0.7-0.8-2-0.1-2.8L63.7,8.6c0.7-0.8,2-0.8,2.8-0.1l14.3,13.3l0,0l7.9,7.3C89.4,29.9,89.4,31.2,88.7,31.9z"
	/>
</svg>
