<?xml version="1.0" encoding="utf-8"?>
<!-- Generator: Adobe Illustrator 26.0.1, SVG Export Plug-In . SVG Version: 6.00 Build 0)  -->
<svg version="1.1" id="Layer_1" xmlns="http://www.w3.org/2000/svg" xmlns:xlink="http://www.w3.org/1999/xlink" x="0px" y="0px"
	 viewBox="0 0 350 118" style="enable-background:new 0 0 350 118;" xml:space="preserve">
<style type="text/css">
	.st0{fill:#F7931E;}
</style>
<g>
	<path class="st0" d="M53.9,55.3h55.1V0.9c0-0.4-0.3-0.7-0.7-0.7H53.9V55.3z M107.5,53.8H55.3V1.7h52.1V53.8z"/>
	<path class="st0" d="M107.5,55.3h55.4c0.7,0,1-0.8,0.5-1.3L108.8,0.5c-0.5-0.5-1.3-0.1-1.3,0.5V55.3z M161.2,53.8h-52.2V2.7
		L161.2,53.8z"/>
	<path class="st0" d="M135.6,83.2l27.9-28.1c0.5-0.5,0.1-1.3-0.5-1.3h-55v1.5L135.6,83.2z M161.2,55.3l-25.6,25.8l-25.6-25.8H161.2z
		"/>
	<path class="st0" d="M109.3,109.7l27.3-27.5l-28.7-28.9v55.9C107.9,109.8,108.8,110.2,109.3,109.7z M134.5,82.1l-25.2,25.4V56.8
		L134.5,82.1z"/>
	<path class="st0" d="M1.2,110H109l0.2-0.3c0.5-0.5,0.5-0.5-8.5-9.6c-5.1-5.1-11.8-12-18.6-18.8C68.6,67.7,55.1,54,55.1,54l-0.5-0.5
		l-54,55.1C0.1,109.1,0.4,110,1.2,110z M106.9,108.5H2.7l51.9-53C71.2,72.4,100.7,102.2,106.9,108.5z"/>
	<path class="st0" d="M55.3,56.3V0.2h-54c-1,0-1.5,1.2-0.8,1.9L55.3,56.3z M53.9,1.7v51.1L2.2,1.7H53.9z"/>
</g>
<g>
	<path class="st0" d="M182.9,39.2l-9.1-36.4h7.2l6.6,26.6l6.3-26.6h6.3l6,26.5l7-26.5h5.2l-9.5,36.4h-7.2l-5.6-25l-5.9,25H182.9z"/>
	<path class="st0" d="M245.4,38.2c-3.5,1-6.7,1.5-9.8,1.5c-4.5,0-8.1-1.3-10.7-3.8c-2.6-2.6-3.9-6-3.9-10.5c0-4.2,1.2-7.5,3.6-10.1
		c2.4-2.5,5.5-3.8,9.5-3.8c4,0,6.8,1.2,8.7,3.7c1.8,2.5,2.7,6.4,2.7,11.8h-16.7c0.5,5.1,3.3,7.7,8.5,7.7c2.4,0,5.2-0.6,8.3-1.7V38.2
		z M228.5,23h9.7c0-4.6-1.5-6.9-4.5-6.9C230.7,16.1,229,18.4,228.5,23z"/>
	<path class="st0" d="M252.9,39.2V0.3h7.3v16.9c1.9-3.8,4.8-5.7,8.8-5.7c3.2,0,5.8,1.2,7.7,3.6c1.9,2.4,2.8,5.6,2.8,9.8
		c0,4.5-1,8.1-3.1,10.8c-2.1,2.7-4.9,4-8.4,4c-3,0-5.6-1.1-7.7-3.3l-1.4,2.7H252.9z M260.2,32.1c1.8,2,3.7,3,5.7,3
		c1.8,0,3.2-0.9,4.3-2.6c1.1-1.7,1.6-4,1.6-6.9c0-5.5-1.8-8.3-5.3-8.3c-2.1,0-4.2,1.4-6.2,4.2V32.1z"/>
	<path class="st0" d="M177.9,99.6V63.2h15.7c5.6,0,10,1.5,13,4.5c3,3,4.5,7.3,4.5,12.9c0,6-1.6,10.7-4.8,14c-3.2,3.3-7.6,5-13.4,5
		H177.9z M185.4,94.4h5.7c4,0,7-1.1,8.9-3.3s2.9-5.6,2.9-10c0-3.5-0.8-6.4-2.4-8.7c-1.1-1.6-2.4-2.7-3.9-3.3s-3.7-0.9-6.7-0.9h-4.6
		V94.4z"/>
	<path class="st0" d="M239.8,98.7c-3.5,1-6.7,1.5-9.8,1.5c-4.5,0-8.1-1.3-10.7-3.8c-2.6-2.6-3.9-6-3.9-10.5c0-4.2,1.2-7.5,3.6-10.1
		c2.4-2.5,5.5-3.8,9.5-3.8c4,0,6.8,1.2,8.7,3.7c1.8,2.5,2.7,6.4,2.7,11.8H223c0.5,5.1,3.3,7.7,8.5,7.7c2.4,0,5.2-0.6,8.3-1.7V98.7z
		 M222.9,83.4h9.7c0-4.6-1.5-6.9-4.5-6.9C225.2,76.5,223.4,78.8,222.9,83.4z"/>
	<path class="st0" d="M246.6,98.7v-5.3c3.6,1.5,6.7,2.3,9.2,2.3c3,0,4.5-1,4.5-3c0-1.3-1.2-2.5-3.7-3.4l-2.5-1
		c-2.7-1.1-4.6-2.2-5.7-3.5c-1.1-1.2-1.7-2.8-1.7-4.6c0-2.6,1-4.5,2.9-6s4.7-2.1,8.2-2.1c2.2,0,4.8,0.3,7.8,1v5.1
		c-2.9-1-5.3-1.5-7.3-1.5c-3,0-4.5,0.9-4.5,2.8c0,1.2,1.1,2.3,3.3,3.1l2.1,0.8c3.2,1.2,5.4,2.4,6.6,3.6c1.2,1.2,1.9,2.8,1.9,4.7
		c0,2.5-1.1,4.6-3.2,6.2c-2.1,1.6-4.8,2.4-8.2,2.4C253.2,100.2,249.9,99.7,246.6,98.7z"/>
	<path class="st0" d="M275.8,68V62h7.3V68H275.8z M275.8,99.6v-27h7.3v27H275.8z"/>
	<path class="st0" d="M292.4,108l0.6-5.3c3,1.4,5.9,2.1,8.6,2.1c2.7,0,4.6-0.6,5.8-1.7s1.8-3,1.8-5.6v-3.7c-1.8,3.9-4.7,5.8-8.8,5.8
		c-3.2,0-5.8-1.2-7.6-3.6c-1.9-2.4-2.8-5.7-2.8-9.8c0-4.3,1.1-7.8,3.2-10.4c2.1-2.6,4.9-3.9,8.4-3.9c2.8,0,5.3,1.1,7.6,3.3l0.8-2.7
		h6.5v20.6c0,4.1-0.3,7.1-0.8,8.9c-0.5,1.8-1.5,3.4-2.9,4.6c-2.4,2.1-5.8,3.1-10.3,3.1C299.4,109.9,296,109.3,292.4,108z
		 M309.2,89.5v-10c-1.8-2-3.6-3-5.5-3c-1.8,0-3.3,0.8-4.4,2.5c-1.1,1.7-1.6,3.9-1.6,6.7c0,5.3,1.7,7.9,5.1,7.9
		C305.1,93.8,307.2,92.4,309.2,89.5z"/>
	<path class="st0" d="M325.4,99.6v-27h7.3v5.1c2.4-3.8,5.4-5.7,9.2-5.7c2.4,0,4.3,0.8,5.7,2.3s2.1,3.6,2.1,6.2v19.1h-7.3V82.3
		c0-3.1-1-4.6-3-4.6c-2.3,0-4.5,1.6-6.7,4.9v17H325.4z"/>
</g>
</svg>
