<?xml version="1.0" encoding="utf-8"?>
<!-- Generator: Adobe Illustrator 26.0.1, SVG Export Plug-In . SVG Version: 6.00 Build 0)  -->
<svg version="1.1" xmlns="http://www.w3.org/2000/svg" xmlns:xlink="http://www.w3.org/1999/xlink" x="0px" y="0px"
	 viewBox="0 0 5442.5 3061.4" style="enable-background:new 0 0 5442.5 3061.4;" xml:space="preserve">
<style type="text/css">
	.st0{fill:#DF8227;}
	.st1{fill:#FFFFFF;}
	.st2{fill:#B61D8F;}
</style>
<g id="Layer_1">
</g>
<g id="Layer_2">
	<g>
		<path class="st0" d="M2299,1249.8c0,0,7,19.5,2.8,23.7c-4.2,4.2-17.6,4.2-23.5,0s-32.6-29.7-32.6-29.7s-74.3-50.3-124.8-41.9
			s-123.6,15.7-129.1,174.1l28.1,137.3l4.2,67.3l-12.6,50.5l-23.2,37l-39.9,21.9c0,0-96.8,46.3-164.1-33.7l16.8-4.2
			c0,0,16.8,8.4,50.5,0c33.7-8.4,37.9-21,37.9-21l15.4-21.1l9.8-29.4l4.2-37.9l-12.6-46.3l-25-52.4l-9.5-94.5l0.9-76.1
			c0,0,6.2-42.7,15.7-59.2c9.5-16.5,39-75.4,97.9-113.3s145.9-39.8,169.7-32.5c23.8,7.3,61.7,3.1,124.8,57.8
			c63.1,54.7,75.7,84.2,75.7,84.2v16.5l-8.4,8.7h-12.6h-8.4l-3.4,9.9l-5,11.2h-8.4L2299,1249.8z"/>
		<path class="st1" d="M2155,1244c-0.6-3.1-5.2-2.6-5.1,0.5c1.1,32.3,4.2,81.4,13.5,100.5c14.4,29.5,68.3,75.7,68.3,101
			s-32.4,75.7-61.2,58.9c-28.8-16.8-23.5-23.7-28.8-21c-8.4,4.2,10.8,36.9,41.4,37.4c30.6,0.5,62.9-50,59.4-79.5
			c-3.6-29.5-69-88.7-71.9-109.4C2168.3,1316.4,2160.5,1273.4,2155,1244z"/>
		<path class="st1" d="M2353.7,1197.6c-48.7-78.9-132.1-137.6-234.8-137.6c-68.4,0-135.1,28-183,76.9
			c-46.9,47.9-72,110.7-70.6,176.7l0,0.7c0.9,44.6,2.4,111.9,34.1,178.8c21.8,46,21.6,110.3-21.1,144.2
			c-30.7,24.4-72.3,20.5-111.4-10.4l-15.2-12.1l8.9,17.3c0.5,0.9,39.7,75.1,124,75.1c17.6,0,37.2-3.2,58.7-11.1
			c110.7-40.1,86.2-156.2,66.6-249.5c-6.9-32.5-13.3-63.2-13.3-86.9c0-96.3,46-151.5,126.2-151.5c83,0,132.5,49.9,135.6,53.2
			c2.3,3.2,23.5,30.9,43.4,17.6c2.8-1.9,4.6-4.7,5.2-8.2c0.6-3.4,0-7.5-1.3-11.6c2.2,1.2,4.5,2,6.8,2.3c4.2,0.5,8-0.9,11.1-4
			c5.1-5.1,6.5-11,5.7-16.5c3.5,1.9,7.4,3.2,11.3,3.4c5.5,0.2,10.4-1.7,14.5-5.8C2368.8,1225,2359.4,1206.8,2353.7,1197.6z
			 M2298.9,1269.5c-0.3,1.6-1,2.2-1.5,2.6c-13.9,9.3-31.9-15.5-32.1-15.8l-0.3-0.4c-2.1-2.3-52.8-56.1-142-56.1
			c-85.6,0-134.7,58.3-134.7,159.9c0,24.6,6.6,55.7,13.5,88.7c20,94.8,42.6,202.2-61.2,239.8c-74.9,27.1-123.3-2.7-149.2-29.2
			c32.4,26,61,34.2,84.1,34.2c18.9,0,34.1-5.4,44.8-11c47.5-24.8,78-90.6,68-146.5c-4.4-24.5-12.7-51.2-20.6-77.1
			c-11-35.6-21.4-69.2-21.4-94.7c0.1-98.7,44-204.1,166.7-204.1c82.9,0,137.8,26.8,177.8,86.8
			C2295.5,1254.9,2299.8,1264.2,2298.9,1269.5z M2317.7,1251.6c-1.3,1.3-2.5,1.7-4.2,1.6c-5.6-0.6-13.2-8.5-18.7-15.7
			c-2.2-3.3-3.9-5.7-4.5-6.5l-0.3,0.2c-41-55-96.4-79.7-177.2-79.7c-56.9,0-103.2,22.5-133.8,65.1c-26.9,37.4-41.2,88.4-41.3,147.4
			c0,26.8,10.5,61,21.7,97.2c7.9,25.6,16.1,52,20.4,76.1c9.4,52.6-19.1,114.3-63.6,137.6c-27.8,14.5-58.8,13.1-90.5-3.2
			c11.2,3.6,21.4,5.1,30.6,5.1c16.9,0,30.4-5.1,40.6-11.4c37.6-23.2,57.4-82.1,47-140.1c-3.5-19.6-9.8-40-16.5-61.7
			c-13.2-42.7-26.8-86.8-21.3-130.6c24.6-196.9,152.5-221.9,206.4-223.6c73.7-2.2,137,38.7,177,84.3l23.7,34.1
			c0.1,0.1,0.7,0.9,1.7,1.9C2318.3,1233.7,2325.4,1243.9,2317.7,1251.6z M2349.3,1232.6c-2.4,2.4-5.1,3.5-8.2,3.4
			c-7.2-0.3-15.3-7.2-19.5-11.5c-0.7-0.9-1.5-1.7-2.2-2.4l-9.7-12.6c-4.8-6.8-10-13.5-15.7-20.2l-0.1-0.1l0,0
			c-40.7-47.7-104.6-90.7-181.7-88.3c-64.9,2-117.2,27.7-155.4,76.3c-39.1,49.8-53.7,111.6-59,154.6c-5.7,45.6,8.2,90.6,21.6,134.1
			c6.6,21.4,12.9,41.7,16.3,60.7c9.8,54.7-8.3,110-43.2,131.4c-20.3,12.5-44.6,13.3-71.7,2.7c22.8,3.2,44.5-2.3,62.8-16.9
			c46-36.6,46.6-105.4,23.4-154.4c-30.9-65.3-32.3-131.6-33.2-175.4l0-0.7c-1.4-63.8,22.9-124.4,68.2-170.7
			c46.3-47.3,110.8-74.4,177-74.4c99.7,0,191.2,70.4,227.9,134.1C2347.3,1203.3,2361.1,1220.8,2349.3,1232.6z"/>
		<path class="st1" d="M2142.9,1320.9c0,0-17.9,17.9-43.1,17.9s-42.8-17.9-42.8-17.9s2.7,8.6,10.5,16.3c-2.1,3.2-5.7,9.4-5.7,15
			c0,7.8,5.1,13.9,5.1,13.9s-2.7-14.4,5.1-25c4.1,3,9.1,5.5,15.3,6.9c-0.5,3.9-0.7,8.6,0.5,12.4c2.7,8.5,10,13.3,10,13.3
			s-6.4-12.1-4.4-24.7c2,0.2,4.2,0.3,6.4,0.2c4.1-0.1,7.9-0.6,11.3-1.4c0.2,3.5,0.9,7.7,2.7,10.9c4,7,11.6,10.2,11.6,10.2
			s-8.9-10.8-8.5-22.9C2137,1338.6,2142.9,1320.9,2142.9,1320.9z"/>
		<path class="st1" d="M2288.5,1323.2c0,0-17.9,17.9-43.1,17.9s-42.8-17.9-42.8-17.9s2.7,8.6,10.5,16.3c-2.1,3.2-5.7,9.4-5.7,15
			c0,7.8,5.1,13.9,5.1,13.9s-2.7-14.4,5.1-25c4.1,3,9.1,5.5,15.3,6.9c-0.5,3.9-0.7,8.6,0.5,12.4c2.7,8.5,10,13.3,10,13.3
			s-6.4-12.1-4.4-24.7c2,0.2,4.2,0.3,6.4,0.2c4.1-0.1,7.9-0.6,11.3-1.4c0.2,3.5,0.9,7.7,2.7,10.9c4,7,11.6,10.2,11.6,10.2
			s-8.9-10.8-8.5-22.9C2282.6,1340.9,2288.5,1323.2,2288.5,1323.2z"/>
		<g>
			<path class="st1" d="M2067.1,1615.9v23.7c0,2.1-0.1,3.8-0.3,5.2c-0.2,1.4-0.6,2.9-1.2,4.4c-1,2.5-2.7,4.4-5.1,5.8
				c-2.4,1.4-5.2,2.1-8.6,2.1c-3.1,0-5.6-0.5-7.7-1.4c-2-1-3.7-2.5-4.9-4.7c-0.7-1.2-1.2-2.5-1.6-4c-0.4-1.5-0.6-2.9-0.6-4.3
				c0-1.4,0.4-2.5,1.2-3.3c0.8-0.8,1.8-1.1,3.1-1.1c1.2,0,2.1,0.3,2.7,1c0.6,0.7,1.1,1.8,1.4,3.3c0.3,1.6,0.7,2.8,1,3.8
				c0.3,0.9,0.9,1.8,1.8,2.4c0.8,0.7,2,1,3.5,1c4,0,6.1-3,6.1-8.9v-25c0-1.8,0.4-3.2,1.2-4.2c0.8-0.9,1.9-1.4,3.3-1.4
				c1.4,0,2.5,0.5,3.4,1.4C2066.7,1612.7,2067.1,1614.1,2067.1,1615.9z"/>
			<path class="st1" d="M2098.3,1652.3v-1.1c-1,1.3-2.1,2.3-3.2,3.2c-1.1,0.9-2.3,1.5-3.6,1.9c-1.3,0.4-2.8,0.6-4.5,0.6
				c-2,0-3.9-0.4-5.5-1.3c-1.6-0.8-2.9-2-3.7-3.5c-1-1.8-1.6-4.4-1.6-7.7v-16.7c0-1.7,0.4-2.9,1.1-3.8c0.8-0.8,1.8-1.2,3-1.2
				c1.3,0,2.3,0.4,3.1,1.3c0.8,0.8,1.2,2.1,1.2,3.8v13.5c0,2,0.2,3.6,0.5,4.9c0.3,1.3,0.9,2.4,1.8,3.1c0.9,0.8,2,1.1,3.5,1.1
				c1.4,0,2.8-0.4,4-1.3c1.3-0.8,2.2-1.9,2.7-3.3c0.5-1.2,0.7-3.8,0.7-7.8v-10.2c0-1.7,0.4-2.9,1.2-3.8s1.8-1.3,3-1.3
				c1.3,0,2.3,0.4,3,1.2c0.8,0.8,1.1,2.1,1.1,3.8v24.4c0,1.6-0.4,2.8-1.1,3.6c-0.7,0.8-1.7,1.2-2.8,1.2s-2.1-0.4-2.8-1.2
				C2098.7,1655,2098.3,1653.8,2098.3,1652.3z"/>
			<path class="st1" d="M2114.6,1652v-36.5c0-1.7,0.4-3,1.1-3.8c0.8-0.9,1.8-1.3,3-1.3s2.3,0.4,3.1,1.3c0.8,0.9,1.2,2.1,1.2,3.8
				v36.5c0,1.7-0.4,3-1.2,3.8c-0.8,0.9-1.8,1.3-3.1,1.3c-1.2,0-2.2-0.4-3-1.3C2115,1654.9,2114.6,1653.6,2114.6,1652z"/>
			<path class="st1" d="M2135.9,1619c-1.2,0-2.2-0.4-3-1.1c-0.8-0.7-1.2-1.7-1.2-3.1c0-1.2,0.4-2.2,1.3-2.9c0.9-0.8,1.8-1.2,3-1.2
				c1.1,0,2.1,0.3,2.9,1c0.8,0.7,1.3,1.7,1.3,3.1c0,1.3-0.4,2.3-1.2,3C2138.1,1618.6,2137.1,1619,2135.9,1619z M2140.1,1627.7v24.3
				c0,1.7-0.4,3-1.2,3.8c-0.8,0.9-1.8,1.3-3,1.3s-2.2-0.4-3-1.3c-0.8-0.9-1.2-2.1-1.2-3.8v-24.1c0-1.7,0.4-2.9,1.2-3.8
				c0.8-0.8,1.8-1.3,3-1.3s2.3,0.4,3,1.3C2139.7,1625,2140.1,1626.2,2140.1,1627.7z"/>
			<path class="st1" d="M2172.3,1642.1h-16.5c0,1.9,0.4,3.6,1.2,5.1c0.7,1.5,1.7,2.6,3,3.3c1.2,0.7,2.6,1.1,4.1,1.1
				c1,0,1.9-0.1,2.8-0.4c0.8-0.2,1.6-0.6,2.4-1.1c0.8-0.5,1.5-1,2.2-1.6c0.7-0.6,1.5-1.4,2.6-2.3c0.4-0.4,1-0.6,1.8-0.6
				c0.9,0,1.6,0.2,2.1,0.7s0.8,1.1,0.8,2c0,0.8-0.3,1.6-0.9,2.7c-0.6,1-1.5,2-2.7,2.9c-1.2,0.9-2.7,1.7-4.5,2.3
				c-1.8,0.6-3.9,0.9-6.3,0.9c-5.4,0-9.6-1.5-12.6-4.6c-3-3.1-4.5-7.3-4.5-12.5c0-2.5,0.4-4.8,1.1-6.9c0.7-2.1,1.8-3.9,3.2-5.5
				c1.4-1.5,3.2-2.7,5.2-3.5c2.1-0.8,4.4-1.2,6.9-1.2c3.3,0,6.1,0.7,8.5,2.1c2.4,1.4,4.1,3.2,5.3,5.4c1.2,2.2,1.8,4.4,1.8,6.7
				c0,2.1-0.6,3.5-1.8,4.1C2176.2,1641.7,2174.5,1642.1,2172.3,1642.1z M2155.8,1637.3h15.3c-0.2-2.9-1-5-2.3-6.5
				c-1.3-1.4-3.1-2.1-5.3-2.1c-2.1,0-3.8,0.7-5.2,2.2C2156.9,1632.3,2156.1,1634.4,2155.8,1637.3z"/>
			<path class="st1" d="M2186.8,1623.6h0.9v-5.1c0-1.4,0-2.4,0.1-3.2c0.1-0.8,0.3-1.4,0.6-2c0.3-0.6,0.8-1,1.4-1.4
				c0.6-0.4,1.3-0.5,2.1-0.5c1.1,0,2,0.4,2.9,1.2c0.6,0.5,0.9,1.2,1.1,2c0.2,0.8,0.2,1.9,0.2,3.3v5.7h3.1c1.2,0,2.1,0.3,2.7,0.8
				c0.6,0.6,0.9,1.3,0.9,2.2c0,1.1-0.4,1.9-1.3,2.4c-0.9,0.5-2.2,0.7-3.8,0.7h-1.6v15.5c0,1.3,0,2.3,0.1,3c0.1,0.7,0.3,1.3,0.7,1.7
				c0.4,0.4,1.1,0.7,2,0.7c0.5,0,1.2-0.1,2-0.3c0.8-0.2,1.5-0.3,2-0.3c0.7,0,1.3,0.3,1.8,0.8c0.5,0.5,0.8,1.2,0.8,2
				c0,1.4-0.7,2.4-2.2,3.1c-1.5,0.7-3.6,1.1-6.4,1.1c-2.6,0-4.6-0.4-6-1.3c-1.4-0.9-2.2-2.1-2.7-3.7c-0.4-1.6-0.6-3.6-0.6-6.3v-16.2
				h-1.1c-1.2,0-2.1-0.3-2.8-0.9s-1-1.3-1-2.2s0.3-1.6,1-2.2C2184.5,1623.9,2185.5,1623.6,2186.8,1623.6z"/>
			<path class="st1" d="M2259.4,1642.8c0,2.7-0.7,5.2-2.1,7.4c-1.4,2.2-3.5,3.9-6.2,5.1c-2.7,1.2-5.9,1.8-9.6,1.8
				c-4.5,0-8.1-0.8-11-2.5c-2.1-1.2-3.7-2.8-5-4.9c-1.3-2-1.9-4-1.9-5.9c0-1.1,0.4-2.1,1.2-2.9c0.8-0.8,1.8-1.2,2.9-1.2
				c1,0,1.8,0.3,2.4,0.9c0.7,0.6,1.2,1.5,1.7,2.7c0.6,1.4,1.2,2.6,1.9,3.6c0.7,1,1.6,1.8,2.8,2.4c1.2,0.6,2.8,0.9,4.8,0.9
				c2.7,0,4.9-0.6,6.6-1.9c1.7-1.3,2.5-2.8,2.5-4.7c0-1.5-0.5-2.7-1.4-3.7c-0.9-0.9-2.1-1.6-3.5-2.1c-1.4-0.5-3.4-1-5.8-1.6
				c-3.3-0.8-6-1.7-8.2-2.7c-2.2-1-3.9-2.4-5.2-4.2c-1.3-1.8-1.9-3.9-1.9-6.5c0-2.5,0.7-4.7,2-6.6c1.4-1.9,3.3-3.4,5.9-4.5
				c2.6-1,5.6-1.6,9.1-1.6c2.8,0,5.2,0.3,7.2,1c2,0.7,3.7,1.6,5,2.7c1.3,1.1,2.3,2.3,2.9,3.6s0.9,2.5,0.9,3.7c0,1.1-0.4,2.1-1.2,2.9
				c-0.8,0.9-1.7,1.3-2.9,1.3c-1,0-1.8-0.3-2.4-0.8c-0.5-0.5-1.1-1.4-1.8-2.6c-0.8-1.7-1.8-3-3-4c-1.2-1-3-1.4-5.5-1.4
				c-2.4,0-4.3,0.5-5.7,1.6c-1.5,1-2.2,2.3-2.2,3.7c0,0.9,0.2,1.7,0.7,2.3s1.2,1.2,2,1.7c0.9,0.5,1.7,0.8,2.6,1.1
				c0.9,0.3,2.3,0.7,4.4,1.2c2.5,0.6,4.9,1.3,6.9,2c2.1,0.7,3.8,1.6,5.3,2.6c1.4,1,2.6,2.3,3.4,3.9
				C2259,1638.6,2259.4,1640.5,2259.4,1642.8z"/>
			<path class="st1" d="M2287.8,1652.3c-2,1.6-4,2.8-5.9,3.6c-1.9,0.8-4,1.2-6.4,1.2c-2.2,0-4.1-0.4-5.7-1.3c-1.6-0.9-2.9-2-3.8-3.5
				c-0.9-1.5-1.3-3-1.3-4.7c0-2.3,0.7-4.3,2.2-5.9c1.5-1.6,3.5-2.7,6-3.3c0.5-0.1,1.9-0.4,4-0.8c2.1-0.4,3.9-0.8,5.4-1.2
				c1.5-0.4,3.1-0.8,4.9-1.3c-0.1-2.2-0.6-3.8-1.3-4.9c-0.8-1-2.4-1.6-4.9-1.6c-2.1,0-3.7,0.3-4.8,0.9c-1.1,0.6-2,1.5-2.8,2.7
				c-0.8,1.2-1.3,2-1.6,2.4c-0.3,0.4-1,0.6-2.1,0.6c-0.9,0-1.8-0.3-2.4-0.9c-0.7-0.6-1-1.4-1-2.3c0-1.5,0.5-2.9,1.6-4.3
				c1-1.4,2.7-2.5,4.9-3.5c2.2-0.9,5-1.4,8.3-1.4c3.7,0,6.6,0.4,8.7,1.3c2.1,0.9,3.6,2.3,4.5,4.1c0.9,1.9,1.3,4.4,1.3,7.5
				c0,2,0,3.6,0,5c0,1.4,0,2.9,0,4.6c0,1.6,0.3,3.2,0.8,4.9c0.5,1.7,0.8,2.8,0.8,3.3c0,0.9-0.4,1.6-1.2,2.4
				c-0.8,0.7-1.7,1.1-2.8,1.1c-0.9,0-1.7-0.4-2.6-1.2C2289.6,1655.1,2288.7,1653.9,2287.8,1652.3z M2287.2,1640.2
				c-1.2,0.5-3,0.9-5.4,1.4c-2.4,0.5-4,0.9-4.9,1.1c-0.9,0.2-1.8,0.7-2.6,1.4c-0.8,0.7-1.2,1.6-1.2,2.9c0,1.3,0.5,2.4,1.4,3.3
				c1,0.9,2.2,1.3,3.8,1.3c1.7,0,3.2-0.4,4.6-1.1c1.4-0.7,2.4-1.7,3.1-2.8c0.8-1.3,1.1-3.4,1.1-6.3V1640.2z"/>
			<path class="st1" d="M2304,1652v-36.5c0-1.7,0.4-3,1.1-3.8c0.8-0.9,1.8-1.3,3-1.3s2.3,0.4,3.1,1.3c0.8,0.9,1.2,2.1,1.2,3.8v36.5
				c0,1.7-0.4,3-1.2,3.8c-0.8,0.9-1.8,1.3-3.1,1.3c-1.2,0-2.2-0.4-3-1.3C2304.4,1654.9,2304,1653.6,2304,1652z"/>
			<path class="st1" d="M2352.6,1640c0,2.5-0.4,4.8-1.2,6.9c-0.8,2.1-1.9,3.9-3.4,5.5s-3.2,2.7-5.3,3.5c-2.1,0.8-4.4,1.2-6.9,1.2
				c-2.5,0-4.8-0.4-6.9-1.2c-2-0.8-3.8-2-5.3-3.5c-1.5-1.5-2.6-3.3-3.4-5.4c-0.8-2.1-1.2-4.4-1.2-6.9c0-2.5,0.4-4.9,1.2-7
				c0.8-2.1,1.9-3.9,3.4-5.4c1.5-1.5,3.2-2.7,5.3-3.5c2.1-0.8,4.4-1.2,6.9-1.2c2.5,0,4.9,0.4,6.9,1.2s3.9,2,5.3,3.5
				c1.5,1.5,2.6,3.3,3.4,5.4C2352.3,1635.1,2352.6,1637.5,2352.6,1640z M2344.2,1640c0-3.4-0.8-6.1-2.3-8c-1.5-1.9-3.5-2.9-6.1-2.9
				c-1.6,0-3.1,0.4-4.3,1.3c-1.3,0.9-2.2,2.1-2.9,3.8c-0.7,1.7-1,3.6-1,5.8c0,2.2,0.3,4.1,1,5.8c0.7,1.6,1.6,2.9,2.9,3.8
				c1.2,0.9,2.7,1.3,4.4,1.3c2.5,0,4.6-1,6.1-2.9C2343.5,1646,2344.2,1643.4,2344.2,1640z"/>
			<path class="st1" d="M2366.9,1627.5v1c1.5-2,3.1-3.4,4.9-4.3c1.8-0.9,3.8-1.4,6.1-1.4c2.2,0,4.2,0.5,6,1.4c1.7,1,3,2.3,3.9,4.1
				c0.6,1,0.9,2.1,1.1,3.3s0.2,2.7,0.2,4.6v15.7c0,1.7-0.4,3-1.2,3.8c-0.8,0.9-1.8,1.3-3,1.3c-1.3,0-2.3-0.4-3-1.3s-1.2-2.1-1.2-3.8
				v-14c0-2.8-0.4-4.9-1.2-6.4c-0.8-1.5-2.3-2.2-4.6-2.2c-1.5,0-2.9,0.4-4.1,1.3c-1.2,0.9-2.1,2.1-2.7,3.7c-0.4,1.3-0.6,3.6-0.6,7
				v10.5c0,1.7-0.4,3-1.2,3.8c-0.8,0.9-1.8,1.3-3.1,1.3c-1.2,0-2.2-0.4-3-1.3s-1.2-2.1-1.2-3.8v-24.3c0-1.6,0.3-2.8,1-3.6
				c0.7-0.8,1.7-1.2,2.9-1.2c0.7,0,1.4,0.2,2,0.5c0.6,0.3,1.1,0.9,1.4,1.6C2366.7,1625.7,2366.9,1626.5,2366.9,1627.5z"/>
		</g>
	</g>
	<g>
		<path class="st0" d="M1502.2,2070.7c0,0,4.9,13.6,1.9,16.6c-2.9,2.9-12.3,2.9-16.5,0c-4.1-2.9-22.9-20.8-22.9-20.8
			s-52-35.2-87.4-29.3c-35.4,5.9-86.5,11-90.4,121.9l19.7,96.2l2.9,47.1l-8.8,35.4l-16.3,25.9l-27.9,15.3c0,0-67.8,32.4-114.9-23.6
			l11.8-2.9c0,0,11.8,5.9,35.4,0c23.6-5.9,26.5-14.7,26.5-14.7l10.8-14.8l6.9-20.6l2.9-26.5l-8.8-32.4l-17.5-36.7l-6.7-66.2
			l0.6-53.3c0,0,4.3-29.9,11-41.5c6.7-11.6,27.3-52.8,68.6-79.3s102.2-27.9,118.9-22.8c16.7,5.1,43.2,2.2,87.4,40.5s53,58.9,53,58.9
			v11.6l-5.9,6.1h-8.8h-5.9l-2.4,6.9l-3.5,7.8h-5.9L1502.2,2070.7z"/>
		<path class="st1" d="M1401.3,2066.6c-0.4-2.2-3.6-1.8-3.5,0.4c0.7,22.6,2.9,57,9.5,70.4c10.1,20.6,47.9,53,47.9,70.7
			c0,17.7-22.7,53-42.8,41.2c-20.1-11.8-16.4-16.6-20.1-14.7c-5.9,2.9,7.6,25.9,29,26.2c21.4,0.3,44.1-35,41.6-55.7
			c-2.5-20.6-48.3-62.1-50.4-76.6C1410.7,2117.3,1405.2,2087.2,1401.3,2066.6z"/>
		<path class="st1" d="M1540.5,2034.1c-34.1-55.2-92.5-96.4-164.4-96.4c-47.9,0-94.6,19.6-128.1,53.8
			c-32.8,33.5-50.4,77.5-49.4,123.7l0,0.5c0.7,31.2,1.7,78.4,23.8,125.2c15.3,32.2,15.1,77.2-14.8,101c-21.5,17.1-50.6,14.3-78-7.3
			l-10.7-8.4l6.2,12.1c0.3,0.6,27.8,52.6,86.8,52.6c12.3,0,26-2.3,41.1-7.7c77.5-28.1,60.4-109.4,46.6-174.7
			c-4.8-22.8-9.3-44.2-9.3-60.9c0-67.4,32.2-106.1,88.4-106.1c58.1,0,92.8,35,95,37.2c1.6,2.2,16.5,21.6,30.4,12.3
			c1.9-1.3,3.2-3.3,3.6-5.7c0.4-2.4,0-5.2-0.9-8.2c1.6,0.8,3.1,1.4,4.7,1.6c2.9,0.3,5.6-0.6,7.8-2.8c3.6-3.6,4.5-7.7,4-11.5
			c2.5,1.3,5.2,2.2,7.9,2.4c3.9,0.2,7.3-1.2,10.2-4.1C1551,2053.3,1544.5,2040.5,1540.5,2034.1z M1502.1,2084.4
			c-0.2,1.1-0.7,1.6-1.1,1.8c-9.8,6.5-22.4-10.9-22.5-11l-0.2-0.3c-1.5-1.6-36.9-39.3-99.4-39.3c-59.9,0-94.3,40.8-94.3,112
			c0,17.2,4.6,39,9.5,62.1c14,66.4,29.8,141.6-42.9,167.9c-52.4,19-86.3-1.9-104.5-20.4c22.7,18.2,42.7,24,58.9,24
			c13.2,0,23.9-3.8,31.3-7.7c33.3-17.4,54.6-63.4,47.6-102.6c-3.1-17.2-8.9-35.9-14.5-53.9c-7.7-24.9-15-48.4-15-66.3
			c0.1-69.1,30.8-142.9,116.7-142.9c58,0,96.5,18.8,124.5,60.7C1499.8,2074.2,1502.7,2080.8,1502.1,2084.4z M1515.3,2071.9
			c-0.9,0.9-1.8,1.2-2.9,1.1c-3.9-0.4-9.2-5.9-13.1-11c-1.5-2.3-2.8-4-3.1-4.5l-0.2,0.1c-28.7-38.5-67.5-55.8-124.1-55.8
			c-39.8,0-72.2,15.8-93.7,45.6c-18.8,26.2-28.8,61.9-28.9,103.2c0,18.8,7.4,42.7,15.2,68.1c5.5,17.9,11.3,36.4,14.3,53.3
			c6.6,36.8-13.4,80-44.5,96.3c-19.5,10.2-41.2,9.2-63.4-2.3c7.8,2.5,15,3.6,21.4,3.6c11.8,0,21.3-3.5,28.5-8
			c26.4-16.2,40.2-57.5,32.9-98.1c-2.5-13.7-6.9-28-11.6-43.2c-9.2-29.9-18.8-60.7-14.9-91.4c17.2-137.8,106.8-155.4,144.5-156.5
			c51.6-1.5,95.9,27.1,123.9,59l16.6,23.9c0.1,0.1,0.5,0.6,1.2,1.4C1515.7,2059.4,1520.6,2066.6,1515.3,2071.9z M1537.4,2058.6
			c-1.7,1.7-3.5,2.4-5.7,2.4c-5-0.2-10.7-5-13.6-8.1c-0.5-0.6-1-1.2-1.5-1.7l-6.8-8.8c-3.3-4.7-7-9.5-11-14.1l0,0l0,0
			c-28.5-33.4-73.3-63.5-127.2-61.8c-45.5,1.4-82.1,19.4-108.8,53.5c-27.3,34.9-37.6,78.1-41.3,108.2c-4,32,5.7,63.4,15.1,93.9
			c4.6,15,9,29.2,11.4,42.5c6.9,38.3-5.8,77-30.2,92c-14.2,8.8-31.3,9.3-50.2,1.9c15.9,2.3,31.1-1.6,44-11.8
			c32.2-25.6,32.7-73.8,16.4-108.1c-21.6-45.7-22.6-92.1-23.3-122.8l0-0.5c-0.9-44.7,16-87.1,47.7-119.5
			c32.4-33.1,77.6-52.1,123.9-52.1c69.8,0,133.9,49.3,159.6,93.9C1536,2038.1,1545.7,2050.3,1537.4,2058.6z"/>
		<path class="st1" d="M1392.9,2120.4c0,0-12.5,12.5-30.2,12.5s-29.9-12.5-29.9-12.5s1.9,6,7.4,11.4c-1.5,2.2-4,6.6-4,10.5
			c0,5.5,3.6,9.7,3.6,9.7s-1.9-10.1,3.6-17.5c2.8,2.1,6.4,3.9,10.7,4.9c-0.4,2.7-0.5,6,0.4,8.7c1.9,5.9,7,9.3,7,9.3
			s-4.4-8.5-3.1-17.3c1.4,0.1,2.9,0.2,4.5,0.2c2.9-0.1,5.5-0.4,7.9-1c0.1,2.5,0.6,5.4,1.9,7.6c2.8,4.9,8.1,7.2,8.1,7.2
			s-6.3-7.5-5.9-16.1C1388.8,2132.9,1392.9,2120.4,1392.9,2120.4z"/>
		<path class="st1" d="M1494.8,2122c0,0-12.5,12.5-30.2,12.5c-17.7,0-29.9-12.5-29.9-12.5s1.9,6,7.4,11.4c-1.5,2.2-4,6.6-4,10.5
			c0,5.5,3.6,9.7,3.6,9.7s-1.9-10.1,3.6-17.5c2.8,2.1,6.4,3.9,10.7,4.9c-0.4,2.7-0.5,6,0.4,8.7c1.9,5.9,7,9.3,7,9.3
			s-4.4-8.5-3.1-17.3c1.4,0.1,2.9,0.2,4.5,0.2c2.9-0.1,5.5-0.4,7.9-1c0.1,2.5,0.6,5.4,1.9,7.6c2.8,4.9,8.1,7.2,8.1,7.2
			s-6.3-7.5-5.9-16.1C1490.7,2134.5,1494.8,2122,1494.8,2122z"/>
		<g>
			<path class="st1" d="M1339.8,2327v16.6c0,1.4-0.1,2.7-0.2,3.7c-0.1,1-0.4,2-0.8,3.1c-0.7,1.7-1.9,3.1-3.6,4.1
				c-1.7,1-3.7,1.5-6,1.5c-2.1,0-3.9-0.3-5.4-1c-1.4-0.7-2.6-1.8-3.5-3.3c-0.5-0.8-0.8-1.7-1.1-2.8s-0.4-2.1-0.4-3
				c0-1,0.3-1.8,0.8-2.3c0.6-0.5,1.3-0.8,2.2-0.8c0.8,0,1.5,0.2,1.9,0.7c0.4,0.5,0.8,1.3,1,2.3c0.2,1.1,0.5,2,0.7,2.7
				c0.2,0.7,0.7,1.2,1.2,1.7c0.6,0.5,1.4,0.7,2.5,0.7c2.8,0,4.2-2.1,4.2-6.2V2327c0-1.3,0.3-2.3,0.9-2.9c0.6-0.6,1.3-1,2.3-1
				c1,0,1.8,0.3,2.4,1C1339.5,2324.7,1339.8,2325.7,1339.8,2327z"/>
			<path class="st1" d="M1361.7,2352.5v-0.8c-0.7,0.9-1.4,1.6-2.2,2.2c-0.8,0.6-1.6,1.1-2.5,1.3c-0.9,0.3-2,0.4-3.2,0.4
				c-1.4,0-2.7-0.3-3.8-0.9c-1.1-0.6-2-1.4-2.6-2.4c-0.7-1.3-1.1-3.1-1.1-5.4v-11.7c0-1.2,0.3-2.1,0.8-2.6c0.5-0.6,1.2-0.9,2.1-0.9
				c0.9,0,1.6,0.3,2.2,0.9c0.5,0.6,0.8,1.5,0.8,2.6v9.4c0,1.4,0.1,2.5,0.3,3.4c0.2,0.9,0.6,1.7,1.2,2.2c0.6,0.5,1.4,0.8,2.4,0.8
				c1,0,1.9-0.3,2.8-0.9s1.5-1.4,1.9-2.3c0.3-0.8,0.5-2.7,0.5-5.5v-7.2c0-1.2,0.3-2,0.8-2.6c0.5-0.6,1.3-0.9,2.1-0.9
				s1.6,0.3,2.1,0.9c0.5,0.6,0.8,1.5,0.8,2.6v17.1c0,1.1-0.3,2-0.8,2.5c-0.5,0.6-1.2,0.8-2,0.8c-0.8,0-1.5-0.3-2-0.9
				C1361.9,2354.4,1361.7,2353.6,1361.7,2352.5z"/>
			<path class="st1" d="M1373.1,2352.3v-25.6c0-1.2,0.3-2.1,0.8-2.7c0.5-0.6,1.2-0.9,2.1-0.9s1.6,0.3,2.2,0.9
				c0.5,0.6,0.8,1.5,0.8,2.7v25.6c0,1.2-0.3,2.1-0.8,2.7c-0.6,0.6-1.3,0.9-2.1,0.9c-0.9,0-1.6-0.3-2.1-0.9
				C1373.3,2354.3,1373.1,2353.4,1373.1,2352.3z"/>
			<path class="st1" d="M1388,2329.1c-0.8,0-1.5-0.3-2.1-0.8c-0.6-0.5-0.9-1.2-0.9-2.1c0-0.8,0.3-1.5,0.9-2.1
				c0.6-0.5,1.3-0.8,2.1-0.8c0.8,0,1.4,0.2,2,0.7c0.6,0.5,0.9,1.2,0.9,2.1c0,0.9-0.3,1.6-0.9,2.1
				C1389.5,2328.9,1388.8,2329.1,1388,2329.1z M1390.9,2335.2v17c0,1.2-0.3,2.1-0.8,2.7c-0.6,0.6-1.3,0.9-2.1,0.9
				c-0.9,0-1.6-0.3-2.1-0.9c-0.5-0.6-0.8-1.5-0.8-2.7v-16.9c0-1.2,0.3-2,0.8-2.6c0.5-0.6,1.2-0.9,2.1-0.9c0.9,0,1.6,0.3,2.1,0.9
				C1390.7,2333.4,1390.9,2334.2,1390.9,2335.2z"/>
			<path class="st1" d="M1413.5,2345.3h-11.5c0,1.3,0.3,2.5,0.8,3.5c0.5,1,1.2,1.8,2.1,2.3c0.9,0.5,1.8,0.8,2.9,0.8
				c0.7,0,1.3-0.1,1.9-0.2c0.6-0.2,1.1-0.4,1.7-0.8c0.5-0.4,1-0.7,1.5-1.1c0.5-0.4,1.1-0.9,1.8-1.6c0.3-0.3,0.7-0.4,1.3-0.4
				c0.6,0,1.1,0.2,1.5,0.5c0.4,0.3,0.6,0.8,0.6,1.4c0,0.5-0.2,1.2-0.6,1.9c-0.4,0.7-1,1.4-1.9,2c-0.8,0.7-1.9,1.2-3.2,1.6
				c-1.3,0.4-2.7,0.6-4.4,0.6c-3.8,0-6.7-1.1-8.8-3.2s-3.2-5.1-3.2-8.8c0-1.7,0.3-3.4,0.8-4.8c0.5-1.5,1.3-2.8,2.3-3.8
				c1-1.1,2.2-1.9,3.7-2.4c1.5-0.6,3.1-0.9,4.8-0.9c2.3,0,4.3,0.5,5.9,1.5c1.6,1,2.9,2.2,3.7,3.8c0.8,1.5,1.2,3.1,1.2,4.7
				c0,1.5-0.4,2.4-1.3,2.9C1416.2,2345.1,1415,2345.3,1413.5,2345.3z M1401.9,2342h10.7c-0.1-2-0.7-3.5-1.6-4.5
				c-0.9-1-2.2-1.5-3.7-1.5c-1.5,0-2.7,0.5-3.6,1.5C1402.7,2338.5,1402.1,2340,1401.9,2342z"/>
			<path class="st1" d="M1423.6,2332.4h0.6v-3.5c0-0.9,0-1.7,0.1-2.2c0.1-0.5,0.2-1,0.4-1.4c0.2-0.4,0.6-0.7,1-1
				c0.4-0.3,0.9-0.4,1.4-0.4c0.7,0,1.4,0.3,2,0.8c0.4,0.4,0.7,0.8,0.8,1.4c0.1,0.5,0.2,1.3,0.2,2.3v4h2.2c0.8,0,1.5,0.2,1.9,0.6
				c0.4,0.4,0.7,0.9,0.7,1.5c0,0.8-0.3,1.3-0.9,1.7c-0.6,0.3-1.5,0.5-2.7,0.5h-1.1v10.8c0,0.9,0,1.6,0.1,2.1
				c0.1,0.5,0.2,0.9,0.5,1.2c0.3,0.3,0.7,0.5,1.4,0.5c0.3,0,0.8-0.1,1.4-0.2c0.6-0.1,1.1-0.2,1.4-0.2c0.5,0,0.9,0.2,1.3,0.6
				c0.4,0.4,0.6,0.9,0.6,1.4c0,0.9-0.5,1.7-1.6,2.2c-1,0.5-2.5,0.8-4.5,0.8c-1.8,0-3.2-0.3-4.2-0.9c-0.9-0.6-1.6-1.5-1.9-2.6
				c-0.3-1.1-0.4-2.6-0.4-4.4v-11.3h-0.8c-0.8,0-1.5-0.2-1.9-0.6c-0.4-0.4-0.7-0.9-0.7-1.5s0.2-1.1,0.7-1.5
				C1422,2332.6,1422.7,2332.4,1423.6,2332.4z"/>
			<path class="st1" d="M1474.4,2345.8c0,1.9-0.5,3.6-1.5,5.2c-1,1.5-2.4,2.7-4.3,3.6c-1.9,0.9-4.2,1.3-6.8,1.3
				c-3.1,0-5.7-0.6-7.7-1.8c-1.4-0.8-2.6-2-3.5-3.4c-0.9-1.4-1.3-2.8-1.3-4.1c0-0.8,0.3-1.4,0.8-2c0.5-0.6,1.2-0.8,2.1-0.8
				c0.7,0,1.2,0.2,1.7,0.6c0.5,0.4,0.9,1.1,1.2,1.9c0.4,1,0.8,1.8,1.3,2.5c0.5,0.7,1.1,1.2,2,1.7c0.8,0.4,2,0.7,3.3,0.7
				c1.9,0,3.4-0.4,4.6-1.3c1.2-0.9,1.8-2,1.8-3.3c0-1.1-0.3-1.9-1-2.6c-0.6-0.7-1.5-1.2-2.5-1.5c-1-0.3-2.4-0.7-4.1-1.1
				c-2.3-0.5-4.2-1.2-5.7-1.9c-1.5-0.7-2.7-1.7-3.6-2.9c-0.9-1.2-1.3-2.8-1.3-4.6c0-1.7,0.5-3.3,1.4-4.6c0.9-1.4,2.3-2.4,4.1-3.1
				c1.8-0.7,3.9-1.1,6.3-1.1c1.9,0,3.6,0.2,5,0.7c1.4,0.5,2.6,1.1,3.5,1.9c0.9,0.8,1.6,1.6,2,2.5c0.4,0.9,0.6,1.7,0.6,2.6
				c0,0.8-0.3,1.5-0.8,2.1c-0.5,0.6-1.2,0.9-2,0.9c-0.7,0-1.3-0.2-1.7-0.6c-0.4-0.4-0.8-1-1.2-1.8c-0.6-1.2-1.3-2.1-2.1-2.8
				c-0.8-0.7-2.1-1-3.9-1c-1.7,0-3,0.4-4,1.1c-1,0.7-1.5,1.6-1.5,2.6c0,0.6,0.2,1.2,0.5,1.6c0.3,0.5,0.8,0.9,1.4,1.2
				s1.2,0.6,1.8,0.8s1.6,0.5,3.1,0.8c1.8,0.4,3.4,0.9,4.8,1.4c1.4,0.5,2.7,1.1,3.7,1.8c1,0.7,1.8,1.6,2.4,2.7
				C1474.1,2342.9,1474.4,2344.2,1474.4,2345.8z"/>
			<path class="st1" d="M1494.3,2352.5c-1.4,1.1-2.8,1.9-4.1,2.5c-1.3,0.6-2.8,0.8-4.5,0.8c-1.5,0-2.8-0.3-4-0.9
				c-1.1-0.6-2-1.4-2.6-2.4c-0.6-1-0.9-2.1-0.9-3.3c0-1.6,0.5-3,1.5-4.1c1-1.1,2.4-1.9,4.2-2.3c0.4-0.1,1.3-0.3,2.8-0.6
				c1.5-0.3,2.8-0.6,3.8-0.8c1.1-0.3,2.2-0.6,3.4-0.9c-0.1-1.6-0.4-2.7-0.9-3.4c-0.6-0.7-1.7-1.1-3.4-1.1c-1.5,0-2.6,0.2-3.4,0.6
				c-0.8,0.4-1.4,1-1.9,1.9c-0.5,0.8-0.9,1.4-1.1,1.7c-0.2,0.3-0.7,0.4-1.4,0.4c-0.7,0-1.2-0.2-1.7-0.6c-0.5-0.4-0.7-1-0.7-1.6
				c0-1,0.4-2,1.1-3c0.7-1,1.9-1.8,3.4-2.4c1.6-0.6,3.5-0.9,5.8-0.9c2.6,0,4.6,0.3,6.1,0.9c1.5,0.6,2.5,1.6,3.1,2.9
				c0.6,1.3,0.9,3.1,0.9,5.3c0,1.4,0,2.6,0,3.5c0,1,0,2,0,3.2c0,1.1,0.2,2.3,0.6,3.5c0.4,1.2,0.5,2,0.5,2.3c0,0.6-0.3,1.2-0.9,1.7
				c-0.6,0.5-1.2,0.7-1.9,0.7c-0.6,0-1.2-0.3-1.8-0.9C1495.6,2354.4,1495,2353.6,1494.3,2352.5z M1494,2344c-0.9,0.3-2.1,0.7-3.8,1
				c-1.6,0.4-2.8,0.6-3.4,0.8c-0.6,0.2-1.2,0.5-1.8,1c-0.6,0.5-0.9,1.2-0.9,2c0,0.9,0.3,1.7,1,2.3c0.7,0.6,1.6,0.9,2.7,0.9
				c1.2,0,2.2-0.3,3.2-0.8c1-0.5,1.7-1.2,2.2-2c0.5-0.9,0.8-2.4,0.8-4.4V2344z"/>
			<path class="st1" d="M1505.7,2352.3v-25.6c0-1.2,0.3-2.1,0.8-2.7c0.5-0.6,1.2-0.9,2.1-0.9s1.6,0.3,2.2,0.9
				c0.5,0.6,0.8,1.5,0.8,2.7v25.6c0,1.2-0.3,2.1-0.8,2.7c-0.6,0.6-1.3,0.9-2.1,0.9c-0.9,0-1.6-0.3-2.1-0.9
				C1506,2354.3,1505.7,2353.4,1505.7,2352.3z"/>
			<path class="st1" d="M1539.7,2343.9c0,1.8-0.3,3.4-0.8,4.9c-0.5,1.5-1.3,2.8-2.4,3.8c-1,1.1-2.3,1.9-3.7,2.4
				c-1.4,0.6-3.1,0.9-4.9,0.9c-1.8,0-3.4-0.3-4.8-0.9c-1.4-0.6-2.7-1.4-3.7-2.5c-1-1.1-1.8-2.3-2.4-3.8c-0.5-1.5-0.8-3.1-0.8-4.8
				c0-1.8,0.3-3.4,0.8-4.9c0.5-1.5,1.3-2.7,2.4-3.8c1-1.1,2.3-1.9,3.7-2.4c1.5-0.6,3.1-0.9,4.8-0.9c1.8,0,3.4,0.3,4.9,0.9
				c1.5,0.6,2.7,1.4,3.7,2.5c1,1.1,1.8,2.3,2.4,3.8C1539.5,2340.5,1539.7,2342.1,1539.7,2343.9z M1533.8,2343.9
				c0-2.4-0.5-4.3-1.6-5.6c-1.1-1.3-2.5-2-4.3-2c-1.2,0-2.2,0.3-3,0.9c-0.9,0.6-1.6,1.5-2,2.6c-0.5,1.2-0.7,2.5-0.7,4.1
				c0,1.5,0.2,2.9,0.7,4c0.5,1.2,1.1,2,2,2.6c0.9,0.6,1.9,0.9,3.1,0.9c1.8,0,3.2-0.7,4.3-2
				C1533.3,2348.1,1533.8,2346.2,1533.8,2343.9z"/>
			<path class="st1" d="M1549.7,2335.1v0.7c1-1.4,2.2-2.4,3.4-3c1.2-0.6,2.6-1,4.2-1c1.6,0,2.9,0.3,4.2,1c1.2,0.7,2.1,1.6,2.7,2.9
				c0.4,0.7,0.6,1.5,0.8,2.3c0.1,0.8,0.2,1.9,0.2,3.2v11c0,1.2-0.3,2.1-0.8,2.7c-0.5,0.6-1.2,0.9-2.1,0.9c-0.9,0-1.6-0.3-2.1-0.9
				c-0.5-0.6-0.8-1.5-0.8-2.7v-9.8c0-1.9-0.3-3.4-0.8-4.5c-0.5-1-1.6-1.5-3.2-1.5c-1.1,0-2,0.3-2.9,0.9c-0.9,0.6-1.5,1.5-1.9,2.6
				c-0.3,0.9-0.4,2.5-0.4,4.9v7.4c0,1.2-0.3,2.1-0.8,2.7c-0.6,0.6-1.3,0.9-2.1,0.9c-0.8,0-1.5-0.3-2.1-0.9c-0.5-0.6-0.8-1.5-0.8-2.7
				v-17c0-1.1,0.2-2,0.7-2.5c0.5-0.6,1.2-0.8,2-0.8c0.5,0,1,0.1,1.4,0.4c0.4,0.2,0.8,0.6,1,1.1
				C1549.6,2333.8,1549.7,2334.4,1549.7,2335.1z"/>
		</g>
	</g>
	<path class="st1" d="M2054.7,2659.7l-10.3-9.5c-1.3-1.2-3.2-1.1-4.4,0.2l-9.5,10.3c0,0-8.7,2.6-14.4-2.7
		c-5.7-5.3-3.9-14.1-3.9-14.1l9.5-10.3c1.2-1.3,1.1-3.2-0.2-4.4l-10.3-9.5c-1.3-1.2-3.2-1.1-4.4,0.2l-9.5,10.3
		c0,0-11.6,12.6,12.5,34.7c24.1,22.1,35.6,9.5,35.6,9.5l9.5-10.3C2056,2662.9,2055.9,2660.9,2054.7,2659.7z"/>
	<g>
		<path class="st1" d="M2208.8,2511.7v28.8c0,2.5-0.1,4.6-0.3,6.4c-0.2,1.8-0.7,3.5-1.4,5.3c-1.3,3-3.3,5.4-6.2,7.1
			c-2.9,1.7-6.4,2.5-10.5,2.5c-3.7,0-6.8-0.6-9.3-1.8c-2.5-1.2-4.5-3.1-6-5.7c-0.8-1.4-1.5-3-2-4.8c-0.5-1.8-0.8-3.6-0.8-5.2
			c0-1.8,0.5-3.1,1.5-4c1-0.9,2.2-1.4,3.8-1.4c1.5,0,2.6,0.4,3.3,1.3s1.3,2.2,1.7,4c0.4,1.9,0.9,3.5,1.3,4.6c0.4,1.2,1.1,2.1,2.1,3
			c1,0.8,2.4,1.2,4.3,1.2c4.9,0,7.4-3.6,7.4-10.8v-30.4c0-2.3,0.5-3.9,1.5-5.1c1-1.1,2.3-1.7,4-1.7c1.7,0,3.1,0.6,4.1,1.7
			C2208.3,2507.7,2208.8,2509.4,2208.8,2511.7z"/>
		<path class="st1" d="M2246.8,2556v-1.3c-1.2,1.6-2.5,2.9-3.9,3.9c-1.4,1.1-2.8,1.8-4.4,2.3c-1.6,0.5-3.4,0.8-5.5,0.8
			c-2.5,0-4.7-0.5-6.7-1.5c-2-1-3.5-2.4-4.6-4.2c-1.3-2.2-1.9-5.3-1.9-9.4v-20.3c0-2.1,0.5-3.6,1.4-4.6c0.9-1,2.2-1.5,3.7-1.5
			c1.6,0,2.8,0.5,3.8,1.5c1,1,1.4,2.6,1.4,4.6v16.4c0,2.4,0.2,4.4,0.6,6c0.4,1.6,1.1,2.9,2.2,3.8c1,0.9,2.4,1.4,4.2,1.4
			c1.7,0,3.4-0.5,4.9-1.5c1.5-1,2.6-2.4,3.3-4c0.6-1.5,0.9-4.6,0.9-9.5v-12.5c0-2,0.5-3.6,1.4-4.6c1-1,2.2-1.5,3.7-1.5
			c1.5,0,2.8,0.5,3.7,1.5c0.9,1,1.4,2.5,1.4,4.6v29.7c0,2-0.4,3.4-1.3,4.4c-0.9,1-2,1.5-3.4,1.5c-1.4,0-2.6-0.5-3.5-1.5
			C2247.3,2559.3,2246.8,2557.8,2246.8,2556z"/>
		<path class="st1" d="M2266.6,2555.6v-44.4c0-2,0.5-3.6,1.4-4.7c0.9-1.1,2.1-1.6,3.7-1.6c1.6,0,2.8,0.5,3.8,1.6
			c1,1,1.4,2.6,1.4,4.7v44.4c0,2.1-0.5,3.6-1.4,4.7c-1,1-2.2,1.6-3.7,1.6c-1.5,0-2.7-0.5-3.7-1.6
			C2267.1,2559.1,2266.6,2557.6,2266.6,2555.6z"/>
		<path class="st1" d="M2292.6,2515.4c-1.4,0-2.6-0.4-3.7-1.3c-1-0.9-1.5-2.1-1.5-3.7c0-1.5,0.5-2.6,1.6-3.6c1-0.9,2.2-1.4,3.6-1.4
			c1.3,0,2.5,0.4,3.5,1.3c1,0.9,1.5,2.1,1.5,3.7c0,1.6-0.5,2.8-1.5,3.7C2295.2,2514.9,2294,2515.4,2292.6,2515.4z M2297.7,2526v29.6
			c0,2.1-0.5,3.6-1.5,4.7c-1,1.1-2.2,1.6-3.7,1.6s-2.7-0.5-3.7-1.6c-0.9-1.1-1.4-2.6-1.4-4.6v-29.3c0-2,0.5-3.6,1.4-4.6
			c0.9-1,2.2-1.5,3.7-1.5s2.7,0.5,3.7,1.5C2297.2,2522.7,2297.7,2524.1,2297.7,2526z"/>
		<path class="st1" d="M2336.9,2543.5h-20c0,2.3,0.5,4.4,1.4,6.2c0.9,1.8,2.1,3.1,3.6,4c1.5,0.9,3.2,1.4,5,1.4
			c1.2,0,2.3-0.1,3.4-0.4c1-0.3,2-0.7,2.9-1.4c1-0.6,1.8-1.3,2.6-2s1.8-1.7,3.1-2.9c0.5-0.5,1.3-0.7,2.3-0.7c1.1,0,1.9,0.3,2.6,0.9
			s1,1.4,1,2.4c0,0.9-0.4,2-1.1,3.2c-0.7,1.2-1.8,2.4-3.3,3.6c-1.5,1.1-3.3,2.1-5.5,2.8c-2.2,0.8-4.8,1.1-7.6,1.1
			c-6.6,0-11.7-1.9-15.3-5.6c-3.7-3.8-5.5-8.8-5.5-15.3c0-3,0.5-5.8,1.4-8.4c0.9-2.6,2.2-4.8,3.9-6.7c1.7-1.9,3.9-3.3,6.4-4.3
			c2.5-1,5.3-1.5,8.4-1.5c4,0,7.4,0.8,10.3,2.5c2.9,1.7,5,3.9,6.4,6.5c1.4,2.7,2.1,5.4,2.1,8.2c0,2.6-0.7,4.2-2.2,5
			C2341.6,2543.1,2339.5,2543.5,2336.9,2543.5z M2316.8,2537.7h18.6c-0.3-3.5-1.2-6.1-2.8-7.9c-1.6-1.7-3.8-2.6-6.5-2.6
			c-2.6,0-4.6,0.9-6.3,2.6C2318.2,2531.6,2317.2,2534.2,2316.8,2537.7z"/>
		<path class="st1" d="M2354.5,2521h1.1v-6.2c0-1.7,0-2.9,0.1-3.9c0.1-0.9,0.3-1.7,0.7-2.4c0.4-0.7,1-1.3,1.7-1.7
			c0.8-0.4,1.6-0.7,2.5-0.7c1.3,0,2.5,0.5,3.5,1.5c0.7,0.7,1.1,1.4,1.3,2.4c0.2,0.9,0.3,2.3,0.3,4v7h3.8c1.5,0,2.6,0.3,3.3,1
			c0.8,0.7,1.1,1.6,1.1,2.6c0,1.4-0.5,2.3-1.6,2.9c-1.1,0.6-2.6,0.8-4.7,0.8h-1.9v18.8c0,1.6,0.1,2.8,0.2,3.7
			c0.1,0.9,0.4,1.6,0.9,2.1c0.5,0.5,1.3,0.8,2.4,0.8c0.6,0,1.4-0.1,2.4-0.3c1-0.2,1.8-0.3,2.4-0.3c0.8,0,1.6,0.3,2.2,1
			c0.7,0.7,1,1.5,1,2.5c0,1.7-0.9,2.9-2.7,3.8c-1.8,0.9-4.4,1.3-7.8,1.3c-3.2,0-5.6-0.5-7.3-1.6c-1.7-1.1-2.7-2.6-3.2-4.5
			c-0.5-1.9-0.8-4.4-0.8-7.6v-19.7h-1.4c-1.5,0-2.6-0.4-3.4-1.1c-0.8-0.7-1.2-1.6-1.2-2.7c0-1.1,0.4-2,1.2-2.6
			C2351.8,2521.4,2352.9,2521,2354.5,2521z"/>
		<path class="st1" d="M2442.9,2544.3c0,3.3-0.9,6.3-2.6,9c-1.7,2.7-4.2,4.7-7.5,6.2c-3.3,1.5-7.2,2.3-11.7,2.3
			c-5.4,0-9.9-1-13.4-3.1c-2.5-1.5-4.5-3.4-6.1-5.9c-1.6-2.5-2.3-4.9-2.3-7.2c0-1.4,0.5-2.5,1.4-3.5c0.9-1,2.1-1.4,3.6-1.4
			c1.2,0,2.2,0.4,3,1.1s1.5,1.9,2.1,3.3c0.7,1.8,1.5,3.2,2.3,4.4c0.8,1.2,2,2.1,3.4,2.9c1.5,0.8,3.4,1.1,5.8,1.1c3.3,0,6-0.8,8-2.3
			c2.1-1.5,3.1-3.5,3.1-5.8c0-1.8-0.6-3.3-1.7-4.4c-1.1-1.1-2.6-2-4.3-2.6c-1.8-0.6-4.1-1.2-7.1-1.9c-4-0.9-7.3-2-9.9-3.2
			c-2.7-1.2-4.8-2.9-6.3-5.1c-1.6-2.1-2.3-4.8-2.3-8c0-3,0.8-5.7,2.5-8.1c1.7-2.4,4-4.2,7.2-5.4c3.1-1.3,6.8-1.9,11-1.9
			c3.4,0,6.3,0.4,8.8,1.3c2.5,0.8,4.5,2,6.1,3.3c1.6,1.4,2.8,2.8,3.6,4.4c0.8,1.5,1.1,3,1.1,4.5c0,1.3-0.5,2.5-1.4,3.6
			c-0.9,1.1-2.1,1.6-3.5,1.6c-1.3,0-2.2-0.3-2.9-1c-0.7-0.6-1.4-1.7-2.2-3.1c-1-2.1-2.2-3.7-3.6-4.9c-1.4-1.2-3.7-1.7-6.8-1.7
			c-2.9,0-5.2,0.6-7,1.9c-1.8,1.3-2.6,2.8-2.6,4.6c0,1.1,0.3,2.1,0.9,2.9c0.6,0.8,1.4,1.5,2.5,2.1c1.1,0.6,2.1,1,3.2,1.4
			c1.1,0.3,2.9,0.8,5.3,1.4c3.1,0.7,5.9,1.5,8.4,2.4c2.5,0.9,4.7,1.9,6.4,3.2c1.8,1.3,3.1,2.8,4.1,4.7
			C2442.4,2539.2,2442.9,2541.6,2442.9,2544.3z"/>
		<path class="st1" d="M2477.5,2556c-2.5,1.9-4.9,3.4-7.2,4.3c-2.3,1-4.9,1.4-7.8,1.4c-2.6,0-4.9-0.5-6.9-1.6c-2-1-3.5-2.4-4.6-4.2
			c-1.1-1.8-1.6-3.7-1.6-5.8c0-2.8,0.9-5.2,2.7-7.2c1.8-2,4.2-3.3,7.3-4c0.7-0.1,2.3-0.5,4.8-1c2.6-0.5,4.8-1,6.6-1.4
			c1.8-0.4,3.8-1,6-1.6c-0.1-2.7-0.7-4.7-1.6-5.9c-1-1.3-3-1.9-6-1.9c-2.6,0-4.6,0.4-5.9,1.1c-1.3,0.7-2.4,1.8-3.4,3.3
			c-0.9,1.5-1.6,2.4-2,2.9c-0.4,0.5-1.2,0.7-2.5,0.7c-1.2,0-2.1-0.4-3-1.1c-0.8-0.7-1.3-1.7-1.3-2.8c0-1.8,0.6-3.6,1.9-5.3
			c1.3-1.7,3.3-3.1,6-4.2c2.7-1.1,6.1-1.7,10.1-1.7c4.5,0,8,0.5,10.6,1.6c2.6,1.1,4.4,2.7,5.5,5c1.1,2.3,1.6,5.4,1.6,9.2
			c0,2.4,0,4.4,0,6.1c0,1.7,0,3.5-0.1,5.6c0,1.9,0.3,3.9,1,6c0.6,2.1,1,3.4,1,4c0,1.1-0.5,2-1.5,2.9c-1,0.9-2.1,1.3-3.4,1.3
			c-1.1,0-2.1-0.5-3.1-1.5C2479.7,2559.3,2478.6,2557.9,2477.5,2556z M2476.8,2541.2c-1.5,0.6-3.7,1.1-6.5,1.7
			c-2.9,0.6-4.8,1.1-5.9,1.4c-1.1,0.3-2.2,0.9-3.2,1.7c-1,0.8-1.5,2-1.5,3.5c0,1.6,0.6,2.9,1.8,4c1.2,1.1,2.7,1.6,4.6,1.6
			c2,0,3.9-0.4,5.6-1.3c1.7-0.9,3-2,3.8-3.4c0.9-1.5,1.4-4.1,1.4-7.7V2541.2z"/>
		<path class="st1" d="M2497.3,2555.6v-44.4c0-2,0.5-3.6,1.4-4.7c0.9-1.1,2.1-1.6,3.7-1.6c1.6,0,2.8,0.5,3.8,1.6
			c1,1,1.4,2.6,1.4,4.7v44.4c0,2.1-0.5,3.6-1.4,4.7c-1,1-2.2,1.6-3.7,1.6c-1.5,0-2.7-0.5-3.7-1.6
			C2497.7,2559.1,2497.3,2557.6,2497.3,2555.6z"/>
		<path class="st1" d="M2556.4,2541c0,3.1-0.5,5.9-1.4,8.4c-1,2.6-2.3,4.8-4.1,6.6c-1.8,1.9-4,3.3-6.5,4.3c-2.5,1-5.3,1.5-8.4,1.5
			c-3.1,0-5.9-0.5-8.4-1.5c-2.5-1-4.6-2.4-6.4-4.3c-1.8-1.9-3.2-4.1-4.1-6.6c-0.9-2.5-1.4-5.3-1.4-8.4c0-3.1,0.5-5.9,1.4-8.5
			c1-2.6,2.3-4.8,4.1-6.6c1.8-1.8,3.9-3.2,6.5-4.2c2.5-1,5.3-1.5,8.4-1.5c3.1,0,5.9,0.5,8.4,1.5c2.5,1,4.7,2.4,6.5,4.3
			c1.8,1.9,3.2,4.1,4.1,6.6C2556,2535.1,2556.4,2537.9,2556.4,2541z M2546.2,2541c0-4.2-0.9-7.4-2.8-9.8c-1.8-2.3-4.3-3.5-7.4-3.5
			c-2,0-3.8,0.5-5.3,1.6c-1.5,1-2.7,2.6-3.5,4.6c-0.8,2-1.2,4.4-1.2,7.1c0,2.7,0.4,5,1.2,7c0.8,2,2,3.5,3.5,4.6
			c1.5,1.1,3.3,1.6,5.3,1.6c3.1,0,5.6-1.2,7.4-3.5C2545.2,2548.3,2546.2,2545.1,2546.2,2541z"/>
		<path class="st1" d="M2573.8,2525.8v1.2c1.8-2.4,3.8-4.1,5.9-5.2c2.1-1.1,4.6-1.7,7.4-1.7c2.7,0,5.1,0.6,7.2,1.8
			c2.1,1.2,3.7,2.8,4.8,5c0.7,1.3,1.1,2.6,1.3,4.1c0.2,1.5,0.3,3.3,0.3,5.6v19.1c0,2.1-0.5,3.6-1.4,4.7c-0.9,1.1-2.2,1.6-3.7,1.6
			c-1.5,0-2.8-0.5-3.7-1.6s-1.4-2.6-1.4-4.6v-17.1c0-3.4-0.5-6-1.4-7.7c-0.9-1.8-2.8-2.7-5.6-2.7c-1.8,0-3.5,0.5-5,1.6
			c-1.5,1.1-2.6,2.6-3.3,4.5c-0.5,1.5-0.8,4.4-0.8,8.6v12.8c0,2.1-0.5,3.6-1.4,4.7c-1,1-2.2,1.6-3.7,1.6c-1.5,0-2.7-0.5-3.6-1.6
			c-1-1.1-1.4-2.6-1.4-4.6V2526c0-2,0.4-3.4,1.3-4.4c0.9-1,2-1.4,3.5-1.4c0.9,0,1.7,0.2,2.4,0.6c0.7,0.4,1.3,1.1,1.7,1.9
			C2573.6,2523.5,2573.8,2524.6,2573.8,2525.8z"/>
		<path class="st1" d="M2198.1,2663.9h-9.7v-14.3H2174v-9.8h14.4v-14.4h9.7v14.4h14.4v9.8h-14.4V2663.9z"/>
		<path class="st1" d="M2237.3,2666.7v-34.1c-6.4,4.9-10.6,7.3-12.8,7.3c-1.1,0-2-0.4-2.8-1.3c-0.8-0.8-1.2-1.8-1.2-2.9
			c0-1.3,0.4-2.2,1.2-2.8c0.8-0.6,2.2-1.4,4.2-2.3c3-1.4,5.4-2.9,7.3-4.5c1.8-1.6,3.4-3.3,4.8-5.3s2.3-3.2,2.7-3.6
			c0.4-0.5,1.2-0.7,2.4-0.7c1.3,0,2.4,0.5,3.2,1.5s1.2,2.4,1.2,4.2v43c0,5-1.7,7.5-5.1,7.5c-1.5,0-2.8-0.5-3.7-1.5
			C2237.8,2670.2,2237.3,2668.7,2237.3,2666.7z"/>
		<path class="st1" d="M2285.4,2652c0-3.8,0.3-7.3,1-10.6c0.7-3.3,1.6-6.5,3-9.7c1.3-3.2,3-6.4,4.9-9.6c1.2-2,2.2-3.4,3-4.2
			c0.8-0.9,1.6-1.4,2.3-1.6c0.7-0.2,1.6-0.3,2.8-0.3c1.2,0,1.8,0.3,1.8,1c0,0.2-0.6,1.6-1.7,4.1c-1.2,2.5-2.2,5.1-3.2,7.8
			c-1,2.7-2,6.1-2.8,10.2c-0.9,4.1-1.3,8.4-1.3,12.9c0,4.5,0.4,8.8,1.3,12.8c0.9,4,1.8,7.5,2.9,10.5c1.1,3,2.2,5.6,3.3,7.9
			c1.1,2.3,1.6,3.6,1.6,3.8c0,0.7-0.6,1-1.8,1c-1.2,0-2.1-0.1-2.8-0.4c-0.7-0.2-1.5-0.8-2.2-1.7c-0.8-0.9-1.8-2.3-3-4.2
			c-2-3.3-3.6-6.5-4.9-9.6c-1.3-3.1-2.3-6.2-2.9-9.6C2285.7,2659.4,2285.4,2655.8,2285.4,2652z"/>
		<path class="st1" d="M2334.6,2667.1v-7h-18.8c-2.4,0-4.2-0.5-5.3-1.6c-1.2-1.1-1.8-2.5-1.8-4.4c0-0.5,0.1-1,0.3-1.4
			c0.2-0.5,0.4-1,0.8-1.5c0.4-0.5,0.7-1.1,1.1-1.6c0.4-0.5,0.8-1.1,1.4-1.8l19.9-26.6c1.3-1.8,2.4-3,3.2-3.8c0.8-0.8,1.8-1.2,3-1.2
			c3.8,0,5.7,2.2,5.7,6.5v29h1.6c1.9,0,3.5,0.3,4.6,0.8c1.2,0.5,1.7,1.7,1.7,3.5c0,1.5-0.5,2.5-1.4,3.2c-1,0.7-2.4,1-4.3,1h-2.3v7
			c0,1.9-0.4,3.4-1.3,4.3c-0.9,0.9-2,1.4-3.4,1.4c-1.4,0-2.5-0.5-3.4-1.4C2335.1,2670.4,2334.6,2669,2334.6,2667.1z M2318.5,2651.7
			h16.1v-21.8L2318.5,2651.7z"/>
		<path class="st1" d="M2395.4,2644.9c0,4.1-0.3,7.6-0.8,10.6c-0.5,3-1.4,5.6-2.8,8c-1.7,3-3.9,5.2-6.6,6.8c-2.7,1.6-5.7,2.4-9,2.4
			c-3.8,0-7.2-1.1-10.2-3.2s-5.3-5.1-6.8-8.9c-0.8-2.1-1.3-4.4-1.7-6.9c-0.4-2.5-0.5-5.2-0.5-8.2c0-3.8,0.2-7.2,0.6-10.2
			c0.4-3,1-5.6,1.9-7.8c1.5-3.6,3.6-6.3,6.4-8.2c2.8-1.9,6.2-2.8,10.1-2.8c2.6,0,4.9,0.4,7,1.3c2.1,0.8,3.9,2.1,5.5,3.7
			c1.6,1.6,2.9,3.6,4,6C2394.5,2631.5,2395.4,2637.3,2395.4,2644.9z M2385.2,2644.1c0-4.6-0.3-8.3-0.8-11.2
			c-0.6-2.9-1.5-5.1-2.8-6.6c-1.3-1.5-3.1-2.2-5.4-2.2c-3.3,0-5.6,1.7-6.9,5c-1.3,3.3-1.9,8.5-1.9,15.4c0,4.7,0.3,8.6,0.8,11.6
			s1.5,5.3,2.8,6.8c1.3,1.5,3.1,2.3,5.3,2.3c2.3,0,4.1-0.8,5.4-2.4s2.2-3.9,2.7-6.9S2385.2,2649,2385.2,2644.1z"/>
		<path class="st1" d="M2420.1,2638.6c2.3,0,4.3-0.7,5.9-2s2.5-3.3,2.5-5.8c0-1.9-0.7-3.6-2-5c-1.3-1.4-3.1-2.1-5.4-2.1
			c-1.5,0-2.8,0.2-3.8,0.6c-1,0.4-1.8,1-2.3,1.7s-1.1,1.6-1.6,2.7c-0.5,1.1-1,2.1-1.4,3.1c-0.2,0.5-0.7,0.9-1.4,1.2
			c-0.7,0.3-1.4,0.5-2.3,0.5c-1,0-1.9-0.4-2.8-1.2c-0.8-0.8-1.3-1.9-1.3-3.2c0-1.3,0.4-2.7,1.2-4.1c0.8-1.4,1.9-2.8,3.5-4.1
			c1.5-1.3,3.4-2.3,5.6-3.1c2.3-0.8,4.8-1.2,7.5-1.2c2.4,0,4.6,0.3,6.6,1c2,0.7,3.7,1.6,5.2,2.9c1.5,1.3,2.6,2.7,3.3,4.4
			c0.8,1.7,1.1,3.4,1.1,5.3c0,2.5-0.5,4.6-1.6,6.4c-1.1,1.8-2.6,3.5-4.7,5.2c2,1.1,3.6,2.3,4.9,3.6c1.3,1.4,2.3,2.8,3,4.5
			c0.7,1.6,1,3.4,1,5.3c0,2.3-0.5,4.5-1.4,6.6c-0.9,2.1-2.3,4-4,5.7c-1.8,1.7-3.9,3-6.3,3.9c-2.4,0.9-5.1,1.4-8.1,1.4
			c-3,0-5.7-0.5-8.1-1.6s-4.3-2.4-5.9-4c-1.5-1.6-2.7-3.3-3.5-5c-0.8-1.7-1.2-3.2-1.2-4.3c0-1.4,0.5-2.6,1.4-3.5
			c0.9-0.9,2.1-1.3,3.5-1.3c0.7,0,1.4,0.2,2,0.6c0.7,0.4,1.1,0.9,1.3,1.5c1.3,3.5,2.7,6.1,4.2,7.7c1.5,1.7,3.6,2.5,6.3,2.5
			c1.6,0,3-0.4,4.5-1.1c1.4-0.8,2.6-1.9,3.6-3.4c0.9-1.5,1.4-3.2,1.4-5.2c0-2.9-0.8-5.2-2.4-6.9c-1.6-1.7-3.8-2.5-6.7-2.5
			c-0.5,0-1.3,0.1-2.3,0.2c-1.1,0.1-1.7,0.2-2,0.2c-1.4,0-2.4-0.3-3.2-1c-0.8-0.7-1.1-1.6-1.1-2.9c0-1.2,0.5-2.2,1.4-2.9
			c0.9-0.7,2.2-1.1,4-1.1H2420.1z"/>
		<path class="st1" d="M2467.2,2652c0,5.5-0.7,10.6-2.2,15.3c-1.5,4.7-3.7,9.5-6.7,14.4c-1.7,2.8-3,4.5-4,5.2c-1,0.7-2.3,1.1-4,1.1
			c-1.3,0-1.9-0.3-1.9-1c0-0.2,0.5-1.4,1.6-3.6c1.1-2.2,2.1-4.8,3.3-7.8s2.1-6.6,3-10.7c0.8-4.1,1.3-8.4,1.3-12.9
			c0-4.5-0.4-8.8-1.3-12.9s-1.8-7.7-3-10.7c-1.1-3-2.2-5.6-3.3-7.8c-1.1-2.2-1.6-3.4-1.6-3.6c0-0.7,0.6-1,1.9-1c1.8,0,3.1,0.3,4.1,1
			c1,0.7,2.3,2.4,3.9,5.2c1.5,2.5,2.8,4.9,3.9,7.2c1.1,2.4,2,4.8,2.8,7.1c0.7,2.4,1.3,4.9,1.7,7.4S2467.2,2649.1,2467.2,2652z"/>
		<path class="st1" d="M2490.7,2656.4h-11.9c-1.8,0-3.2-0.4-4.1-1.3c-0.9-0.8-1.4-1.9-1.4-3.2c0-1.4,0.5-2.4,1.4-3.3
			c0.9-0.8,2.3-1.3,4.1-1.3h11.9c1.9,0,3.2,0.4,4.1,1.3c0.9,0.8,1.4,1.9,1.4,3.3c0,1.3-0.5,2.4-1.4,3.2
			C2494,2656,2492.6,2656.4,2490.7,2656.4z"/>
		<path class="st1" d="M2539.6,2644.9c0,4.1-0.3,7.6-0.8,10.6c-0.5,3-1.4,5.6-2.8,8c-1.7,3-3.9,5.2-6.6,6.8c-2.7,1.6-5.7,2.4-9,2.4
			c-3.8,0-7.2-1.1-10.2-3.2c-3-2.2-5.3-5.1-6.8-8.9c-0.8-2.1-1.3-4.4-1.7-6.9c-0.4-2.5-0.5-5.2-0.5-8.2c0-3.8,0.2-7.2,0.6-10.2
			c0.4-3,1-5.6,1.9-7.8c1.5-3.6,3.6-6.3,6.4-8.2c2.8-1.9,6.2-2.8,10.1-2.8c2.6,0,4.9,0.4,7,1.3c2.1,0.8,3.9,2.1,5.5,3.7
			c1.6,1.6,2.9,3.6,4,6C2538.6,2631.5,2539.6,2637.3,2539.6,2644.9z M2529.3,2644.1c0-4.6-0.3-8.3-0.8-11.2
			c-0.6-2.9-1.5-5.1-2.8-6.6c-1.3-1.5-3.1-2.2-5.4-2.2c-3.3,0-5.6,1.7-6.9,5c-1.3,3.3-1.9,8.5-1.9,15.4c0,4.7,0.3,8.6,0.8,11.6
			c0.6,3,1.5,5.3,2.8,6.8c1.3,1.5,3.1,2.3,5.3,2.3c2.3,0,4.1-0.8,5.4-2.4c1.3-1.6,2.2-3.9,2.7-6.9
			C2529,2652.9,2529.3,2649,2529.3,2644.1z"/>
		<path class="st1" d="M2585.2,2644.9c0,4.1-0.3,7.6-0.8,10.6c-0.5,3-1.4,5.6-2.8,8c-1.7,3-3.9,5.2-6.6,6.8c-2.7,1.6-5.7,2.4-9,2.4
			c-3.8,0-7.2-1.1-10.2-3.2s-5.3-5.1-6.8-8.9c-0.8-2.1-1.3-4.4-1.7-6.9c-0.4-2.5-0.5-5.2-0.5-8.2c0-3.8,0.2-7.2,0.6-10.2
			c0.4-3,1-5.6,1.9-7.8c1.5-3.6,3.6-6.3,6.4-8.2c2.8-1.9,6.2-2.8,10.1-2.8c2.6,0,4.9,0.4,7,1.3c2.1,0.8,3.9,2.1,5.5,3.7
			c1.6,1.6,2.9,3.6,4,6C2584.3,2631.5,2585.2,2637.3,2585.2,2644.9z M2574.9,2644.1c0-4.6-0.3-8.3-0.8-11.2
			c-0.6-2.9-1.5-5.1-2.8-6.6c-1.3-1.5-3.1-2.2-5.4-2.2c-3.3,0-5.6,1.7-6.9,5c-1.3,3.3-1.9,8.5-1.9,15.4c0,4.7,0.3,8.6,0.8,11.6
			s1.5,5.3,2.8,6.8c1.3,1.5,3.1,2.3,5.3,2.3c2.3,0,4.1-0.8,5.4-2.4s2.2-3.9,2.7-6.9S2574.9,2649,2574.9,2644.1z"/>
		<path class="st1" d="M2630.9,2644.9c0,4.1-0.2,7.6-0.8,10.6c-0.5,3-1.4,5.6-2.8,8c-1.7,3-3.9,5.2-6.6,6.8c-2.7,1.6-5.7,2.4-9,2.4
			c-3.8,0-7.2-1.1-10.2-3.2s-5.3-5.1-6.8-8.9c-0.8-2.1-1.3-4.4-1.7-6.9c-0.4-2.5-0.5-5.2-0.5-8.2c0-3.8,0.2-7.2,0.6-10.2
			s1-5.6,1.9-7.8c1.5-3.6,3.6-6.3,6.4-8.2c2.8-1.9,6.2-2.8,10.1-2.8c2.6,0,4.9,0.4,7,1.3c2.1,0.8,3.9,2.1,5.5,3.7
			c1.6,1.6,2.9,3.6,4,6C2629.9,2631.5,2630.9,2637.3,2630.9,2644.9z M2620.6,2644.1c0-4.6-0.3-8.3-0.8-11.2
			c-0.6-2.9-1.5-5.1-2.8-6.6c-1.3-1.5-3.1-2.2-5.4-2.2c-3.3,0-5.6,1.7-6.9,5c-1.3,3.3-1.9,8.5-1.9,15.4c0,4.7,0.3,8.6,0.8,11.6
			c0.6,3,1.5,5.3,2.8,6.8c1.3,1.5,3.1,2.3,5.3,2.3c2.3,0,4.1-0.8,5.4-2.4s2.2-3.9,2.7-6.9S2620.6,2649,2620.6,2644.1z"/>
		<path class="st1" d="M2653.3,2656.4h-11.9c-1.8,0-3.2-0.4-4.1-1.3c-0.9-0.8-1.4-1.9-1.4-3.2c0-1.4,0.5-2.4,1.4-3.3
			c0.9-0.8,2.3-1.3,4.1-1.3h11.9c1.9,0,3.2,0.4,4.1,1.3c0.9,0.8,1.4,1.9,1.4,3.3c0,1.3-0.5,2.4-1.4,3.2
			C2656.6,2656,2655.2,2656.4,2653.3,2656.4z"/>
		<path class="st1" d="M2681.8,2666.7v-34.1c-6.4,4.9-10.6,7.3-12.8,7.3c-1.1,0-2-0.4-2.8-1.3c-0.8-0.8-1.2-1.8-1.2-2.9
			c0-1.3,0.4-2.2,1.2-2.8c0.8-0.6,2.2-1.4,4.2-2.3c3-1.4,5.4-2.9,7.3-4.5c1.8-1.6,3.4-3.3,4.8-5.3s2.3-3.2,2.7-3.6
			c0.4-0.5,1.2-0.7,2.4-0.7c1.3,0,2.4,0.5,3.2,1.5s1.2,2.4,1.2,4.2v43c0,5-1.7,7.5-5.1,7.5c-1.5,0-2.8-0.5-3.7-1.5
			C2682.3,2670.2,2681.8,2668.7,2681.8,2666.7z"/>
		<path class="st1" d="M2722.9,2663h19.6c2,0,3.4,0.4,4.5,1.2s1.5,1.9,1.5,3.3c0,1.2-0.4,2.3-1.2,3.1c-0.8,0.9-2,1.3-3.7,1.3H2716
			c-1.9,0-3.3-0.5-4.4-1.6c-1.1-1-1.6-2.3-1.6-3.7c0-0.9,0.3-2.1,1-3.6c0.7-1.5,1.4-2.7,2.2-3.5c3.3-3.5,6.3-6.4,9-8.9
			c2.7-2.5,4.6-4.1,5.7-4.9c2.1-1.5,3.8-2.9,5.1-4.4c1.4-1.5,2.4-3,3.1-4.5c0.7-1.5,1.1-3,1.1-4.5c0-1.6-0.4-3-1.1-4.3
			c-0.8-1.3-1.8-2.2-3.1-2.9c-1.3-0.7-2.7-1.1-4.3-1.1c-3.3,0-5.9,1.4-7.7,4.3c-0.3,0.4-0.7,1.4-1.3,3.1c-0.6,1.7-1.3,3-2,3.9
			c-0.7,0.9-1.8,1.4-3.2,1.4c-1.3,0-2.3-0.4-3.1-1.2c-0.8-0.8-1.2-2-1.2-3.4c0-1.7,0.4-3.5,1.2-5.4c0.8-1.9,1.9-3.6,3.5-5.1
			c1.5-1.5,3.5-2.8,5.9-3.7c2.4-0.9,5.1-1.4,8.3-1.4c3.8,0,7.1,0.6,9.8,1.8c1.8,0.8,3.3,1.9,4.6,3.3s2.4,3,3.1,4.9
			c0.7,1.8,1.1,3.7,1.1,5.7c0,3.1-0.8,5.9-2.3,8.5c-1.5,2.5-3.1,4.5-4.7,6c-1.6,1.4-4.3,3.7-8,6.8c-3.8,3.1-6.3,5.5-7.7,7.2
			C2724.2,2661.2,2723.6,2662.1,2722.9,2663z"/>
		<path class="st1" d="M2772.5,2638.6c2.3,0,4.3-0.7,5.9-2s2.5-3.3,2.5-5.8c0-1.9-0.7-3.6-2-5c-1.3-1.4-3.1-2.1-5.4-2.1
			c-1.5,0-2.8,0.2-3.8,0.6c-1,0.4-1.8,1-2.3,1.7c-0.6,0.7-1.1,1.6-1.6,2.7c-0.5,1.1-1,2.1-1.4,3.1c-0.3,0.5-0.7,0.9-1.4,1.2
			c-0.7,0.3-1.4,0.5-2.3,0.5c-1,0-1.9-0.4-2.8-1.2c-0.8-0.8-1.3-1.9-1.3-3.2c0-1.3,0.4-2.7,1.2-4.1c0.8-1.4,1.9-2.8,3.5-4.1
			c1.5-1.3,3.4-2.3,5.6-3.1c2.3-0.8,4.8-1.2,7.5-1.2c2.4,0,4.6,0.3,6.6,1c2,0.7,3.7,1.6,5.2,2.9c1.5,1.3,2.6,2.7,3.3,4.4
			c0.8,1.7,1.1,3.4,1.1,5.3c0,2.5-0.5,4.6-1.6,6.4c-1.1,1.8-2.6,3.5-4.7,5.2c2,1.1,3.6,2.3,4.9,3.6c1.3,1.4,2.3,2.8,3,4.5
			c0.7,1.6,1,3.4,1,5.3c0,2.3-0.5,4.5-1.4,6.6c-0.9,2.1-2.3,4-4,5.7c-1.8,1.7-3.9,3-6.3,3.9c-2.4,0.9-5.1,1.4-8.1,1.4
			c-3,0-5.7-0.5-8.1-1.6c-2.4-1.1-4.3-2.4-5.9-4c-1.5-1.6-2.7-3.3-3.5-5c-0.8-1.7-1.2-3.2-1.2-4.3c0-1.4,0.5-2.6,1.4-3.5
			c0.9-0.9,2.1-1.3,3.5-1.3c0.7,0,1.4,0.2,2,0.6c0.7,0.4,1.1,0.9,1.3,1.5c1.3,3.5,2.7,6.1,4.2,7.7c1.5,1.7,3.6,2.5,6.3,2.5
			c1.6,0,3-0.4,4.5-1.1c1.4-0.8,2.6-1.9,3.6-3.4c0.9-1.5,1.4-3.2,1.4-5.2c0-2.9-0.8-5.2-2.4-6.9c-1.6-1.7-3.8-2.5-6.7-2.5
			c-0.5,0-1.3,0.1-2.3,0.2c-1.1,0.1-1.7,0.2-2,0.2c-1.4,0-2.4-0.3-3.2-1c-0.8-0.7-1.1-1.6-1.1-2.9c0-1.2,0.5-2.2,1.4-2.9
			c0.9-0.7,2.2-1.1,4-1.1H2772.5z"/>
		<path class="st1" d="M2824,2667.1v-7h-18.8c-2.4,0-4.2-0.5-5.3-1.6c-1.2-1.1-1.8-2.5-1.8-4.4c0-0.5,0.1-1,0.3-1.4
			c0.2-0.5,0.4-1,0.8-1.5c0.4-0.5,0.7-1.1,1.1-1.6c0.4-0.5,0.8-1.1,1.4-1.8l19.9-26.6c1.3-1.8,2.4-3,3.2-3.8c0.8-0.8,1.8-1.2,3-1.2
			c3.8,0,5.7,2.2,5.7,6.5v29h1.6c1.9,0,3.5,0.3,4.6,0.8c1.2,0.5,1.7,1.7,1.7,3.5c0,1.5-0.5,2.5-1.4,3.2c-1,0.7-2.4,1-4.3,1h-2.3v7
			c0,1.9-0.4,3.4-1.3,4.3c-0.9,0.9-2,1.4-3.4,1.4c-1.4,0-2.5-0.5-3.4-1.4C2824.5,2670.4,2824,2669,2824,2667.1z M2807.9,2651.7h16.1
			v-21.8L2807.9,2651.7z"/>
		<path class="st1" d="M2223.7,2765.5c0,1.8-0.4,3.6-1.3,5.7c-0.9,2-2.2,4-4.1,6c-1.9,2-4.2,3.6-7.1,4.8c-2.9,1.2-6.2,1.8-10.1,1.8
			c-2.9,0-5.5-0.3-7.9-0.8c-2.4-0.5-4.5-1.4-6.5-2.6c-1.9-1.2-3.7-2.7-5.3-4.6c-1.5-1.7-2.7-3.7-3.7-5.8c-1-2.1-1.8-4.4-2.3-6.8
			c-0.5-2.4-0.8-5-0.8-7.7c0-4.4,0.6-8.4,1.9-11.9c1.3-3.5,3.1-6.5,5.5-9c2.4-2.5,5.2-4.4,8.4-5.7s6.7-2,10.3-2
			c4.5,0,8.4,0.9,11.9,2.7c3.5,1.8,6.1,4,8,6.6c1.9,2.6,2.8,5.1,2.8,7.4c0,1.3-0.5,2.4-1.4,3.4c-0.9,1-2,1.5-3.3,1.5
			c-1.4,0-2.5-0.3-3.2-1c-0.7-0.7-1.5-1.8-2.4-3.5c-1.5-2.7-3.2-4.8-5.1-6.1c-2-1.4-4.4-2-7.3-2c-4.6,0-8.2,1.7-10.9,5.2
			c-2.7,3.5-4.1,8.4-4.1,14.8c0,4.3,0.6,7.8,1.8,10.7c1.2,2.8,2.9,5,5.1,6.4s4.8,2.1,7.7,2.1c3.2,0,5.9-0.8,8.1-2.4
			c2.2-1.6,3.9-3.9,5-7c0.5-1.4,1.1-2.6,1.8-3.5c0.7-0.9,1.8-1.4,3.4-1.4c1.3,0,2.5,0.5,3.4,1.4
			C2223.2,2763,2223.7,2764.1,2223.7,2765.5z"/>
		<path class="st1" d="M2258.9,2778c-2.5,1.9-4.9,3.4-7.2,4.3c-2.3,1-4.9,1.4-7.8,1.4c-2.6,0-4.9-0.5-6.9-1.6c-2-1-3.5-2.4-4.6-4.2
			c-1.1-1.8-1.6-3.7-1.6-5.8c0-2.8,0.9-5.2,2.7-7.2c1.8-2,4.2-3.3,7.3-4c0.7-0.1,2.3-0.5,4.8-1c2.6-0.5,4.8-1,6.6-1.4
			c1.8-0.4,3.8-1,6-1.6c-0.1-2.7-0.7-4.7-1.6-5.9c-1-1.3-3-1.9-6-1.9c-2.6,0-4.6,0.4-5.9,1.1c-1.3,0.7-2.4,1.8-3.4,3.3
			c-0.9,1.5-1.6,2.4-2,2.9c-0.4,0.5-1.2,0.7-2.5,0.7c-1.2,0-2.1-0.4-3-1.1c-0.8-0.7-1.3-1.7-1.3-2.8c0-1.8,0.6-3.6,1.9-5.3
			c1.3-1.7,3.3-3.1,6-4.2c2.7-1.1,6.1-1.7,10.1-1.7c4.5,0,8,0.5,10.6,1.6c2.6,1.1,4.4,2.7,5.5,5c1.1,2.3,1.6,5.4,1.6,9.2
			c0,2.4,0,4.4,0,6.1c0,1.7,0,3.5-0.1,5.6c0,1.9,0.3,3.9,1,6c0.6,2.1,1,3.4,1,4c0,1.1-0.5,2-1.5,2.9c-1,0.9-2.1,1.3-3.4,1.3
			c-1.1,0-2.1-0.5-3.1-1.5C2261.2,2781.3,2260.1,2779.9,2258.9,2778z M2258.2,2763.2c-1.5,0.6-3.7,1.1-6.5,1.7
			c-2.9,0.6-4.8,1.1-5.9,1.4c-1.1,0.3-2.2,0.9-3.2,1.7c-1,0.8-1.5,2-1.5,3.5c0,1.6,0.6,2.9,1.8,4c1.2,1.1,2.7,1.6,4.6,1.6
			c2,0,3.9-0.4,5.6-1.3c1.7-0.9,3-2,3.8-3.4c0.9-1.5,1.4-4.1,1.4-7.7V2763.2z"/>
		<path class="st1" d="M2278.7,2777.6v-44.4c0-2,0.5-3.6,1.4-4.7c0.9-1.1,2.1-1.6,3.7-1.6c1.6,0,2.8,0.5,3.8,1.6
			c1,1,1.4,2.6,1.4,4.7v44.4c0,2.1-0.5,3.6-1.4,4.7c-1,1-2.2,1.6-3.7,1.6c-1.5,0-2.7-0.5-3.7-1.6
			C2279.2,2781.1,2278.7,2779.6,2278.7,2777.6z"/>
		<path class="st1" d="M2337.2,2749.7v29.8c0,3.4-0.4,6.3-1.1,8.8c-0.7,2.5-1.9,4.5-3.5,6.1s-3.7,2.8-6.3,3.6
			c-2.6,0.8-5.8,1.2-9.7,1.2c-3.5,0-6.7-0.5-9.5-1.5c-2.8-1-4.9-2.3-6.4-3.8c-1.5-1.6-2.3-3.2-2.3-4.8c0-1.3,0.4-2.3,1.3-3.1
			c0.9-0.8,1.9-1.2,3.1-1.2c1.5,0,2.8,0.7,3.9,2c0.6,0.7,1.1,1.4,1.7,2c0.6,0.7,1.2,1.3,2,1.8c0.7,0.5,1.6,0.9,2.6,1.1
			c1,0.2,2.2,0.4,3.5,0.4c2.7,0,4.7-0.4,6.2-1.1c1.5-0.7,2.5-1.8,3.1-3.1c0.6-1.3,0.9-2.7,1-4.3c0.1-1.5,0.2-3.9,0.2-7.3
			c-1.6,2.2-3.4,3.9-5.5,5c-2.1,1.2-4.5,1.7-7.4,1.7c-3.4,0-6.4-0.9-9-2.6c-2.6-1.8-4.5-4.2-5.9-7.4c-1.4-3.2-2.1-6.8-2.1-10.9
			c0-3.1,0.4-5.9,1.3-8.3c0.8-2.5,2-4.6,3.6-6.3c1.6-1.7,3.3-3,5.4-3.8c2-0.9,4.3-1.3,6.7-1.3c2.9,0,5.4,0.6,7.5,1.7
			c2.1,1.1,4.1,2.9,5.9,5.2v-1.4c0-1.8,0.4-3.2,1.3-4.1s2-1.5,3.4-1.5c2,0,3.3,0.6,3.9,1.9
			C2336.9,2745.4,2337.2,2747.2,2337.2,2749.7z M2307.5,2762.6c0,4.2,0.9,7.3,2.7,9.4c1.8,2.1,4.2,3.2,7,3.2c1.7,0,3.3-0.5,4.8-1.4
			c1.5-0.9,2.7-2.3,3.7-4.1c1-1.8,1.4-4.1,1.4-6.7c0-4.2-0.9-7.4-2.8-9.8c-1.8-2.3-4.3-3.5-7.3-3.5c-2.9,0-5.3,1.1-7,3.3
			C2308.4,2755.4,2307.5,2758.5,2307.5,2762.6z"/>
		<path class="st1" d="M2371.5,2778c-2.5,1.9-4.9,3.4-7.2,4.3c-2.3,1-4.9,1.4-7.8,1.4c-2.6,0-4.9-0.5-6.9-1.6c-2-1-3.5-2.4-4.6-4.2
			c-1.1-1.8-1.6-3.7-1.6-5.8c0-2.8,0.9-5.2,2.7-7.2c1.8-2,4.2-3.3,7.3-4c0.7-0.1,2.3-0.5,4.8-1c2.6-0.5,4.8-1,6.6-1.4
			c1.8-0.4,3.8-1,6-1.6c-0.1-2.7-0.7-4.7-1.6-5.9c-1-1.3-3-1.9-6-1.9c-2.6,0-4.6,0.4-5.9,1.1c-1.3,0.7-2.4,1.8-3.4,3.3
			c-0.9,1.5-1.6,2.4-2,2.9c-0.4,0.5-1.2,0.7-2.5,0.7c-1.2,0-2.1-0.4-3-1.1c-0.8-0.7-1.3-1.7-1.3-2.8c0-1.8,0.6-3.6,1.9-5.3
			c1.3-1.7,3.3-3.1,6-4.2c2.7-1.1,6.1-1.7,10.1-1.7c4.5,0,8,0.5,10.6,1.6c2.6,1.1,4.4,2.7,5.5,5c1.1,2.3,1.6,5.4,1.6,9.2
			c0,2.4,0,4.4,0,6.1c0,1.7,0,3.5-0.1,5.6c0,1.9,0.3,3.9,1,6c0.6,2.1,1,3.4,1,4c0,1.1-0.5,2-1.5,2.9c-1,0.9-2.1,1.3-3.4,1.3
			c-1.1,0-2.1-0.5-3.1-1.5C2373.8,2781.3,2372.7,2779.9,2371.5,2778z M2370.9,2763.2c-1.5,0.6-3.7,1.1-6.5,1.7
			c-2.9,0.6-4.8,1.1-5.9,1.4c-1.1,0.3-2.2,0.9-3.2,1.7c-1,0.8-1.5,2-1.5,3.5c0,1.6,0.6,2.9,1.8,4c1.2,1.1,2.7,1.6,4.6,1.6
			c2,0,3.9-0.4,5.6-1.3c1.7-0.9,3-2,3.8-3.4c0.9-1.5,1.4-4.1,1.4-7.7V2763.2z"/>
		<path class="st1" d="M2401.5,2769v8.6c0,2.1-0.5,3.6-1.5,4.7c-1,1-2.2,1.6-3.7,1.6c-1.5,0-2.7-0.5-3.6-1.6s-1.4-2.6-1.4-4.7v-28.5
			c0-4.6,1.7-6.9,5-6.9c1.7,0,2.9,0.5,3.7,1.6c0.8,1.1,1.2,2.7,1.2,4.8c1.2-2.1,2.5-3.7,3.8-4.8c1.3-1.1,3-1.6,5.2-1.6
			s4.2,0.5,6.3,1.6c2,1.1,3,2.5,3,4.3c0,1.3-0.4,2.3-1.3,3.1c-0.9,0.8-1.8,1.2-2.8,1.2c-0.4,0-1.3-0.2-2.7-0.7
			c-1.4-0.5-2.7-0.7-3.8-0.7c-1.5,0-2.7,0.4-3.7,1.2c-1,0.8-1.7,2-2.2,3.5c-0.5,1.6-0.9,3.4-1.1,5.5
			C2401.6,2763.3,2401.5,2765.9,2401.5,2769z"/>
		<path class="st1" d="M2434.4,2785.1l0.9-2.3l-12.6-31.7c-0.8-1.8-1.2-3.2-1.2-4c0-0.9,0.2-1.7,0.7-2.4c0.5-0.8,1.1-1.4,1.9-1.8
			c0.8-0.5,1.6-0.7,2.5-0.7c1.5,0,2.6,0.5,3.3,1.4c0.8,0.9,1.4,2.3,2,4l8.7,25.2l8.2-23.5c0.7-1.9,1.2-3.4,1.8-4.5
			c0.5-1.1,1.1-1.8,1.7-2.2s1.4-0.6,2.5-0.6c0.8,0,1.5,0.2,2.2,0.6c0.7,0.4,1.3,1,1.7,1.7s0.6,1.4,0.6,2.2c-0.1,0.5-0.3,1.2-0.5,2
			c-0.2,0.9-0.5,1.8-0.8,2.7l-13.4,35c-1.2,3.1-2.3,5.5-3.4,7.2c-1.1,1.7-2.6,3.1-4.4,4c-1.8,0.9-4.3,1.4-7.3,1.4
			c-3,0-5.3-0.3-6.8-1s-2.3-1.8-2.3-3.6c0-1.2,0.4-2.1,1.1-2.7c0.7-0.6,1.8-1,3.2-1c0.6,0,1.1,0.1,1.6,0.2c0.7,0.2,1.2,0.2,1.7,0.2
			c1.2,0,2.1-0.2,2.8-0.5c0.7-0.4,1.3-1,1.8-1.8C2433.1,2788,2433.7,2786.8,2434.4,2785.1z"/>
		<path class="st1" d="M2467.8,2783.9c-1.7,0-3.1-0.5-4.3-1.5c-1.2-1-1.8-2.4-1.8-4.3c0-1.6,0.6-2.9,1.8-4c1.2-1.1,2.6-1.6,4.2-1.6
			c1.2,0,2.3,0.3,3.3,1s1.7,1.6,2.3,2.9c0.6,1.3,0.8,2.8,0.8,4.7c0,2.5-0.5,4.8-1.6,7c-1.1,2.2-2.3,3.9-3.8,5.1
			c-1.5,1.3-2.9,1.9-4.1,1.9c-0.8,0-1.4-0.3-1.9-0.8c-0.5-0.5-0.7-1.1-0.7-1.8c0-1,0.5-1.9,1.5-2.5
			C2466.3,2788.4,2467.8,2786.3,2467.8,2783.9z"/>
		<path class="st1" d="M2540,2776.6l-2.6-6.9H2515l-2.6,7.1c-1,2.8-1.9,4.6-2.6,5.6c-0.7,1-1.9,1.4-3.6,1.4c-1.4,0-2.6-0.5-3.7-1.5
			s-1.6-2.2-1.6-3.5c0-0.8,0.1-1.5,0.4-2.3c0.3-0.8,0.7-1.9,1.2-3.3l14.1-35.7c0.4-1,0.9-2.3,1.4-3.7c0.6-1.4,1.2-2.6,1.8-3.6
			c0.6-1,1.5-1.7,2.5-2.3c1-0.6,2.3-0.9,3.8-0.9c1.6,0,2.8,0.3,3.9,0.9c1,0.6,1.9,1.3,2.5,2.3c0.6,0.9,1.2,1.9,1.6,3
			c0.4,1.1,1,2.5,1.7,4.3l14.4,35.5c1.1,2.7,1.7,4.7,1.7,5.9c0,1.3-0.5,2.4-1.6,3.5c-1.1,1.1-2.3,1.6-3.8,1.6
			c-0.9,0-1.6-0.2-2.3-0.5c-0.6-0.3-1.2-0.7-1.6-1.3c-0.4-0.5-0.9-1.4-1.4-2.5C2540.8,2778.5,2540.4,2777.5,2540,2776.6z
			 M2517.9,2761.4h16.4l-8.3-22.7L2517.9,2761.4z"/>
		<path class="st1" d="M2583.6,2782.9h-16.8c-2.4,0-4.2-0.5-5.2-1.6c-1-1.1-1.6-2.8-1.6-5.2v-41.4c0-2.4,0.5-4.2,1.6-5.2
			c1.1-1.1,2.8-1.6,5.2-1.6h17.8c2.6,0,4.9,0.2,6.8,0.5c1.9,0.3,3.7,1,5.2,1.9c1.3,0.8,2.5,1.8,3.5,2.9c1,1.2,1.8,2.5,2.3,3.9
			c0.5,1.4,0.8,3,0.8,4.6c0,5.5-2.8,9.5-8.3,12.1c7.2,2.3,10.8,6.8,10.8,13.4c0,3.1-0.8,5.8-2.4,8.3c-1.6,2.5-3.7,4.3-6.4,5.5
			c-1.7,0.7-3.6,1.2-5.8,1.5C2589,2782.7,2586.5,2782.9,2583.6,2782.9z M2571.2,2736.2v14.2h10.2c2.8,0,4.9-0.3,6.4-0.8
			c1.5-0.5,2.7-1.5,3.5-3c0.6-1.1,0.9-2.2,0.9-3.5c0-2.8-1-4.6-3-5.5c-2-0.9-5-1.4-9-1.4H2571.2z M2582.8,2758.4h-11.6v16.1h12
			c7.5,0,11.3-2.7,11.3-8.1c0-2.8-1-4.8-2.9-6C2589.5,2759.1,2586.6,2758.4,2582.8,2758.4z"/>
	</g>
	<g>
		<path class="st1" d="M2052.6,2744.1c0-16.3-14.1-29.3-30.7-27.5c-12.8,1.4-23.1,11.8-24.4,24.6c-0.7,7.1,1.3,13.7,5.1,19h0
			l20.6,34.2c0.8,1.4,2.9,1.4,3.7,0l20.6-34.2h0C2050.6,2755.7,2052.6,2750.1,2052.6,2744.1z"/>
		<circle class="st2" cx="2025" cy="2743.2" r="15.6"/>
	</g>
	<path class="st1" d="M2079.3,2796.1h1.8c0.3,0,0.5-0.2,0.5-0.5v-289.3c0-0.3-0.2-0.5-0.5-0.5h-1.8c-0.3,0-0.5,0.2-0.5,0.5v289.3
		C2078.8,2795.9,2079,2796.1,2079.3,2796.1z"/>
</g>
</svg>
