<?xml version="1.0" encoding="utf-8"?>
<!-- Generator: Adobe Illustrator 26.0.1, SVG Export Plug-In . SVG Version: 6.00 Build 0)  -->
<svg version="1.1" id="Layer_1" xmlns="http://www.w3.org/2000/svg" xmlns:xlink="http://www.w3.org/1999/xlink" x="0px" y="0px"
	 viewBox="0 0 1417.3 921.3" style="enable-background:new 0 0 1417.3 921.3;" xml:space="preserve">
<style type="text/css">
	.st0{fill:#FAEEFF;}
	.st1{fill:#E08327;}
	.st2{fill:#B71D90;}
	.st3{fill:#FFFEFD;}
	.st4{fill:none;stroke:#FBB3FF;stroke-width:1.5;stroke-miterlimit:10;}
	.st5{fill:#FFFFFF;}
</style>
<g id="Layer_1_00000042718730928854520800000006648691731977144484_">
	<rect y="0" class="st0" width="1417.3" height="884.8"/>
</g>
<g id="Layer_2_00000137093779228269214080000011820052926116026757_">
	<path class="st1" d="M947.5,506.3h-96.2c-4.2,0-7.7-3.5-7.7-7.7v-96.2c0-4.2,3.5-7.7,7.7-7.7h96.2c4.2,0,7.7,3.5,7.7,7.7v96.2
		C955.1,502.8,951.6,506.3,947.5,506.3z"/>
	<path class="st2" d="M1093.4,506.3h-96.2c-4.2,0-7.7-3.5-7.7-7.7v-96.2c0-4.2,3.5-7.7,7.7-7.7h96.2c4.2,0,7.7,3.5,7.7,7.7v96.2
		C1101.1,502.8,1097.6,506.3,1093.4,506.3z"/>
	<g>
		
			<image style="overflow:visible;opacity:0.73;enable-background:new    ;" width="153" height="152" xlink:href="E0FF64FDEF53E443.png"  transform="matrix(0.7818 0 0 0.7818 1133.5344 393.414)">
		</image>
		<g>
			<path class="st3" d="M1239.2,506.3H1143c-4.2,0-7.7-3.5-7.7-7.7v-96.2c0-4.2,3.5-7.7,7.7-7.7h96.2c4.2,0,7.7,3.5,7.7,7.7v96.2
				C1247,502.8,1243.5,506.3,1239.2,506.3z"/>
		</g>
	</g>
	<g>
		<g>
			<rect x="166.7" y="136.3" class="st4" width="62.5" height="62.5"/>
			<rect x="229.2" y="136.3" class="st4" width="62.5" height="62.5"/>
			<rect x="291.6" y="136.3" class="st4" width="62.5" height="62.5"/>
			<rect x="354.1" y="136.3" class="st4" width="62.5" height="62.5"/>
			<rect x="416.6" y="136.3" class="st4" width="62.5" height="62.5"/>
			<rect x="479.1" y="136.3" class="st4" width="62.5" height="62.5"/>
			<rect x="541.5" y="136.3" class="st4" width="62.5" height="62.5"/>
			<rect x="604" y="136.3" class="st4" width="62.5" height="62.5"/>
			<rect x="666.4" y="136.3" class="st4" width="62.5" height="62.5"/>
			<rect x="728.8" y="136.3" class="st4" width="62.5" height="62.5"/>
			<rect x="166.7" y="198.8" class="st4" width="62.5" height="62.5"/>
			<rect x="229.2" y="198.8" class="st4" width="62.5" height="62.5"/>
			<rect x="291.6" y="198.8" class="st4" width="62.5" height="62.5"/>
			<rect x="354.1" y="198.8" class="st4" width="62.5" height="62.5"/>
			<rect x="416.6" y="198.8" class="st4" width="62.5" height="62.5"/>
			<rect x="479.1" y="198.8" class="st4" width="62.5" height="62.5"/>
			<rect x="541.5" y="198.8" class="st4" width="62.5" height="62.5"/>
			<rect x="604" y="198.8" class="st4" width="62.5" height="62.5"/>
			<rect x="666.4" y="198.8" class="st4" width="62.5" height="62.5"/>
			<rect x="728.8" y="198.8" class="st4" width="62.5" height="62.5"/>
			<rect x="166.7" y="261.2" class="st4" width="62.5" height="62.5"/>
			<rect x="229.2" y="261.2" class="st4" width="62.5" height="62.5"/>
			<rect x="291.6" y="261.2" class="st4" width="62.5" height="62.5"/>
			<rect x="354.1" y="261.2" class="st4" width="62.5" height="62.5"/>
			<rect x="416.6" y="261.2" class="st4" width="62.5" height="62.5"/>
			<rect x="479.1" y="261.2" class="st4" width="62.5" height="62.5"/>
			<rect x="541.5" y="261.2" class="st4" width="62.5" height="62.5"/>
			<rect x="604" y="261.2" class="st4" width="62.5" height="62.5"/>
			<rect x="666.4" y="261.2" class="st4" width="62.5" height="62.5"/>
			<rect x="728.8" y="261.2" class="st4" width="62.5" height="62.5"/>
			<rect x="166.7" y="323.7" class="st4" width="62.5" height="62.5"/>
			<rect x="229.2" y="323.7" class="st4" width="62.5" height="62.5"/>
			<rect x="291.6" y="323.7" class="st4" width="62.5" height="62.5"/>
			<rect x="354.1" y="323.7" class="st4" width="62.5" height="62.5"/>
			<rect x="416.6" y="323.7" class="st4" width="62.5" height="62.5"/>
			<rect x="479.1" y="323.7" class="st4" width="62.5" height="62.5"/>
			<rect x="541.5" y="323.7" class="st4" width="62.5" height="62.5"/>
			<rect x="604" y="323.7" class="st4" width="62.5" height="62.5"/>
			<rect x="666.4" y="323.7" class="st4" width="62.5" height="62.5"/>
			<rect x="728.8" y="323.7" class="st4" width="62.5" height="62.5"/>
			<rect x="166.7" y="386.2" class="st4" width="62.5" height="62.5"/>
			<rect x="229.2" y="386.2" class="st4" width="62.5" height="62.5"/>
			<rect x="291.6" y="386.2" class="st4" width="62.5" height="62.5"/>
			<rect x="354.1" y="386.2" class="st4" width="62.5" height="62.5"/>
			<rect x="416.6" y="386.2" class="st4" width="62.5" height="62.5"/>
			<rect x="479.1" y="386.2" class="st4" width="62.5" height="62.5"/>
			<rect x="541.5" y="386.2" class="st4" width="62.5" height="62.5"/>
			<rect x="604" y="386.2" class="st4" width="62.5" height="62.5"/>
			<rect x="666.4" y="386.2" class="st4" width="62.5" height="62.5"/>
			<rect x="728.8" y="386.2" class="st4" width="62.5" height="62.5"/>
			<rect x="166.7" y="448.7" class="st4" width="62.5" height="62.5"/>
			<rect x="229.2" y="448.7" class="st4" width="62.5" height="62.5"/>
			<rect x="291.6" y="448.7" class="st4" width="62.5" height="62.5"/>
			<rect x="354.1" y="448.7" class="st4" width="62.5" height="62.5"/>
			<rect x="416.6" y="448.7" class="st4" width="62.5" height="62.5"/>
			<rect x="479.1" y="448.7" class="st4" width="62.5" height="62.5"/>
			<rect x="541.5" y="448.7" class="st4" width="62.5" height="62.5"/>
			<rect x="604" y="448.7" class="st4" width="62.5" height="62.5"/>
			<rect x="666.4" y="448.7" class="st4" width="62.5" height="62.5"/>
			<rect x="728.8" y="448.7" class="st4" width="62.5" height="62.5"/>
			<rect x="166.7" y="511.1" class="st4" width="62.5" height="62.5"/>
			<rect x="229.2" y="511.1" class="st4" width="62.5" height="62.5"/>
			<rect x="291.6" y="511.1" class="st4" width="62.5" height="62.5"/>
			<rect x="354.1" y="511.1" class="st4" width="62.5" height="62.5"/>
			<rect x="416.6" y="511.1" class="st4" width="62.5" height="62.5"/>
			<rect x="479.1" y="511.1" class="st4" width="62.5" height="62.5"/>
			<rect x="541.5" y="511.1" class="st4" width="62.5" height="62.5"/>
			<rect x="604" y="511.1" class="st4" width="62.5" height="62.5"/>
			<rect x="666.4" y="511.1" class="st4" width="62.5" height="62.5"/>
			<rect x="728.8" y="511.1" class="st4" width="62.5" height="62.5"/>
			<rect x="166.7" y="573.5" class="st4" width="62.5" height="62.5"/>
			<rect x="229.2" y="573.5" class="st4" width="62.5" height="62.5"/>
			<rect x="291.6" y="573.5" class="st4" width="62.5" height="62.5"/>
			<rect x="354.1" y="573.5" class="st4" width="62.5" height="62.5"/>
			<rect x="416.6" y="573.5" class="st4" width="62.5" height="62.5"/>
			<rect x="479.1" y="573.5" class="st4" width="62.5" height="62.5"/>
			<rect x="541.5" y="573.5" class="st4" width="62.5" height="62.5"/>
			<rect x="604" y="573.5" class="st4" width="62.5" height="62.5"/>
			<rect x="666.4" y="573.5" class="st4" width="62.5" height="62.5"/>
			<rect x="728.8" y="573.5" class="st4" width="62.5" height="62.5"/>
			<rect x="166.7" y="636" class="st4" width="62.5" height="62.5"/>
			<rect x="229.2" y="636" class="st4" width="62.5" height="62.5"/>
			<rect x="291.6" y="636" class="st4" width="62.5" height="62.5"/>
			<rect x="354.1" y="636" class="st4" width="62.5" height="62.5"/>
			<rect x="416.6" y="636" class="st4" width="62.5" height="62.5"/>
			<rect x="479.1" y="636" class="st4" width="62.5" height="62.5"/>
			<rect x="541.5" y="636" class="st4" width="62.5" height="62.5"/>
			<rect x="604" y="636" class="st4" width="62.5" height="62.5"/>
			<rect x="666.4" y="636" class="st4" width="62.5" height="62.5"/>
			<rect x="728.8" y="636" class="st4" width="62.5" height="62.5"/>
			<rect x="166.7" y="698.5" class="st4" width="62.5" height="62.5"/>
			<rect x="229.2" y="698.5" class="st4" width="62.5" height="62.5"/>
			<rect x="291.6" y="698.5" class="st4" width="62.5" height="62.5"/>
			<rect x="354.1" y="698.5" class="st4" width="62.5" height="62.5"/>
			<rect x="416.6" y="698.5" class="st4" width="62.5" height="62.5"/>
			<rect x="479.1" y="698.5" class="st4" width="62.5" height="62.5"/>
			<rect x="541.5" y="698.5" class="st4" width="62.5" height="62.5"/>
			<rect x="604" y="698.5" class="st4" width="62.5" height="62.5"/>
			<rect x="666.4" y="698.5" class="st4" width="62.5" height="62.5"/>
			<rect x="728.8" y="698.5" class="st4" width="62.5" height="62.5"/>
		</g>
		<circle class="st2" cx="478.2" cy="448.4" r="311.5"/>
		<g>
			<path class="st1" d="M640.6,315.3c0,0,5.2,14.5,2,17.6c-3.1,3.1-13.1,3.1-17.5,0c-4.4-3.1-24.3-22.1-24.3-22.1
				s-55.2-37.4-92.9-31.2c-37.5,6.3-91.9,11.6-96.1,129.5l21,102.2l3.1,50.1l-9.4,37.5l-17.3,27.5l-29.7,16.3c0,0-72,34.5-122.1-25
				l12.5-3.1c0,0,12.5,6.3,37.5,0c25-6.3,28.2-15.7,28.2-15.7l11.5-15.7l7.3-21.9l3.1-28.2l-9.4-34.5l-18.6-39l-7.1-70.3l0.6-56.7
				c0,0,4.6-31.8,11.6-44.1s29-56.1,72.9-84.3s108.6-29.7,126.3-24.2c17.7,5.4,45.9,2.3,92.9,43c47,40.7,56.3,62.6,56.3,62.6v12.3
				l-6.3,6.5h-9.4h-6.3l-2.5,7.3l-3.8,8.3h-6.3L640.6,315.3z"/>
			<path class="st5" d="M533.4,311c-0.4-2.3-3.9-2-3.8,0.4c0.8,24.1,3.1,60.6,10.1,74.8c10.7,21.9,50.8,56.3,50.8,75.2
				c0,18.8-24.1,56.3-45.5,43.8c-21.4-12.5-17.5-17.6-21.4-15.7c-6.3,3.1,8,27.5,30.8,27.9c22.7,0.3,46.8-37.2,44.1-59.1
				c-2.7-21.9-51.3-65.9-53.5-81.4C543.4,364.9,537.5,333,533.4,311z"/>
			<path class="st5" d="M681.2,276.6c-36.2-58.7-98.3-102.4-174.7-102.4c-50.9,0-100.6,20.9-136.1,57.2
				c-34.9,35.6-53.5,82.3-52.5,131.5v0.5c0.7,33.1,1.7,83.3,25.3,133.1c16.2,34.2,16.1,82.1-15.7,107.3
				c-22.8,18.2-53.8,15.3-82.9-7.8l-11.3-9l6.6,12.8c0.3,0.7,29.6,55.9,92.2,55.9c13.1,0,27.6-2.4,43.7-8.3
				c82.4-29.8,64.1-116.2,49.6-185.6c-5.1-24.2-9.9-47-9.9-64.7c0-71.6,34.2-112.7,94-112.7c61.8,0,98.6,37.1,100.9,39.6
				c1.7,2.4,17.5,23,32.3,13.1c2-1.4,3.4-3.5,3.9-6.1c0.5-2.6,0-5.6-0.9-8.7c1.7,0.9,3.3,1.5,5,1.7c3.1,0.4,6-0.7,8.3-3
				c3.9-3.9,4.8-8.2,4.2-12.3c2.6,1.4,5.5,2.4,8.4,2.5c4.1,0.2,7.7-1.3,10.8-4.3C692.5,296.9,685.5,283.3,681.2,276.6z M640.5,330
				c-0.2,1.2-0.7,1.7-1.2,2c-10.4,6.9-23.8-11.6-23.9-11.7l-0.2-0.3c-1.6-1.7-39.3-41.7-105.6-41.7c-63.7,0-100.2,43.4-100.2,119
				c0,18.3,4.9,41.5,10.1,65.9c14.9,70.5,31.7,150.5-45.6,178.4c-55.7,20.2-91.8-2-111-21.7c24.1,19.4,45.4,25.4,62.6,25.4
				c14,0,25.3-4,33.3-8.2c35.3-18.5,58.1-67.4,50.6-109c-3.3-18.3-9.4-38.1-15.3-57.3c-8.2-26.4-15.9-51.5-15.9-70.5
				c0.1-73.4,32.7-151.9,124-151.9c61.6,0,102.5,20,132.3,64.5C638,319.1,641.1,326.1,640.5,330z M654.5,316.7
				c-0.9,0.9-1.9,1.3-3.1,1.2c-4.2-0.5-9.8-6.3-13.8-11.6c-1.7-2.5-2.9-4.2-3.3-4.8l-0.2,0.2c-30.5-40.9-71.7-59.3-131.9-59.3
				c-42.3,0-76.7,16.8-99.5,48.5c-20.1,27.9-30.6,65.7-30.7,109.6c0,20,7.9,45.4,16.2,72.3c5.9,19,12,38.7,15.2,56.6
				c7,39.1-14.2,85.1-47.3,102.4c-20.7,10.8-43.8,9.8-67.4-2.4c8.3,2.7,15.9,3.8,22.7,3.8c12.6,0,22.6-3.8,30.2-8.5
				c28-17.2,42.7-61.1,35-104.2c-2.6-14.6-7.3-29.8-12.3-45.9c-9.8-31.7-19.9-64.5-15.8-97.2C366.9,230.8,462,212.1,502.1,210.9
				c54.8-1.7,101.9,28.8,131.7,62.7l17.6,25.3c0.1,0.1,0.6,0.6,1.3,1.4C654.9,303.4,660.1,311,654.5,316.7z M677.9,302.6
				c-1.8,1.8-3.8,2.6-6.1,2.5c-5.4-0.2-11.4-5.4-14.5-8.6c-0.6-0.6-1.1-1.3-1.6-1.7l-7.2-9.4c-3.5-5-7.4-10.1-11.6-15v-0.1l0,0
				c-30.3-35.5-77.8-67.5-135.2-65.7c-48.3,1.5-87.2,20.5-115.6,56.8c-29,37.1-39.9,83-43.9,115c-4.2,33.9,6.1,67.4,16.1,99.8
				c5,16,9.6,31,12.1,45.2c7.3,40.7-6.2,81.8-32.1,97.7c-15.1,9.3-33.2,9.9-53.4,2c16.9,2.4,33.1-1.7,46.7-12.6
				c34.2-27.2,34.7-78.4,17.5-114.9c-23-48.6-24.1-97.9-24.7-130.5v-0.5c-1-47.5,17-92.5,50.7-127c34.4-35.2,82.4-55.3,131.7-55.3
				c74.1,0,142.3,52.4,169.5,99.7C676.5,280.7,686.7,293.8,677.9,302.6z"/>
			<path class="st5" d="M524.4,368.2c0,0-13.3,13.3-32.1,13.3c-18.8,0-31.8-13.3-31.8-13.3s2,6.4,7.9,12.1c-1.6,2.4-4.2,7-4.2,11.2
				c0,5.8,3.9,10.3,3.9,10.3s-2-10.7,3.8-18.6c3,2.2,6.8,4.1,11.4,5.1c-0.4,2.9-0.5,6.4,0.4,9.3c2,6.3,7.4,9.9,7.4,9.9
				s-4.7-9-3.3-18.4c1.5,0.2,3.1,0.2,4.8,0.2c3.1-0.1,5.8-0.5,8.4-1c0.2,2.6,0.6,5.7,2,8.1c3,5.2,8.7,7.6,8.7,7.6s-6.7-8-6.3-17.1
				C520,381.5,524.4,368.2,524.4,368.2z"/>
			<path class="st5" d="M632.8,370c0,0-13.3,13.3-32.1,13.3S568.9,370,568.9,370s2,6.4,7.9,12.1c-1.6,2.4-4.2,7-4.2,11.2
				c0,5.8,3.9,10.3,3.9,10.3s-2-10.7,3.8-18.6c3,2.2,6.8,4.1,11.4,5.1c-0.4,2.9-0.5,6.4,0.4,9.3c2,6.3,7.4,9.9,7.4,9.9
				s-4.7-9-3.3-18.4c1.5,0.2,3.1,0.2,4.8,0.2c3.1-0.1,5.8-0.5,8.4-1c0.2,2.6,0.6,5.7,2,8.1c3,5.2,8.7,7.6,8.7,7.6s-6.7-8-6.3-17.1
				C628.4,383.1,632.8,370,632.8,370z"/>
			<g>
				<path class="st5" d="M468.1,587.7v17.6c0,1.5-0.1,2.8-0.2,3.9c-0.2,1.1-0.4,2.1-0.9,3.2c-0.8,1.9-2,3.3-3.8,4.3
					c-1.7,1-3.9,1.6-6.5,1.6c-2.3,0-4.2-0.4-5.7-1.1c-1.5-0.7-2.8-1.9-3.7-3.5c-0.5-0.9-0.9-1.8-1.2-3c-0.3-1.1-0.5-2.2-0.5-3.2
					c0-1.1,0.3-1.9,0.9-2.4s1.3-0.9,2.3-0.9c0.9,0,1.6,0.2,2,0.8s0.8,1.3,1,2.4c0.2,1.2,0.6,2.1,0.8,2.8c0.2,0.7,0.7,1.3,1.3,1.8
					c0.6,0.5,1.5,0.8,2.6,0.8c3,0,4.5-2.2,4.5-6.6v-18.7c0-1.3,0.3-2.4,0.9-3.1c0.6-0.7,1.4-1,2.4-1c1,0,1.9,0.3,2.5,1
					C467.7,585.3,468.1,586.4,468.1,587.7z"/>
				<path class="st5" d="M491.3,614.9v-0.8c-0.8,0.9-1.6,1.7-2.4,2.4c-0.8,0.6-1.7,1.1-2.7,1.4c-0.9,0.3-2.1,0.5-3.4,0.5
					c-1.5,0-2.8-0.3-4.1-0.9c-1.2-0.6-2.1-1.5-2.8-2.6c-0.8-1.3-1.2-3.2-1.2-5.7v-12.4c0-1.3,0.3-2.2,0.9-2.8
					c0.6-0.6,1.3-0.9,2.3-0.9c0.9,0,1.7,0.3,2.3,0.9c0.6,0.6,0.9,1.6,0.9,2.8v10c0,1.4,0.2,2.7,0.4,3.6c0.2,1,0.7,1.7,1.3,2.3
					c0.6,0.6,1.5,0.9,2.6,0.9c1,0,2-0.3,3-0.9c0.9-0.6,1.6-1.4,2-2.4c0.3-0.9,0.6-2.8,0.6-5.8v-7.6c0-1.3,0.3-2.2,0.9-2.8
					c0.6-0.6,1.3-0.9,2.3-0.9s1.7,0.3,2.3,0.9c0.6,0.6,0.9,1.6,0.9,2.8v18.1c0,1.2-0.2,2.1-0.8,2.7c-0.6,0.6-1.3,0.9-2.1,0.9
					s-1.6-0.3-2.1-0.9C491.5,616.8,491.3,616,491.3,614.9z"/>
				<path class="st5" d="M503.4,614.5v-27.1c0-1.3,0.3-2.2,0.9-2.8c0.6-0.6,1.3-0.9,2.3-0.9c0.9,0,1.7,0.3,2.3,0.9
					c0.6,0.6,0.9,1.6,0.9,2.8v27.1c0,1.3-0.3,2.2-0.9,2.8c-0.6,0.6-1.3,0.9-2.3,0.9c-0.9,0-1.7-0.3-2.2-1
					C503.6,616.7,503.4,615.8,503.4,614.5z"/>
				<path class="st5" d="M519.2,590c-0.9,0-1.7-0.2-2.2-0.8c-0.6-0.6-0.9-1.3-0.9-2.3c0-0.9,0.3-1.7,0.9-2.2s1.3-0.9,2.2-0.9
					c0.8,0,1.5,0.2,2.1,0.8s0.9,1.3,0.9,2.3c0,0.9-0.3,1.7-0.9,2.3C520.8,589.8,520.1,590,519.2,590z M522.4,596.4v18.1
					c0,1.3-0.3,2.2-0.9,2.8c-0.6,0.6-1.3,0.9-2.3,0.9c-0.9,0-1.7-0.3-2.2-1c-0.6-0.6-0.9-1.6-0.9-2.8v-17.9c0-1.3,0.3-2.2,0.9-2.8
					c0.6-0.6,1.3-0.9,2.2-0.9c0.9,0,1.7,0.3,2.3,0.9C522,594.5,522.4,595.3,522.4,596.4z"/>
				<path class="st5" d="M546.3,607.1H534c0,1.4,0.3,2.7,0.9,3.8c0.6,1.1,1.3,1.9,2.2,2.4c0.9,0.6,2,0.8,3.1,0.8
					c0.7,0,1.4-0.1,2-0.2c0.6-0.2,1.2-0.5,1.8-0.8c0.6-0.4,1.1-0.8,1.6-1.2c0.5-0.4,1.1-1,1.9-1.7c0.3-0.2,0.8-0.4,1.3-0.4
					c0.6,0,1.2,0.2,1.6,0.6c0.4,0.4,0.6,0.9,0.6,1.5c0,0.6-0.2,1.3-0.6,2c-0.5,0.8-1.1,1.5-2,2.2c-0.9,0.7-2,1.3-3.4,1.7
					c-1.3,0.5-2.9,0.7-4.6,0.7c-4,0-7.2-1.2-9.4-3.5c-2.2-2.3-3.4-5.4-3.4-9.4c0-1.9,0.2-3.5,0.8-5.1c0.6-1.6,1.3-2.9,2.4-4.1
					c1-1.1,2.4-2,3.9-2.6c1.6-0.6,3.2-0.9,5.1-0.9c2.4,0,4.6,0.6,6.3,1.6s3.1,2.4,3.9,4s1.3,3.3,1.3,5c0,1.6-0.5,2.6-1.3,3.1
					C549.2,606.9,547.9,607.1,546.3,607.1z M534,603.6h11.3c-0.2-2.1-0.7-3.8-1.7-4.8c-1-1.1-2.3-1.6-3.9-1.6
					c-1.6,0-2.8,0.6-3.9,1.7C534.9,599.9,534.2,601.5,534,603.6z"/>
				<path class="st5" d="M557.1,593.5h0.7v-3.8c0-1,0-1.8,0.1-2.4s0.2-1.1,0.5-1.5c0.2-0.4,0.6-0.8,1-1c0.5-0.2,0.9-0.4,1.6-0.4
					c0.8,0,1.5,0.3,2.1,0.9c0.4,0.4,0.7,0.9,0.8,1.5c0.1,0.6,0.2,1.4,0.2,2.4v4.2h2.3c0.9,0,1.6,0.2,2,0.6c0.5,0.4,0.7,0.9,0.7,1.7
					c0,0.9-0.3,1.4-1,1.7c-0.6,0.3-1.7,0.5-2.8,0.5H564v11.5c0,0.9,0,1.7,0.1,2.3c0.1,0.6,0.2,0.9,0.6,1.3c0.3,0.3,0.8,0.5,1.4,0.5
					c0.4,0,0.9-0.1,1.5-0.2c0.6-0.2,1.1-0.2,1.5-0.2c0.5,0,0.9,0.2,1.3,0.6c0.4,0.4,0.6,0.9,0.6,1.5c0,1-0.6,1.8-1.7,2.3
					c-1.1,0.6-2.7,0.8-4.7,0.8c-2,0-3.5-0.3-4.4-1c-1-0.6-1.7-1.6-2-2.8c-0.3-1.2-0.5-2.7-0.5-4.6v-12H557c-0.9,0-1.6-0.2-2-0.6
					c-0.5-0.4-0.7-0.9-0.7-1.7c0-0.6,0.2-1.2,0.7-1.7C555.4,593.7,556.1,593.5,557.1,593.5z"/>
				<path class="st5" d="M611,607.7c0,2-0.6,3.9-1.6,5.5c-1,1.7-2.6,2.9-4.6,3.8c-2,0.9-4.4,1.3-7.2,1.3c-3.3,0-6.1-0.6-8.2-1.9
					c-1.5-0.9-2.8-2.1-3.7-3.6c-0.9-1.5-1.4-3-1.4-4.4c0-0.8,0.3-1.5,0.9-2.1c0.6-0.6,1.3-0.9,2.2-0.9c0.7,0,1.3,0.2,1.8,0.7
					c0.5,0.5,0.9,1.1,1.3,2c0.4,1.1,0.9,2,1.4,2.7c0.5,0.7,1.2,1.3,2.1,1.8c0.9,0.5,2,0.7,3.5,0.7c2,0,3.6-0.5,5-1.4
					c1.3-0.9,1.9-2.1,1.9-3.5c0-1.1-0.3-2-1-2.8s-1.6-1.3-2.7-1.6c-1.1-0.4-2.5-0.8-4.3-1.2c-2.4-0.6-4.4-1.3-6.1-2
					c-1.7-0.8-2.9-1.8-3.9-3.1c-0.9-1.3-1.4-2.9-1.4-4.9c0-1.9,0.5-3.5,1.5-5c1-1.4,2.4-2.5,4.4-3.3c1.9-0.8,4.2-1.2,6.8-1.2
					c2,0,3.9,0.2,5.4,0.8c1.5,0.6,2.8,1.2,3.8,2c1,0.9,1.7,1.7,2.2,2.7c0.5,0.9,0.7,1.8,0.7,2.8c0,0.8-0.3,1.6-0.9,2.2
					c-0.6,0.6-1.3,0.9-2.1,0.9c-0.8,0-1.3-0.2-1.8-0.6c-0.4-0.4-0.9-1-1.3-1.9c-0.6-1.3-1.3-2.3-2.2-3s-2.2-1.1-4.1-1.1
					c-1.7,0-3.1,0.4-4.2,1.2c-1.1,0.8-1.7,1.7-1.7,2.8c0,0.7,0.2,1.3,0.6,1.7c0.4,0.5,0.9,0.9,1.5,1.3c0.6,0.3,1.3,0.6,2,0.8
					c0.6,0.2,1.7,0.5,3.2,0.9c1.9,0.5,3.6,0.9,5.1,1.5c1.6,0.6,2.8,1.2,3.9,2c1.1,0.8,1.9,1.7,2.5,2.9
					C610.7,604.5,611,606,611,607.7z"/>
				<path class="st5" d="M632.2,614.9c-1.5,1.2-3,2-4.4,2.7c-1.4,0.6-3,0.9-4.7,0.9c-1.6,0-3-0.3-4.2-0.9c-1.2-0.6-2.1-1.5-2.8-2.6
					c-0.6-1.1-1-2.3-1-3.5c0-1.7,0.6-3.1,1.7-4.4c1.1-1.2,2.6-2,4.5-2.4c0.4-0.1,1.4-0.3,3-0.6s2.9-0.6,4-0.9
					c1.1-0.2,2.4-0.6,3.7-0.9c-0.1-1.7-0.4-2.8-1-3.6c-0.6-0.8-1.8-1.2-3.6-1.2c-1.6,0-2.8,0.2-3.6,0.6c-0.8,0.5-1.5,1.1-2,2
					s-0.9,1.5-1.2,1.7c-0.2,0.3-0.7,0.4-1.5,0.4c-0.7,0-1.3-0.2-1.8-0.7c-0.6-0.5-0.8-1-0.8-1.7c0-1.1,0.4-2.2,1.2-3.2
					s2-1.9,3.6-2.6c1.7-0.7,3.7-1,6.1-1c2.8,0,4.9,0.3,6.5,0.9c1.6,0.6,2.7,1.7,3.3,3.1c0.6,1.4,0.9,3.3,0.9,5.6c0,1.5,0,2.7,0,3.7
					c0,1,0,2.1,0,3.4c0,1.2,0.2,2.4,0.6,3.7c0.4,1.3,0.6,2.1,0.6,2.4c0,0.6-0.3,1.3-0.9,1.7c-0.6,0.6-1.3,0.8-2,0.8
					c-0.6,0-1.3-0.3-1.9-0.9C633.6,616.8,632.9,616,632.2,614.9z M631.8,605.8c-0.9,0.3-2.3,0.7-4,1.1c-1.7,0.4-3,0.6-3.6,0.8
					c-0.6,0.2-1.3,0.6-1.9,1c-0.6,0.6-0.9,1.3-0.9,2.1c0,0.9,0.4,1.7,1.1,2.4c0.7,0.6,1.7,1,2.8,1c1.3,0,2.4-0.2,3.5-0.8
					c1-0.6,1.8-1.3,2.3-2.1c0.6-0.9,0.9-2.5,0.9-4.6L631.8,605.8L631.8,605.8z"/>
				<path class="st5" d="M644.3,614.5v-27.1c0-1.3,0.3-2.2,0.9-2.8c0.6-0.6,1.3-0.9,2.3-0.9s1.7,0.3,2.3,0.9
					c0.6,0.6,0.9,1.6,0.9,2.8v27.1c0,1.3-0.3,2.2-0.9,2.8c-0.6,0.6-1.3,0.9-2.3,0.9s-1.7-0.3-2.2-1
					C644.6,616.7,644.3,615.8,644.3,614.5z"/>
				<path class="st5" d="M680.4,605.6c0,1.9-0.3,3.6-0.9,5.2c-0.6,1.6-1.4,2.9-2.5,4.1c-1.1,1.1-2.4,2-3.9,2.6
					c-1.5,0.6-3.2,0.9-5.2,0.9c-1.9,0-3.6-0.3-5.1-0.9c-1.5-0.6-2.8-1.5-3.9-2.6c-1.1-1.1-2-2.5-2.5-4c-0.6-1.6-0.9-3.3-0.9-5.1
					c0-1.9,0.3-3.6,0.9-5.2s1.4-2.9,2.5-4c1.1-1.1,2.4-2,3.9-2.6s3.2-0.9,5.1-0.9s3.6,0.3,5.2,0.9s2.8,1.5,3.9,2.6
					c1.1,1.1,2,2.4,2.5,4C680.2,602,680.4,603.8,680.4,605.6z M674.2,605.6c0-2.5-0.6-4.6-1.7-6c-1.1-1.4-2.6-2.1-4.6-2.1
					c-1.3,0-2.3,0.3-3.2,0.9c-0.9,0.6-1.7,1.6-2.1,2.8c-0.5,1.3-0.8,2.7-0.8,4.3c0,1.7,0.2,3.1,0.7,4.2c0.5,1.3,1.2,2.1,2.1,2.8
					c0.9,0.6,2,0.9,3.3,0.9c1.9,0,3.4-0.7,4.6-2.1C673.6,610.1,674.2,608.2,674.2,605.6z"/>
				<path class="st5" d="M691.1,596.4v0.8c1.1-1.4,2.3-2.5,3.6-3.2s2.8-1,4.5-1c1.7,0,3.1,0.4,4.4,1.1c1.3,0.7,2.3,1.7,2.9,3.1
					c0.4,0.8,0.7,1.6,0.8,2.4c0.2,0.9,0.2,2,0.2,3.4v11.6c0,1.3-0.3,2.2-0.9,2.8c-0.6,0.6-1.3,0.9-2.2,0.9c-0.9,0-1.7-0.3-2.3-1
					c-0.6-0.6-0.9-1.6-0.9-2.8V604c0-2-0.3-3.6-0.9-4.7c-0.6-1.1-1.7-1.7-3.5-1.7c-1.1,0-2.1,0.3-3.1,1c-0.9,0.6-1.6,1.6-2,2.8
					c-0.3,0.9-0.5,2.7-0.5,5.2v7.9c0,1.3-0.3,2.2-0.9,2.8c-0.6,0.6-1.3,0.9-2.3,0.9c-0.9,0-1.7-0.3-2.2-1c-0.6-0.6-0.9-1.6-0.9-2.8
					v-18.1c0-1.2,0.2-2,0.8-2.7c0.6-0.6,1.3-0.9,2.1-0.9c0.6,0,1,0.2,1.5,0.4s0.8,0.6,1.1,1.2C690.9,595,691.1,595.7,691.1,596.4z"
					/>
			</g>
		</g>
	</g>
</g>
</svg>
