<?xml version="1.0" encoding="utf-8"?>
<!-- Generator: Adobe Illustrator 26.0.1, SVG Export Plug-In . SVG Version: 6.00 Build 0)  -->
<svg version="1.1" id="Layer_1" xmlns="http://www.w3.org/2000/svg" xmlns:xlink="http://www.w3.org/1999/xlink" x="0px" y="0px"
	 viewBox="0 0 1559.1 1170.7" style="enable-background:new 0 0 1559.1 1170.7;" xml:space="preserve">
<style type="text/css">
	.st0{fill:#FAEEFF;}
	.st1{fill:#E08327;}
	.st2{fill:#B71D90;}
	.st3{fill:#FFFEFD;}
	.st4{fill:none;stroke:#FBB3FF;stroke-width:1.5;stroke-miterlimit:10;}
	.st5{fill:#FFFFFF;}
</style>
<g id="Layer_1_00000042718730928854520800000006648691731977144484_">
	<rect x="0" class="st0" width="1559.1" height="1170.7"/>
</g>
<g id="Layer_2_00000137093779228269214080000011820052926116026757_">
	<path class="st1" d="M1018.3,639h-96.2c-4.2,0-7.7-3.5-7.7-7.7v-96.2c0-4.2,3.5-7.7,7.7-7.7h96.2c4.2,0,7.7,3.5,7.7,7.7v96.2
		C1026,635.5,1022.5,639,1018.3,639z"/>
	<path class="st2" d="M1164.2,639H1068c-4.2,0-7.7-3.5-7.7-7.7v-96.2c0-4.2,3.5-7.7,7.7-7.7h96.2c4.2,0,7.7,3.5,7.7,7.7v96.2
		C1171.9,635.5,1168.5,639,1164.2,639z"/>
	<g>
		
			<image style="overflow:visible;opacity:0.73;enable-background:new    ;" width="153" height="152" xlink:href="E0FF64FDEF53E443.png"  transform="matrix(0.7818 0 0 0.7818 1204.3781 526.1184)">
		</image>
		<g>
			<path class="st3" d="M1310.1,639h-96.2c-4.2,0-7.7-3.5-7.7-7.7v-96.2c0-4.2,3.5-7.7,7.7-7.7h96.2c4.2,0,7.7,3.5,7.7,7.7v96.2
				C1317.8,635.5,1314.4,639,1310.1,639z"/>
		</g>
	</g>
	<g>
		<g>
			<rect x="237.6" y="269" class="st4" width="62.5" height="62.5"/>
			<rect x="300.1" y="269" class="st4" width="62.5" height="62.5"/>
			<rect x="362.5" y="269" class="st4" width="62.5" height="62.5"/>
			<rect x="425" y="269" class="st4" width="62.5" height="62.5"/>
			<rect x="487.5" y="269" class="st4" width="62.5" height="62.5"/>
			<rect x="549.9" y="269" class="st4" width="62.5" height="62.5"/>
			<rect x="612.3" y="269" class="st4" width="62.5" height="62.5"/>
			<rect x="674.8" y="269" class="st4" width="62.5" height="62.5"/>
			<rect x="737.3" y="269" class="st4" width="62.5" height="62.5"/>
			<rect x="799.7" y="269" class="st4" width="62.5" height="62.5"/>
			<rect x="237.6" y="331.5" class="st4" width="62.5" height="62.5"/>
			<rect x="300.1" y="331.5" class="st4" width="62.5" height="62.5"/>
			<rect x="362.5" y="331.5" class="st4" width="62.5" height="62.5"/>
			<rect x="425" y="331.5" class="st4" width="62.5" height="62.5"/>
			<rect x="487.5" y="331.5" class="st4" width="62.5" height="62.5"/>
			<rect x="549.9" y="331.5" class="st4" width="62.5" height="62.5"/>
			<rect x="612.3" y="331.5" class="st4" width="62.5" height="62.5"/>
			<rect x="674.8" y="331.5" class="st4" width="62.5" height="62.5"/>
			<rect x="737.3" y="331.5" class="st4" width="62.5" height="62.5"/>
			<rect x="799.7" y="331.5" class="st4" width="62.5" height="62.5"/>
			<rect x="237.6" y="393.9" class="st4" width="62.5" height="62.5"/>
			<rect x="300.1" y="393.9" class="st4" width="62.5" height="62.5"/>
			<rect x="362.5" y="393.9" class="st4" width="62.5" height="62.5"/>
			<rect x="425" y="393.9" class="st4" width="62.5" height="62.5"/>
			<rect x="487.5" y="393.9" class="st4" width="62.5" height="62.5"/>
			<rect x="549.9" y="393.9" class="st4" width="62.5" height="62.5"/>
			<rect x="612.3" y="393.9" class="st4" width="62.5" height="62.5"/>
			<rect x="674.8" y="393.9" class="st4" width="62.5" height="62.5"/>
			<rect x="737.3" y="393.9" class="st4" width="62.5" height="62.5"/>
			<rect x="799.7" y="393.9" class="st4" width="62.5" height="62.5"/>
			<rect x="237.6" y="456.4" class="st4" width="62.5" height="62.5"/>
			<rect x="300.1" y="456.4" class="st4" width="62.5" height="62.5"/>
			<rect x="362.5" y="456.4" class="st4" width="62.5" height="62.5"/>
			<rect x="425" y="456.4" class="st4" width="62.5" height="62.5"/>
			<rect x="487.5" y="456.4" class="st4" width="62.5" height="62.5"/>
			<rect x="549.9" y="456.4" class="st4" width="62.5" height="62.5"/>
			<rect x="612.3" y="456.4" class="st4" width="62.5" height="62.5"/>
			<rect x="674.8" y="456.4" class="st4" width="62.5" height="62.5"/>
			<rect x="737.3" y="456.4" class="st4" width="62.5" height="62.5"/>
			<rect x="799.7" y="456.4" class="st4" width="62.5" height="62.5"/>
			<rect x="237.6" y="518.9" class="st4" width="62.5" height="62.5"/>
			<rect x="300.1" y="518.9" class="st4" width="62.5" height="62.5"/>
			<rect x="362.5" y="518.9" class="st4" width="62.5" height="62.5"/>
			<rect x="425" y="518.9" class="st4" width="62.5" height="62.5"/>
			<rect x="487.5" y="518.9" class="st4" width="62.5" height="62.5"/>
			<rect x="549.9" y="518.9" class="st4" width="62.5" height="62.5"/>
			<rect x="612.3" y="518.9" class="st4" width="62.5" height="62.5"/>
			<rect x="674.8" y="518.9" class="st4" width="62.5" height="62.5"/>
			<rect x="737.3" y="518.9" class="st4" width="62.5" height="62.5"/>
			<rect x="799.7" y="518.9" class="st4" width="62.5" height="62.5"/>
			<rect x="237.6" y="581.4" class="st4" width="62.5" height="62.5"/>
			<rect x="300.1" y="581.4" class="st4" width="62.5" height="62.5"/>
			<rect x="362.5" y="581.4" class="st4" width="62.5" height="62.5"/>
			<rect x="425" y="581.4" class="st4" width="62.5" height="62.5"/>
			<rect x="487.5" y="581.4" class="st4" width="62.5" height="62.5"/>
			<rect x="549.9" y="581.4" class="st4" width="62.5" height="62.5"/>
			<rect x="612.3" y="581.4" class="st4" width="62.5" height="62.5"/>
			<rect x="674.8" y="581.4" class="st4" width="62.5" height="62.5"/>
			<rect x="737.3" y="581.4" class="st4" width="62.5" height="62.5"/>
			<rect x="799.7" y="581.4" class="st4" width="62.5" height="62.5"/>
			<rect x="237.6" y="643.8" class="st4" width="62.5" height="62.5"/>
			<rect x="300.1" y="643.8" class="st4" width="62.5" height="62.5"/>
			<rect x="362.5" y="643.8" class="st4" width="62.5" height="62.5"/>
			<rect x="425" y="643.8" class="st4" width="62.5" height="62.5"/>
			<rect x="487.5" y="643.8" class="st4" width="62.5" height="62.5"/>
			<rect x="549.9" y="643.8" class="st4" width="62.5" height="62.5"/>
			<rect x="612.3" y="643.8" class="st4" width="62.5" height="62.5"/>
			<rect x="674.8" y="643.8" class="st4" width="62.5" height="62.5"/>
			<rect x="737.3" y="643.8" class="st4" width="62.5" height="62.5"/>
			<rect x="799.7" y="643.8" class="st4" width="62.5" height="62.5"/>
			<rect x="237.6" y="706.2" class="st4" width="62.5" height="62.5"/>
			<rect x="300.1" y="706.2" class="st4" width="62.5" height="62.5"/>
			<rect x="362.5" y="706.2" class="st4" width="62.5" height="62.5"/>
			<rect x="425" y="706.2" class="st4" width="62.5" height="62.5"/>
			<rect x="487.5" y="706.2" class="st4" width="62.5" height="62.5"/>
			<rect x="549.9" y="706.2" class="st4" width="62.5" height="62.5"/>
			<rect x="612.3" y="706.2" class="st4" width="62.5" height="62.5"/>
			<rect x="674.8" y="706.2" class="st4" width="62.5" height="62.5"/>
			<rect x="737.3" y="706.2" class="st4" width="62.5" height="62.5"/>
			<rect x="799.7" y="706.2" class="st4" width="62.5" height="62.5"/>
			<rect x="237.6" y="768.7" class="st4" width="62.5" height="62.5"/>
			<rect x="300.1" y="768.7" class="st4" width="62.5" height="62.5"/>
			<rect x="362.5" y="768.7" class="st4" width="62.5" height="62.5"/>
			<rect x="425" y="768.7" class="st4" width="62.5" height="62.5"/>
			<rect x="487.5" y="768.7" class="st4" width="62.5" height="62.5"/>
			<rect x="549.9" y="768.7" class="st4" width="62.5" height="62.5"/>
			<rect x="612.3" y="768.7" class="st4" width="62.5" height="62.5"/>
			<rect x="674.8" y="768.7" class="st4" width="62.5" height="62.5"/>
			<rect x="737.3" y="768.7" class="st4" width="62.5" height="62.5"/>
			<rect x="799.7" y="768.7" class="st4" width="62.5" height="62.5"/>
			<rect x="237.6" y="831.2" class="st4" width="62.5" height="62.5"/>
			<rect x="300.1" y="831.2" class="st4" width="62.5" height="62.5"/>
			<rect x="362.5" y="831.2" class="st4" width="62.5" height="62.5"/>
			<rect x="425" y="831.2" class="st4" width="62.5" height="62.5"/>
			<rect x="487.5" y="831.2" class="st4" width="62.5" height="62.5"/>
			<rect x="549.9" y="831.2" class="st4" width="62.5" height="62.5"/>
			<rect x="612.3" y="831.2" class="st4" width="62.5" height="62.5"/>
			<rect x="674.8" y="831.2" class="st4" width="62.5" height="62.5"/>
			<rect x="737.3" y="831.2" class="st4" width="62.5" height="62.5"/>
			<rect x="799.7" y="831.2" class="st4" width="62.5" height="62.5"/>
		</g>
		<circle class="st2" cx="549.1" cy="581.1" r="311.5"/>
		<g>
			<path class="st1" d="M711.4,448c0,0,5.2,14.5,2,17.6c-3.1,3.1-13.1,3.1-17.5,0s-24.3-22.1-24.3-22.1s-55.2-37.4-92.9-31.2
				c-37.5,6.3-91.9,11.6-96.1,129.5l21,102.2l3.1,50.1l-9.4,37.5L480,759.1l-29.7,16.3c0,0-72,34.5-122.1-25l12.5-3.1
				c0,0,12.5,6.3,37.5,0s28.2-15.7,28.2-15.7l11.5-15.7l7.3-21.9l3.1-28.2l-9.4-34.5l-18.6-39l-7.1-70.3l0.6-56.7
				c0,0,4.6-31.8,11.6-44.1s29-56.1,72.9-84.3c43.9-28.2,108.6-29.7,126.3-24.2c17.7,5.4,45.9,2.3,92.9,43s56.3,62.6,56.3,62.6v12.3
				l-6.3,6.5h-9.4h-6.3l-2.5,7.3l-3.8,8.3h-6.3L711.4,448z"/>
			<path class="st5" d="M604.2,443.7c-0.4-2.3-3.9-2-3.8,0.4c0.8,24.1,3.1,60.6,10.1,74.8c10.7,21.9,50.8,56.3,50.8,75.2
				c0,18.8-24.1,56.3-45.5,43.8s-17.5-17.6-21.4-15.7c-6.3,3.1,8,27.5,30.8,27.9c22.7,0.3,46.8-37.2,44.1-59.1
				c-2.7-21.9-51.3-65.9-53.5-81.4C614.2,497.6,608.3,465.7,604.2,443.7z"/>
			<path class="st5" d="M752.1,409.3c-36.2-58.7-98.3-102.4-174.7-102.4c-50.9,0-100.6,20.9-136.1,57.2
				c-34.9,35.6-53.5,82.3-52.5,131.5v0.5c0.7,33.1,1.7,83.3,25.3,133.1c16.2,34.2,16.1,82.1-15.7,107.3
				c-22.8,18.2-53.8,15.3-82.9-7.8l-11.3-9l6.6,12.8c0.3,0.7,29.6,55.9,92.2,55.9c13.1,0,27.6-2.4,43.7-8.3
				c82.4-29.8,64.1-116.2,49.6-185.6c-5.1-24.2-9.9-47-9.9-64.7c0-71.6,34.2-112.7,94-112.7c61.8,0,98.6,37.1,100.9,39.6
				c1.7,2.4,17.5,23,32.3,13.1c2-1.4,3.4-3.5,3.9-6.1s0-5.6-0.9-8.7c1.7,0.9,3.3,1.5,5,1.7c3.1,0.4,6-0.7,8.3-3
				c3.9-3.9,4.8-8.2,4.2-12.3c2.6,1.4,5.5,2.4,8.4,2.5c4.1,0.2,7.7-1.3,10.8-4.3C763.4,429.6,756.4,416,752.1,409.3z M711.3,462.7
				c-0.2,1.2-0.7,1.7-1.2,2c-10.4,6.9-23.8-11.6-23.9-11.7l-0.2-0.3c-1.6-1.7-39.3-41.7-105.6-41.7c-63.7,0-100.2,43.4-100.2,119
				c0,18.3,4.9,41.5,10.1,65.9c14.9,70.5,31.7,150.5-45.6,178.4c-55.7,20.2-91.8-2-111-21.7c24.1,19.4,45.4,25.4,62.6,25.4
				c14,0,25.3-4,33.3-8.2c35.3-18.5,58.1-67.4,50.6-109c-3.3-18.3-9.4-38.1-15.3-57.3C456.7,577.1,449,552,449,533
				c0.1-73.4,32.7-151.9,124-151.9c61.6,0,102.5,20,132.3,64.5C708.8,451.8,712,458.8,711.3,462.7z M725.3,449.4
				c-0.9,0.9-1.9,1.3-3.1,1.2c-4.2-0.5-9.8-6.3-13.8-11.6c-1.7-2.5-2.9-4.2-3.3-4.8l-0.2,0.2c-30.5-40.9-71.7-59.3-131.9-59.3
				c-42.3,0-76.7,16.8-99.5,48.5c-20.1,27.9-30.6,65.7-30.7,109.6c0,20,7.9,45.4,16.2,72.3c5.9,19,12,38.7,15.2,56.6
				c7,39.1-14.2,85.1-47.3,102.4c-20.7,10.8-43.8,9.8-67.4-2.4c8.3,2.7,15.9,3.8,22.7,3.8c12.6,0,22.6-3.8,30.2-8.5
				c28-17.2,42.7-61.1,35-104.2c-2.6-14.6-7.3-29.8-12.3-45.9c-9.8-31.7-19.9-64.5-15.8-97.2C437.6,363.7,532.8,345,572.8,343.8
				c54.8-1.7,101.9,28.8,131.7,62.7l17.6,25.3c0.1,0.1,0.6,0.6,1.3,1.4C725.7,436.1,731,443.7,725.3,449.4z M748.8,435.3
				c-1.8,1.8-3.8,2.6-6.1,2.5c-5.4-0.2-11.4-5.4-14.5-8.6c-0.6-0.6-1.1-1.3-1.6-1.7l-7.2-9.4c-3.5-5-7.4-10.1-11.6-15V403l0,0
				c-30.3-35.5-77.8-67.5-135.2-65.7c-48.3,1.5-87.2,20.5-115.6,56.8c-29,37.1-39.9,83-43.9,115c-4.2,33.9,6.1,67.4,16.1,99.8
				c5,16,9.6,31,12.1,45.2c7.3,40.7-6.2,81.8-32.1,97.7c-15.1,9.3-33.2,9.9-53.4,2c16.9,2.4,33.1-1.7,46.7-12.6
				c34.2-27.2,34.7-78.4,17.5-114.9c-23-48.6-24.1-97.9-24.7-130.5v-0.5c-1-47.5,17-92.5,50.7-127c34.4-35.2,82.4-55.3,131.7-55.3
				c74.1,0,142.3,52.4,169.5,99.7C747.4,413.4,757.6,426.5,748.8,435.3z"/>
			<path class="st5" d="M595.3,500.9c0,0-13.3,13.3-32.1,13.3s-31.8-13.3-31.8-13.3s2,6.4,7.9,12.1c-1.6,2.4-4.2,7-4.2,11.2
				c0,5.8,3.9,10.3,3.9,10.3s-2-10.7,3.8-18.6c3,2.2,6.8,4.1,11.4,5.1c-0.4,2.9-0.5,6.4,0.4,9.3c2,6.3,7.4,9.9,7.4,9.9
				s-4.7-9-3.3-18.4c1.5,0.2,3.1,0.2,4.8,0.2c3.1-0.1,5.8-0.5,8.4-1c0.2,2.6,0.6,5.7,2,8.1c3,5.2,8.7,7.6,8.7,7.6s-6.7-8-6.3-17.1
				C590.9,514.2,595.3,500.9,595.3,500.9z"/>
			<path class="st5" d="M703.6,502.7c0,0-13.3,13.3-32.1,13.3s-31.8-13.3-31.8-13.3s2,6.4,7.9,12.1c-1.6,2.4-4.2,7-4.2,11.2
				c0,5.8,3.9,10.3,3.9,10.3s-2-10.7,3.8-18.6c3,2.2,6.8,4.1,11.4,5.1c-0.4,2.9-0.5,6.4,0.4,9.3c2,6.3,7.4,9.9,7.4,9.9
				s-4.7-9-3.3-18.4c1.5,0.2,3.1,0.2,4.8,0.2c3.1-0.1,5.8-0.5,8.4-1c0.2,2.6,0.6,5.7,2,8.1c3,5.2,8.7,7.6,8.7,7.6s-6.7-8-6.3-17.1
				C699.2,515.8,703.6,502.7,703.6,502.7z"/>
			<g>
				<path class="st5" d="M538.9,720.4V738c0,1.5-0.1,2.8-0.2,3.9c-0.2,1.1-0.4,2.1-0.9,3.2c-0.8,1.9-2,3.3-3.8,4.3
					c-1.7,1-3.9,1.6-6.5,1.6c-2.3,0-4.2-0.4-5.7-1.1s-2.8-1.9-3.7-3.5c-0.5-0.9-0.9-1.8-1.2-3c-0.3-1.1-0.5-2.2-0.5-3.2
					c0-1.1,0.3-1.9,0.9-2.4c0.6-0.6,1.3-0.9,2.3-0.9c0.9,0,1.6,0.2,2,0.8s0.8,1.3,1,2.4c0.2,1.2,0.6,2.1,0.8,2.8s0.7,1.3,1.3,1.8
					s1.5,0.8,2.6,0.8c3,0,4.5-2.2,4.5-6.6v-18.7c0-1.3,0.3-2.4,0.9-3.1c0.6-0.7,1.4-1,2.4-1s1.9,0.3,2.5,1
					C538.6,718,538.9,719.1,538.9,720.4z"/>
				<path class="st5" d="M562.1,747.6v-0.8c-0.8,0.9-1.6,1.7-2.4,2.4c-0.8,0.6-1.7,1.1-2.7,1.4c-0.9,0.3-2.1,0.5-3.4,0.5
					c-1.5,0-2.8-0.3-4.1-0.9c-1.2-0.6-2.1-1.5-2.8-2.6c-0.8-1.3-1.2-3.2-1.2-5.7v-12.4c0-1.3,0.3-2.2,0.9-2.8
					c0.6-0.6,1.3-0.9,2.3-0.9c0.9,0,1.7,0.3,2.3,0.9c0.6,0.6,0.9,1.6,0.9,2.8v10c0,1.4,0.2,2.7,0.4,3.6c0.2,1,0.7,1.7,1.3,2.3
					s1.5,0.9,2.6,0.9c1,0,2-0.3,3-0.9c0.9-0.6,1.6-1.4,2-2.4c0.3-0.9,0.6-2.8,0.6-5.8v-7.6c0-1.3,0.3-2.2,0.9-2.8
					c0.6-0.6,1.3-0.9,2.3-0.9c0.9,0,1.7,0.3,2.3,0.9c0.6,0.6,0.9,1.6,0.9,2.8v18.1c0,1.2-0.2,2.1-0.8,2.7c-0.6,0.6-1.3,0.9-2.1,0.9
					c-0.9,0-1.6-0.3-2.1-0.9C562.4,749.5,562.1,748.7,562.1,747.6z"/>
				<path class="st5" d="M574.3,747.2v-27.1c0-1.3,0.3-2.2,0.9-2.8c0.6-0.6,1.3-0.9,2.3-0.9s1.7,0.3,2.3,0.9
					c0.6,0.6,0.9,1.6,0.9,2.8v27.1c0,1.3-0.3,2.2-0.9,2.8s-1.3,0.9-2.3,0.9s-1.7-0.3-2.2-1C574.5,749.4,574.3,748.5,574.3,747.2z"/>
				<path class="st5" d="M590.1,722.7c-0.9,0-1.7-0.2-2.2-0.8c-0.6-0.6-0.9-1.3-0.9-2.3c0-0.9,0.3-1.7,0.9-2.2s1.3-0.9,2.2-0.9
					c0.8,0,1.5,0.2,2.1,0.8s0.9,1.3,0.9,2.3c0,0.9-0.3,1.7-0.9,2.3C591.6,722.5,590.9,722.7,590.1,722.7z M593.2,729.1v18.1
					c0,1.3-0.3,2.2-0.9,2.8c-0.6,0.6-1.3,0.9-2.3,0.9s-1.7-0.3-2.2-1c-0.6-0.6-0.9-1.6-0.9-2.8v-17.9c0-1.3,0.3-2.2,0.9-2.8
					c0.6-0.6,1.3-0.9,2.2-0.9s1.7,0.3,2.3,0.9C592.9,727.2,593.2,728,593.2,729.1z"/>
				<path class="st5" d="M617.1,739.8h-12.3c0,1.4,0.3,2.7,0.9,3.8c0.6,1.1,1.3,1.9,2.2,2.4c0.9,0.6,2,0.8,3.1,0.8
					c0.7,0,1.4-0.1,2-0.2s1.2-0.5,1.8-0.8c0.6-0.4,1.1-0.8,1.6-1.2s1.1-1,1.9-1.7c0.3-0.2,0.8-0.4,1.3-0.4c0.6,0,1.2,0.2,1.6,0.6
					c0.4,0.4,0.6,0.9,0.6,1.5s-0.2,1.3-0.6,2c-0.5,0.8-1.1,1.5-2,2.2s-2,1.3-3.4,1.7c-1.3,0.5-2.9,0.7-4.6,0.7c-4,0-7.2-1.2-9.4-3.5
					s-3.4-5.4-3.4-9.4c0-1.9,0.2-3.5,0.8-5.1s1.3-2.9,2.4-4.1c1-1.1,2.4-2,3.9-2.6c1.6-0.6,3.2-0.9,5.1-0.9c2.4,0,4.6,0.6,6.3,1.6
					s3.1,2.4,3.9,4s1.3,3.3,1.3,5c0,1.6-0.5,2.6-1.3,3.1C620.1,739.6,618.8,739.8,617.1,739.8z M604.9,736.3h11.3
					c-0.2-2.1-0.7-3.8-1.7-4.8c-1-1.1-2.3-1.6-3.9-1.6c-1.6,0-2.8,0.6-3.9,1.7C605.7,732.6,605.1,734.2,604.9,736.3z"/>
				<path class="st5" d="M627.9,726.2h0.7v-3.8c0-1,0-1.8,0.1-2.4s0.2-1.1,0.5-1.5c0.2-0.4,0.6-0.8,1-1c0.5-0.2,0.9-0.4,1.6-0.4
					c0.8,0,1.5,0.3,2.1,0.9c0.4,0.4,0.7,0.9,0.8,1.5s0.2,1.4,0.2,2.4v4.2h2.3c0.9,0,1.6,0.2,2,0.6c0.5,0.4,0.7,0.9,0.7,1.7
					c0,0.9-0.3,1.4-1,1.7c-0.6,0.3-1.7,0.5-2.8,0.5h-1.2v11.5c0,0.9,0,1.7,0.1,2.3s0.2,0.9,0.6,1.3c0.3,0.3,0.8,0.5,1.4,0.5
					c0.4,0,0.9-0.1,1.5-0.2c0.6-0.2,1.1-0.2,1.5-0.2c0.5,0,0.9,0.2,1.3,0.6c0.4,0.4,0.6,0.9,0.6,1.5c0,1-0.6,1.8-1.7,2.3
					c-1.1,0.6-2.7,0.8-4.7,0.8s-3.5-0.3-4.4-1c-1-0.6-1.7-1.6-2-2.8s-0.5-2.7-0.5-4.6v-12h-0.8c-0.9,0-1.6-0.2-2-0.6
					c-0.5-0.4-0.7-0.9-0.7-1.7c0-0.6,0.2-1.2,0.7-1.7C626.3,726.4,627,726.2,627.9,726.2z"/>
				<path class="st5" d="M681.9,740.4c0,2-0.6,3.9-1.6,5.5c-1,1.7-2.6,2.9-4.6,3.8c-2,0.9-4.4,1.3-7.2,1.3c-3.3,0-6.1-0.6-8.2-1.9
					c-1.5-0.9-2.8-2.1-3.7-3.6s-1.4-3-1.4-4.4c0-0.8,0.3-1.5,0.9-2.1c0.6-0.6,1.3-0.9,2.2-0.9c0.7,0,1.3,0.2,1.8,0.7s0.9,1.1,1.3,2
					c0.4,1.1,0.9,2,1.4,2.7s1.2,1.3,2.1,1.8c0.9,0.5,2,0.7,3.5,0.7c2,0,3.6-0.5,5-1.4c1.3-0.9,1.9-2.1,1.9-3.5c0-1.1-0.3-2-1-2.8
					c-0.7-0.7-1.6-1.3-2.7-1.6c-1.1-0.4-2.5-0.8-4.3-1.2c-2.4-0.6-4.4-1.3-6.1-2c-1.7-0.8-2.9-1.8-3.9-3.1c-0.9-1.3-1.4-2.9-1.4-4.9
					c0-1.9,0.5-3.5,1.5-5c1-1.4,2.4-2.5,4.4-3.3c1.9-0.8,4.2-1.2,6.8-1.2c2,0,3.9,0.2,5.4,0.8s2.8,1.2,3.8,2s1.7,1.7,2.2,2.7
					c0.5,0.9,0.7,1.8,0.7,2.8c0,0.8-0.3,1.6-0.9,2.2c-0.6,0.6-1.3,0.9-2.1,0.9s-1.3-0.2-1.8-0.6c-0.4-0.4-0.9-1-1.3-1.9
					c-0.6-1.3-1.3-2.3-2.2-3s-2.2-1.1-4.1-1.1c-1.7,0-3.1,0.4-4.2,1.2c-1.1,0.8-1.7,1.7-1.7,2.8c0,0.7,0.2,1.3,0.6,1.7
					c0.4,0.5,0.9,0.9,1.5,1.3c0.6,0.3,1.3,0.6,2,0.8c0.6,0.2,1.7,0.5,3.2,0.9c1.9,0.5,3.6,0.9,5.1,1.5c1.6,0.6,2.8,1.2,3.9,2
					c1.1,0.8,1.9,1.7,2.5,2.9C681.6,737.2,681.9,738.7,681.9,740.4z"/>
				<path class="st5" d="M703.1,747.6c-1.5,1.2-3,2-4.4,2.7c-1.4,0.6-3,0.9-4.7,0.9c-1.6,0-3-0.3-4.2-0.9c-1.2-0.6-2.1-1.5-2.8-2.6
					c-0.6-1.1-1-2.3-1-3.5c0-1.7,0.6-3.1,1.7-4.4c1.1-1.2,2.6-2,4.5-2.4c0.4-0.1,1.4-0.3,3-0.6s2.9-0.6,4-0.9
					c1.1-0.2,2.4-0.6,3.7-0.9c-0.1-1.7-0.4-2.8-1-3.6s-1.8-1.2-3.6-1.2c-1.6,0-2.8,0.2-3.6,0.6c-0.8,0.5-1.5,1.1-2,2
					s-0.9,1.5-1.2,1.7c-0.2,0.3-0.7,0.4-1.5,0.4c-0.7,0-1.3-0.2-1.8-0.7c-0.6-0.5-0.8-1-0.8-1.7c0-1.1,0.4-2.2,1.2-3.2
					s2-1.9,3.6-2.6c1.7-0.7,3.7-1,6.1-1c2.8,0,4.9,0.3,6.5,0.9c1.6,0.6,2.7,1.7,3.3,3.1c0.6,1.4,0.9,3.3,0.9,5.6c0,1.5,0,2.7,0,3.7
					s0,2.1,0,3.4c0,1.2,0.2,2.4,0.6,3.7c0.4,1.3,0.6,2.1,0.6,2.4c0,0.6-0.3,1.3-0.9,1.7c-0.6,0.6-1.3,0.8-2,0.8
					c-0.6,0-1.3-0.3-1.9-0.9C704.5,749.5,703.8,748.7,703.1,747.6z M702.7,738.5c-0.9,0.3-2.3,0.7-4,1.1c-1.7,0.4-3,0.6-3.6,0.8
					s-1.3,0.6-1.9,1c-0.6,0.6-0.9,1.3-0.9,2.1c0,0.9,0.4,1.7,1.1,2.4c0.7,0.6,1.7,1,2.8,1c1.3,0,2.4-0.2,3.5-0.8
					c1-0.6,1.8-1.3,2.3-2.1c0.6-0.9,0.9-2.5,0.9-4.6L702.7,738.5L702.7,738.5z"/>
				<path class="st5" d="M715.2,747.2v-27.1c0-1.3,0.3-2.2,0.9-2.8c0.6-0.6,1.3-0.9,2.3-0.9s1.7,0.3,2.3,0.9
					c0.6,0.6,0.9,1.6,0.9,2.8v27.1c0,1.3-0.3,2.2-0.9,2.8s-1.3,0.9-2.3,0.9s-1.7-0.3-2.2-1C715.4,749.4,715.2,748.5,715.2,747.2z"/>
				<path class="st5" d="M751.3,738.3c0,1.9-0.3,3.6-0.9,5.2c-0.6,1.6-1.4,2.9-2.5,4.1c-1.1,1.1-2.4,2-3.9,2.6s-3.2,0.9-5.2,0.9
					c-1.9,0-3.6-0.3-5.1-0.9c-1.5-0.6-2.8-1.5-3.9-2.6c-1.1-1.1-2-2.5-2.5-4c-0.6-1.6-0.9-3.3-0.9-5.1c0-1.9,0.3-3.6,0.9-5.2
					s1.4-2.9,2.5-4s2.4-2,3.9-2.6s3.2-0.9,5.1-0.9s3.6,0.3,5.2,0.9s2.8,1.5,3.9,2.6c1.1,1.1,2,2.4,2.5,4
					C751.1,734.7,751.3,736.5,751.3,738.3z M745,738.3c0-2.5-0.6-4.6-1.7-6c-1.1-1.4-2.6-2.1-4.6-2.1c-1.3,0-2.3,0.3-3.2,0.9
					c-0.9,0.6-1.7,1.6-2.1,2.8c-0.5,1.3-0.8,2.7-0.8,4.3c0,1.7,0.2,3.1,0.7,4.2c0.5,1.3,1.2,2.1,2.1,2.8c0.9,0.6,2,0.9,3.3,0.9
					c1.9,0,3.4-0.7,4.6-2.1C744.5,742.8,745,740.9,745,738.3z"/>
				<path class="st5" d="M761.9,729.1v0.8c1.1-1.4,2.3-2.5,3.6-3.2s2.8-1,4.5-1s3.1,0.4,4.4,1.1c1.3,0.7,2.3,1.7,2.9,3.1
					c0.4,0.8,0.7,1.6,0.8,2.4c0.2,0.9,0.2,2,0.2,3.4v11.6c0,1.3-0.3,2.2-0.9,2.8c-0.6,0.6-1.3,0.9-2.2,0.9s-1.7-0.3-2.3-1
					c-0.6-0.6-0.9-1.6-0.9-2.8v-10.5c0-2-0.3-3.6-0.9-4.7c-0.6-1.1-1.7-1.7-3.5-1.7c-1.1,0-2.1,0.3-3.1,1c-0.9,0.6-1.6,1.6-2,2.8
					c-0.3,0.9-0.5,2.7-0.5,5.2v7.9c0,1.3-0.3,2.2-0.9,2.8c-0.6,0.6-1.3,0.9-2.3,0.9c-0.9,0-1.7-0.3-2.2-1c-0.6-0.6-0.9-1.6-0.9-2.8
					V729c0-1.2,0.2-2,0.8-2.7c0.6-0.6,1.3-0.9,2.1-0.9c0.6,0,1,0.2,1.5,0.4s0.8,0.6,1.1,1.2C761.8,727.7,761.9,728.4,761.9,729.1z"
					/>
			</g>
		</g>
	</g>
</g>
</svg>
