<?xml version="1.0" encoding="utf-8"?>
<!-- Generator: Adobe Illustrator 26.0.1, SVG Export Plug-In . SVG Version: 6.00 Build 0)  -->
<svg version="1.1" id="Layer_1" xmlns="http://www.w3.org/2000/svg" xmlns:xlink="http://www.w3.org/1999/xlink" x="0px" y="0px"
	 viewBox="0 0 1000 650" style="enable-background:new 0 0 1000 650;" xml:space="preserve">
<style type="text/css">
	.st0{fill:none;stroke:#F6BD8E;stroke-width:1.5;stroke-miterlimit:10;}
	.st1{fill:#210400;}
	.st2{fill:#FF9508;}
	.st3{fill:#B94900;}
</style>
<g>
	<g>
		<rect x="0.1" y="66.4" class="st0" width="50.2" height="50.2"/>
		<rect x="50.3" y="66.4" class="st0" width="50.2" height="50.2"/>
		<rect x="100.5" y="66.4" class="st0" width="50.2" height="50.2"/>
		<rect x="150.7" y="66.4" class="st0" width="50.2" height="50.2"/>
		<rect x="200.9" y="66.4" class="st0" width="50.2" height="50.2"/>
		<rect x="251" y="66.4" class="st0" width="50.2" height="50.2"/>
		<rect x="301.2" y="66.4" class="st0" width="50.2" height="50.2"/>
		<rect x="351.4" y="66.4" class="st0" width="50.2" height="50.2"/>
		<rect x="401.6" y="66.4" class="st0" width="50.2" height="50.2"/>
		<rect x="451.8" y="66.4" class="st0" width="50.2" height="50.2"/>
		<rect x="0.1" y="116.6" class="st0" width="50.2" height="50.2"/>
		<rect x="50.3" y="116.6" class="st0" width="50.2" height="50.2"/>
		<rect x="100.5" y="116.6" class="st0" width="50.2" height="50.2"/>
		<rect x="150.7" y="116.6" class="st0" width="50.2" height="50.2"/>
		<rect x="200.9" y="116.6" class="st0" width="50.2" height="50.2"/>
		<rect x="251" y="116.6" class="st0" width="50.2" height="50.2"/>
		<rect x="301.2" y="116.6" class="st0" width="50.2" height="50.2"/>
		<rect x="351.4" y="116.6" class="st0" width="50.2" height="50.2"/>
		<rect x="401.6" y="116.6" class="st0" width="50.2" height="50.2"/>
		<rect x="451.8" y="116.6" class="st0" width="50.2" height="50.2"/>
		<rect x="0.1" y="166.8" class="st0" width="50.2" height="50.2"/>
		<rect x="50.3" y="166.8" class="st0" width="50.2" height="50.2"/>
		<rect x="100.5" y="166.8" class="st0" width="50.2" height="50.2"/>
		<rect x="150.7" y="166.8" class="st0" width="50.2" height="50.2"/>
		<rect x="200.9" y="166.8" class="st0" width="50.2" height="50.2"/>
		<rect x="251" y="166.8" class="st0" width="50.2" height="50.2"/>
		<rect x="301.2" y="166.8" class="st0" width="50.2" height="50.2"/>
		<rect x="351.4" y="166.8" class="st0" width="50.2" height="50.2"/>
		<rect x="401.6" y="166.8" class="st0" width="50.2" height="50.2"/>
		<rect x="451.8" y="166.8" class="st0" width="50.2" height="50.2"/>
		<rect x="0.1" y="217" class="st0" width="50.2" height="50.2"/>
		<rect x="50.3" y="217" class="st0" width="50.2" height="50.2"/>
		<rect x="100.5" y="217" class="st0" width="50.2" height="50.2"/>
		<rect x="150.7" y="217" class="st0" width="50.2" height="50.2"/>
		<rect x="200.9" y="217" class="st0" width="50.2" height="50.2"/>
		<rect x="251" y="217" class="st0" width="50.2" height="50.2"/>
		<rect x="301.2" y="217" class="st0" width="50.2" height="50.2"/>
		<rect x="351.4" y="217" class="st0" width="50.2" height="50.2"/>
		<rect x="401.6" y="217" class="st0" width="50.2" height="50.2"/>
		<rect x="451.8" y="217" class="st0" width="50.2" height="50.2"/>
		<rect x="0.1" y="267.2" class="st0" width="50.2" height="50.2"/>
		<rect x="50.3" y="267.2" class="st0" width="50.2" height="50.2"/>
		<rect x="100.5" y="267.2" class="st0" width="50.2" height="50.2"/>
		<rect x="150.7" y="267.2" class="st0" width="50.2" height="50.2"/>
		<rect x="200.9" y="267.2" class="st0" width="50.2" height="50.2"/>
		<rect x="251" y="267.2" class="st0" width="50.2" height="50.2"/>
		<rect x="301.2" y="267.2" class="st0" width="50.2" height="50.2"/>
		<rect x="351.4" y="267.2" class="st0" width="50.2" height="50.2"/>
		<rect x="401.6" y="267.2" class="st0" width="50.2" height="50.2"/>
		<rect x="451.8" y="267.2" class="st0" width="50.2" height="50.2"/>
		<rect x="0.1" y="317.3" class="st0" width="50.2" height="50.2"/>
		<rect x="50.3" y="317.3" class="st0" width="50.2" height="50.2"/>
		<rect x="100.5" y="317.3" class="st0" width="50.2" height="50.2"/>
		<rect x="150.7" y="317.3" class="st0" width="50.2" height="50.2"/>
		<rect x="200.9" y="317.3" class="st0" width="50.2" height="50.2"/>
		<rect x="251" y="317.3" class="st0" width="50.2" height="50.2"/>
		<rect x="301.2" y="317.3" class="st0" width="50.2" height="50.2"/>
		<rect x="351.4" y="317.3" class="st0" width="50.2" height="50.2"/>
		<rect x="401.6" y="317.3" class="st0" width="50.2" height="50.2"/>
		<rect x="451.8" y="317.3" class="st0" width="50.2" height="50.2"/>
		<rect x="0.1" y="367.5" class="st0" width="50.2" height="50.2"/>
		<rect x="50.3" y="367.5" class="st0" width="50.2" height="50.2"/>
		<rect x="100.5" y="367.5" class="st0" width="50.2" height="50.2"/>
		<rect x="150.7" y="367.5" class="st0" width="50.2" height="50.2"/>
		<rect x="200.9" y="367.5" class="st0" width="50.2" height="50.2"/>
		<rect x="251" y="367.5" class="st0" width="50.2" height="50.2"/>
		<rect x="301.2" y="367.5" class="st0" width="50.2" height="50.2"/>
		<rect x="351.4" y="367.5" class="st0" width="50.2" height="50.2"/>
		<rect x="401.6" y="367.5" class="st0" width="50.2" height="50.2"/>
		<rect x="451.8" y="367.5" class="st0" width="50.2" height="50.2"/>
		<rect x="0.1" y="417.7" class="st0" width="50.2" height="50.2"/>
		<rect x="50.3" y="417.7" class="st0" width="50.2" height="50.2"/>
		<rect x="100.5" y="417.7" class="st0" width="50.2" height="50.2"/>
		<rect x="150.7" y="417.7" class="st0" width="50.2" height="50.2"/>
		<rect x="200.9" y="417.7" class="st0" width="50.2" height="50.2"/>
		<rect x="251" y="417.7" class="st0" width="50.2" height="50.2"/>
		<rect x="301.2" y="417.7" class="st0" width="50.2" height="50.2"/>
		<rect x="351.4" y="417.7" class="st0" width="50.2" height="50.2"/>
		<rect x="401.6" y="417.7" class="st0" width="50.2" height="50.2"/>
		<rect x="451.8" y="417.7" class="st0" width="50.2" height="50.2"/>
		<rect x="0.1" y="467.9" class="st0" width="50.2" height="50.2"/>
		<rect x="50.3" y="467.9" class="st0" width="50.2" height="50.2"/>
		<rect x="100.5" y="467.9" class="st0" width="50.2" height="50.2"/>
		<rect x="150.7" y="467.9" class="st0" width="50.2" height="50.2"/>
		<rect x="200.9" y="467.9" class="st0" width="50.2" height="50.2"/>
		<rect x="251" y="467.9" class="st0" width="50.2" height="50.2"/>
		<rect x="301.2" y="467.9" class="st0" width="50.2" height="50.2"/>
		<rect x="351.4" y="467.9" class="st0" width="50.2" height="50.2"/>
		<rect x="401.6" y="467.9" class="st0" width="50.2" height="50.2"/>
		<rect x="451.8" y="467.9" class="st0" width="50.2" height="50.2"/>
		<rect x="0.1" y="518.1" class="st0" width="50.2" height="50.2"/>
		<rect x="50.3" y="518.1" class="st0" width="50.2" height="50.2"/>
		<rect x="100.5" y="518.1" class="st0" width="50.2" height="50.2"/>
		<rect x="150.7" y="518.1" class="st0" width="50.2" height="50.2"/>
		<rect x="200.9" y="518.1" class="st0" width="50.2" height="50.2"/>
		<rect x="251" y="518.1" class="st0" width="50.2" height="50.2"/>
		<rect x="301.2" y="518.1" class="st0" width="50.2" height="50.2"/>
		<rect x="351.4" y="518.1" class="st0" width="50.2" height="50.2"/>
		<rect x="401.6" y="518.1" class="st0" width="50.2" height="50.2"/>
		<rect x="451.8" y="518.1" class="st0" width="50.2" height="50.2"/>
	</g>
	<g>
		<g>
			<path class="st1" d="M208.8,509.9c-0.1-0.5-0.2-0.9-0.1-1.3c0.1-0.6,0.3-1,0.7-1.3c0.4-0.3,0.9-0.4,1.4-0.3
				c0.5,0.1,1,0.3,1.5,0.7c0.5,0.7,1.1,1.4,1.7,1.9c0.7,0.5,1.4,1,2.2,1.4c0.8,0.4,1.6,0.6,2.5,0.9c0.9,0.2,1.7,0.4,2.5,0.5
				c0.6-0.1,1-0.2,1.2-0.2c0.2,0,0.4-0.1,0.5-0.1c0.1,0,0.3-0.1,0.5-0.2c0.2-0.1,0.5-0.3,1-0.6c0.2-0.2,0.4-0.4,0.5-0.6
				c0.2-0.2,0.3-0.4,0.5-0.6l0.6-1.3c0-0.2,0.1-0.5,0.1-0.7c0-0.2,0-0.5,0-0.7c0-0.2-0.1-0.5-0.2-0.7c-0.1-0.2-0.1-0.5-0.2-0.7
				c-0.2-0.3-0.3-0.5-0.5-0.7c-0.2-0.2-0.3-0.5-0.5-0.7c-0.3-0.2-0.5-0.4-0.8-0.7c-0.3-0.2-0.6-0.4-0.9-0.6
				c-1.3-0.6-2.5-1.1-3.6-1.5c-1.1-0.3-2.2-0.7-3.1-1.1c-1-0.4-1.9-1-2.7-1.7c-0.8-0.7-1.6-1.8-2.2-3.2c-0.1-0.3-0.2-0.5-0.2-0.6
				c0-0.1,0-0.4,0-0.7c0-0.3,0-0.5,0-0.8c0-0.2,0-0.5,0.1-0.7c0.1-0.6,0.2-1.1,0.4-1.6c0.2-0.4,0.4-0.9,0.7-1.3
				c0.3-0.4,0.6-0.8,1.1-1.2c0.4-0.4,0.9-0.8,1.5-1.3c0.6-0.5,1.4-0.9,2.1-1.2c0.8-0.3,1.6-0.5,2.4-0.6c0.8-0.1,1.7-0.1,2.5-0.1
				c0.9,0,1.7,0.1,2.5,0.2c0.3,0,0.5,0.1,0.7,0.1s0.4,0.1,0.7,0.1c0.8,0.2,1.4,0.4,2.1,0.8c0.6,0.4,1.3,0.7,2,1
				c0.7,0.6,1,1.3,0.9,2.1c-0.1,0.5-0.3,0.9-0.7,1.2c-0.4,0.3-1,0.5-1.7,0.4c-0.1,0-0.1,0-0.2-0.1c-0.1,0-0.2,0-0.2-0.1
				c-1-0.5-1.9-0.9-2.7-1.1c-0.8-0.3-1.6-0.5-2.3-0.6c-0.8-0.1-1.6-0.1-2.5,0.1c-0.9,0.2-1.9,0.5-3.1,1c-0.2,0.2-0.5,0.5-0.7,0.6
				c-0.2,0.2-0.5,0.4-0.7,0.6c-0.1,0.2-0.2,0.4-0.3,0.6c-0.1,0.2-0.2,0.4-0.3,0.6c0,0.2,0,0.4-0.1,0.6c0,0.2,0,0.4,0,0.6
				c0.1,0.2,0.2,0.4,0.3,0.5c0.1,0.2,0.2,0.4,0.3,0.5l1.9,1.5c1,0.4,1.9,0.7,2.7,1c0.8,0.3,1.6,0.6,2.4,0.9c0.8,0.3,1.5,0.7,2.3,1.1
				c0.7,0.4,1.5,0.9,2.3,1.5c0.4,0.3,0.8,0.7,1.1,1.2c0.3,0.5,0.5,0.9,0.8,1.3c0.4,0.7,0.7,1.5,0.9,2.3c0.1,0.8,0.2,1.7,0,2.5
				c-0.2,1.2-0.5,2.3-1.2,3.4c-0.6,1.1-1.4,1.9-2.4,2.5c-0.3,0.2-0.7,0.4-1,0.6c-0.3,0.2-0.7,0.3-1,0.5c-0.8,0.4-1.6,0.6-2.5,0.7
				c-0.9,0.1-1.8,0.1-2.8,0c-1.1-0.1-2.2-0.4-3.3-0.8c-1.1-0.4-2.1-0.9-3.1-1.5c-1-0.6-1.8-1.2-2.6-1.9
				C209.9,511.4,209.3,510.7,208.8,509.9z"/>
			<path class="st1" d="M249.1,502.4c0-0.1-0.1-0.2-0.1-0.4l0-0.5c-0.4-1-1.1-1.7-2-2.2c-0.9-0.4-1.8-0.6-2.9-0.6
				c-0.7,0.3-1.4,0.6-2.1,1.1l-1,1.4c-0.1,0.1-0.2,0.3-0.3,0.3c-0.1,0.1-0.2,0.2-0.3,0.2l0.5,13.8c0,0.8-0.2,1.4-0.6,1.7
				c-0.4,0.4-0.9,0.6-1.4,0.6c-0.5,0-0.9-0.1-1.3-0.5s-0.7-0.9-0.8-1.6l-0.7-19.4c0.1-0.7,0.4-1.2,0.7-1.5c0.4-0.3,0.8-0.5,1.2-0.5
				c0.4,0,0.8,0.1,1.2,0.4c0.4,0.3,0.7,0.7,0.9,1.3c0.5-0.4,1.2-0.8,1.9-1.1c0.7-0.3,1.5-0.5,2.4-0.6c1.2,0,2.4,0.2,3.7,0.8
				c1.3,0.6,2.3,1.3,3.1,2.2c0.4-0.4,0.7-0.8,1.1-1.2c0.4-0.4,0.8-0.8,1.3-1.1c0.5-0.3,0.9-0.6,1.4-0.9c0.5-0.2,1-0.4,1.5-0.4
				c1,0,2.1,0.1,3.1,0.4c1,0.3,1.9,0.8,2.7,1.3c0.8,0.6,1.5,1.3,2,2.1c0.5,0.8,0.8,1.6,0.8,2.5c0,0.1,0,0.1,0,0.2c0,0,0,0.1,0,0.2
				c0,0,0.1,0.1,0.1,0.1c0,0,0,0.1,0.1,0.1l0.5,13.6c0,0.8-0.2,1.4-0.6,1.8c-0.4,0.4-0.9,0.6-1.4,0.6c-0.5,0-0.9-0.1-1.3-0.5
				c-0.4-0.3-0.7-0.9-0.8-1.6l-0.5-13.7c-0.4-1.2-1-1.9-1.8-2.3c-0.8-0.4-1.6-0.6-2.3-0.5c-0.9,0-1.6,0.3-2.3,0.7
				c-0.7,0.5-1.2,1.3-1.7,2.5l0.5,13.5c0,0.8-0.2,1.4-0.6,1.8c-0.4,0.4-0.9,0.6-1.4,0.6c-0.5,0-0.9-0.1-1.3-0.5
				c-0.4-0.3-0.7-0.9-0.8-1.6l-0.5-12.5C249.1,502.5,249.1,502.4,249.1,502.4z"/>
			<path class="st1" d="M269.4,485.9c-0.1-0.7,0-1.4,0.4-2c0.4-0.6,0.9-0.9,1.6-1s1.3,0.1,1.8,0.5c0.6,0.4,0.9,1,1,1.8
				c0.1,0.7,0,1.3-0.5,1.9c-0.4,0.6-0.9,0.9-1.6,1c-0.7,0.1-1.3-0.1-1.8-0.5C269.8,487.2,269.5,486.6,269.4,485.9z M277.9,512.2
				c0.1,0.8-0.1,1.4-0.4,1.8c-0.4,0.4-0.8,0.7-1.3,0.8c-0.5,0.1-0.9,0-1.4-0.3c-0.4-0.3-0.8-0.8-1-1.5c-0.5-3.1-1-6.3-1.5-9.5
				c-0.5-3.2-1-6.4-1.5-9.5c0.1-0.7,0.3-1.2,0.6-1.6c0.3-0.4,0.7-0.6,1.2-0.7c0.4-0.1,0.9,0,1.3,0.3c0.4,0.2,0.8,0.7,1,1.3
				c0.5,3.1,1,6.3,1.5,9.5C276.9,505.9,277.4,509.1,277.9,512.2z"/>
			<path class="st1" d="M290.4,509.3c0.7,0.3,1.1,0.7,1.3,1.3c0.2,0.5,0.2,1,0,1.4c-0.2,0.4-0.5,0.8-1,1c-0.5,0.3-1.1,0.3-1.8,0.1
				c-0.3-0.1-0.7-0.3-1-0.4c-0.3-0.1-0.7-0.3-1-0.4c-0.3-0.2-0.6-0.4-0.7-0.6c-0.1-0.2-0.3-0.5-0.4-0.9l-4.9-27.3
				c0-0.6,0.2-1.2,0.5-1.6c0.3-0.4,0.7-0.6,1.1-0.7c0.4-0.1,0.8,0,1.3,0.2c0.4,0.2,0.8,0.6,1.1,1.2l4.7,26.5c0.1,0,0.2,0.1,0.4,0.2
				C290.1,509.2,290.3,509.2,290.4,509.3z"/>
			<path class="st1" d="M312.2,501.1c0.6-0.4,1.2-0.6,1.7-0.5s1,0.3,1.3,0.7c0.3,0.4,0.4,0.8,0.4,1.4c0,0.6-0.3,1.1-0.9,1.6
				c-0.9,0.9-2,1.7-3.1,2.5s-2.3,1.4-3.5,1.9c-1.2,0.5-2.5,0.8-3.8,0.8c-1.3,0.1-2.6-0.2-3.9-0.7c-1.6-0.6-2.9-1.7-4-3.1
				c-1.1-1.4-1.8-3-2.3-4.8c-0.4-1.7-0.5-3.5-0.2-5.2c0.3-1.8,1.1-3.3,2.3-4.6c1.3-1.3,2.7-2.5,4.4-3.4c1.6-0.9,3.4-1.4,5.3-1.4
				c0.9,0,1.8,0.2,2.7,0.7c0.9,0.5,1.6,1.1,2.2,1.8c0.6,0.7,1.1,1.6,1.3,2.5c0.2,0.9,0.2,1.8-0.1,2.8c-0.3,1-1,2-1.9,2.9
				c-0.9,0.9-1.9,1.7-3,2.4c-1.1,0.7-2.3,1.4-3.4,1.9c-1.2,0.6-2.2,1.1-3,1.5c-0.4,0.2-0.7,0.3-1.1,0.3c0.7,0.9,1.6,1.6,2.7,2.1
				c1.1,0.5,2.4,0.5,3.8,0c1.1-0.3,2.2-0.9,3.2-1.7C310.5,502.7,311.4,501.9,312.2,501.1z M300.4,492.9c-1.1,0.9-1.8,2-2.1,3.2
				c-0.3,1.3-0.4,2.5-0.1,3.7c0.2-0.2,0.4-0.4,0.6-0.6c0.5-0.3,1.1-0.6,1.7-0.9c0.6-0.3,1.1-0.6,1.7-0.9c0.4-0.2,0.9-0.5,1.5-0.8
				c0.6-0.3,1.3-0.7,1.9-1.2c0.7-0.4,1.2-0.9,1.8-1.3c0.5-0.5,0.8-0.9,0.9-1.4c-0.2-1.1-0.6-1.8-1.3-2c-0.7-0.3-1.4-0.3-2.2-0.1
				c-0.8,0.2-1.6,0.5-2.4,1C301.5,492,300.9,492.5,300.4,492.9z"/>
			<path class="st1" d="M343.2,498.2c-0.7,0.2-1.3,0.2-1.8-0.1c-0.5-0.3-0.8-0.6-1-1c-0.1-0.2-0.1-0.5-0.1-0.9l-7.8-20.2
				c-0.2,0.2-0.5,0.4-0.8,0.5c-0.5,0.2-1,0.2-1.5,0c-0.5-0.2-0.8-0.6-1-1c-0.3-0.7-0.1-1.5,0.4-2.3c0.5-0.9,1.2-1.8,2.1-2.6
				c0.9-0.9,1.8-1.6,2.9-2.3c1-0.7,1.9-1.2,2.7-1.5c1.4-0.5,2.8-0.8,4.1-0.8c1.3,0,2.5,0.3,3.6,0.7c1.1,0.4,2,1,2.8,1.7
				c0.8,0.7,1.3,1.5,1.6,2.3c0.5,1.2,0.6,2.4,0.4,3.8c-0.2,1.3-0.7,2.6-1.4,3.9c1.9,0.2,3.4,0.7,4.6,1.6c1.2,0.9,2.1,2,2.6,3.3
				c0.3,0.9,0.5,1.8,0.5,2.7c0,0.9-0.1,1.9-0.4,2.8c-0.3,0.9-0.7,1.8-1.2,2.6c-0.5,0.8-1.2,1.6-2,2.2c-1,0.8-2.1,1.5-3.2,2.1
				c-1.2,0.6-2.3,1.1-3.5,1.5c-0.4,0.2-0.9,0.3-1.3,0.5C344.1,497.9,343.7,498,343.2,498.2z M340,479.6c0.5-0.2,1-0.3,1.5-0.5
				c0.4-0.2,0.9-0.5,1.5-1c0.6-0.5,1.2-1,1.6-1.6c0.5-0.6,0.8-1.3,1.1-2c0.2-0.7,0.2-1.4,0-2.1c-0.3-0.7-0.7-1.2-1.2-1.6
				c-0.5-0.4-1.1-0.6-1.8-0.7c-0.7-0.1-1.3-0.1-2.1,0c-0.7,0.1-1.4,0.3-2,0.5c-1.2,0.5-2.2,1.1-3.1,1.9l3,7.7
				C339.1,480,339.6,479.8,340,479.6z M348.9,482.5c-0.9-0.2-1.8-0.3-2.8-0.2c-0.9,0.1-1.9,0.3-2.8,0.5c-0.5,0.3-1,0.5-1.5,0.8
				c-0.5,0.3-1.1,0.5-1.6,0.7l3.6,9.3c0.7-0.3,1.5-0.6,2.6-1.1c1.1-0.5,2.1-1.1,3.1-1.8c1-0.7,1.7-1.5,2.2-2.5s0.6-2,0.1-3.2
				c-0.2-0.6-0.6-1.2-1.1-1.6S349.6,482.6,348.9,482.5z"/>
			<path class="st1" d="M382.3,477.3C382.3,477.4,382.3,477.4,382.3,477.3c0.4,0.4,0.6,0.7,0.7,1.1c0.1,0.4,0.1,0.8,0,1.1
				c-0.1,0.4-0.4,0.7-0.7,0.9c-0.4,0.3-0.8,0.4-1.4,0.4c-0.4-0.1-0.8-0.3-1.2-0.5c-0.4-0.2-0.8-0.4-1.1-0.6
				c-0.3,0.8-0.7,1.6-1.1,2.4c-0.4,0.8-1,1.4-1.7,1.8c-1.1,0.7-2.3,1.3-3.5,1.9c-1.2,0.6-2.5,0.8-3.9,0.6c-1.2-0.2-2.2-0.5-3.1-1.1
				c-0.9-0.6-1.7-1.4-2.3-2.2c-0.6-0.9-1.2-1.9-1.6-2.9c-0.4-1.1-0.7-2.2-0.8-3.3c-0.1-0.5-0.1-1-0.1-1.5c0-0.5,0-1,0.1-1.6
				c0-0.8,0.1-1.5,0.2-2.2c0.1-0.7,0.4-1.4,0.7-2.1c0.2-0.5,0.5-0.9,0.7-1.4c0.2-0.5,0.5-0.9,0.7-1.4c0.2-0.3,0.5-0.7,0.9-1.2
				c0.4-0.5,0.9-1,1.5-1.4c0.6-0.5,1.2-0.9,1.8-1.2c0.6-0.3,1.2-0.5,1.8-0.6c0.4-0.3,0.8-0.4,1.4-0.3c0.5,0.1,1.1,0.3,1.6,0.8
				c1.1,2,2.1,4,3.2,6.1c1.1,2,2.3,4,3.6,5.8c0.2,0.2,0.5,0.5,0.8,0.8c0.4,0.3,0.8,0.5,1.2,0.7c0.4,0.2,0.8,0.5,1.1,0.6
				C382,477.1,382.2,477.2,382.3,477.3z M375,477.3c0-0.1,0.1-0.1,0.1-0.2c0,0,0-0.1,0.1-0.2c-1.3-1.6-2.5-3.3-3.5-5.2
				c-1-1.9-1.9-3.7-2.7-5.3c-0.3,0.1-0.5,0.3-0.8,0.6c-0.3,0.2-0.6,0.5-0.8,0.8c-0.3,0.3-0.5,0.5-0.7,0.7c-0.2,0.2-0.3,0.4-0.4,0.5
				c-0.7,0.9-1.1,1.8-1.4,2.8c-0.3,1-0.4,2-0.3,3c0,1,0.2,2,0.5,3s0.7,2,1.2,2.9c0.2,0.2,0.4,0.4,0.6,0.6c0.2,0.2,0.4,0.4,0.6,0.6
				c0.2,0.1,0.5,0.1,0.7,0.2c0.3,0.1,0.5,0.2,0.8,0.2c0.3,0,0.6-0.1,1-0.1c0.3-0.1,0.6-0.1,0.9-0.2c0.5-0.3,1-0.5,1.5-0.7
				c0.5-0.2,0.9-0.5,1.3-0.9c0.3-0.5,0.6-1.1,0.8-1.6C374.6,478.4,374.8,477.9,375,477.3z"/>
			<path class="st1" d="M392.5,472.7c-0.1,0.5-0.3,1-0.7,1.3c-0.4,0.3-0.8,0.4-1.4,0.4c-0.5,0-1.1-0.3-1.6-0.8l-17.3-22.7
				c-0.3-0.6-0.4-1.1-0.3-1.6c0.1-0.5,0.3-0.9,0.6-1.1c0.3-0.3,0.7-0.4,1.2-0.4c0.5,0,1,0.2,1.6,0.6l8.9,11.7
				c0.4-0.9,0.7-1.8,0.9-2.6c0.2-0.8,0.4-1.7,0.6-2.6c0.1-0.9,0.3-1.9,0.4-2.9c0.1-1,0.2-2.1,0.3-3.3c0.2-0.7,0.5-1.2,0.9-1.5
				c0.5-0.3,0.9-0.4,1.4-0.4c0.5,0.1,0.9,0.3,1.2,0.7c0.4,0.4,0.5,1,0.5,1.7c-0.1,1.9-0.3,3.7-0.5,5.2c-0.2,1.5-0.5,3-0.9,4.4
				c2.5,0.5,4.9,0.9,7.1,1.4c2.2,0.4,4.6,0.9,7.1,1.4c0.7,0.2,1.2,0.6,1.5,1.1c0.3,0.5,0.4,1,0.3,1.4c-0.1,0.5-0.4,0.9-0.8,1.2
				c-0.4,0.3-1,0.4-1.8,0.3c-2.6-0.5-5.1-1-7.4-1.4c-2.3-0.5-4.8-0.9-7.3-1.4c-0.1,0.2-0.2,0.4-0.3,0.6c-0.1,0.2-0.2,0.4-0.3,0.6
				l5.6,7.3C392.4,471.6,392.6,472.2,392.5,472.7z"/>
			<path class="st1" d="M416.7,442.5c0.3-0.7,0.6-1.2,1.1-1.4c0.5-0.2,1-0.3,1.4-0.2c0.5,0.1,0.9,0.4,1.1,0.9
				c0.3,0.5,0.4,1.1,0.2,1.8c-0.3,1.2-0.6,2.5-1.1,3.8c-0.5,1.3-1,2.5-1.8,3.6c-0.7,1.1-1.6,2-2.6,2.8c-1,0.8-2.2,1.4-3.6,1.7
				c-1.7,0.4-3.3,0.3-5.1-0.3c-1.7-0.6-3.3-1.4-4.6-2.6c-1.3-1.2-2.4-2.6-3.2-4.2c-0.8-1.6-1-3.3-0.8-5.1c0.3-1.8,0.8-3.6,1.6-5.3
				c0.8-1.7,2-3.1,3.5-4.2c0.8-0.5,1.6-0.9,2.6-1c1-0.1,1.9,0,2.9,0.2c0.9,0.2,1.8,0.7,2.5,1.3c0.7,0.6,1.2,1.4,1.5,2.3
				c0.3,1,0.4,2.2,0.1,3.4c-0.2,1.2-0.6,2.5-1.1,3.7c-0.5,1.2-1.1,2.4-1.7,3.5c-0.6,1.1-1.1,2.1-1.6,3c-0.2,0.4-0.4,0.7-0.7,0.9
				c1.1,0.3,2.3,0.4,3.4,0.1c1.2-0.3,2.2-1,3.1-2.1c0.7-0.9,1.3-2,1.6-3.3C416.2,444.8,416.5,443.6,416.7,442.5z M402.2,442.7
				c-0.4,1.3-0.3,2.6,0.1,3.8c0.5,1.2,1.2,2.2,2.1,3.1c0-0.3,0.1-0.6,0.2-0.8c0.3-0.6,0.6-1.1,0.8-1.7c0.3-0.6,0.6-1.2,0.9-1.7
				c0.2-0.4,0.4-0.9,0.8-1.5c0.3-0.6,0.6-1.3,0.9-2s0.5-1.4,0.7-2.1c0.1-0.7,0.1-1.2-0.1-1.7c-0.8-0.8-1.5-1.1-2.2-0.9
				c-0.7,0.2-1.3,0.6-1.9,1.2c-0.6,0.6-1,1.4-1.4,2.2C402.7,441.3,402.4,442.1,402.2,442.7z"/>
			<path class="st1" d="M413.6,426.9c-0.5,0.3-0.9,0.5-1.4,0.5c-0.4,0-0.8,0-1.1-0.2c-0.4-0.2-0.7-0.6-0.9-1.1
				c-0.2-0.5-0.1-1,0.2-1.6c0.2-0.4,0.6-0.8,1.3-1.3c0.6-0.5,1.2-0.8,1.8-0.9c-0.3-1.3-0.4-2.6-0.4-3.8c0-1.2,0.3-2.4,0.8-3.4
				c0.2-0.3,0.5-0.7,0.9-1.2c0.4-0.5,1-0.9,1.6-1.3c0.6-0.4,1.2-0.7,1.9-0.8c0.7-0.2,1.3-0.1,2,0.3c0.5,0.3,0.8,0.6,1,1.1
				c0.1,0.5,0.1,1-0.2,1.4c-0.2,0.3-0.4,0.6-0.7,0.7c-0.3,0.1-0.7,0.3-1,0.4c-0.4,0.1-0.7,0.3-1,0.5c-0.3,0.2-0.6,0.5-0.8,0.8
				c-0.2,0.4-0.3,0.9-0.3,1.5c0,0.6,0,1.3,0.1,1.9c0.1,0.7,0.2,1.3,0.4,2c0.2,0.7,0.3,1.2,0.5,1.7l11.7,6.3c0.7,0.4,1.1,0.9,1.2,1.4
				c0.1,0.5,0.1,1-0.1,1.5c-0.2,0.4-0.6,0.7-1.1,0.9c-0.5,0.2-1.1,0.2-1.8-0.1l-12-6.5c-0.1,0-0.1-0.1-0.2-0.1
				c-0.1,0-0.2-0.1-0.2-0.1c-0.1,0-0.1-0.1-0.2-0.1c-0.1-0.1-0.1-0.1-0.2-0.1l-1.3-0.7C413.7,426.7,413.6,426.8,413.6,426.9z"/>
			<path class="st1" d="M422.3,391c-0.4-0.4-0.7-0.7-0.8-1.1c-0.1-0.4-0.2-0.7-0.1-1.1c0.1-0.6,0.4-1,0.9-1.2
				c0.5-0.3,1.1-0.3,1.9-0.2c2.5,1.2,4.9,2.6,7.2,4.2s4.5,3.2,6.6,4.9c2.1,1.7,4.2,3.5,6.3,5.4c2.1,1.8,4.2,3.7,6.3,5.5
				c0.3,0.3,0.5,0.7,0.6,1c0.1,0.4,0.1,0.7,0,1c-0.1,0.5-0.4,0.9-0.8,1.2c-0.4,0.3-1,0.4-1.6,0.2c-0.1,0-0.2,0-0.3-0.1
				c-0.1,0-0.2-0.1-0.4-0.1c-1.8-1.5-3.5-3-5.2-4.5c-1.7-1.5-3.4-3-5.2-4.5c-1.3,1.1-2.6,2.1-3.9,2.9c-1.3,0.8-2.7,1.5-4.1,2.1
				c-1.4,0.6-2.9,1-4.4,1.4c-1.5,0.3-3.2,0.6-5,0.7c-0.9-0.2-1.5-0.5-1.8-0.9c-0.4-0.4-0.5-0.9-0.4-1.5c0.1-0.4,0.3-0.8,0.7-1.1
				c0.4-0.3,0.9-0.5,1.5-0.5c1.4-0.1,2.8-0.3,4.1-0.5c1.3-0.3,2.5-0.6,3.6-1.1c1.1-0.5,2.2-1,3.3-1.7s2.1-1.4,3.2-2.2
				c-1.9-1.5-3.9-2.9-5.8-4.3C426.7,393.2,424.5,392,422.3,391z"/>
		</g>
		<path class="st2" d="M428.9,199.8c-14.7-14.2-21.7,5.3-21.7,5.3c-16.9,38.5-99.8,69.2-124.1,77.4l-4.1-9.4
			c-1.9-4.4-6.4-7-11.1-6.6c-12.1,1.2-35.6,3.2-51.6,2.4c-15.4-0.7-35.9-6.9-47.2-10.7c-3-1-6.3-0.7-8.9,0.8
			c-18.8-23.3-61.8-80.8-60.2-119.4c0,0,2.1-20.6-14.4-14.4c-7.9,3-70,63.8-47.4,156.5c15.3,62.7,34.4,90.5,45.1,101.9
			c-0.6,0.9-1.1,1.7-1.5,2.2c-7.1,9.9,2.4,25.4,5.3,29.8c0.5,0.8,1.2,1.5,1.9,2.1c7.3,6.2,50.5,41.4,106.5,44.6
			c85.4,4.9,120.2-8.8,135.2-20.8c6.1-4.9,8-12.1,8.1-19c17.7-9.5,41.4-26.6,70.1-57.7C474.4,293.9,435.9,206.7,428.9,199.8z"/>
		<path class="st3" d="M284,293.7c0,0-7,37.4,2.9,68.8c11.1,35.1,38.5,56.1,38.5,56.1S294.1,395.3,284,293.7z"/>
		<path class="st3" d="M162,270.5c0,0,6,40.4-10.5,68.9c-18.5,31.9-57.3,44.1-57.3,44.1S130.2,367.5,162,270.5z"/>
		<g>
			<path class="st1" d="M274.9,394.4c0.5,0.5,0.9,0.9,1.3,1.4c0.4,0.5,0.8,0.9,1.2,1.4c0.3,0.3,0.6,0.6,0.9,1
				c0.2,0.2,1.1,1.3,0.3,0.4c2.9,3.4,5.6,6.9,7.9,10.8c2.5,4.1,4,8.7,5.1,13.5c0.6,2.3,1.1,4.8,1.2,7.2c0.1,1.1,1.9,2.5,2.6,3
				c1.5,1.1,3.5,2.1,5.3,2.7c1.5,0.5,6.5,1.9,6.4-1.1c-0.1-2.6-0.7-5.2-1.3-7.7c-1.3-5.2-3.1-10.3-5.9-14.9
				c-3.7-6.1-8.4-11.8-13.4-16.9c-2.4-2.5-6.5-4.2-10-4.4c-0.9,0-2.4-0.1-2.9,1C273.3,392.7,274.4,393.8,274.9,394.4L274.9,394.4z"
				/>
			<path class="st1" d="M133.4,450.9c5.2,7.9,14.1,13.8,22.5,17.7c19.9,9.3,43.4,8.6,64.6,4.6c28.2-5.3,55.1-20,69.1-45.9
				c2.6-4.8,5.1-10.2,6.2-15.6c0.5-2.3-0.8-5-2.4-6.7c-1.1-1.1-3.5-2.4-4,0c-0.2,1.1-0.6,2.2-0.9,3.3c-0.4,1.3-0.9,2.5-1.3,3.8
				c-0.1,0.1-0.1,0.3-0.2,0.4c-0.3,0.7,0.3-0.6,0,0.1c-0.2,0.4-0.3,0.7-0.5,1.1c-0.4,0.8-0.8,1.7-1.2,2.5
				c-4.4,9.2-10.7,17.5-18.3,24.3c-11.7,10.5-26.1,17.4-41.2,21.4c-10.5,2.8-21.4,4.1-32.2,4.5c-10.8,0.4-21.6-0.5-31.9-3.9
				c-7.4-2.5-14.2-6.1-20.2-11.1c0.8,0.7-0.6-0.6-0.9-0.8c-0.4-0.4-0.8-0.8-1.3-1.2c-0.7-0.7-1.3-1.4-1.9-2.1c-0.7-0.8,0.7,1,0,0
				c-0.1-0.2-0.3-0.4-0.5-0.6c-0.1-0.2-0.3-0.4-0.4-0.6c-0.8-1.3-3.1-3.4-4.5-1.7C130.7,446.1,132.5,449.5,133.4,450.9L133.4,450.9z
				"/>
		</g>
		<path class="st1" d="M151.1,398.6c-2.6,3.7-3.5,8.3-3.8,12.7c-0.2,4.2,0.3,8.4,1.6,12.4c0.4,1.1,2.5,1.2,3.3,1.1
			c1.8-0.1,3.8-0.9,5.3-1.8c1.5-1,3.2-2.2,4.1-3.8c0.7-1.2,1-2.1,0.6-3.5c-0.1-0.3-0.2-0.7-0.3-1c0.1,0.3,0.2,0.7,0.3,1
			c-1.2-4.5-1.4-9.3-0.6-13.9c-0.1,0.4-0.1,0.8-0.2,1.2c0.2-1.2,0.5-2.4,0.9-3.5c0.1-0.3,0.2-0.5,0.3-0.8c0.1-0.2,0.5-1.2,0.1-0.2
			c-0.5,0.9,0,0,0.1-0.2c0.2-0.3,0.3-0.5,0.5-0.7c0.6-0.9,1.2-2.4,0.6-3.5c-0.6-1.1-2.2-1.3-3.3-1.1
			C156.9,393.3,153.2,395.6,151.1,398.6L151.1,398.6z"/>
		<path class="st1" d="M177.5,397.7c-1.3,4.3-0.9,9,0.2,13.3c1,4.1,2.8,7.9,5.3,11.3c0.7,1,2.8,0.4,3.5,0.1c1.6-0.6,3.3-2,4.5-3.3
			c1.2-1.4,2.4-3,2.8-4.8c0.3-1.3,0.3-2.3-0.5-3.5c-0.2-0.3-0.4-0.6-0.6-0.9c0.2,0.3,0.4,0.6,0.6,0.9c-2.5-3.9-4.2-8.5-4.8-13.1
			c0.1,0.4,0.1,0.8,0.2,1.2c-0.2-1.2-0.2-2.4-0.2-3.7c0-0.3,0-0.6,0.1-0.8c0-0.2,0.2-1.3,0-0.2c-0.2,1,0,0,0.1-0.2
			c0.1-0.3,0.1-0.6,0.2-0.9c0.3-1,0.4-2.7-0.5-3.5c-0.9-0.8-2.5-0.5-3.5-0.1C181.4,391,178.5,394.3,177.5,397.7L177.5,397.7z"/>
	</g>
</g>
<path class="st2" d="M648.9,267h-67.2c-5.4,0-9.8-4.4-9.8-9.8v-67.2c0-5.4,4.4-9.8,9.8-9.8h67.2c5.4,0,9.8,4.4,9.8,9.8v67.2
	C658.7,262.7,654.3,267,648.9,267z"/>
<path class="st3" d="M745.2,267H678c-5.4,0-9.8-4.4-9.8-9.8v-67.2c0-5.4,4.4-9.8,9.8-9.8h67.2c5.4,0,9.8,4.4,9.8,9.8v67.2
	C755,262.7,750.6,267,745.2,267z"/>
<path class="st1" d="M841.5,267h-67.2c-5.4,0-9.8-4.4-9.8-9.8v-67.2c0-5.4,4.4-9.8,9.8-9.8h67.2c5.4,0,9.8,4.4,9.8,9.8v67.2
	C851.2,262.7,846.9,267,841.5,267z"/>
<g>
	<g>
		<path d="M587,313.3c-0.6,2.8-2.7,4.9-6.5,4.9c-4.8,0-7.1-3.4-7.1-7.7c0-4.1,2.3-7.9,7.2-7.9c4,0,6,2.4,6.3,4.9h-3.3
			c-0.3-1.2-1.1-2.3-3.2-2.3c-2.7,0-3.7,2.4-3.7,5.2c0,2.6,0.9,5.2,3.8,5.2c2.1,0,2.8-1.4,3.1-2.3H587z"/>
		<path d="M600,312.2c0,3.4-2.1,6-5.6,6c-3.5,0-5.6-2.5-5.6-5.9c0-3.5,2.1-6,5.7-6C597.8,306.3,600,308.7,600,312.2z M591.9,312.3
			c0,2.2,0.9,3.5,2.5,3.5c1.5,0,2.4-1.3,2.4-3.5c0-2.4-0.9-3.5-2.4-3.5C592.9,308.8,591.9,309.9,591.9,312.3z"/>
		<path d="M602.1,317.9v-16h3.1v16H602.1z"/>
		<path d="M618.6,312.2c0,3.4-2.1,6-5.6,6c-3.5,0-5.6-2.5-5.6-5.9c0-3.5,2.1-6,5.7-6C616.5,306.3,618.6,308.7,618.6,312.2z
			 M610.6,312.3c0,2.2,0.9,3.5,2.5,3.5c1.5,0,2.4-1.3,2.4-3.5c0-2.4-0.9-3.5-2.4-3.5C611.5,308.8,610.6,309.9,610.6,312.3z"/>
		<path d="M630.8,314.6c0,1.1,0,2.3,0,3.3h-3.1c0-0.3-0.1-0.9-0.1-1.3c-0.7,1.1-1.7,1.6-3.1,1.6c-2.3,0-3.8-1.4-3.8-4.2v-7.4h3.1
			v6.8c0,1.3,0.4,2.3,1.7,2.3c1.4,0,2-0.8,2-3v-6h3.1V314.6z"/>
		<path d="M633.6,309.7c0-1.1,0-2.1,0-3.1h3.1c0,0.3,0.1,1.4,0.1,2c0.5-1.3,1.7-2.2,3.6-2.3v3c-2.3-0.1-3.6,0.6-3.6,3.7v4.9h-3.1
			V309.7z"/>
		<path d="M650.1,313.5c0.3,1.5,1.4,2.2,3.2,2.2c1.7,0,2.5-0.7,2.5-1.8c0-1.2-0.7-1.8-3.3-2.4c-4.1-1-5.1-2.5-5.1-4.5
			c0-2.6,2-4.4,5.5-4.4c4,0,5.6,2.2,5.8,4.4h-3.3c-0.2-0.9-0.7-1.9-2.6-1.9c-1.3,0-2.1,0.5-2.1,1.6c0,1.1,0.6,1.5,3.1,2
			c4.4,1,5.4,2.7,5.4,4.8c0,2.8-2.1,4.7-6.1,4.7c-3.8,0-5.9-1.9-6.2-4.6H650.1z"/>
		<path d="M671.2,314.3c-0.4,1.9-1.7,3.9-5.1,3.9c-3.5,0-5.3-2.4-5.3-5.9c0-3.3,2-6,5.5-6c3.8,0,4.9,2.7,4.9,4h-3.1
			c-0.2-0.9-0.7-1.6-1.9-1.6c-1.4,0-2.2,1.3-2.2,3.5c0,2.4,0.9,3.5,2.2,3.5c1.1,0,1.7-0.6,1.9-1.5H671.2z"/>
		<path d="M676.4,301.9v6c0.5-0.7,1.4-1.6,3.2-1.6c2.1,0,3.8,1.3,3.8,4.3v7.3h-3.1v-6.8c0-1.5-0.5-2.3-1.8-2.3c-1.7,0-2.1,1.3-2.1,3
			v6h-3.1v-16H676.4z"/>
		<path d="M688.7,312.9c0,1.4,0.7,2.8,2.3,2.8c1.3,0,1.7-0.5,2-1.2h3.1c-0.4,1.4-1.6,3.7-5.2,3.7c-3.7,0-5.4-2.8-5.4-5.8
			c0-3.6,1.8-6.1,5.5-6.1c3.9,0,5.2,2.8,5.2,5.6c0,0.4,0,0.6,0,1H688.7z M693.1,311c0-1.3-0.5-2.4-2.1-2.4c-1.5,0-2.1,1-2.2,2.4
			H693.1z"/>
		<path d="M698.4,309.5c0-1,0-2,0-2.9h3c0,0.3,0.1,0.9,0.1,1.4c0.6-0.8,1.5-1.6,3.2-1.6c1.6,0,2.5,0.8,2.9,1.7
			c0.7-0.9,1.6-1.7,3.5-1.7c2,0,3.6,1.2,3.6,4.2v7.4h-3.1v-7.1c0-1-0.4-2-1.7-2c-1.3,0-1.9,0.9-1.9,2.6v6.5H705V311
			c0-1.2-0.3-2.1-1.6-2.1c-1.3,0-1.9,0.8-1.9,2.7v6.3h-3.1V309.5z"/>
		<path d="M720,312.9c0,1.4,0.7,2.8,2.3,2.8c1.3,0,1.7-0.5,2-1.2h3.1c-0.4,1.4-1.6,3.7-5.2,3.7c-3.7,0-5.4-2.8-5.4-5.8
			c0-3.6,1.8-6.1,5.5-6.1c3.9,0,5.2,2.8,5.2,5.6c0,0.4,0,0.6,0,1H720z M724.4,311c0-1.3-0.5-2.4-2.1-2.4c-1.5,0-2.1,1-2.2,2.4H724.4
			z"/>
		<path d="M576.4,334v15.2h-2V334H576.4z"/>
		<path d="M594.4,345.8c-0.5,1.9-1.8,3.7-4.6,3.7c-3.1,0-5-2.2-5-5.8c0-3.1,1.8-5.9,5.1-5.9c3.2,0,4.3,2.3,4.5,3.7h-1.9
			c-0.3-1.1-1-2.1-2.6-2.1c-2,0-3.1,1.7-3.1,4.2c0,2.5,1.1,4.2,3,4.2c1.4,0,2.2-0.7,2.7-2.1H594.4z"/>
		<path d="M598.6,333.1v6.6c0.6-1,1.6-1.9,3.5-1.9c1.8,0,3.7,1,3.7,4.3v7.1h-1.9v-6.8c0-1.9-0.8-2.9-2.4-2.9c-2,0-2.9,1.3-2.9,3.6
			v6.1h-1.9v-16.1H598.6z"/>
		<path d="M618.6,343.6c0,3.2-1.8,5.8-5.2,5.8c-3.2,0-5.1-2.5-5.1-5.8c0-3.3,1.9-5.8,5.2-5.8C616.6,337.8,618.6,340.2,618.6,343.6z
			 M610.3,343.7c0,2.4,1.2,4.2,3.2,4.2c2,0,3.2-1.7,3.2-4.2c0-2.5-1.1-4.2-3.2-4.2C611.4,339.4,610.3,341.1,610.3,343.7z"/>
		<path d="M622.1,346c0.3,1.2,1.2,1.9,2.7,1.9c1.6,0,2.3-0.7,2.3-1.7c0-1-0.5-1.5-2.6-2c-3.2-0.8-3.8-1.7-3.8-3.3
			c0-1.6,1.2-3.1,4-3.1c2.9,0,4,1.7,4.2,3.2h-1.9c-0.2-0.7-0.7-1.7-2.4-1.7c-1.6,0-2,0.7-2,1.5c0,0.8,0.5,1.2,2.5,1.7
			c3.4,0.8,4,1.9,4,3.6c0,1.9-1.5,3.4-4.3,3.4c-2.9,0-4.3-1.5-4.6-3.4H622.1z"/>
		<path d="M632.6,344c0,2.3,1.2,3.9,3,3.9c1.8,0,2.3-0.9,2.7-1.7h1.9c-0.4,1.4-1.6,3.3-4.7,3.3c-3.5,0-4.9-2.8-4.9-5.7
			c0-3.3,1.7-5.9,5-5.9c3.6,0,4.8,2.9,4.8,5.2c0,0.3,0,0.6,0,0.9H632.6z M638.6,342.7c0-1.8-0.9-3.3-2.8-3.3c-2,0-2.8,1.4-3,3.3
			H638.6z"/>
		<path d="M647.1,338.1h1.9v-3.3h1.9v3.3h2.5v1.6h-2.5v6.5c0,1.1,0.3,1.6,1.3,1.6c0.3,0,0.7,0,1-0.1v1.4c-0.5,0.2-1.1,0.2-1.7,0.2
			c-1.7,0-2.5-0.9-2.5-2.7v-7h-1.9V338.1z"/>
		<path d="M657.4,333.1v6.6c0.6-1,1.6-1.9,3.5-1.9c1.8,0,3.7,1,3.7,4.3v7.1h-1.9v-6.8c0-1.9-0.8-2.9-2.4-2.9c-2,0-2.9,1.3-2.9,3.6
			v6.1h-1.9v-16.1H657.4z"/>
		<path d="M669,344c0,2.3,1.2,3.9,3,3.9c1.8,0,2.3-0.9,2.7-1.7h1.9c-0.4,1.4-1.6,3.3-4.7,3.3c-3.5,0-4.9-2.8-4.9-5.7
			c0-3.3,1.7-5.9,5-5.9c3.6,0,4.8,2.9,4.8,5.2c0,0.3,0,0.6,0,0.9H669z M674.9,342.7c0-1.8-0.9-3.3-2.8-3.3c-2,0-2.8,1.4-3,3.3H674.9
			z"/>
		<path d="M680.3,346c0.3,1.2,1.2,1.9,2.7,1.9c1.6,0,2.3-0.7,2.3-1.7c0-1-0.5-1.5-2.6-2c-3.2-0.8-3.8-1.7-3.8-3.3
			c0-1.6,1.2-3.1,4-3.1c2.9,0,4,1.7,4.2,3.2h-1.9c-0.2-0.7-0.7-1.7-2.4-1.7c-1.6,0-2,0.7-2,1.5c0,0.8,0.5,1.2,2.5,1.7
			c3.4,0.8,4,1.9,4,3.6c0,1.9-1.5,3.4-4.3,3.4c-2.9,0-4.3-1.5-4.6-3.4H680.3z"/>
		<path d="M690.8,344c0,2.3,1.2,3.9,3,3.9c1.8,0,2.3-0.9,2.7-1.7h1.9c-0.4,1.4-1.6,3.3-4.7,3.3c-3.5,0-4.9-2.8-4.9-5.7
			c0-3.3,1.7-5.9,5-5.9c3.6,0,4.8,2.9,4.8,5.2c0,0.3,0,0.6,0,0.9H690.8z M696.8,342.7c0-1.8-0.9-3.3-2.8-3.3c-2,0-2.8,1.4-3,3.3
			H696.8z"/>
		<path d="M715.5,345.8c-0.5,1.9-1.8,3.7-4.6,3.7c-3.1,0-5-2.2-5-5.8c0-3.1,1.8-5.9,5.1-5.9c3.2,0,4.3,2.3,4.5,3.7h-1.9
			c-0.3-1.1-1-2.1-2.6-2.1c-2,0-3.1,1.7-3.1,4.2c0,2.5,1.1,4.2,3,4.2c1.4,0,2.2-0.7,2.7-2.1H715.5z"/>
		<path d="M727.3,343.6c0,3.2-1.8,5.8-5.2,5.8c-3.2,0-5.1-2.5-5.1-5.8c0-3.3,1.9-5.8,5.2-5.8C725.3,337.8,727.3,340.2,727.3,343.6z
			 M719,343.7c0,2.4,1.2,4.2,3.2,4.2c2,0,3.2-1.7,3.2-4.2c0-2.5-1.1-4.2-3.2-4.2C720.1,339.4,719,341.1,719,343.7z"/>
		<path d="M729.8,349.2v-16.1h1.9v16.1H729.8z"/>
		<path d="M744.6,343.6c0,3.2-1.8,5.8-5.2,5.8c-3.2,0-5.1-2.5-5.1-5.8c0-3.3,1.9-5.8,5.2-5.8C742.5,337.8,744.6,340.2,744.6,343.6z
			 M736.2,343.7c0,2.4,1.2,4.2,3.2,4.2c2,0,3.2-1.7,3.2-4.2c0-2.5-1.1-4.2-3.2-4.2C737.3,339.4,736.2,341.1,736.2,343.7z"/>
		<path d="M756,346c0,1.1,0,2.6,0,3.2h-1.9c0-0.3-0.1-1-0.1-1.7c-0.5,1.2-1.6,1.9-3.4,1.9c-1.9,0-3.7-0.9-3.7-4.1v-7.3h1.9v6.9
			c0,1.5,0.5,2.8,2.3,2.8c2,0,2.8-1.1,2.8-3.9v-5.8h1.9V346z"/>
		<path d="M759.3,341.1c0-1.6,0-2.4,0-3h1.9c0,0.3,0.1,1.2,0.1,2.3c0.6-1.5,1.9-2.5,3.7-2.5v1.9c-2.3,0.1-3.7,1.3-3.7,4.1v5.4h-1.9
			V341.1z"/>
		<path d="M767.9,346c0.3,1.2,1.2,1.9,2.7,1.9c1.6,0,2.3-0.7,2.3-1.7c0-1-0.5-1.5-2.6-2c-3.2-0.8-3.8-1.7-3.8-3.3
			c0-1.6,1.2-3.1,4-3.1c2.9,0,4,1.7,4.2,3.2h-1.9c-0.2-0.7-0.7-1.7-2.4-1.7c-1.6,0-2,0.7-2,1.5c0,0.8,0.5,1.2,2.5,1.7
			c3.4,0.8,4,1.9,4,3.6c0,1.9-1.5,3.4-4.3,3.4c-2.9,0-4.3-1.5-4.6-3.4H767.9z"/>
		<path d="M782.9,333.1h1.9v6.6c0.5-0.9,1.5-1.8,3.5-1.8c2.8,0,4.5,2.3,4.5,5.6c0,3.4-1.7,6-4.8,6c-1.8,0-2.7-0.7-3.3-1.7
			c0,0.6,0,1.2-0.1,1.5h-1.8c0-1.2,0-2.5,0-3.7V333.1z M790.9,343.5c0-2.4-1.1-4-3-4c-2.4,0-3.2,1.6-3.2,4.2c0,2.3,0.7,4.2,3.1,4.2
			C789.8,347.9,790.9,346.2,790.9,343.5z"/>
		<path d="M796.5,344c0,2.3,1.2,3.9,3,3.9c1.8,0,2.3-0.9,2.7-1.7h1.9c-0.4,1.4-1.6,3.3-4.7,3.3c-3.5,0-4.9-2.8-4.9-5.7
			c0-3.3,1.7-5.9,5-5.9c3.6,0,4.8,2.9,4.8,5.2c0,0.3,0,0.6,0,0.9H796.5z M802.5,342.7c0-1.8-0.9-3.3-2.8-3.3c-2,0-2.8,1.4-3,3.3
			H802.5z"/>
		<path d="M815.6,345.8c-0.5,1.9-1.8,3.7-4.6,3.7c-3.1,0-5-2.2-5-5.8c0-3.1,1.8-5.9,5.1-5.9c3.2,0,4.3,2.3,4.5,3.7h-1.9
			c-0.3-1.1-1-2.1-2.6-2.1c-2,0-3.1,1.7-3.1,4.2c0,2.5,1.1,4.2,3,4.2c1.4,0,2.2-0.7,2.7-2.1H815.6z"/>
		<path d="M826.2,346.8c0,1,0.1,2.1,0.2,2.4h-1.8c-0.1-0.2-0.2-0.8-0.2-1.5c-0.4,0.7-1.3,1.7-3.4,1.7c-2.6,0-3.7-1.7-3.7-3.4
			c0-2.5,1.9-3.6,5.2-3.6c0.8,0,1.5,0,1.9,0v-0.9c0-1-0.3-2.2-2.4-2.2c-1.9,0-2.2,0.9-2.4,1.8h-1.9c0.1-1.5,1.1-3.3,4.3-3.3
			c2.7,0,4.2,1.1,4.2,3.6V346.8z M824.3,343.8c-0.4,0-1.2,0-1.8,0c-2.2,0-3.4,0.6-3.4,2.2c0,1.2,0.8,2,2.2,2c2.7,0,3-1.8,3-3.8
			V343.8z"/>
		<path d="M838.4,346c0,1.1,0,2.6,0,3.2h-1.9c0-0.3-0.1-1-0.1-1.7c-0.5,1.2-1.6,1.9-3.4,1.9c-1.9,0-3.7-0.9-3.7-4.1v-7.3h1.9v6.9
			c0,1.5,0.5,2.8,2.3,2.8c2,0,2.8-1.1,2.8-3.9v-5.8h1.9V346z"/>
		<path d="M842.7,346c0.3,1.2,1.2,1.9,2.7,1.9c1.6,0,2.3-0.7,2.3-1.7c0-1-0.5-1.5-2.6-2c-3.2-0.8-3.8-1.7-3.8-3.3
			c0-1.6,1.2-3.1,4-3.1c2.9,0,4,1.7,4.2,3.2h-1.9c-0.2-0.7-0.7-1.7-2.4-1.7c-1.6,0-2,0.7-2,1.5c0,0.8,0.5,1.2,2.5,1.7
			c3.4,0.8,4,1.9,4,3.6c0,1.9-1.5,3.4-4.3,3.4c-2.9,0-4.3-1.5-4.6-3.4H842.7z"/>
		<path d="M853.2,344c0,2.3,1.2,3.9,3,3.9c1.8,0,2.3-0.9,2.7-1.7h1.9c-0.4,1.4-1.6,3.3-4.7,3.3c-3.5,0-4.9-2.8-4.9-5.7
			c0-3.3,1.7-5.9,5-5.9c3.6,0,4.8,2.9,4.8,5.2c0,0.3,0,0.6,0,0.9H853.2z M859.1,342.7c0-1.8-0.9-3.3-2.8-3.3c-2,0-2.8,1.4-3,3.3
			H859.1z"/>
		<path d="M867.7,338.1h1.9v-3.3h1.9v3.3h2.5v1.6h-2.5v6.5c0,1.1,0.3,1.6,1.3,1.6c0.3,0,0.7,0,1-0.1v1.4c-0.5,0.2-1.1,0.2-1.7,0.2
			c-1.7,0-2.5-0.9-2.5-2.7v-7h-1.9V338.1z"/>
		<path d="M878,333.1v6.6c0.6-1,1.6-1.9,3.5-1.9c1.8,0,3.7,1,3.7,4.3v7.1h-1.9v-6.8c0-1.9-0.8-2.9-2.4-2.9c-2,0-2.9,1.3-2.9,3.6v6.1
			h-1.9v-16.1H878z"/>
		<path d="M889.6,344c0,2.3,1.2,3.9,3,3.9c1.8,0,2.3-0.9,2.7-1.7h1.9c-0.4,1.4-1.6,3.3-4.7,3.3c-3.5,0-4.9-2.8-4.9-5.7
			c0-3.3,1.7-5.9,5-5.9c3.6,0,4.8,2.9,4.8,5.2c0,0.3,0,0.6,0,0.9H889.6z M895.5,342.7c0-1.8-0.9-3.3-2.8-3.3c-2,0-2.8,1.4-3,3.3
			H895.5z"/>
		<path d="M900.6,338.1c1.8,5.3,2.8,8.3,3.1,9.4h0c0.4-1.3,1.2-3.8,3-9.4h1.9l-4,11.6c-1.1,3.2-2,4.1-4.2,4.1c-0.3,0-0.8,0-1.2-0.1
			v-1.7c0.3,0,0.6,0.1,0.9,0.1c1.4,0,1.9-0.6,2.6-2.5l-4.2-11.5H900.6z"/>
		<path d="M924.8,345.8c-0.5,1.9-1.8,3.7-4.6,3.7c-3.1,0-5-2.2-5-5.8c0-3.1,1.8-5.9,5.1-5.9c3.2,0,4.3,2.3,4.5,3.7h-1.9
			c-0.3-1.1-1-2.1-2.6-2.1c-2,0-3.1,1.7-3.1,4.2c0,2.5,1.1,4.2,3,4.2c1.4,0,2.2-0.7,2.7-2.1H924.8z"/>
		<path d="M927.1,341.1c0-1.6,0-2.4,0-3h1.9c0,0.3,0.1,1.2,0.1,2.3c0.6-1.5,1.9-2.5,3.7-2.5v1.9c-2.3,0.1-3.7,1.3-3.7,4.1v5.4h-1.9
			V341.1z"/>
		<path d="M935.9,344c0,2.3,1.2,3.9,3,3.9c1.8,0,2.3-0.9,2.7-1.7h1.9c-0.4,1.4-1.6,3.3-4.7,3.3c-3.5,0-4.9-2.8-4.9-5.7
			c0-3.3,1.7-5.9,5-5.9c3.6,0,4.8,2.9,4.8,5.2c0,0.3,0,0.6,0,0.9H935.9z M941.9,342.7c0-1.8-0.9-3.3-2.8-3.3c-2,0-2.8,1.4-3,3.3
			H941.9z"/>
		<path d="M954.5,346.8c0,1,0.1,2.1,0.2,2.4h-1.8c-0.1-0.2-0.2-0.8-0.2-1.5c-0.4,0.7-1.3,1.7-3.4,1.7c-2.6,0-3.7-1.7-3.7-3.4
			c0-2.5,1.9-3.6,5.2-3.6c0.8,0,1.5,0,1.9,0v-0.9c0-1-0.3-2.2-2.4-2.2c-1.9,0-2.2,0.9-2.4,1.8H946c0.1-1.5,1.1-3.3,4.3-3.3
			c2.7,0,4.2,1.1,4.2,3.6V346.8z M952.7,343.8c-0.4,0-1.2,0-1.8,0c-2.2,0-3.4,0.6-3.4,2.2c0,1.2,0.8,2,2.2,2c2.7,0,3-1.8,3-3.8
			V343.8z"/>
		<path d="M956.4,338.1h1.9v-3.3h1.9v3.3h2.5v1.6h-2.5v6.5c0,1.1,0.3,1.6,1.3,1.6c0.3,0,0.7,0,1-0.1v1.4c-0.5,0.2-1.1,0.2-1.7,0.2
			c-1.7,0-2.5-0.9-2.5-2.7v-7h-1.9V338.1z"/>
		<path d="M966,344c0,2.3,1.2,3.9,3,3.9c1.8,0,2.3-0.9,2.7-1.7h1.9c-0.4,1.4-1.6,3.3-4.7,3.3c-3.5,0-4.9-2.8-4.9-5.7
			c0-3.3,1.7-5.9,5-5.9c3.6,0,4.8,2.9,4.8,5.2c0,0.3,0,0.6,0,0.9H966z M971.9,342.7c0-1.8-0.9-3.3-2.8-3.3c-2,0-2.8,1.4-3,3.3H971.9
			z"/>
		<path d="M985.5,333.1v12.9c0,1,0,2.1,0,3.1h-1.8c-0.1-0.3-0.1-1.1-0.1-1.6c-0.5,1.2-1.7,1.8-3.5,1.8c-2.9,0-4.6-2.3-4.6-5.7
			c0-3.4,1.9-5.9,5-5.9c2,0,2.8,0.8,3.1,1.4v-6.1H985.5z M977.5,343.7c0,2.7,1.3,4.1,3,4.1c2.6,0,3.2-1.9,3.2-4.4c0-2.5-0.5-4-3-4
			C978.7,339.5,977.5,341,977.5,343.7z"/>
		<path d="M582.3,378.1c0,1,0.1,2.1,0.2,2.4h-1.8c-0.1-0.2-0.2-0.8-0.2-1.5c-0.4,0.7-1.3,1.7-3.4,1.7c-2.6,0-3.7-1.7-3.7-3.4
			c0-2.5,1.9-3.6,5.3-3.6c0.8,0,1.5,0,1.9,0v-0.9c0-1-0.3-2.2-2.4-2.2c-1.9,0-2.2,0.9-2.4,1.8h-1.9c0.1-1.5,1.1-3.3,4.3-3.3
			c2.7,0,4.2,1.1,4.2,3.6V378.1z M580.4,375.1c-0.4,0-1.2,0-1.8,0c-2.2,0-3.4,0.6-3.4,2.2c0,1.2,0.8,2,2.2,2c2.7,0,3-1.8,3-3.8
			V375.1z"/>
		<path d="M592.1,369.4c1.4,5.2,2.2,8.2,2.4,9.3h0c0.2-1,1-3.8,2.6-9.3h1.9c1.7,6.3,2.3,8.1,2.4,9.1h0c0.3-1.2,0.7-2.9,2.5-9.1h1.9
			l-3.4,11.1h-2.1c-1.1-4-2.2-7.8-2.4-9h0c-0.2,1.2-1.2,4.6-2.5,9h-2.1l-3.2-11.1H592.1z"/>
		<path d="M616.2,378.1c0,1,0.1,2.1,0.2,2.4h-1.8c-0.1-0.2-0.2-0.8-0.2-1.5c-0.4,0.7-1.3,1.7-3.4,1.7c-2.6,0-3.7-1.7-3.7-3.4
			c0-2.5,1.9-3.6,5.3-3.6c0.8,0,1.5,0,1.9,0v-0.9c0-1-0.3-2.2-2.4-2.2c-1.9,0-2.2,0.9-2.4,1.8h-1.9c0.1-1.5,1.1-3.3,4.3-3.3
			c2.7,0,4.2,1.1,4.2,3.6V378.1z M614.4,375.1c-0.4,0-1.2,0-1.8,0c-2.2,0-3.4,0.6-3.4,2.2c0,1.2,0.8,2,2.2,2c2.7,0,3-1.8,3-3.8
			V375.1z"/>
		<path d="M619.6,372.4c0-1.6,0-2.4,0-3h1.9c0,0.3,0.1,1.2,0.1,2.3c0.6-1.5,1.9-2.5,3.7-2.5v1.9c-2.3,0.1-3.7,1.3-3.7,4.1v5.4h-1.9
			V372.4z"/>
		<path d="M627.3,372.3c0-1,0-2,0-2.9h1.8c0,0.3,0.1,1.2,0.1,1.7c0.5-1,1.5-2,3.2-2c1.6,0,2.7,0.8,3.1,2c0.6-1.1,1.6-2,3.5-2
			c1.8,0,3.5,1.1,3.5,4.1v7.3h-1.9v-7.1c0-1.3-0.5-2.6-2.2-2.6c-1.8,0-2.6,1.4-2.6,3.3v6.4H634v-7c0-1.4-0.4-2.7-2.1-2.7
			c-1.8,0-2.6,1.4-2.6,3.6v6.1h-1.9V372.3z"/>
		<path d="M649.9,369.4h1.9v-3.3h1.9v3.3h2.5v1.6h-2.5v6.5c0,1.1,0.3,1.6,1.3,1.6c0.3,0,0.7,0,1-0.1v1.4c-0.5,0.2-1.1,0.2-1.7,0.2
			c-1.7,0-2.5-0.9-2.5-2.7v-7h-1.9V369.4z"/>
		<path d="M667.9,374.9c0,3.2-1.8,5.8-5.2,5.8c-3.2,0-5.1-2.5-5.1-5.8c0-3.3,1.9-5.8,5.2-5.8C665.9,369.1,667.9,371.4,667.9,374.9z
			 M659.5,375c0,2.4,1.2,4.2,3.2,4.2c2,0,3.2-1.7,3.2-4.2c0-2.5-1.1-4.2-3.2-4.2C660.6,370.7,659.5,372.4,659.5,375z"/>
		<path d="M670.4,372.2c0-1,0-1.9,0-2.8h1.9c0.1,0.3,0.1,1.5,0.1,1.8c0.4-1,1.3-2.1,3.5-2.1c2.1,0,3.7,1.3,3.7,4.2v7.1h-1.9v-6.9
			c0-1.7-0.7-2.8-2.4-2.8c-2.1,0-2.9,1.6-2.9,3.8v5.9h-1.9V372.2z"/>
		<path d="M683.9,375.3c0,2.3,1.2,3.9,3,3.9c1.8,0,2.3-0.9,2.7-1.7h1.9c-0.4,1.4-1.6,3.3-4.7,3.3c-3.5,0-4.9-2.8-4.9-5.7
			c0-3.3,1.7-5.9,5-5.9c3.6,0,4.8,2.9,4.8,5.2c0,0.3,0,0.6,0,0.9H683.9z M689.8,374c0-1.8-0.9-3.3-2.8-3.3c-2,0-2.8,1.4-3,3.3H689.8
			z"/>
		<path d="M700.7,369.4c1.4,5.2,2.2,8.2,2.4,9.3h0c0.2-1,1-3.8,2.6-9.3h1.9c1.7,6.3,2.3,8.1,2.4,9.1h0c0.3-1.2,0.7-2.9,2.5-9.1h1.9
			l-3.4,11.1h-2.1c-1.1-4-2.2-7.8-2.4-9h0c-0.2,1.2-1.2,4.6-2.5,9h-2.1l-3.2-11.1H700.7z"/>
		<path d="M718.5,364.4v6.6c0.6-1,1.6-1.9,3.5-1.9c1.8,0,3.7,1,3.7,4.3v7.1h-1.9v-6.8c0-1.9-0.8-2.9-2.4-2.9c-2,0-2.9,1.3-2.9,3.6
			v6.1h-1.9v-16.1H718.5z"/>
		<path d="M729,364.4h1.9v2.4H729V364.4z M729,369.4h1.9v11.1H729V369.4z"/>
		<path d="M742.9,377.1c-0.5,1.9-1.8,3.7-4.6,3.7c-3.1,0-5-2.2-5-5.8c0-3.1,1.8-5.9,5.1-5.9c3.2,0,4.3,2.3,4.5,3.7H741
			c-0.3-1.1-1-2.1-2.6-2.1c-2,0-3.1,1.7-3.1,4.2c0,2.5,1.1,4.2,3,4.2c1.4,0,2.2-0.7,2.7-2.1H742.9z"/>
		<path d="M747.2,364.4v6.6c0.6-1,1.6-1.9,3.5-1.9c1.8,0,3.7,1,3.7,4.3v7.1h-1.9v-6.8c0-1.9-0.8-2.9-2.4-2.9c-2,0-2.9,1.3-2.9,3.6
			v6.1h-1.9v-16.1H747.2z"/>
		<path d="M763.2,372.3c0-1,0-2,0-2.9h1.8c0,0.3,0.1,1.2,0.1,1.7c0.5-1,1.5-2,3.2-2c1.6,0,2.7,0.8,3.1,2c0.6-1.1,1.6-2,3.5-2
			c1.8,0,3.5,1.1,3.5,4.1v7.3h-1.9v-7.1c0-1.3-0.5-2.6-2.2-2.6c-1.8,0-2.6,1.4-2.6,3.3v6.4h-1.9v-7c0-1.4-0.4-2.7-2.1-2.7
			c-1.8,0-2.6,1.4-2.6,3.6v6.1h-1.9V372.3z"/>
		<path d="M790,378.1c0,1,0.1,2.1,0.2,2.4h-1.8c-0.1-0.2-0.2-0.8-0.2-1.5c-0.4,0.7-1.3,1.7-3.4,1.7c-2.6,0-3.7-1.7-3.7-3.4
			c0-2.5,1.9-3.6,5.2-3.6c0.8,0,1.5,0,1.9,0v-0.9c0-1-0.3-2.2-2.4-2.2c-1.9,0-2.2,0.9-2.4,1.8h-1.9c0.1-1.5,1.1-3.3,4.3-3.3
			c2.7,0,4.2,1.1,4.2,3.6V378.1z M788.1,375.1c-0.4,0-1.2,0-1.8,0c-2.2,0-3.4,0.6-3.4,2.2c0,1.2,0.8,2,2.2,2c2.7,0,3-1.8,3-3.8
			V375.1z"/>
		<path d="M802.6,364.4v12.9c0,1,0,2.1,0,3.1h-1.8c-0.1-0.3-0.1-1.1-0.1-1.6c-0.5,1.2-1.7,1.8-3.5,1.8c-2.9,0-4.6-2.3-4.6-5.7
			c0-3.4,1.9-5.9,5-5.9c2,0,2.8,0.8,3.1,1.4v-6.1H802.6z M794.5,375c0,2.7,1.3,4.1,3,4.1c2.6,0,3.2-1.9,3.2-4.4c0-2.5-0.5-4-3-4
			C795.7,370.8,794.5,372.3,794.5,375z"/>
		<path d="M807,375.3c0,2.3,1.2,3.9,3,3.9c1.8,0,2.3-0.9,2.7-1.7h1.9c-0.4,1.4-1.6,3.3-4.7,3.3c-3.5,0-4.9-2.8-4.9-5.7
			c0-3.3,1.7-5.9,5-5.9c3.6,0,4.8,2.9,4.8,5.2c0,0.3,0,0.6,0,0.9H807z M812.9,374c0-1.8-0.9-3.3-2.8-3.3c-2,0-2.8,1.4-3,3.3H812.9z"
			/>
		<path d="M821.4,369.4h1.9v-3.3h1.9v3.3h2.5v1.6h-2.5v6.5c0,1.1,0.3,1.6,1.3,1.6c0.3,0,0.7,0,1-0.1v1.4c-0.5,0.2-1.1,0.2-1.7,0.2
			c-1.7,0-2.5-0.9-2.5-2.7v-7h-1.9V369.4z"/>
		<path d="M831.7,364.4v6.6c0.6-1,1.6-1.9,3.5-1.9c1.8,0,3.7,1,3.7,4.3v7.1H837v-6.8c0-1.9-0.8-2.9-2.4-2.9c-2,0-2.9,1.3-2.9,3.6
			v6.1h-1.9v-16.1H831.7z"/>
		<path d="M843.4,375.3c0,2.3,1.2,3.9,3,3.9c1.8,0,2.3-0.9,2.7-1.7h1.9c-0.4,1.4-1.6,3.3-4.7,3.3c-3.5,0-4.9-2.8-4.9-5.7
			c0-3.3,1.7-5.9,5-5.9c3.6,0,4.8,2.9,4.8,5.2c0,0.3,0,0.6,0,0.9H843.4z M849.3,374c0-1.8-0.9-3.3-2.8-3.3c-2,0-2.8,1.4-3,3.3H849.3
			z"/>
		<path d="M859.2,380.5v-16.1h1.9v16.1H859.2z"/>
		<path d="M873.9,374.9c0,3.2-1.8,5.8-5.2,5.8c-3.2,0-5.1-2.5-5.1-5.8c0-3.3,1.9-5.8,5.2-5.8C871.9,369.1,873.9,371.4,873.9,374.9z
			 M865.6,375c0,2.4,1.2,4.2,3.2,4.2c2,0,3.2-1.7,3.2-4.2c0-2.5-1.1-4.2-3.2-4.2C866.7,370.7,865.6,372.4,865.6,375z"/>
		<path d="M885.6,379.5c0,3.6-1.5,5.6-5.1,5.6c-3.4,0-4.4-1.9-4.6-3.4h2c0.3,1.2,1.3,1.9,2.7,1.9c2.5,0,3.1-1.6,3.1-4.2v-0.9
			c-0.6,1.2-1.6,2-3.5,2c-2.7,0-4.6-2.2-4.6-5.5c0-3.6,2.1-5.8,4.8-5.8c2.1,0,3,1,3.3,1.7c0-0.5,0.1-1.2,0.1-1.5h1.8
			c0,0.6,0,2.1,0,3.2V379.5z M877.6,374.9c0,2.3,1.2,3.9,3,3.9c2.4,0,3.1-1.6,3.1-4.1c0-2.5-0.7-4-3-4
			C878.7,370.8,877.6,372.5,877.6,374.9z"/>
		<path d="M898.4,374.9c0,3.2-1.8,5.8-5.2,5.8c-3.2,0-5.1-2.5-5.1-5.8c0-3.3,1.9-5.8,5.2-5.8C896.4,369.1,898.4,371.4,898.4,374.9z
			 M890,375c0,2.4,1.2,4.2,3.2,4.2c2,0,3.2-1.7,3.2-4.2c0-2.5-1.1-4.2-3.2-4.2C891.1,370.7,890,372.4,890,375z"/>
		<path d="M906.8,380.5V371H905v-1.6h1.8v-1.3c0-2,0.8-3.9,3.2-3.9c0.4,0,1,0.1,1.2,0.1v1.6c-0.3-0.1-0.7-0.1-1-0.1
			c-1.1,0-1.6,0.7-1.6,2.3v1.2h2.2v1.6h-2.2v9.5H906.8z"/>
		<path d="M913.8,375.3c0,2.3,1.2,3.9,3,3.9c1.8,0,2.3-0.9,2.7-1.7h1.9c-0.4,1.4-1.6,3.3-4.7,3.3c-3.5,0-4.9-2.8-4.9-5.7
			c0-3.3,1.7-5.9,5-5.9c3.6,0,4.8,2.9,4.8,5.2c0,0.3,0,0.6,0,0.9H913.8z M919.7,374c0-1.8-0.9-3.3-2.8-3.3c-2,0-2.8,1.4-3,3.3H919.7
			z"/>
		<path d="M925.3,375.3c0,2.3,1.2,3.9,3,3.9c1.8,0,2.3-0.9,2.7-1.7h1.9c-0.4,1.4-1.6,3.3-4.7,3.3c-3.5,0-4.9-2.8-4.9-5.7
			c0-3.3,1.7-5.9,5-5.9c3.6,0,4.8,2.9,4.8,5.2c0,0.3,0,0.6,0,0.9H925.3z M931.2,374c0-1.8-0.9-3.3-2.8-3.3c-2,0-2.8,1.4-3,3.3H931.2
			z"/>
		<path d="M935.6,380.5v-16.1h1.9v16.1H935.6z"/>
		<path d="M948.2,374.7c0.9-1.1,3.4-3.7,4.9-5.3h2.3l-4.2,4.3l4.7,6.8h-2.2l-3.7-5.6l-1.7,1.6v3.9h-1.9v-16.1h1.9V374.7z"/>
		<path d="M957.3,364.4h1.9v2.4h-1.9V364.4z M957.3,369.4h1.9v11.1h-1.9V369.4z"/>
		<path d="M962.5,372.2c0-1,0-1.9,0-2.8h1.9c0.1,0.3,0.1,1.5,0.1,1.8c0.4-1,1.3-2.1,3.5-2.1c2.1,0,3.7,1.3,3.7,4.2v7.1h-1.9v-6.9
			c0-1.7-0.7-2.8-2.4-2.8c-2.1,0-2.9,1.6-2.9,3.8v5.9h-1.9V372.2z"/>
		<path d="M984.2,364.4v12.9c0,1,0,2.1,0,3.1h-1.8c-0.1-0.3-0.1-1.1-0.1-1.6c-0.5,1.2-1.7,1.8-3.5,1.8c-2.9,0-4.6-2.3-4.6-5.7
			c0-3.4,1.9-5.9,5-5.9c2,0,2.8,0.8,3.1,1.4v-6.1H984.2z M976.1,375c0,2.7,1.3,4.1,3,4.1c2.6,0,3.2-1.9,3.2-4.4c0-2.5-0.5-4-3-4
			C977.3,370.8,976.1,372.3,976.1,375z"/>
		<path d="M987,380.5v-3.2h2v3.2H987z"/>
		<path d="M576.4,396.6v15.2h-2v-15.2H576.4z"/>
		<path d="M593.9,409.4c0,1,0.1,2.1,0.2,2.4h-1.8c-0.1-0.2-0.2-0.8-0.2-1.5c-0.4,0.7-1.3,1.7-3.4,1.7c-2.6,0-3.7-1.7-3.7-3.4
			c0-2.5,1.9-3.6,5.3-3.6c0.8,0,1.5,0,1.9,0v-0.9c0-1-0.3-2.2-2.4-2.2c-1.9,0-2.2,0.9-2.4,1.8h-1.9c0.1-1.5,1.1-3.3,4.3-3.3
			c2.7,0,4.2,1.1,4.2,3.6V409.4z M592,406.4c-0.4,0-1.2,0-1.8,0c-2.2,0-3.4,0.6-3.4,2.2c0,1.2,0.8,2,2.2,2c2.7,0,3-1.8,3-3.8V406.4z
			"/>
		<path d="M597.2,411.8v-16.1h1.9v16.1H597.2z"/>
		<path d="M603.3,408.6c0.3,1.2,1.2,1.9,2.7,1.9c1.6,0,2.3-0.7,2.3-1.7c0-1-0.5-1.5-2.6-2c-3.2-0.8-3.8-1.7-3.8-3.3
			c0-1.6,1.2-3.1,4-3.1c2.9,0,4,1.7,4.2,3.2h-1.9c-0.2-0.7-0.7-1.7-2.4-1.7c-1.6,0-2,0.7-2,1.5c0,0.8,0.5,1.2,2.5,1.7
			c3.4,0.8,4,1.9,4,3.6c0,1.9-1.5,3.4-4.3,3.4c-2.9,0-4.3-1.5-4.6-3.4H603.3z"/>
		<path d="M622.3,406.2c0,3.2-1.8,5.8-5.2,5.8c-3.2,0-5.1-2.5-5.1-5.8c0-3.3,1.9-5.8,5.2-5.8C620.3,400.4,622.3,402.7,622.3,406.2z
			 M613.9,406.2c0,2.4,1.2,4.2,3.2,4.2c2,0,3.2-1.7,3.2-4.2c0-2.5-1.1-4.2-3.2-4.2C615,402,613.9,403.7,613.9,406.2z"/>
		<path d="M631.3,400.7c1.4,5.2,2.2,8.2,2.4,9.3h0c0.2-1,1-3.8,2.6-9.3h1.9c1.7,6.3,2.3,8.1,2.4,9.1h0c0.3-1.2,0.7-2.9,2.5-9.1h1.9
			l-3.4,11.1h-2.1c-1.1-4-2.1-7.8-2.4-9h0c-0.2,1.2-1.2,4.6-2.5,9h-2.1l-3.2-11.1H631.3z"/>
		<path d="M655.4,409.4c0,1,0.1,2.1,0.2,2.4h-1.8c-0.1-0.2-0.2-0.8-0.2-1.5c-0.4,0.7-1.3,1.7-3.4,1.7c-2.6,0-3.7-1.7-3.7-3.4
			c0-2.5,1.9-3.6,5.2-3.6c0.8,0,1.5,0,1.9,0v-0.9c0-1-0.3-2.2-2.4-2.2c-1.9,0-2.2,0.9-2.4,1.8h-1.9c0.1-1.5,1.1-3.3,4.3-3.3
			c2.7,0,4.2,1.1,4.2,3.6V409.4z M653.5,406.4c-0.4,0-1.2,0-1.8,0c-2.2,0-3.4,0.6-3.4,2.2c0,1.2,0.8,2,2.2,2c2.7,0,3-1.8,3-3.8
			V406.4z"/>
		<path d="M658.7,403.5c0-1,0-1.9,0-2.8h1.9c0.1,0.3,0.1,1.5,0.1,1.8c0.4-1,1.3-2.1,3.5-2.1c2.1,0,3.7,1.3,3.7,4.2v7.1h-1.9v-6.9
			c0-1.7-0.7-2.8-2.4-2.8c-2.1,0-2.9,1.6-2.9,3.8v5.9h-1.9V403.5z"/>
		<path d="M669.7,400.7h1.9v-3.3h1.9v3.3h2.5v1.6h-2.5v6.5c0,1.1,0.3,1.6,1.3,1.6c0.3,0,0.7,0,1-0.1v1.4c-0.5,0.2-1.1,0.2-1.7,0.2
			c-1.7,0-2.5-0.9-2.5-2.7v-7h-1.9V400.7z"/>
		<path d="M682.2,400.7h1.9v-3.3h1.9v3.3h2.5v1.6h-2.5v6.5c0,1.1,0.3,1.6,1.3,1.6c0.3,0,0.7,0,1-0.1v1.4c-0.5,0.2-1.1,0.2-1.7,0.2
			c-1.7,0-2.5-0.9-2.5-2.7v-7h-1.9V400.7z"/>
		<path d="M700.2,406.2c0,3.2-1.8,5.8-5.2,5.8c-3.2,0-5.1-2.5-5.1-5.8c0-3.3,1.9-5.8,5.2-5.8C698.2,400.4,700.2,402.7,700.2,406.2z
			 M691.8,406.2c0,2.4,1.2,4.2,3.2,4.2c2,0,3.2-1.7,3.2-4.2c0-2.5-1.1-4.2-3.2-4.2C692.9,402,691.8,403.7,691.8,406.2z"/>
		<path d="M709.2,408.6c0.3,1.2,1.2,1.9,2.7,1.9c1.6,0,2.3-0.7,2.3-1.7c0-1-0.5-1.5-2.6-2c-3.2-0.8-3.8-1.7-3.8-3.3
			c0-1.6,1.2-3.1,4-3.1c2.9,0,4,1.7,4.2,3.2H714c-0.2-0.7-0.7-1.7-2.4-1.7c-1.6,0-2,0.7-2,1.5c0,0.8,0.5,1.2,2.5,1.7
			c3.4,0.8,4,1.9,4,3.6c0,1.9-1.5,3.4-4.3,3.4c-2.9,0-4.3-1.5-4.6-3.4H709.2z"/>
		<path d="M720.5,395.7v6.6c0.6-1,1.6-1.9,3.5-1.9c1.8,0,3.7,1,3.7,4.3v7.1h-1.9V405c0-1.9-0.8-2.9-2.4-2.9c-2,0-2.9,1.3-2.9,3.6
			v6.1h-1.9v-16.1H720.5z"/>
		<path d="M740.5,406.2c0,3.2-1.8,5.8-5.2,5.8c-3.2,0-5.1-2.5-5.1-5.8c0-3.3,1.9-5.8,5.2-5.8C738.5,400.4,740.5,402.7,740.5,406.2z
			 M732.2,406.2c0,2.4,1.2,4.2,3.2,4.2c2,0,3.2-1.7,3.2-4.2c0-2.5-1.1-4.2-3.2-4.2C733.3,402,732.2,403.7,732.2,406.2z"/>
		<path d="M744,400.7c1.4,5.2,2.2,8.2,2.4,9.3h0c0.2-1,1-3.8,2.6-9.3h1.9c1.7,6.3,2.3,8.1,2.4,9.1h0c0.3-1.2,0.7-2.9,2.5-9.1h1.9
			l-3.4,11.1h-2.1c-1.1-4-2.1-7.8-2.4-9h0c-0.2,1.2-1.2,4.6-2.5,9h-2.1l-3.2-11.1H744z"/>
		<path d="M774.1,408.4c-0.5,1.9-1.8,3.7-4.6,3.7c-3.1,0-5-2.2-5-5.8c0-3.1,1.8-5.9,5.1-5.9c3.2,0,4.3,2.3,4.5,3.7h-1.9
			c-0.3-1.1-1-2.1-2.6-2.1c-2,0-3.1,1.7-3.1,4.2c0,2.5,1.1,4.2,3,4.2c1.4,0,2.2-0.7,2.7-2.1H774.1z"/>
		<path d="M785.4,408.6c0,1.1,0,2.6,0,3.2h-1.9c0-0.3-0.1-1-0.1-1.7c-0.5,1.2-1.6,1.9-3.4,1.9c-1.9,0-3.7-0.9-3.7-4.1v-7.3h1.9v6.9
			c0,1.5,0.5,2.8,2.3,2.8c2,0,2.8-1.1,2.8-3.9v-5.8h1.9V408.6z"/>
		<path d="M789.6,408.6c0.3,1.2,1.2,1.9,2.7,1.9c1.6,0,2.3-0.7,2.3-1.7c0-1-0.5-1.5-2.6-2c-3.2-0.8-3.8-1.7-3.8-3.3
			c0-1.6,1.2-3.1,4-3.1c2.9,0,4,1.7,4.2,3.2h-1.9c-0.2-0.7-0.7-1.7-2.4-1.7c-1.6,0-2,0.7-2,1.5c0,0.8,0.5,1.2,2.5,1.7
			c3.4,0.8,4,1.9,4,3.6c0,1.9-1.5,3.4-4.3,3.4c-2.9,0-4.3-1.5-4.6-3.4H789.6z"/>
		<path d="M797.6,400.7h1.9v-3.3h1.9v3.3h2.5v1.6h-2.5v6.5c0,1.1,0.3,1.6,1.3,1.6c0.3,0,0.7,0,1-0.1v1.4c-0.5,0.2-1.1,0.2-1.7,0.2
			c-1.7,0-2.5-0.9-2.5-2.7v-7h-1.9V400.7z"/>
		<path d="M815.6,406.2c0,3.2-1.8,5.8-5.2,5.8c-3.2,0-5.1-2.5-5.1-5.8c0-3.3,1.9-5.8,5.2-5.8C813.5,400.4,815.6,402.7,815.6,406.2z
			 M807.2,406.2c0,2.4,1.2,4.2,3.2,4.2c2,0,3.2-1.7,3.2-4.2c0-2.5-1.1-4.2-3.2-4.2C808.3,402,807.2,403.7,807.2,406.2z"/>
		<path d="M818.1,403.6c0-1,0-2,0-2.9h1.8c0,0.3,0.1,1.2,0.1,1.7c0.5-1,1.5-2,3.2-2c1.6,0,2.7,0.8,3.1,2c0.6-1.1,1.6-2,3.5-2
			c1.8,0,3.5,1.1,3.5,4.1v7.3h-1.9v-7.1c0-1.3-0.5-2.6-2.2-2.6c-1.8,0-2.6,1.4-2.6,3.3v6.4h-1.9v-7c0-1.4-0.4-2.7-2.1-2.7
			c-1.8,0-2.6,1.4-2.6,3.6v6.1h-1.9V403.6z"/>
		<path d="M837.7,406.6c0,2.3,1.2,3.9,3,3.9c1.8,0,2.3-0.9,2.7-1.7h1.9c-0.4,1.4-1.6,3.3-4.7,3.3c-3.5,0-4.9-2.8-4.9-5.7
			c0-3.3,1.7-5.9,5-5.9c3.6,0,4.8,2.9,4.8,5.2c0,0.3,0,0.6,0,0.9H837.7z M843.7,405.2c0-1.8-0.9-3.3-2.8-3.3c-2,0-2.8,1.4-3,3.3
			H843.7z"/>
		<path d="M848.1,403.7c0-1.6,0-2.4,0-3h1.9c0,0.3,0.1,1.2,0.1,2.3c0.6-1.5,1.9-2.5,3.7-2.5v1.9c-2.3,0.1-3.7,1.3-3.7,4.1v5.4h-1.9
			V403.7z"/>
		<path d="M856.7,408.6c0.3,1.2,1.2,1.9,2.7,1.9c1.6,0,2.3-0.7,2.3-1.7c0-1-0.5-1.5-2.6-2c-3.2-0.8-3.8-1.7-3.8-3.3
			c0-1.6,1.2-3.1,4-3.1c2.9,0,4,1.7,4.2,3.2h-1.9c-0.2-0.7-0.7-1.7-2.4-1.7c-1.6,0-2,0.7-2,1.5c0,0.8,0.5,1.2,2.5,1.7
			c3.4,0.8,4,1.9,4,3.6c0,1.9-1.5,3.4-4.3,3.4c-2.9,0-4.3-1.5-4.6-3.4H856.7z"/>
		<path d="M870.2,400.7h1.9v-3.3h1.9v3.3h2.5v1.6h-2.5v6.5c0,1.1,0.3,1.6,1.3,1.6c0.3,0,0.7,0,1-0.1v1.4c-0.5,0.2-1.1,0.2-1.7,0.2
			c-1.7,0-2.5-0.9-2.5-2.7v-7h-1.9V400.7z"/>
		<path d="M880.6,395.7v6.6c0.6-1,1.6-1.9,3.5-1.9c1.8,0,3.7,1,3.7,4.3v7.1h-1.9V405c0-1.9-0.8-2.9-2.4-2.9c-2,0-2.9,1.3-2.9,3.6
			v6.1h-1.9v-16.1H880.6z"/>
		<path d="M899.3,409.4c0,1,0.1,2.1,0.2,2.4h-1.8c-0.1-0.2-0.2-0.8-0.2-1.5c-0.4,0.7-1.3,1.7-3.4,1.7c-2.6,0-3.7-1.7-3.7-3.4
			c0-2.5,1.9-3.6,5.2-3.6c0.8,0,1.5,0,1.9,0v-0.9c0-1-0.3-2.2-2.4-2.2c-1.9,0-2.2,0.9-2.4,1.8h-1.9c0.1-1.5,1.1-3.3,4.3-3.3
			c2.7,0,4.2,1.1,4.2,3.6V409.4z M897.5,406.4c-0.4,0-1.2,0-1.8,0c-2.2,0-3.4,0.6-3.4,2.2c0,1.2,0.8,2,2.2,2c2.7,0,3-1.8,3-3.8
			V406.4z"/>
		<path d="M901.2,400.7h1.9v-3.3h1.9v3.3h2.5v1.6h-2.5v6.5c0,1.1,0.3,1.6,1.3,1.6c0.3,0,0.7,0,1-0.1v1.4c-0.5,0.2-1.1,0.2-1.7,0.2
			c-1.7,0-2.5-0.9-2.5-2.7v-7h-1.9V400.7z"/>
		<path d="M924.7,406.2c0,3.2-1.8,5.8-5.2,5.8c-3.2,0-5.1-2.5-5.1-5.8c0-3.3,1.9-5.8,5.2-5.8C922.7,400.4,924.7,402.7,924.7,406.2z
			 M916.4,406.2c0,2.4,1.2,4.2,3.2,4.2c2,0,3.2-1.7,3.2-4.2c0-2.5-1.1-4.2-3.2-4.2C917.4,402,916.4,403.7,916.4,406.2z"/>
		<path d="M936.1,408.6c0,1.1,0,2.6,0,3.2h-1.9c0-0.3-0.1-1-0.1-1.7c-0.5,1.2-1.6,1.9-3.4,1.9c-1.9,0-3.7-0.9-3.7-4.1v-7.3h1.9v6.9
			c0,1.5,0.5,2.8,2.3,2.8c2,0,2.8-1.1,2.8-3.9v-5.8h1.9V408.6z"/>
		<path d="M939.4,403.7c0-1.6,0-2.4,0-3h1.9c0,0.3,0.1,1.2,0.1,2.3c0.6-1.5,1.9-2.5,3.7-2.5v1.9c-2.3,0.1-3.7,1.3-3.7,4.1v5.4h-1.9
			V403.7z"/>
		<path d="M574,427h1.9v6.6c0.5-0.9,1.5-1.8,3.5-1.8c2.8,0,4.5,2.3,4.5,5.6c0,3.4-1.7,6-4.8,6c-1.8,0-2.7-0.7-3.3-1.7
			c0,0.6,0,1.2-0.1,1.5H574c0-1.2,0-2.5,0-3.7V427z M582.1,437.4c0-2.4-1.1-4-3-4c-2.4,0-3.2,1.6-3.2,4.2c0,2.3,0.7,4.2,3.1,4.2
			C580.9,441.7,582.1,440.1,582.1,437.4z"/>
		<path d="M594.8,440.7c0,1,0.1,2.1,0.2,2.4h-1.8c-0.1-0.2-0.2-0.8-0.2-1.5c-0.4,0.7-1.3,1.7-3.4,1.7c-2.6,0-3.7-1.7-3.7-3.4
			c0-2.5,1.9-3.6,5.3-3.6c0.8,0,1.5,0,1.9,0v-0.9c0-1-0.3-2.2-2.4-2.2c-1.9,0-2.2,0.9-2.4,1.8h-1.9c0.1-1.5,1.1-3.3,4.3-3.3
			c2.7,0,4.2,1.1,4.2,3.6V440.7z M592.9,437.7c-0.4,0-1.2,0-1.8,0c-2.2,0-3.4,0.6-3.4,2.2c0,1.2,0.8,2,2.2,2c2.7,0,3-1.8,3-3.8
			V437.7z"/>
		<path d="M600.1,437.3c0.9-1.1,3.4-3.7,4.9-5.3h2.3l-4.2,4.3l4.7,6.8h-2.2l-3.7-5.6l-1.7,1.6v3.9h-1.9V427h1.9V437.3z"/>
		<path d="M610.3,437.9c0,2.3,1.2,3.9,3,3.9c1.8,0,2.3-0.9,2.7-1.7h1.9c-0.4,1.4-1.6,3.3-4.7,3.3c-3.5,0-4.9-2.8-4.9-5.7
			c0-3.3,1.7-5.9,5-5.9c3.6,0,4.8,2.9,4.8,5.2c0,0.3,0,0.6,0,0.9H610.3z M616.2,436.5c0-1.8-0.9-3.3-2.8-3.3c-2,0-2.8,1.4-3,3.3
			H616.2z"/>
		<path d="M620.6,435c0-1.6,0-2.4,0-3h1.9c0,0.3,0.1,1.2,0.1,2.3c0.6-1.5,1.9-2.5,3.7-2.5v1.9c-2.3,0.1-3.7,1.3-3.7,4.1v5.4h-1.9
			V435z"/>
		<path d="M629,432c1.8,5.3,2.8,8.3,3.1,9.4h0c0.4-1.3,1.2-3.8,3-9.4h1.9l-4,11.6c-1.1,3.2-2,4.1-4.2,4.1c-0.3,0-0.8,0-1.2-0.1v-1.7
			c0.3,0,0.6,0.1,0.9,0.1c1.4,0,1.9-0.6,2.6-2.5l-4.2-11.5H629z"/>
		<path d="M646.3,441.7v5.7h-1.9v-12.8c0-0.9,0-1.8,0-2.7h1.9c0,0.4,0.1,1,0.1,1.7c0.6-1.1,1.7-2,3.6-2c2.6,0,4.4,2.2,4.4,5.5
			c0,4-2.1,6.1-4.8,6.1C647.8,443.4,646.8,442.6,646.3,441.7z M652.4,437.3c0-2.4-1.1-4-3-4c-2.3,0-3.2,1.5-3.2,4.2
			c0,2.6,0.7,4.2,3.1,4.2C651.3,441.7,652.4,440.1,652.4,437.3z"/>
		<path d="M656.9,435c0-1.6,0-2.4,0-3h1.9c0,0.3,0.1,1.2,0.1,2.3c0.6-1.5,1.9-2.5,3.7-2.5v1.9c-2.3,0.1-3.7,1.3-3.7,4.1v5.4h-1.9
			V435z"/>
		<path d="M674.2,437.5c0,3.2-1.8,5.8-5.2,5.8c-3.2,0-5.1-2.5-5.1-5.8c0-3.3,1.9-5.8,5.2-5.8C672.1,431.7,674.2,434,674.2,437.5z
			 M665.8,437.5c0,2.4,1.2,4.2,3.2,4.2c2,0,3.2-1.7,3.2-4.2c0-2.5-1.1-4.2-3.2-4.2C666.9,433.3,665.8,435,665.8,437.5z"/>
		<path d="M677.3,432c1.5,4.5,2.6,7.9,2.9,9.3h0c0.3-1.2,1.5-4.6,3.1-9.3h2l-4.1,11.1h-2.1l-3.9-11.1H677.3z"/>
		<path d="M687.3,427h1.9v2.4h-1.9V427z M687.3,432h1.9v11.1h-1.9V432z"/>
		<path d="M701.7,427V440c0,1,0,2.1,0,3.1h-1.8c-0.1-0.3-0.1-1.1-0.1-1.6c-0.5,1.2-1.7,1.8-3.5,1.8c-2.9,0-4.6-2.3-4.6-5.7
			c0-3.4,1.9-5.9,5-5.9c2,0,2.8,0.8,3.1,1.4V427H701.7z M693.7,437.6c0,2.7,1.3,4.1,3,4.1c2.6,0,3.2-1.9,3.2-4.4c0-2.5-0.5-4-3-4
			C694.9,433.4,693.7,434.9,693.7,437.6z"/>
		<path d="M706.1,437.9c0,2.3,1.2,3.9,3,3.9c1.8,0,2.3-0.9,2.7-1.7h1.9c-0.4,1.4-1.6,3.3-4.7,3.3c-3.5,0-4.9-2.8-4.9-5.7
			c0-3.3,1.7-5.9,5-5.9c3.6,0,4.8,2.9,4.8,5.2c0,0.3,0,0.6,0,0.9H706.1z M712,436.5c0-1.8-0.9-3.3-2.8-3.3c-2,0-2.8,1.4-3,3.3H712z"
			/>
		<path d="M717.4,439.9c0.3,1.2,1.2,1.9,2.7,1.9c1.6,0,2.3-0.7,2.3-1.7c0-1-0.5-1.5-2.6-2c-3.2-0.8-3.8-1.7-3.8-3.3
			c0-1.6,1.2-3.1,4-3.1c2.9,0,4,1.7,4.2,3.2h-1.9c-0.2-0.7-0.7-1.7-2.4-1.7c-1.6,0-2,0.7-2,1.5c0,0.8,0.5,1.2,2.5,1.7
			c3.4,0.8,4,1.9,4,3.6c0,1.9-1.5,3.4-4.3,3.4c-2.9,0-4.3-1.5-4.6-3.4H717.4z"/>
		<path d="M732.3,434.8c0-1,0-1.9,0-2.8h1.9c0.1,0.3,0.1,1.5,0.1,1.8c0.4-1,1.3-2.1,3.5-2.1c2.1,0,3.7,1.3,3.7,4.2v7.1h-1.9v-6.9
			c0-1.7-0.7-2.8-2.4-2.8c-2.1,0-2.9,1.6-2.9,3.8v5.9h-1.9V434.8z"/>
		<path d="M744.7,427h1.9v2.4h-1.9V427z M744.7,432h1.9v11.1h-1.9V432z"/>
		<path d="M758.7,439.7c-0.5,1.9-1.8,3.7-4.6,3.7c-3.1,0-5-2.2-5-5.8c0-3.1,1.8-5.9,5.1-5.9c3.2,0,4.3,2.3,4.5,3.7h-1.9
			c-0.3-1.1-1-2.1-2.6-2.1c-2,0-3.1,1.7-3.1,4.2c0,2.5,1.1,4.2,3,4.2c1.4,0,2.2-0.7,2.7-2.1H758.7z"/>
		<path d="M762.1,437.9c0,2.3,1.2,3.9,3,3.9c1.8,0,2.3-0.9,2.7-1.7h1.9c-0.4,1.4-1.6,3.3-4.7,3.3c-3.5,0-4.9-2.8-4.9-5.7
			c0-3.3,1.7-5.9,5-5.9c3.6,0,4.8,2.9,4.8,5.2c0,0.3,0,0.6,0,0.9H762.1z M768.1,436.5c0-1.8-0.9-3.3-2.8-3.3c-2,0-2.8,1.4-3,3.3
			H768.1z"/>
		<path d="M786.3,440.7c0,1,0.1,2.1,0.2,2.4h-1.8c-0.1-0.2-0.2-0.8-0.2-1.5c-0.4,0.7-1.3,1.7-3.4,1.7c-2.6,0-3.7-1.7-3.7-3.4
			c0-2.5,1.9-3.6,5.2-3.6c0.8,0,1.5,0,1.9,0v-0.9c0-1-0.3-2.2-2.4-2.2c-1.9,0-2.2,0.9-2.4,1.8h-1.9c0.1-1.5,1.1-3.3,4.3-3.3
			c2.7,0,4.2,1.1,4.2,3.6V440.7z M784.4,437.7c-0.4,0-1.2,0-1.8,0c-2.2,0-3.4,0.6-3.4,2.2c0,1.2,0.8,2,2.2,2c2.7,0,3-1.8,3-3.8
			V437.7z"/>
		<path d="M789.6,434.8c0-1,0-1.9,0-2.8h1.9c0.1,0.3,0.1,1.5,0.1,1.8c0.4-1,1.3-2.1,3.5-2.1c2.1,0,3.7,1.3,3.7,4.2v7.1h-1.9v-6.9
			c0-1.7-0.7-2.8-2.4-2.8c-2.1,0-2.9,1.6-2.9,3.8v5.9h-1.9V434.8z"/>
		<path d="M811.2,427V440c0,1,0,2.1,0,3.1h-1.8c-0.1-0.3-0.1-1.1-0.1-1.6c-0.5,1.2-1.7,1.8-3.5,1.8c-2.9,0-4.6-2.3-4.6-5.7
			c0-3.4,1.9-5.9,5-5.9c2,0,2.8,0.8,3.1,1.4V427H811.2z M803.2,437.6c0,2.7,1.3,4.1,3,4.1c2.6,0,3.2-1.9,3.2-4.4c0-2.5-0.5-4-3-4
			C804.4,433.4,803.2,434.9,803.2,437.6z"/>
		<path d="M820.4,443.1v-9.5h-1.8V432h1.8v-1.3c0-2,0.8-3.9,3.2-3.9c0.4,0,1,0.1,1.2,0.1v1.6c-0.3-0.1-0.7-0.1-1-0.1
			c-1.1,0-1.6,0.7-1.6,2.3v1.2h2.2v1.6h-2.2v9.5H820.4z"/>
		<path d="M826.2,435c0-1.6,0-2.4,0-3h1.9c0,0.3,0.1,1.2,0.1,2.3c0.6-1.5,1.9-2.5,3.7-2.5v1.9c-2.3,0.1-3.7,1.3-3.7,4.1v5.4h-1.9
			V435z"/>
		<path d="M833.9,427h1.9v2.4h-1.9V427z M833.9,432h1.9v11.1h-1.9V432z"/>
		<path d="M840.3,437.9c0,2.3,1.2,3.9,3,3.9c1.8,0,2.3-0.9,2.7-1.7h1.9c-0.4,1.4-1.6,3.3-4.7,3.3c-3.5,0-4.9-2.8-4.9-5.7
			c0-3.3,1.7-5.9,5-5.9c3.6,0,4.8,2.9,4.8,5.2c0,0.3,0,0.6,0,0.9H840.3z M846.2,436.5c0-1.8-0.9-3.3-2.8-3.3c-2,0-2.8,1.4-3,3.3
			H846.2z"/>
		<path d="M850.6,434.8c0-1,0-1.9,0-2.8h1.9c0.1,0.3,0.1,1.5,0.1,1.8c0.4-1,1.3-2.1,3.5-2.1c2.1,0,3.7,1.3,3.7,4.2v7.1h-1.9v-6.9
			c0-1.7-0.7-2.8-2.4-2.8c-2.1,0-2.9,1.6-2.9,3.8v5.9h-1.9V434.8z"/>
		<path d="M872.2,427V440c0,1,0,2.1,0,3.1h-1.8c-0.1-0.3-0.1-1.1-0.1-1.6c-0.5,1.2-1.7,1.8-3.5,1.8c-2.9,0-4.6-2.3-4.6-5.7
			c0-3.4,1.9-5.9,5-5.9c2,0,2.8,0.8,3.1,1.4V427H872.2z M864.2,437.6c0,2.7,1.3,4.1,3,4.1c2.6,0,3.2-1.9,3.2-4.4c0-2.5-0.5-4-3-4
			C865.4,433.4,864.2,434.9,864.2,437.6z"/>
		<path d="M875.5,443.1V427h1.9v16.1H875.5z"/>
		<path d="M881.4,432c1.8,5.3,2.8,8.3,3.1,9.4h0c0.4-1.3,1.2-3.8,3-9.4h1.9l-4,11.6c-1.1,3.2-2,4.1-4.2,4.1c-0.3,0-0.8,0-1.2-0.1
			v-1.7c0.3,0,0.6,0.1,0.9,0.1c1.4,0,1.9-0.6,2.6-2.5l-4.2-11.5H881.4z"/>
		<path d="M897.7,439.9c0.3,1.2,1.2,1.9,2.7,1.9c1.6,0,2.3-0.7,2.3-1.7c0-1-0.5-1.5-2.6-2c-3.2-0.8-3.8-1.7-3.8-3.3
			c0-1.6,1.2-3.1,4-3.1c2.9,0,4,1.7,4.2,3.2h-1.9c-0.2-0.7-0.7-1.7-2.4-1.7c-1.6,0-2,0.7-2,1.5c0,0.8,0.5,1.2,2.5,1.7
			c3.4,0.8,4,1.9,4,3.6c0,1.9-1.5,3.4-4.3,3.4c-2.9,0-4.3-1.5-4.6-3.4H897.7z"/>
		<path d="M908.3,437.9c0,2.3,1.2,3.9,3,3.9c1.8,0,2.3-0.9,2.7-1.7h1.9c-0.4,1.4-1.6,3.3-4.7,3.3c-3.5,0-4.9-2.8-4.9-5.7
			c0-3.3,1.7-5.9,5-5.9c3.6,0,4.8,2.9,4.8,5.2c0,0.3,0,0.6,0,0.9H908.3z M914.2,436.5c0-1.8-0.9-3.3-2.8-3.3c-2,0-2.8,1.4-3,3.3
			H914.2z"/>
		<path d="M918.6,435c0-1.6,0-2.4,0-3h1.9c0,0.3,0.1,1.2,0.1,2.3c0.6-1.5,1.9-2.5,3.7-2.5v1.9c-2.3,0.1-3.7,1.3-3.7,4.1v5.4h-1.9
			V435z"/>
		<path d="M927,432c1.5,4.5,2.6,7.9,2.9,9.3h0c0.3-1.2,1.5-4.6,3.1-9.3h2l-4.1,11.1h-2.1l-3.9-11.1H927z"/>
		<path d="M936.9,427h1.9v2.4h-1.9V427z M936.9,432h1.9v11.1h-1.9V432z"/>
		<path d="M950.9,439.7c-0.5,1.9-1.8,3.7-4.6,3.7c-3.1,0-5-2.2-5-5.8c0-3.1,1.8-5.9,5.1-5.9c3.2,0,4.3,2.3,4.5,3.7H949
			c-0.3-1.1-1-2.1-2.6-2.1c-2,0-3.1,1.7-3.1,4.2c0,2.5,1.1,4.2,3,4.2c1.4,0,2.2-0.7,2.7-2.1H950.9z"/>
		<path d="M954.3,437.9c0,2.3,1.2,3.9,3,3.9c1.8,0,2.3-0.9,2.7-1.7h1.9c-0.4,1.4-1.6,3.3-4.7,3.3c-3.5,0-4.9-2.8-4.9-5.7
			c0-3.3,1.7-5.9,5-5.9c3.6,0,4.8,2.9,4.8,5.2c0,0.3,0,0.6,0,0.9H954.3z M960.2,436.5c0-1.8-0.9-3.3-2.8-3.3c-2,0-2.8,1.4-3,3.3
			H960.2z"/>
		<path d="M965.6,439.9c0.3,1.2,1.2,1.9,2.7,1.9c1.6,0,2.3-0.7,2.3-1.7c0-1-0.5-1.5-2.6-2c-3.2-0.8-3.8-1.7-3.8-3.3
			c0-1.6,1.2-3.1,4-3.1c2.9,0,4,1.7,4.2,3.2h-1.9c-0.2-0.7-0.7-1.7-2.4-1.7c-1.6,0-2,0.7-2,1.5c0,0.8,0.5,1.2,2.5,1.7
			c3.4,0.8,4,1.9,4,3.6c0,1.9-1.5,3.4-4.3,3.4c-2.9,0-4.3-1.5-4.6-3.4H965.6z"/>
		<path d="M973.4,445.6c1.2-2.4,1.5-4.4,1.6-5.7h1.9c-0.2,2-0.9,4.2-1.9,5.7H973.4z"/>
		<path d="M575,471.2c0.3,1.2,1.2,1.9,2.7,1.9c1.6,0,2.3-0.7,2.3-1.7c0-1-0.5-1.5-2.6-2c-3.2-0.8-3.8-1.7-3.8-3.3
			c0-1.6,1.2-3.1,4-3.1c2.9,0,4,1.7,4.2,3.2h-1.9c-0.2-0.7-0.7-1.7-2.4-1.7c-1.6,0-2,0.7-2,1.5c0,0.8,0.5,1.2,2.5,1.7
			c3.4,0.8,4,1.9,4,3.6c0,1.9-1.5,3.4-4.3,3.4c-2.9,0-4.3-1.5-4.6-3.4H575z"/>
		<path d="M593.9,468.8c0,3.2-1.8,5.8-5.2,5.8c-3.2,0-5.1-2.5-5.1-5.8c0-3.3,1.9-5.8,5.2-5.8C591.9,463,593.9,465.3,593.9,468.8z
			 M585.6,468.8c0,2.4,1.2,4.2,3.2,4.2c2,0,3.2-1.7,3.2-4.2c0-2.5-1.1-4.2-3.2-4.2C586.7,464.6,585.6,466.3,585.6,468.8z"/>
		<path d="M602.3,474.4v-9.5h-1.8v-1.6h1.8V462c0-2,0.8-3.9,3.2-3.9c0.4,0,1,0.1,1.2,0.1v1.6c-0.3-0.1-0.7-0.1-1-0.1
			c-1.1,0-1.6,0.7-1.6,2.3v1.2h2.2v1.6h-2.2v9.5H602.3z"/>
		<path d="M609.3,469.2c0,2.3,1.2,3.9,3,3.9c1.8,0,2.3-0.9,2.7-1.7h1.9c-0.4,1.4-1.6,3.3-4.7,3.3c-3.5,0-4.9-2.8-4.9-5.7
			c0-3.3,1.7-5.9,5-5.9c3.6,0,4.8,2.9,4.8,5.2c0,0.3,0,0.6,0,0.9H609.3z M615.2,467.8c0-1.8-0.9-3.3-2.8-3.3c-2,0-2.8,1.4-3,3.3
			H615.2z"/>
		<path d="M620.8,469.2c0,2.3,1.2,3.9,3,3.9c1.8,0,2.3-0.9,2.7-1.7h1.9c-0.4,1.4-1.6,3.3-4.7,3.3c-3.5,0-4.9-2.8-4.9-5.7
			c0-3.3,1.7-5.9,5-5.9c3.6,0,4.8,2.9,4.8,5.2c0,0.3,0,0.6,0,0.9H620.8z M626.7,467.8c0-1.8-0.9-3.3-2.8-3.3c-2,0-2.8,1.4-3,3.3
			H626.7z"/>
		<path d="M631.1,474.4v-16.1h1.9v16.1H631.1z"/>
		<path d="M642.2,474.4v-9.5h-1.8v-1.6h1.8V462c0-2,0.8-3.9,3.2-3.9c0.4,0,1,0.1,1.2,0.1v1.6c-0.3-0.1-0.7-0.1-1-0.1
			c-1.1,0-1.6,0.7-1.6,2.3v1.2h2.2v1.6h-2.2v9.5H642.2z"/>
		<path d="M648,466.3c0-1.6,0-2.4,0-3h1.9c0,0.3,0.1,1.2,0.1,2.3c0.6-1.5,1.9-2.5,3.7-2.5v1.9c-2.3,0.1-3.7,1.3-3.7,4.1v5.4H648
			V466.3z"/>
		<path d="M656.9,469.2c0,2.3,1.2,3.9,3,3.9c1.8,0,2.3-0.9,2.7-1.7h1.9c-0.4,1.4-1.6,3.3-4.7,3.3c-3.5,0-4.9-2.8-4.9-5.7
			c0-3.3,1.7-5.9,5-5.9c3.6,0,4.8,2.9,4.8,5.2c0,0.3,0,0.6,0,0.9H656.9z M662.8,467.8c0-1.8-0.9-3.3-2.8-3.3c-2,0-2.8,1.4-3,3.3
			H662.8z"/>
		<path d="M668.3,469.2c0,2.3,1.2,3.9,3,3.9c1.8,0,2.3-0.9,2.7-1.7h1.9c-0.4,1.4-1.6,3.3-4.7,3.3c-3.5,0-4.9-2.8-4.9-5.7
			c0-3.3,1.7-5.9,5-5.9c3.6,0,4.8,2.9,4.8,5.2c0,0.3,0,0.6,0,0.9H668.3z M674.3,467.8c0-1.8-0.9-3.3-2.8-3.3c-2,0-2.8,1.4-3,3.3
			H674.3z"/>
		<path d="M682.8,463.3h1.9V460h1.9v3.3h2.5v1.6h-2.5v6.5c0,1.1,0.3,1.6,1.3,1.6c0.3,0,0.7,0,1-0.1v1.4c-0.5,0.2-1.1,0.2-1.7,0.2
			c-1.7,0-2.5-0.9-2.5-2.7v-7h-1.9V463.3z"/>
		<path d="M700.7,468.8c0,3.2-1.8,5.8-5.2,5.8c-3.2,0-5.1-2.5-5.1-5.8c0-3.3,1.9-5.8,5.2-5.8C698.7,463,700.7,465.3,700.7,468.8z
			 M692.4,468.8c0,2.4,1.2,4.2,3.2,4.2c2,0,3.2-1.7,3.2-4.2c0-2.5-1.1-4.2-3.2-4.2C693.5,464.6,692.4,466.3,692.4,468.8z"/>
		<path d="M709.7,471.2c0.3,1.2,1.2,1.9,2.7,1.9c1.6,0,2.3-0.7,2.3-1.7c0-1-0.5-1.5-2.6-2c-3.2-0.8-3.8-1.7-3.8-3.3
			c0-1.6,1.2-3.1,4-3.1c2.9,0,4,1.7,4.2,3.2h-1.9c-0.2-0.7-0.7-1.7-2.4-1.7c-1.6,0-2,0.7-2,1.5c0,0.8,0.5,1.2,2.5,1.7
			c3.4,0.8,4,1.9,4,3.6c0,1.9-1.5,3.4-4.3,3.4c-2.9,0-4.3-1.5-4.6-3.4H709.7z"/>
		<path d="M721.1,458.3v6.6c0.6-1,1.6-1.9,3.5-1.9c1.8,0,3.7,1,3.7,4.3v7.1h-1.9v-6.8c0-1.9-0.8-2.9-2.4-2.9c-2,0-2.9,1.3-2.9,3.6
			v6.1h-1.9v-16.1H721.1z"/>
		<path d="M741.1,468.8c0,3.2-1.8,5.8-5.2,5.8c-3.2,0-5.1-2.5-5.1-5.8c0-3.3,1.9-5.8,5.2-5.8C739.1,463,741.1,465.3,741.1,468.8z
			 M732.7,468.8c0,2.4,1.2,4.2,3.2,4.2c2,0,3.2-1.7,3.2-4.2c0-2.5-1.1-4.2-3.2-4.2C733.8,464.6,732.7,466.3,732.7,468.8z"/>
		<path d="M745.5,473v5.7h-1.9V466c0-0.9,0-1.8,0-2.7h1.9c0,0.4,0.1,1,0.1,1.7c0.6-1.1,1.7-2,3.6-2c2.6,0,4.4,2.2,4.4,5.5
			c0,4-2.1,6.1-4.8,6.1C746.9,474.7,746,473.9,745.5,473z M751.6,468.6c0-2.4-1.1-4-3-4c-2.3,0-3.2,1.5-3.2,4.2
			c0,2.6,0.7,4.2,3.1,4.2C750.5,473,751.6,471.4,751.6,468.6z"/>
		<path d="M769.9,472c0,1,0.1,2.1,0.2,2.4h-1.8c-0.1-0.2-0.2-0.8-0.2-1.5c-0.4,0.7-1.3,1.7-3.4,1.7c-2.6,0-3.7-1.7-3.7-3.4
			c0-2.5,1.9-3.6,5.2-3.6c0.8,0,1.5,0,1.9,0v-0.9c0-1-0.3-2.2-2.4-2.2c-1.9,0-2.2,0.9-2.4,1.8h-1.9c0.1-1.5,1.1-3.3,4.3-3.3
			c2.7,0,4.2,1.1,4.2,3.6V472z M768,469c-0.4,0-1.2,0-1.8,0c-2.2,0-3.4,0.6-3.4,2.2c0,1.2,0.8,2,2.2,2c2.7,0,3-1.8,3-3.8V469z"/>
		<path d="M771.8,463.3h1.9V460h1.9v3.3h2.5v1.6h-2.5v6.5c0,1.1,0.3,1.6,1.3,1.6c0.3,0,0.7,0,1-0.1v1.4c-0.5,0.2-1.1,0.2-1.7,0.2
			c-1.7,0-2.5-0.9-2.5-2.7v-7h-1.9V463.3z"/>
		<path d="M795.3,468.8c0,3.2-1.8,5.8-5.2,5.8c-3.2,0-5.1-2.5-5.1-5.8c0-3.3,1.9-5.8,5.2-5.8C793.3,463,795.3,465.3,795.3,468.8z
			 M786.9,468.8c0,2.4,1.2,4.2,3.2,4.2c2,0,3.2-1.7,3.2-4.2c0-2.5-1.1-4.2-3.2-4.2C788,464.6,786.9,466.3,786.9,468.8z"/>
		<path d="M806.7,471.2c0,1.1,0,2.6,0,3.2h-1.9c0-0.3-0.1-1-0.1-1.7c-0.5,1.2-1.6,1.9-3.4,1.9c-1.9,0-3.7-0.9-3.7-4.1v-7.3h1.9v6.9
			c0,1.5,0.5,2.8,2.3,2.8c2,0,2.8-1.1,2.8-3.9v-5.8h1.9V471.2z"/>
		<path d="M810,466.3c0-1.6,0-2.4,0-3h1.9c0,0.3,0.1,1.2,0.1,2.3c0.6-1.5,1.9-2.5,3.7-2.5v1.9c-2.3,0.1-3.7,1.3-3.7,4.1v5.4H810
			V466.3z"/>
		<path d="M823.2,458.3h1.9v6.6c0.5-0.9,1.5-1.8,3.5-1.8c2.8,0,4.5,2.3,4.5,5.6c0,3.4-1.7,6-4.8,6c-1.8,0-2.7-0.7-3.3-1.7
			c0,0.6,0,1.2-0.1,1.5h-1.8c0-1.2,0-2.5,0-3.7V458.3z M831.3,468.7c0-2.4-1.1-4-3-4c-2.4,0-3.2,1.6-3.2,4.2c0,2.3,0.7,4.2,3.1,4.2
			C830.1,473,831.3,471.4,831.3,468.7z"/>
		<path d="M844,472c0,1,0.1,2.1,0.2,2.4h-1.8c-0.1-0.2-0.2-0.8-0.2-1.5c-0.4,0.7-1.3,1.7-3.4,1.7c-2.6,0-3.7-1.7-3.7-3.4
			c0-2.5,1.9-3.6,5.3-3.6c0.8,0,1.5,0,1.9,0v-0.9c0-1-0.3-2.2-2.4-2.2c-1.9,0-2.2,0.9-2.4,1.8h-1.9c0.1-1.5,1.1-3.3,4.3-3.3
			c2.7,0,4.2,1.1,4.2,3.6V472z M842.1,469c-0.4,0-1.2,0-1.8,0c-2.2,0-3.4,0.6-3.4,2.2c0,1.2,0.8,2,2.2,2c2.7,0,3-1.8,3-3.8V469z"/>
		<path d="M849.2,468.6c0.9-1.1,3.4-3.7,4.9-5.3h2.3l-4.2,4.3l4.7,6.8h-2.2l-3.7-5.6l-1.7,1.6v3.9h-1.9v-16.1h1.9V468.6z"/>
		<path d="M859.5,469.2c0,2.3,1.2,3.9,3,3.9c1.8,0,2.3-0.9,2.7-1.7h1.9c-0.4,1.4-1.6,3.3-4.7,3.3c-3.5,0-4.9-2.8-4.9-5.7
			c0-3.3,1.7-5.9,5-5.9c3.6,0,4.8,2.9,4.8,5.2c0,0.3,0,0.6,0,0.9H859.5z M865.4,467.8c0-1.8-0.9-3.3-2.8-3.3c-2,0-2.8,1.4-3,3.3
			H865.4z"/>
		<path d="M869.8,466.3c0-1.6,0-2.4,0-3h1.9c0,0.3,0.1,1.2,0.1,2.3c0.6-1.5,1.9-2.5,3.7-2.5v1.9c-2.3,0.1-3.7,1.3-3.7,4.1v5.4h-1.9
			V466.3z"/>
		<path d="M878.2,463.3c1.8,5.3,2.8,8.3,3.1,9.4h0c0.4-1.3,1.2-3.8,3-9.4h1.9l-4,11.6c-1.1,3.2-2,4.1-4.2,4.1c-0.3,0-0.8,0-1.2-0.1
			v-1.7c0.3,0,0.6,0.1,0.9,0.1c1.4,0,1.9-0.6,2.6-2.5l-4.2-11.5H878.2z"/>
		<path d="M887.6,474.4v-3.2h2v3.2H887.6z"/>
	</g>
</g>
</svg>
