<?xml version="1.0" encoding="utf-8"?>
<!-- Generator: Adobe Illustrator 26.0.1, SVG Export Plug-In . SVG Version: 6.00 Build 0)  -->
<svg version="1.1" xmlns="http://www.w3.org/2000/svg" xmlns:xlink="http://www.w3.org/1999/xlink" x="0px" y="0px"
	 viewBox="0 0 1000 710" style="enable-background:new 0 0 1000 710;" xml:space="preserve">
<style type="text/css">
	.st0{fill:#FFFFFF;}
	.st1{fill:#FFFFFF;stroke:#231F20;stroke-miterlimit:10;}
	.st2{fill:#231F20;}
	.st3{fill:#231F20;stroke:#FFFFFF;stroke-miterlimit:10;}
	.st4{font-family:'ChalkboardSE-Regular';}
	.st5{font-size:19.7785px;}
	.st6{fill:none;stroke:#231F20;stroke-miterlimit:10;}
	.st7{font-family:'GillSans';}
	.st8{font-size:25.8525px;}
	.st9{font-size:18.3407px;}
	.st10{fill:none;stroke:#000000;stroke-miterlimit:10;}
</style>
<g id="Layer_2">
	<rect x="0.5" y="-0.5" class="st0" width="1000" height="711"/>
	<rect x="16" y="13.2" class="st1" width="220.1" height="330.1"/>
	<rect x="265.6" y="13.2" class="st1" width="220.1" height="330.1"/>
	<rect x="515.3" y="13.2" class="st1" width="220.1" height="330.1"/>
	<rect x="764.9" y="13.2" class="st1" width="220.1" height="330.1"/>
	<rect x="16" y="363.2" class="st1" width="220.1" height="330.1"/>
	<rect x="265.6" y="363.2" class="st1" width="220.1" height="330.1"/>
	<rect x="515.3" y="363.2" class="st1" width="220.1" height="330.1"/>
	<rect x="764.9" y="363.2" class="st1" width="220.1" height="330.1"/>
</g>
<g id="style_1">
	<g>
		<g>
			<path class="st2" d="M516.1,466.3c8.4,2.1,17.1,3.4,25.7,4.6c20.5,2.7,41.2,3.7,61.9,2.7c12.6-0.6,25.2-2.1,37.7-4.4
				c12-2.3,23.9-5.1,35.6-8.3c15-4.1,30-8.8,44.2-14.9c3.6-1.6,7.2-3.2,10.6-5.1c1-0.5,2-1.1,2.9-1.6c0.4-0.2,1-0.5,1.4-0.8
				c0,0,0.1-0.1,0.2-0.1c0.4-0.3-0.8-0.5-1.1-0.3c-3.6,2.4-7.7,4.3-11.6,6.1c-12.9,5.9-26.4,10.4-39.9,14.3
				c-23.2,6.7-46.9,12.1-70.9,14.1c-21.6,1.8-43.3,1.2-64.8-1.3c-10.3-1.2-20.9-2.8-30.9-5.1c-0.1,0-0.3-0.1-0.4-0.1
				C516.4,465.8,515.3,466.1,516.1,466.3L516.1,466.3z"/>
		</g>
	</g>
	<path class="st3" d="M265.9,363.2V625c4.7-20.8,75.9-75.5,75.9-75.5s-62.2,1.7-60.6-8.3c1.5-9.9,54.5-60.2,54.5-60.2
		s-26.2-2.5-23-8.4c3.3-5.9,46-50.6,46-50.6c25.5-26.7,83.6,45.1,83.6,51.8c0,6.7-31.2,4-31.2,4s59.6,55.8,59.6,65.9
		c0,10.1-60.7,5.8-60.7,5.8s75.8,56.7,75.8,77.5c0,20.8-60.3,14.3-60.3,14.3v52.1H486V363.2H265.9z"/>
	<g>
		<polygon class="st1" points="126,156.4 57.6,274.9 194.5,274.9 		"/>
		<polygon class="st1" points="126,112.1 75.1,200.3 177,200.3 		"/>
		<polygon class="st1" points="126,64 87.7,130.5 164.4,130.5 		"/>
	</g>
	<rect x="111.1" y="274.5" class="st1" width="29.8" height="40.5"/>
	<polygon class="st1" points="126,49.7 130.3,58.5 140,59.9 133,66.6 134.6,76.2 126,71.7 117.4,76.2 119.1,66.6 112.1,59.9 
		121.7,58.5 	"/>
	<path class="st1" d="M40.5,196.1H16v37.8h35.9c0,0,4.6-2.9,5.7-2.9C58.8,231,40.5,196.1,40.5,196.1z"/>
	<path class="st1" d="M212.1,196.1h24.4v37.8h-35.9c0,0-4.5-2.9-5.7-2.9S212.1,196.1,212.1,196.1z"/>
	<path class="st1" d="M199.3,231H52.8c-6.8,0-12.4-5.5-12.4-12.4V199c0-6.8,5.5-12.4,12.4-12.4h146.5c6.8,0,12.4,5.5,12.4,12.4v19.6
		C211.6,225.4,206.1,231,199.3,231z"/>
	<text transform="matrix(1 0 0 1 52.7524 215.9482)" class="st4 st5">Merry Christmas</text>
	<rect x="177.2" y="377.7" class="st1" width="44.3" height="50.4"/>
	<rect x="426.4" y="377.7" class="st1" width="44.3" height="50.4"/>
	<rect x="676.3" y="377.7" class="st1" width="44.3" height="50.4"/>
	<line class="st6" x1="30.9" y1="523.7" x2="222" y2="523.7"/>
	<line class="st6" x1="30.9" y1="549.5" x2="222" y2="549.5"/>
	<line class="st6" x1="30.9" y1="575.3" x2="222" y2="575.3"/>
	<line class="st6" x1="30.9" y1="601.2" x2="222" y2="601.2"/>
	<line class="st6" x1="30.9" y1="627" x2="222" y2="627"/>
	<line class="st6" x1="30.9" y1="652.8" x2="222" y2="652.8"/>
	<line class="st6" x1="529.2" y1="523.7" x2="720.2" y2="523.7"/>
	<line class="st6" x1="529.2" y1="549.5" x2="720.2" y2="549.5"/>
	<line class="st6" x1="529.2" y1="575.3" x2="720.2" y2="575.3"/>
	<line class="st6" x1="529.2" y1="601.2" x2="720.2" y2="601.2"/>
	<line class="st6" x1="529.2" y1="627" x2="720.2" y2="627"/>
	<line class="st6" x1="529.2" y1="652.8" x2="720.2" y2="652.8"/>
	<path class="st2" d="M462.9,224.9c-3.9-4.7-8.7-8.5-14.2-11.2c0.9,0,1.8,0,2.7,0.1c1.8,0.1,3.6,0.2,5.4,0.4c0.3,0,0.4-0.3,0.3-0.6
		c-2.5-5.6-6.2-10.7-10.7-14.8c3.4-0.2,6.7-0.2,10.1-0.2c0.4,0,0.5-0.5,0.2-0.7c-4.3-2.9-8.7-5.8-13-8.7c0.9-0.8,1.8-1.5,2.7-2.3
		c0.4-0.3-0.2-0.8-0.5-0.5c-0.9,0.8-1.9,1.6-2.8,2.4l-1.5-1c-0.4-0.3-0.8,0.4-0.4,0.7c0.4,0.3,0.9,0.6,1.3,0.9
		c-3.5,3.2-6.7,6.6-9.7,10.3c-0.2,0.3,0,0.7,0.4,0.6c4.1-0.7,8.2-1.1,12.3-1.4c4.6,4,8.3,9,10.9,14.5c-6.1-0.5-12.3-0.6-18.4-0.3
		c-1.5,0.1-3,0.2-4.5,0.3c3.5-4.4,6.9-8.9,10.4-13.3c0.3-0.4-0.2-0.9-0.5-0.5c-3.6,4.7-7.3,9.4-10.9,14c-0.2,0.2-0.1,0.7,0.3,0.7
		c5.1-0.5,10.1-0.6,15.2-0.5c-0.1,0.2,0,0.3,0.2,0.4c5.3,2.6,10,6.2,13.9,10.7c-4.3-0.2-8.7-0.2-13,0c-0.1-0.1-0.4-0.1-0.5,0
		c-3.1,0.2-6.2,0.5-9.3,0.9c-2,0.3-3.9,0.6-5.8,0.9c2.7-4.6,6.2-8.6,10.5-11.8c0.4-0.3,0-1-0.4-0.7c-4.6,3.4-8.5,7.8-11.2,12.8
		c-0.2,0.3,0.1,0.6,0.4,0.6c5.2-1,10.5-1.7,15.7-2c0.3,1.5,0.5,3.1,0.5,4.7c0,0.8,0,1.7,0,2.5c0,0.7-0.1,1.6-0.3,2.3
		c-0.4,1.3-1.9,1.2-2.8,0.4c-1.1-1-1-2.7-0.8-4c0.2-1.6,0.6-3.3,0-5c-0.2-0.5-0.9-0.3-0.7,0.2c0.7,1.7,0.1,3.5-0.1,5.3
		c-0.1,1.5,0,3.2,1.3,4.1c0.9,0.7,2.4,1,3.3,0.1c0.5-0.5,0.7-1.2,0.8-1.9c0.1-0.9,0.2-1.9,0.2-2.9c0-2-0.1-4-0.5-5.9
		c2.3-0.1,4.7-0.2,7-0.2c2.2,0,4.5,0.1,6.7,0.2C463,225.6,463.1,225.1,462.9,224.9z M445.2,197.7c-0.3-0.3-0.8,0.1-0.6,0.4
		c-3.6,0.3-7.1,0.7-10.7,1.2c2.8-3.4,5.9-6.7,9.1-9.6c4,2.7,8.1,5.4,12.1,8.1c-3.2-0.1-6.4,0-9.6,0.2
		C445.5,197.9,445.4,197.8,445.2,197.7z"/>
	<path class="st2" d="M445.4,313.7c-7.8-7.4-15.9-15-25.3-20.3c2.3-0.2,4.6-0.5,6.9-0.7c0.8-0.1,1.2-0.8,0.8-1.5
		c-2.2-4.6-6.4-7.6-10.3-10.6c-3.6-2.7-7.1-5.4-10.7-8.1c3.5-0.4,7-0.8,10.5-1c4.7-0.4,9.4-0.5,14-0.4c1,0,1.3-1.3,0.5-1.8
		c-9.9-6.4-20.2-12.1-30.9-17c1.7-1,3.4-2,5.1-2.9c1.1-0.6,0.1-2.3-1-1.7c-2.1,1.2-4.2,2.4-6.3,3.6c-0.3-0.1-0.6-0.3-1-0.4
		c-1.1-0.5-2.1,1.1-1,1.6c-10.2,6.2-20,13.2-29.2,20.9c-0.7,0.6-0.1,1.6,0.7,1.7c8.8,0.6,17.6-0.1,26.4-1
		c-9.5,4.7-19.2,10.1-25,19.3c-0.4,0.7,0.1,1.4,0.8,1.5c5.6,0.2,11.3,0.3,16.9,0.3c-12.2,5.8-23.6,13.2-33.7,22.2
		c-0.6,0.6-0.1,1.7,0.7,1.7c17.2-0.7,34.5-1.4,51.7-2.1c0.1,3.1,0.1,6.3,0,9.4c-0.1,1.7-0.1,3.4-0.4,5c-0.2,1.4-0.7,2.9-2.1,3.4
		c-2.9,1.2-3.6-4.5-3.9-6.2c-0.5-3.3-0.4-6.7,0.2-10c0.3-1.2-1.6-1.8-1.9-0.5c-0.6,3.1-0.8,6.2-0.5,9.3c0.2,1.5,0.4,3.1,0.9,4.5
		c0.3,1.2,0.7,2.5,1.5,3.5c1.5,2,4.3,1.8,6,0.1c2.1-2.1,1.9-5.5,2.1-8.2c0.2-3.5,0.2-7,0-10.5c5.5-0.2,11-0.4,16.5-0.7
		c6.7-0.3,13.3-0.5,20-0.8C445.5,315.3,446,314.3,445.4,313.7z M382.3,273.2c-3.8,0.2-7.6,0.2-11.4,0.1c8.9-7.2,18.2-13.8,28-19.7
		c10,4.6,19.7,9.8,29,15.6c-7.8,0-15.6,0.9-23.3,1.8c-0.7-0.5-1.4-1-2.1-1.6c-1-0.8-2,0.9-1,1.7c0.1,0.1,0.2,0.1,0.3,0.2
		C395.3,272,388.8,272.8,382.3,273.2z M372.3,292.9c6.2-8.7,16.2-13.7,25.6-18.3c0.5-0.2,0.6-0.6,0.4-1c1.9-0.2,3.8-0.5,5.7-0.7
		c3.9,2.9,7.8,5.9,11.7,8.8c3.5,2.7,7.4,5.3,9.7,9.1c-2.9,0.3-5.7,0.6-8.6,0.8c-2.1-1-4.2-1.9-6.4-2.6c-1.2-0.4-1.7,1.5-0.5,1.9
		c1,0.3,1.9,0.7,2.9,1.1C399.3,293.1,385.8,293.4,372.3,292.9z M374.4,316.2c-5.7,0.2-11.5,0.5-17.2,0.7
		c9.9-8.4,20.9-15.4,32.7-20.8c0.5-0.2,0.6-0.6,0.5-1c8.7-0.1,17.4-0.6,26.1-1.3c9.7,4.8,18,12.3,25.8,19.8
		C419.7,314.4,397.1,315.3,374.4,316.2z"/>
	<g>
		<path class="st2" d="M335.4,248.9c-3.7-4-7.8-7.6-12.1-10.9c2-0.1,4.1-0.2,6.1-0.3c0.3,0,0.5-0.4,0.3-0.7c-2-2.2-3.8-4.6-5.2-7.2
			c-0.8-1.5-1.6-3.2-2.9-4.2c0.8-0.1,1.5-0.1,2.3-0.2c0.3,0,0.5-0.3,0.3-0.6c-1.5-2.1-3.5-3.7-5.8-4.7c0.3-0.2,0.6-0.4,1-0.6
			c0.4-0.2,0-0.9-0.4-0.7c-2.9,1.7-5.5,4-7.4,6.8c-0.2,0.2,0.1,0.6,0.3,0.6c2.8-0.2,5.6-0.4,8.4-0.6c1.9,0.9,2.8,3.3,3.8,5.1
			c1.2,2.2,2.7,4.3,4.4,6.1c-2.1,0.1-4.1,0.2-6.2,0.3c-0.2-0.2-0.4-0.3-0.6-0.5c-0.3-0.3-0.7,0.2-0.5,0.5c-4.1,0.2-8.2,0.2-12.4,0.2
			c1.8-3.9,4.3-7.5,7.5-10.4c0.4-0.3-0.2-0.9-0.5-0.5c-3.4,3.1-6.1,6.9-7.9,11.2c-0.1,0.3,0,0.6,0.3,0.6c1.9,0,3.8,0,5.6,0
			c-5,2.8-9.3,6.7-12.7,11.3c-0.2,0.2,0.1,0.6,0.3,0.6c8.7-0.1,17.4-0.3,26.1-0.4c2.5,0,5-0.1,7.4-0.1
			C335.5,249.5,335.6,249.1,335.4,248.9z M320,224.7c-0.2-0.1-0.4,0.1-0.5,0.3c-2.3,0.2-4.5,0.3-6.8,0.5c1.4-1.9,3.1-3.5,5-4.9
			c0,0.1,0.1,0.1,0.2,0.1c2.1,0.8,3.9,2.2,5.2,3.9c-0.9,0.1-1.8,0.1-2.7,0.2C320.3,224.8,320.1,224.8,320,224.7z M309,249.2
			c-2.2,0-4.4,0.1-6.7,0.1c3.3-4.3,7.5-7.9,12.2-10.6c0.2-0.1,0.2-0.3,0.1-0.5c2.5,0,5-0.1,7.4-0.2c4.3,3.2,8.4,6.8,12.1,10.8
			C325.8,248.9,317.4,249.1,309,249.2z"/>
		<path class="st2" d="M320.5,256.5c-0.3-1.9-1.4-3.7-1.2-5.6c0-0.5-0.7-0.5-0.8,0c-0.1,1.9,0.8,3.5,1.2,5.3c0.3,1.4,0,3.6-1.8,3.9
			c-1.9,0.2-2.3-2.2-2.3-3.5c0.1-1.9,0.2-3.8,0.4-5.6c0-0.5-0.7-0.5-0.8,0c-0.1,1.7-0.2,3.5-0.3,5.2c-0.1,1.4,0,2.9,1.1,4
			c0.9,0.9,2.3,1,3.3,0.1C320.4,259.3,320.7,257.9,320.5,256.5z"/>
	</g>
	<path class="st2" d="M353.7,218.2c-3.5-3-7.4-5.5-11.7-7.4c1-0.8,2-1.6,3-2.4c0.4-0.3,0-1-0.4-0.7c-1.2,0.9-2.3,1.8-3.4,2.7
		c-0.2-0.1-0.4-0.2-0.6-0.3c-0.5-0.2-0.7,0.6-0.2,0.7c0.1,0,0.1,0,0.2,0.1c-1.4,1.1-2.7,2.3-4.1,3.4c-1.3,1.1-2.6,2.3-3.9,3.5
		c-1,0.9-2.6,2.1-2.3,3.6c0,0.2,0.3,0.3,0.5,0.3c7.5-1.5,15-2.5,22.6-3C353.8,218.8,354,218.4,353.7,218.2z M332.2,219.5
		c0.6-0.5,1.1-1.1,1.7-1.6c1.2-1.1,2.4-2.2,3.6-3.2c1.3-1.1,2.6-2.2,3.9-3.3c4,1.7,7.8,4,11.1,6.8c-7.2,0.5-14.3,1.5-21.4,2.9
		C331.2,220.4,331.7,219.9,332.2,219.5z"/>
	<path class="st2" d="M358.9,241c-3.7-3.6-8-6.5-12.6-8.7l8.4-0.4c0.2,0,0.5-0.2,0.4-0.5c-2-4.8-5.9-8.7-10.7-10.7
		c-0.5-0.2-0.7,0.5-0.2,0.7c4.4,1.8,8,5.4,9.9,9.7c-3.7,0.2-7.4,0.4-11,0.5c-1.9,0.1-3.8,0.2-5.7,0.3c-1,0-1.9,0.1-2.9,0.1
		c-0.5,0-1,0.1-1.4,0.1c-0.2,0-0.6,0-0.7-0.2c2.7-3.9,5.6-7.6,8.8-11.1c0.3-0.4-0.2-0.9-0.5-0.5c-1.7,1.9-3.4,3.8-4.9,5.8
		c-0.8,1-1.5,2-2.3,3c-0.3,0.5-0.7,1-1,1.5c-0.2,0.2-0.3,0.5-0.5,0.7c-0.2,0.2-0.4,0.5-0.3,0.7c0.2,0.9,1.4,0.9,2,0.8
		c1.3-0.1,2.7-0.1,4-0.2c2.4-0.1,4.8-0.2,7.2-0.4c0,0,0.1,0.1,0.1,0.1c4.7,2.1,9.1,5,12.9,8.5c-7.6,0.6-15.2,1.2-22.7,1.8
		c1.9-3.5,4.4-6.6,7.5-9.1c0.4-0.3-0.2-0.8-0.5-0.5c-3.3,2.7-6.1,6.1-8,9.9c-0.1,0.2,0,0.6,0.3,0.6c8.1-0.7,16.2-1.3,24.3-2
		C359,241.7,359.2,241.3,358.9,241z"/>
	<path class="st2" d="M346.6,243.5c-0.2-0.4-0.9-0.3-0.7,0.2c1,2.5,0.4,5.4-1.4,7.4c-0.3-2.4-0.3-4.8,0.1-7.1
		c0.1-0.5-0.7-0.7-0.7-0.2c-0.5,2.7-0.5,5.5,0,8.2c0.1,0.3,0.4,0.3,0.6,0.2C346.8,250.1,347.7,246.4,346.6,243.5z"/>
	<g>
		<path class="st2" d="M382.4,210.8c-2.6-2.8-5.4-5.3-8.4-7.5c1.4-0.1,2.8-0.1,4.2-0.2c0.2,0,0.3-0.3,0.2-0.5
			c-1.4-1.5-2.6-3.2-3.6-5c-0.5-1-1.1-2.2-2-2.9c0.5,0,1.1-0.1,1.6-0.1c0.2,0,0.4-0.2,0.2-0.4c-1-1.4-2.4-2.5-4-3.2
			c0.2-0.1,0.4-0.3,0.7-0.4c0.3-0.2,0-0.6-0.3-0.5c-2,1.2-3.8,2.8-5.1,4.7c-0.1,0.2,0,0.4,0.2,0.4c1.9-0.1,3.9-0.3,5.8-0.4
			c1.3,0.6,2,2.3,2.7,3.5c0.9,1.5,1.9,2.9,3.1,4.3c-1.4,0.1-2.9,0.2-4.3,0.2c-0.2-0.1-0.3-0.2-0.4-0.3c-0.2-0.2-0.5,0.2-0.3,0.4
			c-2.9,0.1-5.7,0.2-8.6,0.2c1.2-2.7,3-5.2,5.2-7.2c0.3-0.2-0.1-0.6-0.4-0.4c-2.3,2.2-4.2,4.8-5.5,7.7c-0.1,0.2,0,0.4,0.2,0.4
			c1.3,0,2.6,0,3.9,0c-3.4,2-6.4,4.6-8.8,7.8c-0.1,0.2,0,0.4,0.2,0.4c6-0.1,12.1-0.2,18.1-0.3c1.7,0,3.4-0.1,5.2-0.1
			C382.4,211.3,382.5,211,382.4,210.8z M371.7,194.1c-0.2,0-0.3,0.1-0.3,0.2c-1.6,0.1-3.1,0.2-4.7,0.4c1-1.3,2.1-2.4,3.5-3.4
			c0,0,0.1,0.1,0.1,0.1c1.4,0.6,2.7,1.5,3.6,2.7c-0.6,0-1.3,0.1-1.9,0.1C371.9,194.2,371.8,194.2,371.7,194.1z M364.1,211.1
			c-1.5,0-3.1,0-4.6,0.1c2.3-3,5.2-5.5,8.5-7.3c0.1-0.1,0.2-0.2,0.1-0.3c1.7,0,3.4-0.1,5.1-0.2c3,2.2,5.8,4.7,8.4,7.4
			C375.7,210.9,369.9,211,364.1,211.1z"/>
		<path class="st2" d="M372,216.1c-0.2-1.3-0.9-2.5-0.9-3.9c0-0.3-0.5-0.3-0.5,0c-0.1,1.3,0.6,2.4,0.8,3.7c0.2,1,0,2.5-1.2,2.7
			c-1.3,0.2-1.6-1.5-1.6-2.4c0-1.3,0.2-2.6,0.3-3.9c0-0.3-0.5-0.3-0.5,0c-0.1,1.2-0.2,2.4-0.2,3.6c-0.1,1,0,2,0.7,2.8
			c0.6,0.6,1.6,0.7,2.3,0.1C371.9,218.1,372.2,217.1,372,216.1z"/>
	</g>
	<g>
		<path d="M288.9,147.3c-0.1,0.3-0.3,0.3-0.6,0.1c-0.5-0.5-0.8-1.6-0.1-3.6c1.2-3.1,6.5-11.9,10.1-16.7c0.3-0.4,0.6-0.6,1.1-0.2
			c1.3,1.1,1.6,2.3,0.8,4.9c-1.1,3.2-2.2,7-3.5,11.6c3.6-5.8,8.4-10.7,12-16.4c0.3-0.5,0.6-0.5,1-0.1c1.3,1.3,1,3.2,0.1,4.8
			c-2.3,4.3-5.6,10.9-7.2,15.6c-0.1,0.3-0.3,0.3-0.5,0.1c-0.5-0.4-0.9-1.4-0.4-3.6c0.5-1.9,2.6-6.5,4.7-10.6
			c-3.7,4.5-7.6,9.6-9.9,14c-0.2,0.3-0.3,0.4-0.6,0.2c-1.1-0.8-1.6-1.9-1.2-4c0.3-1.9,1.4-6.4,2.8-10.8
			C294.5,137,290.8,142.9,288.9,147.3z"/>
		<path d="M324.5,146.5c2,0,4.8-4.5,6.6-9.3c-2.6-0.9,0.5-5.4,1.8-5.5c1.1-0.1,0.8,1.9,0,4.1c1.2-0.1,2.4-0.7,3.7-1.5
			c0.4-0.3,0.7-0.4,0.9-0.1c0.7,0.8,1.5,2.3,0.5,3.4c-1.5,1.7-3.3,4.1-3.8,5.7c-0.6,1.8-0.2,3.2,0.8,3.2c1.4,0.1,3.1-2.1,4.1-4.5
			c0.1-0.3,0.4-0.3,0.5,0c0.2,0.4,0.2,1.2-0.2,2.1c-0.8,2-2.8,3.4-4.6,3.4c-2.5-0.1-3.5-2.3-2.7-5c0.7-2.3,2.7-4.7,4.1-6.3
			c-1.4,1-2.9,1.3-3.9,1.3c-1.8,4.3-4.6,9.9-8.1,10c-2.5,0.1-3.5-2.4-2.6-5.1c0.7-2.2,2.7-4.6,4.1-6.2c-1.4,0.9-2.9,1.2-3.9,1.2
			c-2.7,5.7-6.2,9.9-10.2,9.9c-4.2,0-5.6-4-3.4-8.2c2-4,5.4-5.9,7-5c0.8,0.5,1.4,1,1.9,1.7c0.5,0.8,0.2,2.7-1.1,4.4
			c-1.5,2-3.7,2.8-6,1c-1.1,3-0.2,5.1,1.4,5.1c3.6,0.2,7.2-5,9-9.1c-2.5-1.1,0.7-5.4,2-5.5c1.1,0,0.7,2-0.1,4.1
			c1.2-0.2,2.3-0.7,3.5-1.5c0.4-0.3,0.7-0.4,0.9-0.1c0.7,0.8,1.5,2.3,0.5,3.4c-1.5,1.7-3.2,4.1-3.7,5.7
			C323.1,145.2,323.5,146.5,324.5,146.5z M315.6,135.6c-0.7-0.6-3.4,1.4-4.9,4.5c-0.1,0.2-0.2,0.4-0.3,0.6c1.6,1,2.9-0.4,3.9-1.6
			C315.3,137.6,316,135.9,315.6,135.6z"/>
		<path d="M345.3,148.1c-1.8,4.4-4.2,9.7-6.9,10.7c-0.6,0.2-1.2,0.2-1.9-0.7c-0.7-1-1.3-2.1-0.7-4.1c1-3,3.8-4.9,7-6.2
			c0.3-0.8,0.7-1.6,1-2.4c-1,1.1-2.3,1.9-3.6,1.8c-2.4-0.2-2.4-2.6-1.7-4.8c0.7-2.1,2.3-5.4,4.5-8.3c0.3-0.4,0.6-0.3,0.8,0
			c0.8,1.1,0.6,2.4-0.6,4.4c-1.2,1.9-1.9,3.3-2.5,4.8c-0.7,1.6-0.6,2.8,0.2,2.8c1.3,0.1,2.9-2,4.6-4.9c1.4-2.4,2.8-5.4,4-7.1
			c0.3-0.4,0.5-0.5,0.8-0.2c0.5,0.6,0.7,2-0.1,3.7c-1,1.9-3,5.8-4.4,9c2.6-1.4,4.5-3.3,5.8-5.1c0.2-0.2,0.5-0.3,0.5,0.1
			c0.1,0.3,0,1.1-0.6,1.9C350.3,145.8,348,147,345.3,148.1z M337.2,157.1c0.4,0.6,3.1-3,5.2-7.8
			C338.1,151.7,336.6,156.2,337.2,157.1z"/>
		<path d="M371.9,140.2c0.8,2.2-1.3,4.7-2.7,5.7c-2.3,1.7-5.1,1.6-6.9,0.7c-1.5-0.8-2.8-2.8-2.8-5.5c-0.1-7,5.7-12.9,9.4-14.3
			c1.8-0.7,3.4-0.8,4.4,0.1c0.7,0.6,1.5,1.6,1.7,2.4c0.3,1,0.2,1.9-0.3,2.9s-1,2.3-1.3,3.3c-0.1,0.3-0.3,0.5-0.7,0.2
			c-0.8-0.5-1.3-1.5-0.8-3.2c0.5-1.7,1.7-3.6,1-4.4c-0.9-1-5.9,1.7-8.9,6.6c-2.9,4.8-2.6,9.7-1,11c2.1,1.7,5.6-0.5,8.1-5.4
			C371.4,139.8,371.8,139.8,371.9,140.2z"/>
		<path d="M381.9,147.4c-2.8,0-3.5-2-2.5-4.9c1.1-3.2,3.9-6.6,3.4-6.9c-0.5-0.3-4,2-5.9,5.1c-1.2,1.9-2.4,4.2-3.2,6.2
			c-0.1,0.3-0.4,0.4-0.6,0.1c-0.5-0.6-0.8-1.5-0.1-3.5c1.2-3.3,8-14.9,10.6-18.2c0.3-0.4,0.6-0.4,0.8,0c0.4,1,0.3,2.6-0.9,4.7
			c-0.8,1.3-2.5,4-3.9,6.2c1.3-1.3,3.1-2.4,3.9-2.3c1.1,0.1,2.1,1.8,1.3,3.5c-0.7,1.4-2.3,3.8-3.1,5.6c-0.8,1.9-0.7,3.5,0.6,3.4
			c1.3-0.1,3.2-2.4,4.2-4.5c0.1-0.3,0.5-0.3,0.6,0c0.2,0.4,0.2,1.1-0.3,2C385.9,145.8,383.9,147.4,381.9,147.4z"/>
		<path d="M394.9,135c0.4-0.3,0.7-0.3,0.9-0.1c0.6,0.7,1.4,2.1,0.5,3.2c-1.5,1.7-3.1,3.7-3.6,5.5c-0.5,1.7-0.1,3,0.8,3
			c1.3,0.1,2.9-2,3.9-4.3c0.1-0.3,0.3-0.3,0.5,0c0.2,0.4,0.2,1.2-0.2,2c-0.8,1.9-2.7,3.3-4.4,3.2c-2.4-0.1-3.3-2.3-2.5-4.7
			c0.7-2.2,2.6-4.5,3.9-6c-1.4,1-2.9,1.2-3.8,1.2c-1.2,2.3-4.4,7-5,10c-0.1,0.3-0.3,0.5-0.6,0.2c-1-1-1-2.5-0.1-4.2
			c0.8-1.4,3-4.5,4.2-6.3c-1.9-1.2,1-5.1,2.2-5.1c1,0,0.8,1.9-0.1,3.9C392.5,136.4,393.7,135.9,394.9,135z"/>
		<path d="M397,142.6c0.8-2.4,3-6.3,4.2-8c0.3-0.4,0.5-0.5,0.8-0.2c0.5,0.5,0.8,1.9,0,3.6c-0.7,1.4-2.1,3.7-2.8,5.3
			c-0.8,1.9-0.7,3.2,0.3,3.1c1.5-0.1,3.3-2.2,4.3-4.5c0.2-0.3,0.4-0.3,0.5,0c0.3,0.5,0.2,1.2-0.2,2c-1,2-3.1,3.4-4.9,3.4
			C396.7,147.4,396.1,145.3,397,142.6z M404.3,134c-0.4,0.5-1.3,0.4-1.8-0.5c-0.5-0.9-0.4-1.9,0.2-2.4s1.5-0.2,1.9,0.7
			C405,132.7,404.7,133.6,404.3,134z"/>
		<path d="M408.3,135.9c0.2-1.3,0.5-1.9,1.2-2.5c0.7-0.7,1.5-0.8,1.8-0.5c0.3,0.3,0.2,0.7-0.3,1.4c-0.1,0.2-0.2,0.4-0.4,0.6
			c-0.2,3,0.4,5.6,0.3,7.9c-0.1,1.3-0.3,2.7-1.5,3.5c2.2-0.8,3.6-2.8,4.4-4.6c0.2-0.4,0.5-0.3,0.6,0c0.1,0.3,0.1,1.2-0.5,2.2
			c-1.2,2.3-3.5,3.5-5.8,3.6c-1.9,0.1-3.7-0.4-4.9-2.5c-0.8-1.5-0.7-3.6,0.4-4.6c0.4-0.3,0.7-0.2,0.7,0.3c0,0.3,0,0.5,0.1,0.8
			C405.9,139.7,407.4,137.5,408.3,135.9z M404.8,143.3c0.5,1.9,1.4,3.3,2.5,2.9c1.5-0.5,1-5.6,0.9-8.2
			C407.3,139.7,406.1,141.5,404.8,143.3z"/>
		<path d="M415.1,133.3c-0.3-0.5-0.1-0.7,0.4-0.7c0.9,0,1.8,0,2.7-0.1c1-1.8,1.9-3.4,2.5-4.1c0.3-0.4,0.6-0.4,0.8,0
			c0.4,0.9,0.4,2-0.4,3.7c1.3,0,1.8,0.6,2,1c0.2,0.4,0.1,0.6-0.4,0.6c-0.7-0.1-1.7,0-2.6,0.1c-1.3,2.2-3.2,5.4-4.4,8.1
			c-1.1,2.4-0.7,4.4,0.7,4.5c1.5,0.1,3.4-2.3,4.6-4.7c0.2-0.4,0.6-0.5,0.7,0c0.2,0.5,0,1.1-0.3,1.9c-0.4,1-2.6,3.8-5.2,3.7
			c-2.2-0.1-3.9-2.5-2.3-6.3c0.7-1.6,2.1-4.4,3.5-7C416.2,134.1,415.4,133.6,415.1,133.3z"/>
		<path d="M430.5,134c1.1,0,1.7,1.8,1.3,3.2c1.6-1.5,3.8-3.1,4.9-3.1c1.2,0,1.4,2,0.8,3.6c-0.6,1.5-2.2,3.6-3,5.3
			c-0.9,1.9-0.5,3.4,0.7,3.4c1.3,0,2.8-2.2,4.1-4.5c0.2-0.3,0.4-0.3,0.6-0.1c0.2,0.2,0.1,1.3-0.3,2.1c-0.9,1.9-3,3.5-4.9,3.5
			c-2.9,0-3.9-2.3-2.7-5c1.2-2.7,4.1-6.4,3.6-6.6c-0.3-0.1-1.4,0.3-3.5,2.4c-2.7,2.7-4.3,5.9-5.7,9c-0.2,0.4-0.5,0.5-0.8,0.2
			c-0.6-0.5-1-1.8-0.1-4.1c1.1-2.7,4.6-7.3,4-7.5c-0.4-0.2-2,0.7-4.1,3c-1.9,2.1-3.5,5.2-4.8,8.2c-0.1,0.3-0.3,0.4-0.6,0.2
			c-0.7-0.6-0.9-1.7-0.3-3.4c0.7-2.1,3.1-6.7,5.2-9.8c0.2-0.4,0.5-0.3,0.7,0c0.6,0.9,0.5,2.2,0,3.5C426.8,135.9,429.3,134,430.5,134
			z"/>
		<path d="M450.6,134.2c0.3-0.4,0.6-0.5,0.8-0.2c0.5,0.6,0.8,2,0,3.6c-0.7,1.5-2.4,3.9-3.2,5.7c-0.8,1.8-0.9,3.3,0.3,3.2
			c1.3-0.1,3.2-2.3,4.3-4.6c0.2-0.3,0.4-0.3,0.5,0c0.1,0.3,0.1,1.1-0.3,2c-0.9,1.8-2.9,3.6-4.7,3.5c-1.8-0.1-2.7-1.2-2.7-2.7
			c-1.1,1.3-2.5,2.6-4.1,2.6c-3.1,0-3.7-4.2-1-8.1c2.7-3.9,5.3-5.4,6.9-5.4c1.4,0,2.1,1.1,2,2.4
			C449.8,135.4,450.2,134.7,450.6,134.2z M448,135.6c-1.1-0.1-3.5,2-5.3,5c-1.7,2.8-2.2,5.7-0.9,5.8c1.3,0,3.1-2.1,4.7-5
			C448.6,137.7,448.9,135.7,448,135.6z"/>
		<path d="M457.2,135.9c0.2-1.3,0.5-1.9,1.2-2.5c0.7-0.7,1.5-0.8,1.8-0.5c0.3,0.3,0.2,0.7-0.3,1.4c-0.1,0.2-0.2,0.4-0.4,0.6
			c-0.2,3,0.4,5.6,0.3,7.9c-0.1,1.3-0.3,2.7-1.5,3.5c2.2-0.8,3.6-2.8,4.4-4.6c0.2-0.4,0.5-0.3,0.6,0c0.1,0.3,0.1,1.2-0.5,2.2
			c-1.2,2.3-3.5,3.5-5.8,3.6c-1.9,0.1-3.7-0.4-4.9-2.5c-0.8-1.5-0.7-3.6,0.4-4.6c0.4-0.3,0.7-0.2,0.7,0.3c0,0.3,0,0.5,0.1,0.8
			C454.8,139.7,456.3,137.5,457.2,135.9z M453.7,143.3c0.5,1.9,1.4,3.3,2.5,2.9c1.5-0.5,1-5.6,0.9-8.2
			C456.2,139.7,455,141.5,453.7,143.3z"/>
	</g>
	<g>
		<path class="st2" d="M403.8,208.8c-1.8-1.9-3.8-3.7-5.9-5.3c1,0,2-0.1,3-0.2c0.2,0,0.2-0.2,0.1-0.3c-1-1.1-1.8-2.2-2.5-3.5
			c-0.4-0.7-0.8-1.5-1.4-2.1c0.4,0,0.7-0.1,1.1-0.1c0.1,0,0.2-0.2,0.2-0.3c-0.7-1-1.7-1.8-2.8-2.3c0.2-0.1,0.3-0.2,0.5-0.3
			c0.2-0.1,0-0.4-0.2-0.3c-1.4,0.8-2.7,2-3.6,3.3c-0.1,0.1,0,0.3,0.2,0.3c1.4-0.1,2.7-0.2,4.1-0.3c0.9,0.5,1.4,1.6,1.9,2.5
			c0.6,1.1,1.3,2.1,2.2,3c-1,0.1-2,0.1-3,0.2c-0.1-0.1-0.2-0.2-0.3-0.2c-0.2-0.1-0.3,0.1-0.2,0.3c-2,0.1-4,0.1-6,0.1
			c0.9-1.9,2.1-3.7,3.7-5.1c0.2-0.2-0.1-0.4-0.3-0.3c-1.7,1.5-3,3.4-3.9,5.4c-0.1,0.1,0,0.3,0.2,0.3c0.9,0,1.8,0,2.7,0
			c-2.4,1.4-4.5,3.3-6.2,5.5c-0.1,0.1,0,0.3,0.2,0.3c4.3-0.1,8.5-0.1,12.8-0.2c1.2,0,2.4,0,3.6-0.1
			C403.8,209.1,403.9,208.9,403.8,208.8z M396.2,197c-0.1,0-0.2,0-0.2,0.1c-1.1,0.1-2.2,0.2-3.3,0.3c0.7-0.9,1.5-1.7,2.4-2.4
			c0,0,0,0.1,0.1,0.1c1,0.4,1.9,1.1,2.6,1.9c-0.4,0-0.9,0.1-1.3,0.1C396.4,197,396.3,197,396.2,197z M390.9,208.9
			c-1.1,0-2.2,0-3.3,0.1c1.6-2.1,3.7-3.9,6-5.2c0.1-0.1,0.1-0.2,0.1-0.2c1.2,0,2.4-0.1,3.6-0.1c2.1,1.6,4.1,3.3,5.9,5.3
			C399.1,208.8,395,208.9,390.9,208.9z"/>
		<path class="st2" d="M396.5,212.5c-0.1-0.9-0.7-1.8-0.6-2.8c0-0.2-0.4-0.2-0.4,0c-0.1,0.9,0.4,1.7,0.6,2.6c0.1,0.7,0,1.8-0.9,1.9
			c-0.9,0.1-1.1-1.1-1.1-1.7c0-0.9,0.1-1.8,0.2-2.8c0-0.2-0.4-0.2-0.4,0c-0.1,0.8-0.1,1.7-0.2,2.5c0,0.7,0,1.4,0.5,1.9
			c0.5,0.4,1.1,0.5,1.6,0.1C396.4,213.9,396.6,213.2,396.5,212.5z"/>
	</g>
	<path class="st1" d="M265.6,627c0,0.7,0.1,1.3,0.3,2v-4C265.7,625.7,265.6,626.3,265.6,627z"/>
	<path class="st3" d="M265.9,628.9v64.4h64.5v-50.9C330.4,642.4,270.2,645.7,265.9,628.9z"/>
	<path class="st1" d="M485.7,627c0-20.8-75.8-77.5-75.8-77.5s60.7,4.3,60.7-5.8c0-10.1-59.6-65.9-59.6-65.9s31.2,2.7,31.2-4
		c0-6.7-58.1-78.5-83.6-51.8c0,0-42.7,44.6-46,50.6c-3.3,5.9,23,8.4,23,8.4s-53,50.2-54.5,60.2c-1.5,9.9,60.6,8.3,60.6,8.3
		s-71.2,54.7-75.9,75.5v4c4.3,16.7,64.5,13.5,64.5,13.5v50.9h95v-52.1C425.4,641.2,485.7,647.8,485.7,627z"/>
	<g>
		<g>
			<path class="st2" d="M640.6,64.2c-7.8,1-15.1,3.8-21.5,8.3c-3.7,2.6-12.8,8.9-9.5,14.4c1.2,2,3.6,2.8,5.6,3.5
				c4.3,1.4,9.2,2.3,13.7,2.2c6.5-0.2,12.8-3.1,15.8-9c0.6-1.1-0.4-2.2-1.3-2.7c-16.7-10.5-53.4,8.7-39,29.9
				c7.6,11.2,21.9,12.1,34,9.7c3.6-0.7,10.5-1.9,10.2-6.9c-0.3-4.2-5.1-5.7-8.6-5.9c-13.3-0.7-29,1.2-40.5,8.1
				c-5.2,3.2-21,16.4-11.5,22.4c5,3.2,14,3.3,19.8,3.9c7.9,0.8,15.8,1,23.7,0.6c7.9-0.4,15.8-1.4,23.5-3c3.9-0.8,10.7-1.9,11.7-6.8
				c0.9-4.6-4.5-5.9-7.9-5.9c-7.4-0.1-14.9,0.3-22.3,1c-14.2,1.5-28.6,5-40.9,12.5c-10.5,6.4-19.6,15.4-24.6,26.8
				c-2,4.6-4,10.4,0.1,14.4c3.8,3.7,10.3,4,15.3,4.8c15.7,2.3,31.6,2.5,47.3,0.7c7.9-0.9,16-2.3,23.7-4.4c4.4-1.2,9.5-3.1,11.7-7.4
				c2.1-4.1,0.4-8.7-2.9-11.6c-4.6-4.1-11-4.1-16.9-3.8c-12.9,0.8-25.6,3.9-37.5,9c-12.2,5.2-23.6,12.6-33.3,21.8
				c-3.1,3-10.4,8.3-8.7,13.4c1.5,4.7,8.5,5.5,12.4,6.4c15.6,3.7,31.7,5.4,47.8,5.1c13.4-0.2,28.2-0.8,40.6-6.4
				c5.2-2.4,9.6-5.8,12.9-10.4c1.1-1.5-1.3-3-2.5-3.1c-38.4-4-77.8,3.7-111.6,22.2c-5.1,2.8-16.3,7.3-15.6,14.7
				c0.7,7.4,13,9.4,18.5,10.8c19.1,5,39.1,4.7,58.7,2.9c22.1-2,46-3.9,66.1-13.9c0.9-0.4,1-1.3,0.7-2.2c-3.4-8.2-14.4-6.2-21.4-5.8
				c-13,0.8-25.9,1.7-38.9,2.8c-18.9,1.6-40,4.8-53,20.2c-1.2,1.4,0.2,2.9,1.6,3.4c9.7,3.3,19.4,6.4,29,9.9c3.4,1.2,6.9,2.5,7.6,6.3
				c0.5,2.6,0.3,5.3,0,7.9c-0.5,6.1-1.7,12.1-2.2,18.2c-0.4,3.9-1,8.9,0.9,12.6c2.8,5.4,9.1,4.4,14.2,4.6c6,0.2,10.5,0.3,10.7-7
				c0.2-5.8-0.8-11.8-0.8-17.6c0-6.3,0-12.7,0.7-19c0.4-3.6,0.9-8.4,3.9-10.9c3.5-2.9,11.3-1.2,15.9-2c8.7-1.5,16.6-5.7,22.9-11.9
				c1.9-1.8-2-4.7-3.6-3c-6.2,6.1-14,10.1-22.6,11.3c-6.4,0.8-13.9-1.5-18.1,5c-2.9,4.5-3,10.5-3.3,15.6c-0.3,6.2-0.4,12.5-0.2,18.7
				c0.1,2.6,0.1,5.2,0.3,7.7c0.1,1.2,0.3,2.4,0.3,3.6c0.2,3.5-0.4,5.3-4.4,5.8c-2.4,0.3-6.6,0.3-9-0.3c-3.8-0.9-3.7-4-3.6-7.3
				c0.1-10.4,4.1-21,2.5-31.4c-0.9-5.7-5.3-8.4-10.4-10.3c-10-3.7-20.3-6.9-30.4-10.3c0.5,1.1,1,2.3,1.6,3.4
				c11.2-13.3,28.7-17,45.2-18.8c9.5-1,19-1.6,28.5-2.2c5.4-0.4,10.9-0.7,16.3-1.1c4-0.3,13.3-2.3,15.3,2.7c0.2-0.7,0.5-1.4,0.7-2.2
				c-15.8,7.9-33.5,10-50.8,12c-17.9,2.1-35.9,3.7-53.9,1.8c-8.9-1-17.7-2.8-26.1-5.9c-3.2-1.2-5.9-2.8-4.1-6.6c1-2,3.5-3.4,5.4-4.5
				c3.6-2.2,7.4-4.3,11.2-6.3c15.3-7.9,31.6-13.7,48.5-17.1c18.8-3.9,38.1-4.7,57.2-2.7c-0.8-1-1.6-2.1-2.5-3.1
				c-5.8,7.9-15.3,11.2-24.6,12.9c-10.9,1.9-22.1,2.5-33.1,2.2c-11.5-0.3-23-1.5-34.3-3.9c-2.8-0.6-5.6-1.2-8.3-1.9
				c-0.7-0.2-3.3-0.6-3.6-1.1c-1-1.6,0.4-4.2,1.1-5.4c2.3-3.7,6.9-7,10.3-9.8c14.6-12.3,32.5-20.7,51.4-24.1c4.5-0.8,9-1.4,13.5-1.6
				c5.2-0.2,17.5,1.7,12.7,9.8c-2.5,4.2-9,5.3-13.2,6.3c-5.5,1.3-11,2.3-16.6,3c-11,1.5-22.1,1.8-33.1,1.2
				c-5.3-0.3-10.6-0.9-15.9-1.6c-2.7-0.4-5.8-0.6-8.4-1.6c-5.5-2.1-4.1-6.7-2.4-10.8c7.2-17.3,24-28.8,41.4-34.1
				c10.7-3.3,21.9-4.6,33.1-5c2.4-0.1,4.8-0.1,7.3-0.2c0.1,0,3.3-0.3,3.6,0c2.3,1.9,0,2.8-1.4,3.4c-4.9,2.3-11.6,2.7-16.9,3.4
				c-11.3,1.5-22.8,1.7-34.1,0.5c-2.5-0.2-5-0.5-7.5-0.9c-2.3-0.3-6.7-0.3-8.6-1.6c-0.4-0.1-0.8-0.2-1.2-0.3
				c-0.8-1.4-0.9-2.7-0.2-3.9c0.3-0.9,0.9-1.7,1.4-2.5c1.3-2.1,3-4,4.8-5.7c8.8-8,20.7-10.4,32.2-11.3c3.4-0.3,7-0.6,10.4-0.5
				c0.7,0,2.6-0.1,3,0.3c-0.1,1.1-0.3,2.2-0.4,3.3c-0.9,0.4-1.8,0.7-2.8,0.9c-6.6,1.8-14.1,2.7-20.7,0.7
				c-11.8-3.5-17.1-16.9-7.6-25.9c7.1-6.7,21.9-12.2,30.8-6.6c-0.4-0.9-0.8-1.8-1.3-2.7c-2.5,4.8-7.2,7.1-12.5,7.3
				c-3.5,0.1-7-0.5-10.4-1.4c-0.7-0.2-3-0.5-3.5-1.1c-1.2-1.7,1.1-3.8,2-4.9c6.9-7.4,16.3-11.8,26.2-13.1
				C645.3,67.7,642.9,63.9,640.6,64.2L640.6,64.2z"/>
		</g>
	</g>
	<g>
		<g>
			<path class="st2" d="M633.8,69.3c0-4.3,0-8.6,0-12.9c0-0.2-0.5-0.6-0.6-0.7c-0.4-0.3-0.9-0.6-1.3-0.8c-0.3-0.1-1.6-0.7-1.6-0.1
				c0,4.3,0,8.6,0,12.9c0,0.2,0.5,0.6,0.6,0.7c0.4,0.3,0.9,0.6,1.3,0.8C632.6,69.4,633.8,70,633.8,69.3L633.8,69.3z"/>
		</g>
	</g>
	<g>
		<g>
			<path class="st2" d="M636.1,56.1c0.3,2.9,0.6,5.8,0.8,8.7c0.1,0.8,0.1,1.6,0.5,2.3c0.5,0.9,1.7,1.8,2.8,1.2
				c0.8-0.5,1-1.6,0.7-2.4c-0.3-1-1.6-2.3-2.7-1.6c-0.8,0.5-0.9,1.7-0.5,2.5c0.4,0.7,1.5,1.6,2.3,1c-0.1,0-0.2,0.1-0.3,0.1
				c-0.3,0-0.6-0.1-0.9-0.1c0,0,0,0,0,0c-0.3-0.2-0.5-0.4-0.8-0.6c0,0,0,0,0,0c-0.2-0.3-0.3-0.6-0.5-0.9c-0.2-0.7,0.1-1.3,0.9-1.7
				c0.3,0,0.6,0.1,0.9,0.1c0.7,1.2,1,1.6,0.8,1c0,0.1,0,0.2,0,0.2c-0.1-0.2,0-0.5-0.1-0.7c0-0.4-0.1-0.8-0.1-1.2
				c-0.1-0.8-0.2-1.7-0.2-2.5c-0.2-1.7-0.3-3.3-0.5-5c-0.1-0.9-0.8-2.1-1.8-2.2C636.7,54.3,636,55.1,636.1,56.1L636.1,56.1z"/>
		</g>
	</g>
	<g>
		<g>
			<path class="st2" d="M630.7,34.7c-4.4,8.5-7.7,17.6-9.8,27c-0.3,1.4,2.5,2.2,3.5,1.5c10.4-7.4,20.6-15.1,30.7-22.9
				c0.4-0.3,0.6-0.7,0.3-1.1c-1.4-2.4-4.5-2.8-7.1-2.5c-3.6,0.4-7.2,1.2-10.7,1.8c-7.3,1.2-14.6,2.4-21.8,3.6c-2,0.3-1,2,0.4,2.4
				c4.5,1.2,8.8,3.5,12.9,5.8c4.4,2.5,8.7,5.2,12.7,8.3c0.8,0.6,1.5,1.4,2.3,1.9c1.2,0.8,3.4,1.3,4.6,0.1c1.3-1.4,0.6-4,0-5.6
				c-1.6-4.4-4.7-8.2-7.4-12c-2.7-3.7-6.3-8.1-6.6-12.8c-0.1-1.5-4-2.2-3.9-0.4c0.2,3.9,2.7,7.6,4.9,10.8c2.6,3.8,5.5,7.3,7.8,11.4
				c0.9,1.6,1.7,3.3,1.9,5.2c0.1,0.5-0.1,1,0,1.4c0,0,0,0.1,0,0.1c-0.3,0.5,0.1,0.6,0.9,0.3c0-0.1-0.4-0.3-0.5-0.4
				c-0.8-0.7-1.6-1.3-2.4-1.9c-3.9-3-8.1-5.6-12.3-8c-4.5-2.5-9.2-5-14.2-6.3c0.1,0.8,0.3,1.6,0.4,2.4c6.3-1,12.6-2.1,18.9-3.1
				c3.1-0.5,6.2-1,9.3-1.6c1.4-0.2,2.9-0.5,4.3-0.7c0.6-0.1,1.6-0.3,2,0.3c0.1-0.4,0.2-0.8,0.3-1.1c-10.1,7.8-20.3,15.5-30.7,22.9
				c1.2,0.5,2.3,1,3.5,1.5c2.1-9.4,5.4-18.5,9.8-27C635.3,34.4,631.5,33.2,630.7,34.7L630.7,34.7z"/>
		</g>
	</g>
	<g>
		<path d="M577.7,328.5c-0.1,0.2-0.2,0.2-0.3,0c-0.3-0.3-0.5-1,0-2.2c0.7-1.9,4-7.2,6.1-10.1c0.2-0.3,0.4-0.3,0.6-0.1
			c0.8,0.7,1,1.4,0.5,2.9c-0.6,1.9-1.4,4.2-2.1,7c2.2-3.5,5.1-6.5,7.3-9.9c0.2-0.3,0.3-0.3,0.6-0.1c0.8,0.8,0.6,1.9,0.1,2.9
			c-1.4,2.6-3.4,6.6-4.4,9.5c-0.1,0.2-0.2,0.2-0.3,0.1c-0.3-0.3-0.6-0.9-0.2-2.2c0.3-1.2,1.6-4,2.9-6.4c-2.3,2.7-4.6,5.8-6,8.4
			c-0.1,0.2-0.2,0.3-0.4,0.1c-0.7-0.5-1-1.2-0.8-2.4c0.2-1.1,0.8-3.9,1.7-6.5C581.1,322.3,578.8,325.8,577.7,328.5z"/>
		<path d="M599.2,328c1.2,0,2.9-2.7,4-5.6c-1.6-0.6,0.3-3.2,1.1-3.3c0.7,0,0.5,1.2,0,2.5c0.7-0.1,1.5-0.4,2.2-0.9
			c0.2-0.2,0.4-0.2,0.6-0.1c0.4,0.5,0.9,1.4,0.3,2c-0.9,1.1-2,2.5-2.3,3.4c-0.3,1.1-0.1,1.9,0.5,1.9c0.8,0,1.8-1.3,2.5-2.7
			c0.1-0.2,0.3-0.2,0.3,0c0.1,0.2,0.1,0.7-0.1,1.3c-0.5,1.2-1.7,2-2.8,2c-1.5,0-2.1-1.4-1.6-3c0.4-1.4,1.6-2.8,2.5-3.8
			c-0.9,0.6-1.7,0.8-2.4,0.8c-1.1,2.6-2.8,6-4.9,6.1c-1.5,0.1-2.1-1.5-1.6-3.1c0.4-1.3,1.6-2.8,2.5-3.7c-0.9,0.6-1.8,0.8-2.4,0.8
			c-1.6,3.5-3.8,6-6.1,6c-2.5,0-3.4-2.4-2.1-4.9c1.2-2.4,3.3-3.6,4.3-3c0.5,0.3,0.9,0.6,1.2,1c0.3,0.5,0.1,1.6-0.7,2.7
			c-0.9,1.2-2.3,1.7-3.7,0.6c-0.6,1.8-0.1,3.1,0.9,3.1c2.2,0.1,4.4-3,5.4-5.5c-1.5-0.6,0.4-3.3,1.2-3.3c0.6,0,0.4,1.2-0.1,2.5
			c0.7-0.1,1.4-0.4,2.1-0.9c0.2-0.2,0.4-0.3,0.6-0.1c0.4,0.5,0.9,1.4,0.3,2c-0.9,1-1.9,2.5-2.3,3.5C598.4,327.2,598.6,328,599.2,328
			z M593.8,321.4c-0.4-0.4-2.1,0.9-3,2.7c-0.1,0.1-0.1,0.2-0.2,0.3c1,0.6,1.7-0.2,2.3-1C593.6,322.6,594,321.6,593.8,321.4z"/>
		<path d="M611.8,329c-1.1,2.7-2.5,5.9-4.2,6.5c-0.4,0.1-0.8,0.1-1.1-0.4c-0.4-0.6-0.8-1.3-0.4-2.5c0.6-1.8,2.3-3,4.3-3.8
			c0.2-0.5,0.4-1,0.6-1.4c-0.6,0.6-1.4,1.2-2.2,1.1c-1.4-0.1-1.5-1.6-1-2.9c0.4-1.3,1.4-3.2,2.7-5c0.2-0.2,0.4-0.2,0.5,0
			c0.5,0.6,0.4,1.5-0.4,2.6c-0.7,1.2-1.2,2-1.5,2.9c-0.4,1-0.4,1.7,0.1,1.7c0.8,0.1,1.8-1.2,2.8-2.9c0.9-1.5,1.7-3.3,2.4-4.3
			c0.2-0.3,0.3-0.3,0.5-0.1c0.3,0.4,0.4,1.2-0.1,2.2c-0.6,1.2-1.8,3.5-2.6,5.5c1.5-0.8,2.7-2,3.5-3.1c0.1-0.1,0.3-0.2,0.3,0
			c0,0.2,0,0.6-0.4,1.2C614.8,327.6,613.4,328.3,611.8,329z M606.9,334.4c0.3,0.4,1.9-1.8,3.1-4.7
			C607.4,331.2,606.5,333.9,606.9,334.4z"/>
		<path d="M627.9,324.2c0.5,1.3-0.8,2.8-1.6,3.4c-1.4,1-3.1,1-4.2,0.4c-0.9-0.5-1.7-1.7-1.7-3.3c-0.1-4.2,3.5-7.8,5.7-8.7
			c1.1-0.4,2-0.5,2.7,0.1c0.4,0.4,0.9,1,1.1,1.5c0.2,0.6,0.1,1.1-0.2,1.7c-0.3,0.6-0.6,1.4-0.8,2c-0.1,0.2-0.2,0.3-0.4,0.1
			c-0.5-0.3-0.8-0.9-0.5-1.9c0.3-1.1,1-2.2,0.6-2.7c-0.6-0.6-3.6,1-5.4,4c-1.7,2.9-1.6,5.8-0.6,6.6c1.3,1,3.4-0.3,4.9-3.3
			C627.6,323.9,627.8,323.9,627.9,324.2z"/>
		<path d="M633.9,328.6c-1.7,0-2.1-1.2-1.5-2.9c0.7-1.9,2.4-4,2.1-4.2c-0.3-0.2-2.4,1.2-3.6,3.1c-0.7,1.2-1.5,2.6-1.9,3.8
			c-0.1,0.2-0.2,0.2-0.3,0.1c-0.3-0.4-0.5-0.9-0.1-2.1c0.7-2,4.8-9,6.4-11c0.2-0.2,0.4-0.2,0.5,0c0.3,0.6,0.2,1.6-0.6,2.8
			c-0.5,0.8-1.5,2.4-2.4,3.7c0.8-0.8,1.8-1.5,2.4-1.4c0.7,0.1,1.3,1.1,0.8,2.1c-0.4,0.9-1.4,2.3-1.8,3.4c-0.5,1.2-0.4,2.1,0.3,2
			c0.8,0,1.9-1.5,2.5-2.7c0.1-0.2,0.3-0.2,0.4,0c0.1,0.2,0.1,0.6-0.2,1.2C636.3,327.6,635.1,328.6,633.9,328.6z"/>
		<path d="M641.7,321.1c0.2-0.2,0.4-0.2,0.5,0c0.4,0.4,0.9,1.3,0.3,1.9c-0.9,1-1.9,2.3-2.2,3.3c-0.3,1-0.1,1.8,0.5,1.8
			c0.8,0,1.7-1.2,2.4-2.6c0.1-0.2,0.2-0.2,0.3,0c0.1,0.2,0.1,0.7-0.1,1.2c-0.5,1.2-1.6,2-2.7,1.9c-1.4-0.1-2-1.4-1.5-2.9
			c0.4-1.3,1.6-2.7,2.4-3.6c-0.9,0.6-1.7,0.8-2.3,0.8c-0.8,1.4-2.7,4.2-3,6c0,0.2-0.2,0.3-0.3,0.1c-0.6-0.6-0.6-1.5,0-2.5
			c0.5-0.9,1.8-2.7,2.5-3.8c-1.1-0.7,0.6-3.1,1.3-3.1c0.6,0,0.5,1.1,0,2.4C640.3,321.9,641,321.6,641.7,321.1z"/>
		<path d="M643,325.6c0.5-1.5,1.8-3.8,2.5-4.8c0.2-0.2,0.3-0.3,0.5-0.1c0.3,0.3,0.5,1.2,0,2.2c-0.4,0.9-1.3,2.2-1.7,3.2
			c-0.5,1.2-0.4,1.9,0.2,1.9c0.9,0,2-1.4,2.6-2.7c0.1-0.2,0.2-0.2,0.3,0c0.2,0.3,0.1,0.7-0.1,1.2c-0.6,1.2-1.8,2.1-3,2.1
			C642.8,328.6,642.5,327.3,643,325.6z M647.4,320.5c-0.3,0.3-0.8,0.2-1.1-0.3c-0.3-0.5-0.2-1.1,0.1-1.5c0.3-0.3,0.9-0.1,1.2,0.4
			C647.8,319.6,647.7,320.2,647.4,320.5z"/>
		<path d="M649.9,321.6c0.1-0.8,0.3-1.2,0.7-1.5c0.4-0.4,0.9-0.5,1.1-0.3c0.2,0.2,0.1,0.4-0.2,0.9c-0.1,0.1-0.1,0.2-0.2,0.4
			c-0.1,1.8,0.2,3.4,0.2,4.7c0,0.8-0.2,1.6-0.9,2.1c1.3-0.5,2.2-1.7,2.7-2.8c0.1-0.2,0.3-0.2,0.4,0c0.1,0.2,0.1,0.7-0.3,1.3
			c-0.8,1.4-2.1,2.1-3.5,2.2c-1.2,0-2.3-0.3-2.9-1.5c-0.5-0.9-0.4-2.2,0.3-2.8c0.2-0.2,0.4-0.1,0.4,0.2c0,0.2,0,0.3,0,0.5
			C648.4,323.9,649.3,322.6,649.9,321.6z M647.8,326.1c0.3,1.2,0.9,2,1.5,1.8c0.9-0.3,0.6-3.4,0.5-5
			C649.3,323.9,648.5,325,647.8,326.1z"/>
		<path d="M654,320c-0.2-0.3-0.1-0.4,0.2-0.4c0.6,0,1.1,0,1.6-0.1c0.6-1.1,1.2-2,1.5-2.5c0.2-0.3,0.4-0.2,0.5,0
			c0.2,0.6,0.2,1.2-0.3,2.2c0.8,0,1.1,0.3,1.2,0.6c0.1,0.2,0.1,0.4-0.2,0.4c-0.4-0.1-1.1,0-1.6,0.1c-0.8,1.3-1.9,3.3-2.7,4.9
			c-0.7,1.5-0.4,2.7,0.4,2.7c0.9,0,2-1.4,2.8-2.9c0.1-0.2,0.3-0.3,0.4,0c0.1,0.3,0,0.7-0.2,1.1c-0.3,0.6-1.6,2.3-3.2,2.3
			c-1.3,0-2.4-1.5-1.4-3.8c0.4-1,1.3-2.7,2.1-4.2C654.6,320.5,654.2,320.2,654,320z"/>
		<path d="M663.3,320.4c0.7,0,1,1.1,0.8,1.9c1-0.9,2.3-1.9,2.9-1.8c0.7,0,0.9,1.2,0.5,2.2c-0.4,0.9-1.3,2.2-1.8,3.2
			c-0.6,1.1-0.3,2,0.4,2c0.8,0,1.7-1.3,2.5-2.7c0.1-0.2,0.3-0.2,0.4,0c0.1,0.1,0,0.8-0.2,1.3c-0.6,1.1-1.8,2.1-3,2.1
			c-1.7,0-2.4-1.4-1.6-3c0.7-1.6,2.5-3.9,2.2-4c-0.2-0.1-0.8,0.2-2.1,1.5c-1.6,1.6-2.6,3.6-3.5,5.4c-0.1,0.2-0.3,0.3-0.5,0.1
			c-0.3-0.3-0.6-1.1,0-2.5c0.7-1.6,2.8-4.4,2.4-4.5c-0.2-0.1-1.2,0.4-2.5,1.8c-1.2,1.3-2.1,3.1-2.9,5c-0.1,0.2-0.2,0.3-0.4,0.1
			c-0.4-0.4-0.5-1-0.2-2c0.4-1.3,1.9-4.1,3.1-5.9c0.1-0.2,0.3-0.2,0.4,0c0.3,0.6,0.3,1.3,0,2.1C661.1,321.6,662.6,320.4,663.3,320.4
			z"/>
		<path d="M675.4,320.6c0.2-0.3,0.3-0.3,0.5-0.1c0.3,0.4,0.5,1.2,0,2.2c-0.4,0.9-1.4,2.4-1.9,3.4c-0.5,1.1-0.5,2,0.2,1.9
			c0.8,0,1.9-1.4,2.6-2.8c0.1-0.2,0.2-0.2,0.3,0c0.1,0.2,0.1,0.7-0.2,1.2c-0.5,1.1-1.8,2.2-2.9,2.1c-1.1-0.1-1.6-0.7-1.6-1.6
			c-0.6,0.8-1.5,1.6-2.5,1.6c-1.8,0-2.2-2.5-0.6-4.9c1.6-2.3,3.2-3.2,4.2-3.2c0.9,0,1.3,0.7,1.2,1.4
			C675,321.3,675.2,320.9,675.4,320.6z M673.9,321.4c-0.6-0.1-2.1,1.2-3.2,3c-1.1,1.7-1.3,3.5-0.5,3.5c0.8,0,1.8-1.3,2.9-3
			C674.2,322.7,674.4,321.5,673.9,321.4z"/>
		<path d="M679.4,321.6c0.1-0.8,0.3-1.2,0.7-1.5c0.4-0.4,0.9-0.5,1.1-0.3c0.2,0.2,0.1,0.4-0.2,0.9c-0.1,0.1-0.1,0.2-0.2,0.4
			c-0.1,1.8,0.2,3.4,0.2,4.7c0,0.8-0.2,1.6-0.9,2.1c1.3-0.5,2.2-1.7,2.7-2.8c0.1-0.2,0.3-0.2,0.4,0c0.1,0.2,0.1,0.7-0.3,1.3
			c-0.8,1.4-2.1,2.1-3.5,2.2c-1.2,0-2.3-0.3-2.9-1.5c-0.5-0.9-0.4-2.2,0.3-2.8c0.2-0.2,0.4-0.1,0.4,0.2c0,0.2,0,0.3,0,0.5
			C678,323.9,678.9,322.6,679.4,321.6z M677.3,326.1c0.3,1.2,0.9,2,1.5,1.8c0.9-0.3,0.6-3.4,0.5-5
			C678.8,323.9,678.1,325,677.3,326.1z"/>
	</g>
	<g>
		<g>
			<path class="st2" d="M515.1,416.5c6.6,4.2,13.6,7.9,20.5,11.5c16.9,8.6,34.6,15.8,52.7,21.5c11.2,3.5,22.7,6.4,34.3,8.5
				c12.7,2.3,25.5,3.6,38.3,4.6c18.1,1.4,36.3,1.9,54.4,0.5c4.7-0.4,9.5-0.9,14.1-1.6c1.3-0.2,2.7-0.5,4-0.7
				c0.6-0.1,1.3-0.2,1.9-0.4c0.1,0,0.2,0,0.2-0.1c0.7-0.2-0.2-1.1-0.7-0.9c-5.2,1.4-10.7,1.9-16,2.4c-16.6,1.6-33.3,1.4-49.9,0.4
				c-12.6-0.7-25.1-1.9-37.6-3.7c-12-1.7-23.8-4.4-35.5-7.7c-19.1-5.4-37.6-12.6-55.4-21.3c-8.5-4.1-16.7-8.6-24.8-13.5
				c-0.1-0.1-0.2-0.1-0.3-0.2C514.8,415.3,514.4,416.1,515.1,416.5L515.1,416.5z"/>
		</g>
	</g>
	<g>
		<g>
			<path class="st2" d="M533,426.6c1.3,5.8,2.5,11.7,3.8,17.5c0.2,0.8,0.4,1.7,0.6,2.5c0.1,0.4,0.8,0.1,1,0
				c4.9-2.9,9.8-5.8,14.7-8.8c0.7-0.4,1.4-0.8,2.1-1.3c0.7-0.4-0.4-0.6-0.8-0.3c-4.9,2.9-9.8,5.8-14.7,8.8c-0.7,0.4-1.4,0.8-2.1,1.3
				c0.3,0,0.7,0,1,0c-1.3-5.8-2.5-11.7-3.8-17.5c-0.2-0.8-0.4-1.7-0.6-2.5C534.1,425.8,532.9,426.2,533,426.6L533,426.6z"/>
		</g>
	</g>
	<g>
		<g>
			<path class="st2" d="M567.6,442.7c1.9,5.7,3.8,11.3,5.7,17c0.3,0.8,0.6,1.6,0.8,2.5c0.1,0.4,0.7,0.4,1,0.1
				c4.6-3.4,9.1-6.9,13.7-10.3c0.7-0.5,1.3-1,2-1.5c0.7-0.5-0.3-1-0.8-0.6c-4.6,3.4-9.1,6.9-13.7,10.3c-0.7,0.5-1.3,1-2,1.5
				c0.3,0,0.7,0.1,1,0.1c-1.9-5.7-3.8-11.3-5.7-17c-0.3-0.8-0.5-1.6-0.8-2.5C568.6,441.8,567.4,442.2,567.6,442.7L567.6,442.7z"/>
		</g>
	</g>
	<g>
		<g>
			<path class="st2" d="M604,453.6c2.2,6.1,4.5,12.1,6.7,18.2c0.1,0.3,0.9,0.2,1.1,0c4.7-3.9,9.5-7.8,14.2-11.7
				c0.7-0.6,1.4-1.1,2-1.7c0.4-0.3-0.8-0.5-1.1-0.2c-4.7,3.9-9.5,7.8-14.2,11.7c-0.7,0.6-1.4,1.1-2,1.7c0.4,0,0.8,0,1.1,0
				c-2.2-6.1-4.5-12.1-6.7-18.2C605.1,453.1,603.8,453.2,604,453.6L604,453.6z"/>
		</g>
	</g>
	<g>
		<polyline class="st0" points="644.2,460.8 655.2,478.1 667.5,463 		"/>
		<g>
			<path class="st2" d="M643.7,461.1c3.2,5,6.4,10.1,9.6,15.1c0.5,0.7,0.9,1.5,1.4,2.2c0.2,0.4,0.8,0.2,1.1-0.1
				c4.1-5.1,8.3-10.1,12.4-15.2c0.5-0.6-0.7-0.9-1-0.4c-4.1,5.1-8.3,10.1-12.4,15.2c0.4,0,0.7-0.1,1.1-0.1c-3.2-5-6.4-10.1-9.6-15.1
				c-0.5-0.7-0.9-1.5-1.4-2.2C644.4,460,643.3,460.5,643.7,461.1L643.7,461.1z"/>
		</g>
	</g>
	<g>
		<g>
			<path class="st2" d="M685.5,464.3c3.6,5.4,7.2,10.7,10.8,16.1c0.2,0.3,1,0.2,1.2-0.1c3.7-4.9,7.4-9.8,11.1-14.7
				c0.5-0.7,1.1-1.4,1.6-2.1c0.2-0.3-1-0.4-1.2-0.1c-3.7,4.9-7.4,9.8-11.1,14.7c-0.5,0.7-1.1,1.4-1.6,2.1c0.4,0,0.8,0,1.2-0.1
				c-3.6-5.4-7.2-10.7-10.8-16.1C686.5,463.7,685.3,463.9,685.5,464.3L685.5,464.3z"/>
		</g>
	</g>
	<g>
		<g>
			<path class="st2" d="M536.5,470.2c3.1,5.1,6.2,10.2,9.3,15.4c0.4,0.7,0.9,1.5,1.3,2.2c0.2,0.4,0.9,0,1.1-0.2
				c4.2-5,8.5-9.9,12.7-14.9c0.3-0.4-0.9-0.3-1.1,0c-4.2,5-8.5,9.9-12.7,14.9c0.4-0.1,0.7-0.2,1.1-0.2c-3.1-5.1-6.2-10.2-9.3-15.4
				c-0.4-0.7-0.9-1.5-1.3-2.2C537.5,469.4,536.3,469.8,536.5,470.2L536.5,470.2z"/>
		</g>
	</g>
	<g>
		<g>
			<path class="st2" d="M574.6,474.3c3.6,4.7,7.2,9.5,10.8,14.2c0.5,0.7,1.1,1.4,1.6,2.1c0.2,0.2,0.8,0.4,1,0.1
				c3.7-5.4,7.3-10.8,11-16.2c0.4-0.6-0.7-1.2-1-0.7c-3.7,5.4-7.3,10.8-11,16.2c0.3,0,0.6,0.1,1,0.1c-3.6-4.7-7.2-9.5-10.8-14.2
				c-0.5-0.7-1.1-1.4-1.6-2.1C575.1,473.3,574.1,473.7,574.6,474.3L574.6,474.3z"/>
		</g>
	</g>
	<g>
		<g>
			<path class="st2" d="M612.6,473.1c4.1,5,8.1,10,12.2,15c0.3,0.4,0.9,0,1-0.3c3.2-5.2,6.4-10.5,9.7-15.7c0.5-0.7,0.9-1.5,1.4-2.2
				c0.4-0.7-0.8-0.8-1.1-0.2c-3.2,5.2-6.4,10.5-9.7,15.7c-0.5,0.7-0.9,1.5-1.4,2.2c0.3-0.1,0.7-0.2,1-0.3c-4.1-5-8.1-10-12.2-15
				C613.2,471.8,612.1,472.5,612.6,473.1L612.6,473.1z"/>
		</g>
	</g>
	<g>
		<g>
			<path class="st2" d="M705.1,452.4c3.8,2.6,7.5,5.2,11.3,7.9c0.5,0.4,1.1,0.8,1.6,1.1c0.2,0.1,1.1,0.2,1.2-0.1
				c1.3-4.8,2.7-9.6,4-14.4c0.2-0.7,0.4-1.4,0.6-2.1c0-0.1-1.2-0.2-1.2,0.1c-1.3,4.8-2.7,9.6-4,14.4c-0.2,0.7-0.4,1.4-0.6,2.1
				c0.4,0,0.8-0.1,1.2-0.1c-3.8-2.6-7.5-5.2-11.3-7.9c-0.5-0.4-1.1-0.8-1.6-1.1C706,452,705,452.4,705.1,452.4L705.1,452.4z"/>
		</g>
	</g>
	<polygon class="st6" points="875,56.9 903.9,122.4 846.1,122.4 	"/>
	<polygon class="st6" points="844.3,127.4 873.2,192.9 815.4,192.9 	"/>
	<polygon class="st6" points="906.8,127.4 935.7,192.9 877.9,192.9 	"/>
	<polygon class="st6" points="875,195.8 903.9,261.3 846.1,261.3 	"/>
	<path class="st6" d="M880.9,79.2c2,3.3-5.9,11.1-5.9,11.1s-7.4-7.4-5.9-11.1c2-4.9,5.9,1.2,5.9,1.2S877.9,74.3,880.9,79.2z"/>
	<path class="st6" d="M880.9,108.7c2,3.3-5.9,11.1-5.9,11.1s-7.4-7.4-5.9-11.1c2-4.9,5.9,1.2,5.9,1.2S877.9,103.8,880.9,108.7z"/>
	<path class="st6" d="M866.7,108.7c2,3.3-5.9,11.1-5.9,11.1s-7.4-7.4-5.9-11.1c2-4.9,5.9,1.2,5.9,1.2S863.7,103.8,866.7,108.7z"/>
	<path class="st6" d="M895,108.7c2,3.3-5.9,11.1-5.9,11.1s-7.4-7.4-5.9-11.1c2-4.9,5.9,1.2,5.9,1.2S892.1,103.8,895,108.7z"/>
	<path class="st6" d="M873.8,94.5c2,3.3-5.9,11.1-5.9,11.1s-7.4-7.4-5.9-11.1c2-4.9,5.9,1.2,5.9,1.2S870.8,89.6,873.8,94.5z"/>
	<path class="st6" d="M887.9,94.5c2,3.3-5.9,11.1-5.9,11.1s-7.4-7.4-5.9-11.1c2-4.9,5.9,1.2,5.9,1.2S885,89.6,887.9,94.5z"/>
	<path class="st6" d="M851.7,150.5c-3.7-0.6-6.7-3.6-7.3-7.3c0-0.1-0.2-0.1-0.2,0c-0.6,3.7-3.6,6.7-7.3,7.3c-0.1,0-0.1,0.2,0,0.2
		c3.7,0.6,6.7,3.6,7.3,7.3c0,0.1,0.2,0.1,0.2,0c0.6-3.7,3.6-6.7,7.3-7.3C851.8,150.7,851.8,150.5,851.7,150.5z"/>
	<path class="st6" d="M851.7,183.5c-3.7-0.6-6.7-3.6-7.3-7.3c0-0.1-0.2-0.1-0.2,0c-0.6,3.7-3.6,6.7-7.3,7.3c-0.1,0-0.1,0.2,0,0.2
		c3.7,0.6,6.7,3.6,7.3,7.3c0,0.1,0.2,0.1,0.2,0c0.6-3.7,3.6-6.7,7.3-7.3C851.8,183.7,851.8,183.5,851.7,183.5z"/>
	<path class="st6" d="M836.4,183.5c-3.7-0.6-6.7-3.6-7.3-7.3c0-0.1-0.2-0.1-0.2,0c-0.6,3.7-3.6,6.7-7.3,7.3c-0.1,0-0.1,0.2,0,0.2
		c3.7,0.6,6.7,3.6,7.3,7.3c0,0.1,0.2,0.1,0.2,0c0.6-3.7,3.6-6.7,7.3-7.3C836.5,183.7,836.5,183.5,836.4,183.5z"/>
	<path class="st6" d="M867.1,183.5c-3.7-0.6-6.7-3.6-7.3-7.3c0-0.1-0.2-0.1-0.2,0c-0.6,3.7-3.6,6.7-7.3,7.3c-0.1,0-0.1,0.2,0,0.2
		c3.7,0.6,6.7,3.6,7.3,7.3c0,0.1,0.2,0.1,0.2,0c0.6-3.7,3.6-6.7,7.3-7.3C867.2,183.7,867.2,183.5,867.1,183.5z"/>
	<path class="st6" d="M844.6,167c-3.7-0.6-6.7-3.6-7.3-7.3c0-0.1-0.2-0.1-0.2,0c-0.6,3.7-3.6,6.7-7.3,7.3c-0.1,0-0.1,0.2,0,0.2
		c3.7,0.6,6.7,3.6,7.3,7.3c0,0.1,0.2,0.1,0.2,0c0.6-3.7,3.6-6.7,7.3-7.3C844.8,167.2,844.8,167,844.6,167z"/>
	<path class="st6" d="M860,167c-3.7-0.6-6.7-3.6-7.3-7.3c0-0.1-0.2-0.1-0.2,0c-0.6,3.7-3.6,6.7-7.3,7.3c-0.1,0-0.1,0.2,0,0.2
		c3.7,0.6,6.7,3.6,7.3,7.3c0,0.1,0.2,0.1,0.2,0c0.6-3.7,3.6-6.7,7.3-7.3C860.1,167.2,860.1,167,860,167z"/>
	<path class="st6" d="M914.2,150.5c-3.7-0.6-6.7-3.6-7.3-7.3c0-0.1-0.2-0.1-0.2,0c-0.6,3.7-3.6,6.7-7.3,7.3c-0.1,0-0.1,0.2,0,0.2
		c3.7,0.6,6.7,3.6,7.3,7.3c0,0.1,0.2,0.1,0.2,0c0.6-3.7,3.6-6.7,7.3-7.3C914.4,150.7,914.4,150.5,914.2,150.5z"/>
	<path class="st6" d="M914.2,183.5c-3.7-0.6-6.7-3.6-7.3-7.3c0-0.1-0.2-0.1-0.2,0c-0.6,3.7-3.6,6.7-7.3,7.3c-0.1,0-0.1,0.2,0,0.2
		c3.7,0.6,6.7,3.6,7.3,7.3c0,0.1,0.2,0.1,0.2,0c0.6-3.7,3.6-6.7,7.3-7.3C914.4,183.7,914.4,183.5,914.2,183.5z"/>
	<path class="st6" d="M898.9,183.5c-3.7-0.6-6.7-3.6-7.3-7.3c0-0.1-0.2-0.1-0.2,0c-0.6,3.7-3.6,6.7-7.3,7.3c-0.1,0-0.1,0.2,0,0.2
		c3.7,0.6,6.7,3.6,7.3,7.3c0,0.1,0.2,0.1,0.2,0c0.6-3.7,3.6-6.7,7.3-7.3C899,183.7,899,183.5,898.9,183.5z"/>
	<path class="st6" d="M929.6,183.5c-3.7-0.6-6.7-3.6-7.3-7.3c0-0.1-0.2-0.1-0.2,0c-0.6,3.7-3.6,6.7-7.3,7.3c-0.1,0-0.1,0.2,0,0.2
		c3.7,0.6,6.7,3.6,7.3,7.3c0,0.1,0.2,0.1,0.2,0c0.6-3.7,3.6-6.7,7.3-7.3C929.7,183.7,929.7,183.5,929.6,183.5z"/>
	<path class="st6" d="M907.2,167c-3.7-0.6-6.7-3.6-7.3-7.3c0-0.1-0.2-0.1-0.2,0c-0.6,3.7-3.6,6.7-7.3,7.3c-0.1,0-0.1,0.2,0,0.2
		c3.7,0.6,6.7,3.6,7.3,7.3c0,0.1,0.2,0.1,0.2,0c0.6-3.7,3.6-6.7,7.3-7.3C907.3,167.2,907.3,167,907.2,167z"/>
	<path class="st6" d="M922.5,167c-3.7-0.6-6.7-3.6-7.3-7.3c0-0.1-0.2-0.1-0.2,0c-0.6,3.7-3.6,6.7-7.3,7.3c-0.1,0-0.1,0.2,0,0.2
		c3.7,0.6,6.7,3.6,7.3,7.3c0,0.1,0.2,0.1,0.2,0c0.6-3.7,3.6-6.7,7.3-7.3C922.6,167.2,922.6,167,922.5,167z"/>
	<g>
		<polygon class="st6" points="812.5,195.8 841.4,261.3 783.6,261.3 		"/>
		<circle class="st6" cx="812.5" cy="221.2" r="6.5"/>
		<circle class="st6" cx="803.7" cy="237.1" r="6.5"/>
		<circle class="st6" cx="820.2" cy="237.1" r="6.5"/>
		<circle class="st6" cx="796.6" cy="253.7" r="6.5"/>
		<circle class="st6" cx="813.1" cy="253.7" r="6.5"/>
		<circle class="st6" cx="829.6" cy="253.7" r="6.5"/>
	</g>
	<g>
		<polygon class="st6" points="875,195.8 903.9,261.3 846.1,261.3 		"/>
		<circle class="st6" cx="875" cy="221.2" r="6.5"/>
		<circle class="st6" cx="866.2" cy="237.1" r="6.5"/>
		<circle class="st6" cx="882.7" cy="237.1" r="6.5"/>
		<circle class="st6" cx="859.1" cy="253.7" r="6.5"/>
		<circle class="st6" cx="875.6" cy="253.7" r="6.5"/>
		<circle class="st6" cx="892.2" cy="253.7" r="6.5"/>
	</g>
	<g>
		<polygon class="st6" points="938.7,195.8 967.6,261.3 909.8,261.3 		"/>
		<circle class="st6" cx="938.7" cy="221.2" r="6.5"/>
		<circle class="st6" cx="929.9" cy="237.1" r="6.5"/>
		<circle class="st6" cx="946.4" cy="237.1" r="6.5"/>
		<circle class="st6" cx="922.8" cy="253.7" r="6.5"/>
		<circle class="st6" cx="939.3" cy="253.7" r="6.5"/>
		<circle class="st6" cx="955.9" cy="253.7" r="6.5"/>
	</g>
	<polygon class="st6" points="879,52.3 880.5,58.9 874.8,55.2 869,58.7 870.8,52.1 865.7,47.7 872.4,47.3 875.1,41.1 877.6,47.4 
		884.3,48 	"/>
	<text transform="matrix(1.0301 0 0 1 783.6133 314.7969)" class="st7 st8">Merry Christmas</text>
	<text transform="matrix(1 0 0 1 780.4219 402.8193)" class="st7 st9">TO</text>
	<rect x="781" y="406.7" class="st10" width="188" height="64.2"/>
	<rect x="781" y="479.3" class="st10" width="188" height="202.5"/>
	<g>
		<g>
			<g>
				<path d="M892,635.7c0,2.2-0.1,4.4-0.1,6.7c0,2.1,0.9,3.3,2.6,4.4c2.5,1.7,5.2,3,7.9,4.3c2.8,1.4,5.7,2.7,8.4,4.3
					c1,0.6,2.2,1.3,3,2c0.9,0.7,1.2,1,1.6,1.9c0.4,1,1.9,1.2,2.7,0.7c1-0.6,1.2-1.7,0.7-2.7c-0.9-2-3-3.5-4.8-4.6
					c-2.5-1.6-5.2-2.9-7.9-4.1c-2.7-1.3-5.5-2.6-8.1-4.1c-0.5-0.3-1.1-0.7-1.6-1c-0.7-0.4-0.6-0.3-0.7-0.9c0-2.2,0.1-4.4,0.1-6.7
					C896.1,633.1,892.1,633.1,892,635.7L892,635.7z"/>
			</g>
		</g>
		<g>
			<g>
				<path d="M903.9,648c-0.3-0.2-0.5-0.5-0.7-0.8c-0.1-0.1-0.1-0.1-0.2-0.2c0,0-0.2-0.2-0.1-0.1c0.1,0.1-0.1-0.1-0.1-0.1
					c0-0.1-0.1-0.1-0.1-0.2c-0.4-0.6-0.8-1.3-1.1-1.9c-0.1-0.2,0.1,0.2,0,0c0-0.1-0.1-0.2-0.1-0.2c-0.1-0.2-0.1-0.3-0.2-0.5
					c-0.1-0.4-0.2-0.7-0.3-1.1c-0.1-0.3-0.1-0.7-0.2-1.1c0,0.2,0,0.1,0-0.1c0-0.1,0-0.2,0-0.3c0-0.2,0-0.4,0-0.6
					c0-0.8-0.7-1.5-1.5-1.5c-0.8,0-1.5,0.7-1.5,1.5c0.2,3.4,1.5,6.9,4,9.2c0.6,0.5,1.6,0.6,2.1,0C904.5,649.6,904.5,648.6,903.9,648
					L903.9,648z"/>
			</g>
		</g>
		<g>
			<g>
				<path d="M909.4,650.7c-0.9-2.9-1.6-5.8-2.1-8.7c-0.1-0.8-1.1-1.3-1.8-1c-0.8,0.3-1.2,1-1,1.8c0.5,3,1.2,5.9,2.1,8.7
					c0.2,0.8,1.1,1.3,1.8,1C909.1,652.3,909.6,651.5,909.4,650.7L909.4,650.7z"/>
			</g>
		</g>
		<g>
			<g>
				<path d="M915.9,653.2c2-4.9,1.6-10.7-0.7-15.5c-0.4-0.7-1.4-0.9-2.1-0.5c-0.7,0.4-0.9,1.3-0.5,2.1c2,4.1,2.1,9,0.4,13.2
					c-0.3,0.8,0.3,1.6,1,1.8C914.9,654.5,915.6,654,915.9,653.2L915.9,653.2z"/>
			</g>
		</g>
		<g>
			<g>
				<path d="M906.7,648.6c-4.8-1.8-10.1-1.7-14.9,0.1c-2.7,1-8.4,3.9-10-0.3c-0.4-1-1.3-1.7-2.5-1.4c-1,0.3-1.8,1.4-1.4,2.5
					c1.9,4.9,7.1,6,11.7,4.4c2.5-0.9,4.9-2.1,7.6-2.5c2.8-0.4,5.7,0.1,8.3,1.1C908,653.3,909.1,649.5,906.7,648.6L906.7,648.6z"/>
			</g>
		</g>
		<g>
			<g>
				<path d="M891.4,649.5c-0.4-0.2-0.7-0.5-1.1-0.7c-0.2-0.1-0.3-0.2-0.5-0.3c-0.1-0.1-0.2-0.1-0.2-0.2c-0.1-0.1-0.2-0.1,0,0
					c-0.7-0.5-1.3-1.1-2-1.7c-0.6-0.6-1.2-1.3-1.7-1.9c-0.1-0.1-0.2-0.2,0,0c-0.1-0.1-0.2-0.2-0.2-0.3c-0.1-0.2-0.2-0.3-0.4-0.5
					c-0.3-0.4-0.5-0.8-0.8-1.2c-0.4-0.7-1.4-1-2.1-0.5c-0.7,0.4-1,1.3-0.5,2.1c2,3.2,4.7,6.1,8,8c0.7,0.4,1.7,0.2,2.1-0.5
					C892.3,650.8,892.1,649.9,891.4,649.5L891.4,649.5z"/>
			</g>
		</g>
	</g>
	<g>
		<g>
			<g>
				<path d="M950.5,635.7c0,1.3,0,2.5,0,3.8c0,0.5,0,1,0,1.4c0,0.4,0.2,1.4,0,1.8c-0.2,0.4,0.1-0.1-0.1,0.1
					c-0.2,0.2-0.6,0.4-0.9,0.6c-0.6,0.3-1.2,0.7-1.8,1c-2.8,1.5-5.8,2.8-8.7,4.1c-2.8,1.3-5.7,2.5-8.4,4.1c-1.9,1.1-4.1,2.5-5.1,4.6
					c-1.1,2.3,2.3,4.3,3.5,2c0.3-0.7,0.8-1.2,1.5-1.7c1.1-0.8,2.3-1.5,3.5-2.1c2.9-1.6,6-2.9,9-4.2c2.9-1.3,5.9-2.6,8.6-4.2
					c1.7-1,2.9-2.1,3-4.2c0.1-2.3-0.1-4.7-0.1-7C954.5,633.1,950.5,633.1,950.5,635.7L950.5,635.7z"/>
			</g>
		</g>
		<g>
			<g>
				<path d="M944,650.2c2.7-2.3,4.1-5.8,4.3-9.2c0-0.8-0.7-1.5-1.5-1.5c-0.8,0-1.5,0.7-1.5,1.5c0,0.2,0,0.4,0,0.6c0,0.1,0,0.2,0,0.3
					c0,0.2,0-0.2,0,0c-0.1,0.4-0.1,0.7-0.2,1.1c-0.1,0.4-0.2,0.7-0.3,1.1c-0.1,0.2-0.1,0.4-0.2,0.5c0.1-0.1,0.1-0.1,0,0
					c0,0.1-0.1,0.2-0.1,0.3c-0.3,0.7-0.7,1.3-1.1,1.9c-0.1,0.2,0.1-0.2,0,0c-0.1,0.1-0.1,0.1-0.2,0.2c-0.1,0.1-0.2,0.3-0.4,0.4
					c-0.3,0.3-0.5,0.5-0.8,0.8c-0.6,0.5-0.6,1.6,0,2.1C942.5,650.8,943.3,650.7,944,650.2L944,650.2z"/>
			</g>
		</g>
		<g>
			<g>
				<path d="M938.8,651.5c0.9-2.9,1.7-5.8,2.3-8.7c0.2-0.8-0.2-1.7-1-1.8c-0.7-0.2-1.7,0.2-1.8,1c-0.6,3-1.3,5.9-2.3,8.7
					c-0.2,0.7,0.3,1.7,1,1.8C937.8,652.7,938.6,652.3,938.8,651.5L938.8,651.5z"/>
			</g>
		</g>
		<g>
			<g>
				<path d="M931.6,652.1c-1.7-4-1.5-9,0.6-12.8c0.9-1.7-1.7-3.2-2.6-1.5c-2.6,4.9-2.8,10.8-0.6,15.8c0.3,0.7,1.4,0.9,2.1,0.5
					C931.9,653.7,932,652.8,931.6,652.1L931.6,652.1z"/>
			</g>
		</g>
		<g>
			<g>
				<path d="M939.8,652.4c2.8-1,5.7-1.4,8.7-1.1c3,0.3,5.6,1.5,8.4,2.4c4.9,1.6,10.6,0.9,12.7-4.3c0.4-1-0.4-2.2-1.4-2.5
					c-1.1-0.3-2,0.4-2.5,1.4c-0.6,1.5-2.5,2.2-4,2.3c-2.5,0.1-4.8-1.1-7.1-1.9c-5.2-1.8-10.8-1.9-16-0.1
					C936.4,649.4,937.4,653.3,939.8,652.4L939.8,652.4z"/>
			</g>
		</g>
		<g>
			<g>
				<path d="M956.9,652.1c3.5-1.9,6.4-4.7,8.7-8c0.4-0.7,0.1-1.7-0.5-2.1c-0.8-0.4-1.6-0.2-2.1,0.5c-0.3,0.4-0.5,0.7-0.8,1.1
					c-0.3,0.4,0.2-0.2-0.1,0.1c-0.1,0.1-0.1,0.1-0.2,0.2c-0.1,0.2-0.3,0.3-0.4,0.5c-0.6,0.7-1.2,1.4-1.9,2c-0.3,0.3-0.7,0.6-1,0.9
					c-0.1,0.1-0.2,0.1-0.3,0.2c-0.2,0.2,0.1,0-0.1,0.1c-0.2,0.1-0.4,0.3-0.5,0.4c-0.7,0.5-1.5,1-2.3,1.4c-0.7,0.4-1,1.4-0.5,2.1
					C955.3,652.2,956.2,652.5,956.9,652.1L956.9,652.1z"/>
			</g>
		</g>
	</g>
	<path d="M937.4,677.3c-1.9-13-5.6-19.9-14.4-19.9c-8.8,0-13.4,4.5-15.7,18.3c-0.6,3.8-0.6,5.9-0.6,6.5H938
		C938,681.6,937.9,680.4,937.4,677.3z"/>
	<path d="M914.7,661.6c0,0-5.2-7.3-15.4-5.9c0,0,5.1,9,12,9S914.7,661.6,914.7,661.6z"/>
	<path d="M930.8,661.4c0,0,5.3-7.3,15.6-5.9c0,0-5.1,9-12.1,9C927.4,664.5,930.8,661.4,930.8,661.4z"/>
	<path class="st1" d="M928.3,671.4c2,2.4-5.9,8.3-5.9,8.3s-7.4-5.5-5.9-8.3c2-3.7,5.9,0.9,5.9,0.9S925.4,667.8,928.3,671.4z"/>
</g>
</svg>
